<svg version="1.1" viewBox="0 0 548.4 624.23" xmlns="http://www.w3.org/2000/svg">
 <g transform="translate(656.32 -4.8117)">
  <circle cx="-382.12" cy="279.01" r="274.2" fill="#f4b42b" style="paint-order:stroke fill markers"/>
  <g transform="matrix(6.1248 0 0 6.1248 -573.59 88.23)" fill="none" stroke="#414042" stroke-linecap="round" stroke-linejoin="round" stroke-miterlimit="10">
   <path d="m38.959 44.346s-1.3975 5.2757-7.5817 5.2757c-6.0095 0-7.7564-5.2757-7.7564-5.2757" stroke-width="2.5156"/>
   <path d="m25.471 32.677s-0.5241-2.2012-3.0397-2.2012c-2.5854 0-3.0396 2.2012-3.0396 2.2012" stroke-width="1.7609"/>
   <path d="m43.114 32.677s-0.5241-2.2011-3.0397-2.2011c-2.5855 0-3.0397 2.2011-3.0397 2.2011" stroke-width="1.7609"/>
   <g stroke-width="2.5156">
    <path d="m19.848 12.972c1.677 5.2757 6.5684 13.102 36.371 12.962 0 0-6.0444-35.777-35.987-20.439"/>
    <path d="m20.231 5.4946c-2.2361-0.55902-20.823 2.3409-11.32 23.898 1.9216 4.3324 4.4372 9.5383 4.4372 9.5383s-2.5855-14.814 1.677-22.186c0 0 1.9217 6.9179 4.9264 6.6733 0 0-2.83-7.6865-0.4542-10.447"/>
    <path d="m49.825 26.283c0.035 1.8517 0 3.3192 0 5.3107 0 14.849-7.1624 27.462-18.448 27.462"/>
    <path d="m12.718 26.283c-0.0349 1.8517 0 3.2842 0 5.2757 0 14.849 7.3372 27.497 18.622 27.497"/>
    <path d="m17.26 69.992c-6.254 0.9084-15.198 0.6988-15.198 7.9311l-0.52408 9.119"/>
    <path d="m24.318 57.448s0.1747 5.3806-1.2928 8.9094"/>
    <path d="m45.347 69.817c6.254 0.9434 15.548 0.594 15.548 7.966l0.1049 9.2239"/>
    <path d="m38.712 57.448s-0.2097 5.2758 1.2228 8.7696"/>
    <path d="m31.273 71.599-2.4108 6.1492s-7.8612-0.0349-11.67-7.9311l2.9698-3.7035c0.5591-0.559 1.6422-1.0831 2.0614-0.4542 3.3541 4.7168 9.0492 5.9396 9.0492 5.9396z"/>
    <path d="m31.274 71.529 2.3409 6.1842s7.8612 0.0349 11.739-7.8263l-2.9349-3.7035c-0.524-0.559-1.6071-1.0831-2.0613-0.4891-3.3891 4.6468-9.0841 5.8347-9.0841 5.8347z"/>
   </g>
  </g>
 </g>
</svg>
