<svg width="18" height="12" viewBox="0 0 18 12" fill="none" xmlns="http://www.w3.org/2000/svg">
<path d="M7.87076 10.71L0.676761 2.487C-0.172239 1.5195 0.517761 5.51559e-07 1.80626 5.51559e-07H16.1943C16.4826 -0.000246689 16.765 0.0826318 17.0074 0.238711C17.2499 0.394791 17.4423 0.617455 17.5614 0.88004C17.6806 1.14262 17.7216 1.434 17.6794 1.71927C17.6373 2.00454 17.5138 2.27161 17.3238 2.4885L10.1298 10.7085C9.98897 10.8696 9.81534 10.9987 9.62053 11.0872C9.42571 11.1757 9.21422 11.2215 9.00026 11.2215C8.7863 11.2215 8.57481 11.1757 8.38 11.0872C8.18518 10.9987 8.01155 10.8696 7.87076 10.7085V10.71Z" fill="#597369"/>
</svg>
