<svg width="71" height="77" viewBox="0 0 71 77" fill="none" xmlns="http://www.w3.org/2000/svg">
<path d="M70.4927 49.4403C70.496 42.0593 66.5615 35.2394 60.1729 31.547C60.1961 31.0689 60.2193 30.5907 60.2193 30.1093C60.2227 20.0326 55.1425 10.6358 46.712 5.11761C38.2817 -0.400765 27.6371 -1.29394 18.4027 2.74356C9.16919 6.77774 2.59444 15.1978 0.921643 25.136C-0.755152 35.0708 2.69466 45.1807 10.0923 52.024L7.88756 68.3364C7.8444 68.6418 7.93737 68.9473 8.13991 69.1797C8.34245 69.4121 8.63464 69.545 8.94342 69.5416C9.17252 69.5416 9.39499 69.4653 9.57429 69.3258L23.1879 59.0927C25.5353 59.6737 27.9459 59.9659 30.3631 59.9659C30.9109 59.9659 31.4521 59.9459 31.9901 59.9127C34.2478 63.7576 37.6877 66.7659 41.7948 68.496C45.902 70.226 50.4572 70.5845 54.7837 69.512L64.2136 76.6009C64.3364 76.6972 64.4925 76.7503 64.6518 76.7503C64.8643 76.7503 65.0669 76.6606 65.2063 76.4979C65.3458 76.3386 65.4089 76.1261 65.3823 75.9136L63.8549 64.6145V64.6178C68.0917 60.7098 70.4989 55.2049 70.4923 49.4411L70.4927 49.4403ZM30.36 56.9044H30.3633C28.1918 56.9044 26.0302 56.6421 23.9219 56.1208L22.5107 55.7721L21.3486 56.6453L11.56 64.0065L13.1238 52.4321L13.3363 50.8549L12.1709 49.7758C5.53027 43.6365 2.43925 34.5625 3.94315 25.6469C5.44723 16.7321 11.3474 9.17471 19.6316 5.55201C27.9158 1.92956 37.468 2.73307 45.0356 7.68364C52.6025 12.6342 57.1617 21.0643 57.1617 30.1092C52.1513 28.2066 46.603 28.3195 41.6755 30.4313C36.7515 32.5397 32.8372 36.4776 30.7581 41.415C28.6796 46.3523 28.5999 51.904 30.5323 56.9011C30.4759 56.9011 30.4194 56.9044 30.363 56.9044L30.36 56.9044ZM61.7734 62.3696L60.6113 63.452L60.8238 65.0292L61.6041 70.8132L56.6236 67.0679L55.4615 66.1947L54.0503 66.5433L54.0536 66.54C48.4489 67.9345 42.5191 66.4935 38.1756 62.6885C33.8326 58.8801 31.6313 53.1889 32.2787 47.4514C32.9262 41.7139 36.3427 36.6538 41.423 33.9109C46.5031 31.1683 52.6056 31.0853 57.7592 33.6918C62.9127 36.2982 66.4615 41.262 67.2656 46.9832C68.0658 52.7008 66.0171 58.448 61.7771 62.3699L61.7734 62.3696Z" fill="#414042"/>
</svg>
