<svg version="1.1" viewBox="0 0 548.4 622.25" xmlns="http://www.w3.org/2000/svg">
 <g transform="translate(298.33 206.9)">
  <circle cx="-24.127" cy="67.295" r="274.2" fill="#f4b42b" style="paint-order:stroke fill markers"/>
  <g transform="matrix(6.8293 0 0 6.8293 -222.79 -98.053)" fill="none" stroke="#414042" stroke-linecap="round" stroke-linejoin="round" stroke-miterlimit="10" stroke-width="2.2268">
   <path d="m56 2h-54v72.062h54z"/>
   <path d="m7.3175 23.959 3.4021 4.5154 5.969-10.268"/>
   <path d="m7.3175 41.247 3.4021 4.5464 5.969-10.268"/>
   <path d="m7.3175 58.567 3.4021 4.5464 5.969-10.299"/>
   <path d="m32.711 20.99h16.423"/>
   <path d="m22.537 20.99h6.464"/>
   <path d="m22.537 24.918h26.598"/>
   <path d="m22.537 39.423h26.598"/>
   <path d="m43.198 43.35h5.9382"/>
   <path d="m22.537 43.35h16.082"/>
   <path d="m34.414 55.072h14.722"/>
   <path d="m22.537 55.072h7.5464"/>
   <path d="m45.76 58.876h3.3711"/>
   <path d="m22.537 58.876h19.856"/>
   <path d="m22.537 62.68h26.598"/>
  </g>
 </g>
</svg>
