<svg width="22" height="22" viewBox="0 0 22 22" fill="currentColor" xmlns="http://www.w3.org/2000/svg">
<path d="M19.3898 4.0506C19.3898 6.25104 16.0898 6.25104 16.0898 4.0506C16.0898 1.85016 19.3898 1.85016 19.3898 4.0506Z" fill="white"/>
<path d="M10.81 3.06066C11.7226 3.06195 12.6275 3.2205 13.4861 3.52988C13.5969 2.62882 13.9914 1.78837 14.6114 1.12709C11.577 -0.0446769 8.17248 0.249221 5.38299 1.91985C2.59218 3.59176 0.728343 6.45603 0.330033 9.68376C-0.0695642 12.9116 1.04158 16.1432 3.34128 18.4443C5.63967 20.744 8.87142 21.8565 12.0992 21.4594C15.3269 21.0623 18.1926 19.1996 19.8657 16.4114C21.5389 13.6218 21.8328 10.2173 20.6636 7.1816C20.0036 7.80035 19.1657 8.19351 18.2686 8.30436C19.1464 10.7574 18.761 13.4863 17.2386 15.6003C16.509 14.5846 15.5499 13.757 14.44 13.1821C15.5345 11.7912 15.7394 9.89753 14.966 8.30564C14.1939 6.71494 12.5799 5.70303 10.81 5.70303C9.04002 5.70303 7.42615 6.71494 6.65395 8.30564C5.8805 9.89763 6.08546 11.7911 7.17991 13.1821C6.06616 13.7531 5.10579 14.582 4.37877 15.6003C3.23925 14.0148 2.7262 12.0644 2.93759 10.1243C3.149 8.18298 4.06939 6.38871 5.52215 5.08521C6.97491 3.78197 8.85812 3.0601 10.8097 3.0601L10.81 3.06066ZM8.82997 10.3207C8.82997 9.52014 9.31207 8.79827 10.052 8.49147C10.7919 8.18467 11.644 8.35483 12.2099 8.92073C12.7758 9.48661 12.946 10.3387 12.6392 11.0786C12.3324 11.8186 11.6105 12.3007 10.81 12.3007C9.71685 12.3007 8.82997 11.4138 8.82997 10.3207ZM10.81 14.9407C12.6546 14.9419 14.3651 15.9075 15.3217 17.4853C13.9966 18.4082 12.4213 18.9019 10.806 18.9019C9.19212 18.9019 7.61686 18.4082 6.29161 17.4853C7.24551 15.901 8.96125 14.9342 10.8096 14.9407H10.81Z" />
</svg>
