<svg width="20" height="36" viewBox="0 0 20 36" fill="none" xmlns="http://www.w3.org/2000/svg">
<path d="M9.99995 0C7.94683 0 6.19683 1.14688 5.43755 2.96248C3.77191 3.50312 2.40003 4.8656 2.40003 6.8C2.40003 8.65936 3.52659 10.2844 5.20003 10.9248V14.3998C5.20003 14.5607 5.2469 14.717 5.33753 14.8498C5.24846 15.2232 5.20003 15.606 5.20003 15.9998C5.20003 18.642 7.35783 20.7998 10 20.7998C12.6422 20.7998 14.8 18.642 14.8 15.9998C14.8 15.606 14.7516 15.2232 14.6625 14.8498C14.7531 14.717 14.8 14.5607 14.8 14.3998V10.9248C16.4735 10.2842 17.6 8.65916 17.6 6.8C17.6 4.86564 16.2281 3.50312 14.5625 2.96248C13.8031 1.14684 12.0531 0 10.0001 0H9.99995ZM9.99995 1.6C11.6234 1.6 12.7968 2.4172 13.2375 3.83752C13.3218 4.10471 13.5406 4.30784 13.8125 4.37504C15.1343 4.69066 16 5.48284 16 6.80004C16 8.20472 15.1062 9.3688 13.85 9.61252C13.4719 9.6844 13.1984 10.0156 13.2 10.4V13.6H6.79999V10.4C6.79999 10.0157 6.52811 9.6844 6.14999 9.61252C4.89375 9.36877 3.99999 8.20472 3.99999 6.80004C3.99999 5.48284 4.86563 4.69068 6.18751 4.37504C6.45938 4.30942 6.67815 4.10473 6.76251 3.83752C7.20315 2.4172 8.37659 1.6 10 1.6H9.99995ZM6.89995 15.2H13.0999C13.164 15.4547 13.1999 15.725 13.1999 16C13.1999 17.7766 11.7765 19.2 9.99995 19.2C8.22339 19.2 6.79995 17.7766 6.79995 16C6.79995 15.725 6.83588 15.4547 6.89995 15.2ZM9.99995 21.2C7.55619 21.2 5.24195 21.7156 3.47515 22.65C1.70835 23.5844 0.400146 25.0203 0.400146 26.8V35.2C0.400146 35.6422 0.757958 36 1.20015 36H18.8001C19.2423 36 19.6001 35.6422 19.6001 35.2V26.8C19.6001 25.0203 18.2923 23.5844 16.5251 22.65C14.7579 21.7156 12.4439 21.2 10.0003 21.2H9.99995ZM9.99995 22.8C10.1499 22.8 10.2999 22.8078 10.4499 22.8125L7.83747 25.425C7.68434 25.5765 7.5984 25.7844 7.59997 26V34.4H1.99997V26.8C1.99997 25.8219 2.75465 24.8391 4.22497 24.0625C5.69529 23.2859 7.79061 22.8 10.0002 22.8L9.99995 22.8ZM12.5124 23.0125C13.7546 23.225 14.8812 23.5891 15.7749 24.0625C17.2452 24.8391 17.9999 25.8219 17.9999 26.8V34.4H9.19991V26.3248L12.5124 23.0125ZM11.5999 26C11.1577 26 10.7999 26.3578 10.7999 26.8C10.7999 27.2422 11.1578 27.6 11.5999 27.6C12.0421 27.6 12.3999 27.2422 12.3999 26.8C12.3999 26.3578 12.0421 26 11.5999 26ZM11.5999 28.8C11.1577 28.8 10.7999 29.1578 10.7999 29.6C10.7999 30.0422 11.1578 30.4 11.5999 30.4C12.0421 30.4 12.3999 30.0422 12.3999 29.6C12.3999 29.1578 12.0421 28.8 11.5999 28.8ZM11.5999 31.6C11.1577 31.6 10.7999 31.9578 10.7999 32.4C10.7999 32.8422 11.1578 33.2 11.5999 33.2C12.0421 33.2 12.3999 32.8422 12.3999 32.4C12.3999 31.9578 12.0421 31.6 11.5999 31.6Z" fill="#425E5E"/>
</svg>
