<svg xmlns="http://www.w3.org/2000/svg" width="134" height="134" viewBox="0 0 134 134" fill="none">
  <path d="M121.251 53.0827C116.422 50.8535 110.735 51.6868 106.751 55.2077C101.422 59.8796 94.589 62.4681 87.4998 62.4995H74.1665C72.9894 56.3328 67.6092 51.8588 61.3332 51.8328H29.1665V51.5828C29.1665 44.6817 23.5676 39.0828 16.6665 39.0828C9.76544 39.0828 4.1665 44.6817 4.1665 51.5828V93.2495C4.1665 100.151 9.76544 105.749 16.6665 105.749C23.5676 105.749 29.1665 100.151 29.1665 93.2495V92.9578H88.7918C96.9637 92.9474 104.912 90.3015 111.459 85.4162L123.75 76.2079C127.167 73.6558 129.172 69.6402 129.167 65.3746C129.209 60.0673 126.099 55.2389 121.251 53.0827ZM20.8345 93.2493C20.8345 95.5515 18.97 97.416 16.6678 97.416C14.3657 97.416 12.5012 95.5515 12.5012 93.2493V51.5827C12.5012 49.2805 14.3657 47.416 16.6678 47.416C18.97 47.416 20.8345 49.2805 20.8345 51.5827V93.2493ZM118.752 69.5413L106.46 78.7496C101.356 82.5569 95.1632 84.6193 88.7934 84.6245H29.1681V60.1659H61.3348C62.6889 60.0409 64.0326 60.4888 65.0378 61.4054C66.043 62.3221 66.616 63.6191 66.616 64.9784C66.616 66.3377 66.0431 67.6346 65.0378 68.5513C64.0326 69.468 62.6889 69.9159 61.3348 69.7909H50.543C48.2409 69.7909 46.3764 71.6554 46.3764 73.9576C46.3764 76.2597 48.2409 78.1242 50.543 78.1242H60.793C65.9181 78.1659 70.6368 75.3534 73.043 70.8325H87.5017C96.6944 70.8585 105.58 67.5461 112.502 61.4992C114.023 60.1554 116.194 59.8325 118.043 60.6658C119.897 61.4992 121.085 63.3429 121.085 65.3741C121.012 67.0564 120.148 68.6039 118.752 69.5413Z" fill="#414042"/>
</svg>