<svg width="16" height="16" viewBox="0 0 16 16" fill="none" xmlns="http://www.w3.org/2000/svg">
<path fill-rule="evenodd" clip-rule="evenodd" d="M3.5 1C3.63261 1 3.75979 1.05268 3.85355 1.14645C3.94732 1.24021 4 1.36739 4 1.5V14.5C4 14.6326 3.94732 14.7598 3.85355 14.8536C3.75979 14.9473 3.63261 15 3.5 15C3.36739 15 3.24021 14.9473 3.14645 14.8536C3.05268 14.7598 3 14.6326 3 14.5V1.5C3 1.36739 3.05268 1.24021 3.14645 1.14645C3.24021 1.05268 3.36739 1 3.5 1Z" fill="#DC3545"/>
<path fill-rule="evenodd" clip-rule="evenodd" d="M3.76152 2.558C4.73452 1.909 5.34752 1.5 6.49952 1.5C7.15252 1.5 7.63852 1.825 7.99452 2.062L8.02652 2.084C8.41752 2.344 8.67252 2.5 8.99952 2.5C9.16752 2.5 9.35552 2.458 9.58652 2.374C9.78714 2.29785 9.98493 2.21446 10.1795 2.124C10.2375 2.097 10.2965 2.071 10.3595 2.044C10.9295 1.789 11.6375 1.5 12.4995 1.5C12.6321 1.5 12.7593 1.55268 12.8531 1.64645C12.9468 1.74021 12.9995 1.86739 12.9995 2V8C12.9995 8.13261 12.9468 8.25979 12.8531 8.35355C12.7593 8.44732 12.6321 8.5 12.4995 8.5C11.8615 8.5 11.3195 8.71 10.7655 8.957L10.6065 9.027C10.3865 9.127 10.1535 9.232 9.92852 9.314C9.63212 9.42989 9.31768 9.49285 8.99952 9.5C8.34652 9.5 7.86052 9.175 7.50452 8.938L7.47252 8.916C7.08152 8.656 6.82652 8.5 6.49952 8.5C5.66652 8.5 5.28152 8.746 4.27652 9.416C4.22018 9.44982 4.15773 9.4722 4.09274 9.48188C4.02775 9.49157 3.96149 9.48835 3.89775 9.47243C3.834 9.4565 3.77401 9.42818 3.72121 9.38907C3.66841 9.34996 3.62383 9.30084 3.59002 9.2445C3.5562 9.18816 3.53381 9.12572 3.52413 9.06073C3.51445 8.99574 3.51766 8.92948 3.53359 8.86573C3.54951 8.80198 3.57784 8.742 3.61695 8.6892C3.65605 8.6364 3.70518 8.59181 3.76152 8.558C4.73452 7.909 5.34752 7.5 6.49952 7.5C7.15252 7.5 7.63852 7.825 7.99452 8.062L8.02652 8.084C8.41752 8.344 8.67252 8.5 8.99952 8.5C9.16752 8.5 9.35552 8.458 9.58652 8.374C9.77352 8.306 9.96252 8.221 10.1795 8.124C10.2375 8.097 10.2965 8.071 10.3595 8.044C10.8155 7.84 11.3595 7.614 11.9995 7.532V2.543C11.5665 2.617 11.1695 2.777 10.7655 2.957L10.6065 3.027C10.3865 3.127 10.1535 3.232 9.92852 3.314C9.63212 3.42989 9.31768 3.49285 8.99952 3.5C8.34652 3.5 7.86052 3.175 7.50452 2.938L7.47252 2.916C7.08152 2.656 6.82652 2.5 6.49952 2.5C5.66652 2.5 5.28152 2.746 4.27652 3.416C4.16618 3.48488 4.03335 3.50806 3.90621 3.48061C3.77907 3.45317 3.66763 3.37726 3.59554 3.26899C3.52345 3.16073 3.49639 3.02863 3.5201 2.90074C3.5438 2.77285 3.61641 2.65923 3.72252 2.584L3.76252 2.558H3.76152Z" fill="#DC3545"/>
</svg>
