<svg xmlns="http://www.w3.org/2000/svg" width="24" height="24" viewBox="0 0 24 24" fill="none" aria-label="Suivant">
<path d="M12 24C5.37288 24 0 18.6271 0 12C0 5.37288 5.37288 0 12 0C18.6271 0 24 5.37288 24 12C24 18.6271 18.6271 24 12 24ZM12 21.8185C17.4226 21.8185 21.8184 17.4226 21.8184 12C21.8184 6.57749 17.4226 2.18165 12 2.18165C6.57744 2.18165 2.1816 6.57749 2.1816 12C2.1816 17.4226 6.57744 21.8185 12 21.8185ZM9.0468 8.40749L10.5899 6.8653L15.7247 12.0001L10.5899 17.1349L9.0468 15.5927L12.6394 12.0001L9.0468 8.40749Z" fill="#414042"/>
</svg>