<svg xmlns="http://www.w3.org/2000/svg" width="24" height="24" viewBox="0 0 24 24" fill="none" aria-label="Précédent">
<path d="M12 -2.95642e-06C18.6271 -2.37706e-06 24 5.37288 24 12C24 18.6271 18.6271 24 12 24C5.37288 24 -1.43764e-06 18.6271 -8.58275e-07 12C-2.78914e-07 5.37288 5.37288 -3.53578e-06 12 -2.95642e-06ZM12 2.18155C6.57744 2.18155 2.1816 6.57739 2.1816 11.9999C2.1816 17.4225 6.57744 21.8184 12 21.8184C17.4226 21.8184 21.8184 17.4225 21.8184 12C21.8184 6.57739 17.4226 2.18155 12 2.18155ZM14.9532 15.5925L13.4101 17.1347L8.27527 11.9999L13.4101 6.8651L14.9532 8.40729L11.3606 11.9999L14.9532 15.5925Z" fill="#414042"/>
</svg>