<svg width="30" height="30" viewBox="0 0 30 30" fill="none" xmlns="http://www.w3.org/2000/svg">
<g id="np_hide_2462859_000000 2">
<g id="Group">
<path id="Vector" d="M6.43005 10.541C4.68981 11.6918 3.09135 13.043 1.66875 14.5676C1.44375 14.8102 1.44375 15.1864 1.66875 15.4289C3.12423 17.0039 8.54175 22.3475 15.0011 22.3475C15.9749 22.344 16.944 22.228 17.8909 22.0019L15.5659 19.6769C15.3784 19.6991 15.1897 19.7097 15.0011 19.7097C13.7518 19.7108 12.5542 19.214 11.6705 18.3304C10.7869 17.4479 10.29 16.2491 10.2911 14.9998C10.2911 14.8111 10.3029 14.6224 10.324 14.4361L6.43005 10.541Z" fill="white"/>
<path id="Vector_2" d="M28.3307 15.4289C28.5557 15.1863 28.5557 14.8101 28.3307 14.5675C26.8752 12.9925 21.4577 7.65224 15.0005 7.65224C13.3868 7.66982 11.7884 7.97684 10.2824 8.56043L4.42188 2.69873L2.69922 4.42256L25.5778 27.3012L27.3005 25.5785L22.0763 20.3543C24.4024 19.0441 26.5118 17.3824 28.3307 15.4289ZM17.7263 16.0043C18.1224 14.9402 17.861 13.7425 17.0583 12.9398C16.2556 12.137 15.0579 11.8757 13.9938 12.2718L12.6485 10.9265C13.852 10.2269 15.304 10.098 16.6118 10.5726C17.9208 11.0472 18.9508 12.0784 19.4266 13.3862C19.9012 14.6952 19.7711 16.146 19.0727 17.3495L17.7263 16.0043Z" fill="white"/>
</g>
</g>
</svg>
