<svg width="63" height="89" viewBox="0 0 63 89" fill="none" xmlns="http://www.w3.org/2000/svg">
<path d="M38.9592 44.3465C38.9592 44.3465 37.5617 49.6222 31.3775 49.6222C25.368 49.6222 23.6211 44.3465 23.6211 44.3465" stroke="#414042" stroke-width="2.51559" stroke-miterlimit="10" stroke-linecap="round" stroke-linejoin="round"/>
<path d="M25.4707 32.677C25.4707 32.677 24.9466 30.4758 22.431 30.4758C19.8456 30.4758 19.3914 32.677 19.3914 32.677" stroke="#414042" stroke-width="1.76091" stroke-miterlimit="10" stroke-linecap="round" stroke-linejoin="round"/>
<path d="M43.1139 32.6769C43.1139 32.6769 42.5898 30.4758 40.0742 30.4758C37.4887 30.4758 37.0345 32.6769 37.0345 32.6769" stroke="#414042" stroke-width="1.76091" stroke-miterlimit="10" stroke-linecap="round" stroke-linejoin="round"/>
<path d="M19.8483 12.9715C21.5253 18.2472 26.4167 26.0735 56.2195 25.9338C56.2195 25.9338 50.1751 -9.84351 20.2326 5.4946" stroke="#414042" stroke-width="2.51559" stroke-miterlimit="10" stroke-linecap="round" stroke-linejoin="round"/>
<path d="M20.2311 5.49464C17.995 4.93562 -0.592365 7.83554 8.91097 29.3927C10.8326 33.7251 13.3482 38.931 13.3482 38.931C13.3482 38.931 10.7627 24.117 15.0252 16.7449C15.0252 16.7449 16.9469 23.6628 19.9516 23.4182C19.9516 23.4182 17.1216 15.7317 19.4974 12.9715" stroke="#414042" stroke-width="2.51559" stroke-miterlimit="10" stroke-linecap="round" stroke-linejoin="round"/>
<path d="M49.8248 26.2832C49.8598 28.1349 49.8248 29.6024 49.8248 31.5939C49.8248 46.4428 42.6624 59.0557 31.3772 59.0557" stroke="#414042" stroke-width="2.51559" stroke-miterlimit="10" stroke-linecap="round" stroke-linejoin="round"/>
<path d="M12.718 26.2832C12.6831 28.1349 12.718 29.5674 12.718 31.5589C12.718 46.4079 20.0552 59.0557 31.3404 59.0557" stroke="#414042" stroke-width="2.51559" stroke-miterlimit="10" stroke-linecap="round" stroke-linejoin="round"/>
<path d="M17.2601 69.9915C11.0061 70.8999 2.0618 70.6903 2.0618 77.9226L1.53772 87.0416" stroke="#414042" stroke-width="2.51559" stroke-miterlimit="10" stroke-linecap="round" stroke-linejoin="round"/>
<path d="M24.3178 57.4485C24.3178 57.4485 24.4925 62.8291 23.025 66.3579" stroke="#414042" stroke-width="2.51559" stroke-miterlimit="10" stroke-linecap="round" stroke-linejoin="round"/>
<path d="M45.3474 69.8168C51.6014 70.7602 60.8951 70.4108 60.8951 77.7828L61 87.0067" stroke="#414042" stroke-width="2.51559" stroke-miterlimit="10" stroke-linecap="round" stroke-linejoin="round"/>
<path d="M38.7122 57.4485C38.7122 57.4485 38.5025 62.7243 39.935 66.2181" stroke="#414042" stroke-width="2.51559" stroke-miterlimit="10" stroke-linecap="round" stroke-linejoin="round"/>
<path d="M31.2731 71.5987L28.8623 77.7479C28.8623 77.7479 21.0011 77.713 17.1927 69.8168L20.1625 66.1133C20.7216 65.5543 21.8047 65.0302 22.2239 65.6591C25.578 70.3759 31.2731 71.5987 31.2731 71.5987Z" stroke="#414042" stroke-width="2.51559" stroke-miterlimit="10" stroke-linecap="round" stroke-linejoin="round"/>
<path d="M31.2737 71.5288L33.6146 77.713C33.6146 77.713 41.4758 77.7479 45.354 69.8867L42.4191 66.1832C41.8951 65.6242 40.812 65.1001 40.3578 65.6941C36.9687 70.3409 31.2737 71.5288 31.2737 71.5288Z" stroke="#414042" stroke-width="2.51559" stroke-miterlimit="10" stroke-linecap="round" stroke-linejoin="round"/>
</svg>
