<svg width="16" height="17" viewBox="0 0 16 17" fill="none" xmlns="http://www.w3.org/2000/svg">
<circle cx="7.905" cy="8.20499" r="7.905" fill="white"/>
<path d="M3.83851 9.37486C3.37577 9.37486 3 8.99975 3 8.53635C3 8.07295 3.37577 7.69784 3.83851 7.69784C5.0176 7.69784 5.83686 7.49336 6.34341 7.07245C6.89246 6.61634 7.15869 5.82032 7.15869 4.63924C7.15869 4.1765 7.53446 3.81268 7.99786 3.81268C8.46126 3.81268 8.83637 4.1765 8.83637 4.63924C8.83637 7.82597 7.20118 9.37486 3.83851 9.37486Z" fill="#6A8D75"/>
<path d="M12.16 9.37486C8.7973 9.37486 7.16211 7.82597 7.16211 4.63924C7.16211 4.17584 8.83116 4.17584 8.83116 4.63924C8.83116 5.82032 9.10602 6.61634 9.6544 7.07244C10.161 7.49336 10.9802 7.69784 12.1593 7.69784C12.6227 7.69784 12.9978 8.07361 12.9978 8.53635C12.9991 8.99975 12.6234 9.37486 12.16 9.37486Z" fill="#F5C714"/>
<path d="M7.99786 13.268C7.53446 13.268 7.15935 12.8922 7.15935 12.4295C7.15935 11.2484 6.89246 10.4524 6.34408 9.99626C5.83752 9.57535 5.01826 9.37153 3.83917 9.37153C3.37577 9.37153 3 8.99576 3 8.53236C3 8.06895 3.37577 7.69385 3.83851 7.69385C7.20118 7.69385 8.83637 9.24273 8.83637 12.4295C8.83637 12.8929 8.4606 13.268 7.99786 13.268Z" fill="#8DAECC"/>
<path d="M8.00257 13.2155C7.53917 13.2155 7.16406 12.8929 7.16406 12.4301C7.16406 9.2434 8.79859 7.69452 12.1619 7.69452C12.6253 7.69452 13.0004 8.07029 13.0004 8.53303C13.0004 8.99643 12.6247 9.37154 12.1619 9.37154C10.9828 9.37154 10.1636 9.57602 9.65702 9.99627C9.10863 10.4524 8.84174 11.2484 8.84174 12.4295C8.84108 12.8929 8.46598 13.2155 8.00257 13.2155Z" fill="#B5C6BA"/>
<path d="M7.16211 4.65119C7.16211 5.95842 7.44228 6.98547 7.99863 7.74764C8.55564 6.98547 8.83514 5.95842 8.83514 4.65119C8.83514 4.18845 8.4607 3.81401 7.99863 3.81268C7.53655 3.81401 7.16211 4.18845 7.16211 4.65119Z" fill="#53725E"/>
<path d="M3.91021 7.69586C3.88565 7.69586 3.86374 7.69719 3.83851 7.69719C3.37577 7.69719 3.00133 8.07163 3 8.53371C3.00133 8.99578 3.37577 9.37022 3.83851 9.37022C3.86307 9.37022 3.88565 9.37155 3.91021 9.37155C5.29644 9.36226 6.38325 9.08408 7.1806 8.53304C6.38325 7.984 5.29644 7.70582 3.91021 7.69586Z" fill="#425F5E"/>
<path d="M12.997 8.53438C12.9957 8.0723 12.6212 7.69786 12.1585 7.69786C12.1339 7.69786 12.1114 7.69653 12.0868 7.69653C10.7006 7.70583 9.61375 7.984 8.81641 8.53504C9.61309 9.08542 10.7006 9.36426 12.0868 9.37355C12.1114 9.37355 12.1333 9.37222 12.1585 9.37222C12.6212 9.37156 12.9963 8.99712 12.997 8.53438Z" fill="#C6B25C"/>
<path d="M8.8371 12.4208C8.8371 11.1136 8.55693 10.0866 8.00058 9.3244C7.44357 10.0866 7.16406 11.1136 7.16406 12.4208C7.16406 12.8836 7.5385 13.258 8.00058 13.2594C8.46266 13.258 8.8371 12.8836 8.8371 12.4208Z" fill="#6A8693"/>
</svg>
