<svg version="1.1" viewBox="0 0 15.81 15.81" xmlns="http://www.w3.org/2000/svg">
 <circle cx="7.905" cy="7.905" r="7.905" fill="#fff"/>
 <g clip-rule="evenodd" fill-rule="evenodd" stroke-width=".38718">
  <path d="m4.8047 7.4147c0.24338 0 0.44034 0.19696 0.44034 0.44034l-6.3e-4 -0.001277v0.060245c0.00125 0.30548 0.05959 0.59839 0.15682 0.87127 0.0621 0.17876 0.14365 0.34939 0.24275 0.50748 0.05206 0.086535 0.10915 0.16935 0.17313 0.24776 0.03325 0.044526 0.06963 0.087813 0.1079 0.12986 0.06397 0.072751 0.13298 0.14175 0.20574 0.20575 0.04328 0.04077 0.08719 0.077785 0.13361 0.11228 0.07841 0.063962 0.16121 0.12103 0.24777 0.17311 0.15743 0.098498 0.32555 0.18004 0.50368 0.24214 0.17877 0.063613 0.36639 0.10868 0.56061 0.13257 0.00317 3.49e-4 0.00638 6.59e-4 0.0096 0.001007 0.00224 3.09e-4 0.00449 6.58e-4 0.00674 9.68e-4 0.10109 0.011809 0.20392 0.017888 0.30815 0.017888h0.0019c0.30986 0 0.60656-0.052695 0.88319-0.15119 0.27536-0.095982 0.53005-0.23711 0.75523-0.41587 0.04453-0.033258 0.08782-0.069614 0.12987-0.10791 0.07399-0.065859 0.14364-0.13547 0.20949-0.2095 0.02448-0.025709 0.04705-0.052076 0.069-0.079643 0.07779-0.093465 0.14992-0.19258 0.21265-0.29797 0.03186-0.050799 0.0619-0.10287 0.09005-0.15611 0.01533-0.029349 0.03008-0.058968 0.04425-0.088781 0.01484-0.030703 0.02904-0.061639 0.0426-0.092807 0.02392-0.055638 0.04588-0.11228 0.06585-0.16978 0.04503-0.1273 0.08066-0.25887 0.10598-0.39403 0.01042-0.056876 0.01893-0.11406 0.02551-0.17148 0.00198-0.013434 0.00372-0.026947 0.0053-0.040537 0.00953-0.091065 0.01441-0.18348 0.01441-0.27714v-0.001859c0-0.026871-4.3e-4 -0.053624-0.00124-0.080301-7e-4 -0.021488-0.00167-0.043016-0.00294-0.064543-4e-5 -0.002749-1.6e-4 -0.005497-2.3e-4 -0.008246-0.00794-0.13826-0.02661-0.2737-0.05506-0.40542-0.00395-0.017578-0.00814-0.035078-0.01254-0.052501-0.00764-0.033182-0.01592-0.066247-0.02494-0.099119-0.01654-0.0592-0.03504-0.11755-0.05548-0.17497-0.02285-0.064427-0.04805-0.12762-0.07554-0.18952-0.01011-0.022417-0.02049-0.044718-0.03125-0.066904-0.01556-0.032601-0.03182-0.064969-0.04882-0.097066-0.02773-0.051998-0.05719-0.10291-0.08843-0.1527-0.03261-0.053547-0.06745-0.1062-0.10415-0.15743-0.05014-0.06944-0.10404-0.137-0.16177-0.2024-0.00557-0.006149-0.01123-0.012289-0.01696-0.01843-0.00937-0.010647-0.01885-0.02121-0.02841-0.031687-0.02246-0.024214-0.0455-0.048115-0.06908-0.071683l-0.00132-0.001332c-0.03166-0.031656-0.06392-0.062331-0.09675-0.092032-0.00341-0.003017-0.00678-0.006021-0.01018-0.009014-0.00295-0.002672-0.00585-0.005331-0.00879-0.007975-0.03539-0.031397-0.0714-0.061678-0.10803-0.090841-0.00534-0.004104-0.01076-0.008173-0.01618-0.012212-0.0225-0.017821-0.04527-0.035271-0.06834-0.052338-0.13524-0.099025-0.27776-0.18355-0.42536-0.25365-0.17121-0.081614-0.34865-0.14371-0.53051-0.1854-0.11708-0.028388-0.23772-0.048789-0.35706-0.059878-0.03592-0.003992-0.0727-0.00621-0.11041-0.007542-0.09673-0.006211-0.19429-0.006211-0.29097 0-0.05855 0.002664-0.11535 0.007097-0.17257 0.015526-0.28384 0.032821-0.56285 0.1131-0.82411 0.23952-0.26479 0.12641-0.51229 0.29851-0.73141 0.51762l-0.00132 0.001332-0.62585-0.62585 0.00132-0.001331c0.21557-0.21556 0.45198-0.39786 0.70303-0.54601 0.2586-0.15302 0.53269-0.27012 0.81436-0.35129 0.01619-0.005183 0.03241-0.009419 0.04895-0.013744 0.00611-0.001599 0.01227-0.00321 0.01847-0.004883 0.22623-0.060322 0.45729-0.098026 0.69018-0.11266 0.04391-0.003105 0.08781-0.005324 0.13215-0.005324 0.00565-1.43e-4 0.01134-3.37e-4 0.01703-5.3e-4 0.01185-3.99e-4 0.02381-8.02e-4 0.03577-8.02e-4 0.01317-3.29e-4 0.02634-5.42e-4 0.03946-6.42e-4v-0.001742h0.0019c0.30486 0 0.6009 0.038264 0.88319 0.11103 0.26491 0.067947 0.51789 0.16603 0.75466 0.29 0.05362 0.027791 0.10732 0.056923 0.15975 0.088373 0.06121 0.035485 0.11975 0.073631 0.17829 0.11266 0.00422 0.002884 0.00856 0.005877 0.01286 0.008871 0.00433 0.002996 0.00867 0.005989 0.01289 0.008874 6.6e-4 6.62e-4 0.00155 0.001107 0.00243 0.001552 9e-4 4.42e-4 0.00179 8.87e-4 0.00245 0.001549 0.0031 0.002144 0.00615 0.004266 0.00921 0.006385 0.01979 0.013659 0.03899 0.026924 0.0582 0.04152 0.01107 0.008426 0.02242 0.016855 0.03372 0.025284 0.0113 0.008424 0.02261 0.016853 0.03368 0.025282 0.00778 0.005545 0.0151 0.011089 0.02242 0.016633 0.00732 0.005545 0.01464 0.011089 0.02238 0.016633 0.04039 0.03149 0.08073 0.064757 0.12111 0.099797 0.00894 0.008362 0.01824 0.01635 0.02768 0.02445 0.00508 0.00436 0.01023 0.00875 0.01533 0.013253 0.01236 0.010964 0.02463 0.022057 0.03698 0.03327 0.01115 0.010102 0.02242 0.0203 0.03399 0.030599 0.00887 0.008596 0.01786 0.017187 0.02688 0.025813 0.01842 0.01764 0.03701 0.035412 0.05517 0.053586l0.00713 0.007093c0.02481 0.024842 0.04967 0.050566 0.0736 0.076294 0.00975 0.011089 0.01986 0.022286 0.02996 0.033487 0.01007 0.011198 0.02017 0.022399 0.02993 0.033487 0.0182 0.019073 0.03504 0.038591 0.05099 0.058991 0.00237 0.002629 0.00473 0.005208 0.00709 0.007767 0.00484 0.005226 0.0096 0.010384 0.01379 0.015743 0.00325 0.004185 0.00661 0.008247 0.01006 0.012381 0.00309 0.003753 0.00627 0.007562 0.00944 0.01157l0.03993 0.047905c0.00879 0.011299 0.01738 0.022597 0.02597 0.033945 0.00969 0.012702 0.01941 0.025464 0.02947 0.038353 0.02218 0.029275 0.04391 0.058991 0.06474 0.089598 0.01819 0.025283 0.03593 0.05012 0.0537 0.075844 0.02393 0.036372 0.04565 0.071412 0.06784 0.10778 0.01951 0.030161 0.03859 0.061654 0.05633 0.093588 0.02574 0.045243 0.05103 0.090044 0.07453 0.13573 4.3e-4 4.45e-4 5.4e-4 9.98e-4 6.6e-4 0.001552 1.1e-4 5.54e-4 2.3e-4 0.001112 6.5e-4 0.001552 0.0096 0.019185 0.01921 0.038773 0.02866 0.058093 0.00453 0.009254 0.00902 0.018469 0.01347 0.027528 0.0041 0.008789 0.00817 0.017501 0.01224 0.026136 0.0127 0.027063 0.02512 0.053624 0.03659 0.081191 0.0053 0.014209 0.01107 0.027064 0.01772 0.041699 0.00469 0.009719 0.00875 0.019669 0.01274 0.029542 0.00167 0.004065 0.00333 0.008131 5e-3 0.012158 2.7e-4 5.03e-4 5.5e-4 9.67e-4 7.7e-4 0.001393 6.3e-4 0.001007 0.00113 0.001898 0.00143 0.003485 0.01201 0.028806 0.02351 0.057186 0.03416 0.085606 0.00492 0.013087 0.00952 0.026095 0.01412 0.039027 0.00585 0.016378 0.01162 0.03264 0.01782 0.048785 0.02292 0.062104 0.04193 0.12576 0.05924 0.18949 0.00286 0.009834 0.00565 0.019708 0.0084 0.02958 7.8e-4 0.002362 0.00158 0.004762 0.00243 0.007124 0.00225 0.00666 0.00446 0.01421 0.00667 0.023541 0.00398 0.013745 0.00797 0.02838 0.01111 0.043015 0 0-3.5e-4 -3.48e-4 -8.1e-4 -3.87e-4 0.01661 0.06404 0.03008 0.12816 0.04301 0.19278 9.4e-4 0.005034 0.00186 0.010183 0.00279 0.015371 9.7e-4 0.005189 0.0019 0.010338 0.00283 0.015371 0 5.81e-4 1.5e-4 0.0012 3e-4 0.001782 1.2e-4 3.48e-4 2.4e-4 6.96e-4 3.5e-4 0.001045 3.2e-4 9.29e-4 6.2e-4 0.001897 6.2e-4 0.002826 2e-4 0.001084 3.9e-4 0.002169 5.8e-4 0.003252 0.00155 0.00635 0.00264 0.012932 0.00376 0.019553 8.9e-4 0.005304 0.00174 0.010609 0.00286 0.015874 0 5.04e-4 4e-5 0.001046 8e-5 0.001549 5.4e-4 0.003059 0.00105 0.006156 0.00159 0.009215 1.5e-4 9.29e-4 3.1e-4 0.00182 4.7e-4 0.002749 9.6e-4 0.005963 0.00193 0.011925 0.00282 0.017926 0.00116 0.00697 0.00233 0.013939 0.00348 0.020908 0.00213 0.012506 0.00423 0.02505 0.0062 0.037672 1.5e-4 3.88e-4 2.7e-4 6.59e-4 3.5e-4 9.3e-4 3.1e-4 7.36e-4 5.4e-4 0.001316 5.4e-4 0.002633 5.4e-4 0.003794 9.7e-4 0.007627 0.00136 0.01146 5.8e-4 0.005537 0.00115 0.011151 0.0022 0.01692 0.00322 0.022341 0.00592 0.044216 0.00864 0.066092 0.00178 0.014597 0.0036 0.029193 0.00557 0.043906 4.3e-4 0.003097 7.8e-4 0.006543 0.00108 0.009989 3.5e-4 0.003446 6.7e-4 0.006892 0.00113 0.009989 0 0.005305 4.2e-4 0.010183 0.00132 0.016417 3.5e-4 0.003059 6.5e-4 0.006156 1e-3 0.009214 0.00152 0.013939 0.00306 0.028071 0.00345 0.042203 7e-5 0.00182 1.5e-4 0.003678 1.9e-4 0.005576 3.1e-4 0.008712 6.3e-4 0.018003 0.00248 0.026367 0 0.010647 8.5e-4 0.021294 0.0022 0.032406 0 0.005305 4.3e-4 0.011074 9e-4 0.015953 0.00488 0.075848 0.00665 0.15212 0.00577 0.22933 0 0.036356-4.7e-4 0.073177-0.00267 0.11-4.3e-4 0.02083-0.00178 0.04166-0.0031 0.062491v3.9e-5c-4.3e-4 0.006465-8.5e-4 0.012854-0.00124 0.019281-0.00128 0.020017-0.00251 0.039957-0.00453 0.060129-0.00221 0.029697-0.00445 0.058542-0.00709 0.087812-2.3e-4 0.002478-4.6e-4 0.004685-6.9e-4 0.006931-2e-4 0.002207-4.3e-4 0.004414-6.6e-4 0.006815-0.00263 0.023036-0.00573 0.046577-0.00883 0.069691-0.00105 0.008016-0.00213 0.015991-0.00314 0.02389-0.00111 0.009563-0.00232 0.018739-0.00356 0.027954-0.0012 0.009215-0.00244 0.018391-0.00352 0.027954 0 0.001317-3.5e-4 0.002749-7e-4 0.004221-3e-4 0.001432-6.5e-4 0.002865-6.5e-4 0.004181-0.00531 0.034614-0.01108 0.069654-0.01731 0.10338-4.3e-4 0.001742-7.8e-4 0.003871-0.00108 0.005962-3.5e-4 0.002129-6.7e-4 0.004221-0.00113 0.006001-0.00139 0.008596-0.0031 0.017191-0.00487 0.025864-8.2e-4 0.004181-0.00167 0.008363-0.00249 0.012583-5e-4 0.002827-0.00104 0.005653-0.00155 0.00848-0.0012 0.005885-0.00243 0.011731-0.00368 0.017538-0.00727 0.03504-0.01529 0.069305-0.02334 0.10361v3.8e-5c-6.6e-4 0.002866-0.00135 0.00573-0.00202 0.008596-0.00286 0.011925-0.00557 0.023385-0.00773 0.034846l-0.00442 0.016882c-0.00178 0.006659-0.00333 0.013086-0.00488 0.019514-0.00155 0.006426-0.00314 0.012853-0.00488 0.019513-0.00267 0.007976-0.00488 0.015526-0.00713 0.024818-0.00402 0.014597-0.00847 0.02962-0.01308 0.044487-0.00848 0.029891-0.01726 0.059587-0.02668 0.089052 0 6.19e-4 -3.5e-4 0.001084-6.5e-4 0.001549-3.2e-4 4.64e-4 -6.2e-4 9.29e-4 -6.2e-4 0.001548-0.00678 0.020365-0.01383 0.040964-0.0208 0.06129-0.00337 0.009796-0.00669 0.019476-0.00994 0.029039-0.00333 0.009137-0.00659 0.018159-0.00984 0.027142-0.00948 0.02625-0.01882 0.051998-0.02927 0.077707-0.00975 0.026599-0.02041 0.052346-0.03148 0.078481-0.00163 0.00391-0.00321 0.00786-0.00488 0.01177-7e-5 3.1e-4 -1.5e-4 6.2e-4 -2.3e-4 9.3e-4 -3.1e-4 0.001122-5.8e-4 0.002129-0.00143 0.003446-0.01193 0.028883-0.02385 0.057108-0.0364 0.084714-0.0058 0.0127-0.01172 0.025167-0.01761 0.037557-0.00748 0.015719-0.01491 0.031322-0.02192 0.047119-0.02946 0.063963-0.06334 0.12607-0.09846 0.18693-0.00379 0.006892-0.00817 0.014403-0.01192 0.022573-0.00314 0.006272-0.0069 0.013164-0.01192 0.021333-0.0069 0.012545-0.01445 0.025709-0.02258 0.038254 0 0 0-7.37e-4 -5.8e-4 -0.001085-0.00945 0.015759-0.01905 0.031439-0.02889 0.047236-0.00104 0.001666-0.00213 0.003368-0.00317 0.005072-1.1e-4 8.52e-4 -6.2e-4 0.001433-0.00147 0.002324-6.6e-4 0.001045-0.00131 0.002052-0.00194 0.003097-0.00426 0.007317-0.00874 0.014441-0.01339 0.021488-8.2e-4 0.001317-0.00163 0.002633-0.00244 0.00395-0.01491 0.023928-0.02977 0.047893-0.04546 0.07186-0.01018 0.014791-0.0204 0.02931-0.0307 0.043751-0.0036 0.006118-0.00782 0.012042-0.01208 0.018005-0.00313 0.004374-0.00627 0.008749-0.00918 0.013241-0.00217 0.002207-0.00372 0.004607-0.00527 0.00693-0.00108 0.001743-0.0022 0.003407-0.00352 0.004995-0.0075 0.010376-0.0149 0.020714-0.02226 0.03109-0.0074 0.010338-0.01475 0.020676-0.02226 0.031014-1.6e-4 3.48e-4 -3.1e-4 6.2e-4 -4.3e-4 8.9e-4 -3.1e-4 7.35e-4 -5.4e-4 0.001317-0.00146 0.002246-0.00229 0.003097-0.00473 0.00604-0.00713 0.00906-0.00353 0.004336-0.00709 0.008711-0.01041 0.013513-0.01356 0.018081-0.02711 0.035465-0.04066 0.05285-0.00902 0.011576-0.01809 0.023191-0.02711 0.035001-0.0019 0.002478-0.00406 0.005149-0.00627 0.007821-0.0022 0.002671-0.00441 0.005343-0.00627 0.007859-0.00375 0.003756-0.00689 0.007512-0.01068 0.012545-0.00194 0.002401-0.00387 0.004801-0.00582 0.00724-0.00874 0.01088-0.01765 0.021992-0.02741 0.032253-0.00123 0.001355-0.00251 0.002709-0.00379 0.004103-0.00593 0.00635-0.01228 0.013165-0.01692 0.020366-0.00751 0.00755-0.0144 0.015681-0.02133 0.02447-0.00376 0.003756-0.00752 0.008169-0.01065 0.011925-0.05017 0.057071-0.10287 0.11228-0.15809 0.16622-0.0257 0.025708-0.05203 0.051456-0.07964 0.075886-0.01506 0.014443-0.0307 0.028226-0.04639 0.042009l-3e-5 4e-5c-0.00488 0.004258-0.00968 0.008479-0.01452 0.012737-0.01506 0.013281-0.03001 0.026484-0.04573 0.039338-0.02257 0.019437-0.04452 0.038254-0.06709 0.057071-0.0019 0.001548-0.0036 0.002981-0.00535 0.004375-0.0017 0.001432-0.00345 0.002826-0.0053 0.004413-0.0182 0.014442-0.03706 0.028845-0.05557 0.043055-0.00642 0.004917-0.01281 0.009795-0.01908 0.014635-0.00755 0.005963-0.01491 0.011616-0.0223 0.017268-0.00736 0.005653-0.01472 0.011267-0.02227 0.01723-9.2e-4 9.68e-4 -0.00217 0.001742-0.00344 0.002517-0.00124 7.74e-4 -0.00251 0.001587-0.0034503 0.002516-0.02822 0.020675-0.05706 0.04139-0.08529 0.060826-0.00159 9.68e-4 -0.0033 0.002207-0.00503 0.003446-0.00171 0.001278-0.00345 0.002517-5e-3 0.003485-0.00709 0.005072-0.01437 0.009911-0.02176 0.014829-0.00442 0.002942-0.0089 0.005924-0.0134 0.008983-0.01049 0.007085-0.02098 0.013977-0.03151 0.020791-0.01615 0.010725-0.03249 0.021256-0.0491 0.031517-0.00422 0.002903-0.0082 0.00511-0.0125 0.00751-5.9e-4 3.1e-4 -0.0012 6.59e-4 -0.00182 0.001007-0.00345 0.002129-0.00693 0.004298-0.01038 0.006427-0.00856 0.00546-0.01719 0.010842-0.02598 0.016107-0.00527 0.00333-0.01042 0.00666-0.01549 0.010106l-0.01505 0.008789c-0.00593 0.003446-0.01159 0.006892-0.01724 0.010337-0.00565 0.003446-0.0113 0.006931-0.01727 0.010377-0.00751 0.003755-0.0144 0.007511-0.02257 0.012544-0.01881 0.010648-0.03887 0.021295-0.05835 0.031362-0.00979 0.005536-0.01986 0.010763-0.03023 0.016145-0.00852 0.004491-0.017 0.008982-0.02552 0.013435l-0.01022 0.005188c-0.01417 0.007164-0.02838 0.014326-0.04263 0.021411-0.01974 0.010106-0.04003 0.020056-0.06037 0.029349-1e-3 4.64e-4 -0.00205 9.68e-4 -0.00309 0.001432-0.01521 0.007589-0.03047 0.014636-0.0458 0.021527-0.01456 0.006737-0.02923 0.013204-0.04395 0.019592-0.02036 0.009292-0.04077 0.017849-0.06152 0.02629-0.0582 0.024315-0.11677 0.047119-0.17597 0.068608-0.03149 0.011073-0.06431 0.022611-0.09711 0.033259-0.00623 0.00178-0.012 0.003097-0.01688 0.005303-0.00797 0.00244-0.01599 0.004918-0.02396 0.007396-0.02405 0.007395-0.0481 0.01479-0.0714 0.021449-0.00902 0.00244-0.01793 0.004995-0.02676 0.007551-0.01366 0.003949-0.02718 0.00786-0.04065 0.011073-0.0235 0.00666-0.04658 0.012855-0.07008 0.018623-0.07941 0.019979-0.15878 0.036395-0.23862 0.049676-8.9e-4 -8.91e-4 -0.00356-8.91e-4 -0.00356-8.91e-4l-8.9e-4 8.91e-4 -0.09358 0.014634c-0.09405 0.015101-0.18984 0.025749-0.28609 0.030627-0.05989 0.003988-0.11976 0.007085-0.18008 0.006195-0.02617 0.001355-0.05281 0.001355-0.07852 4.64e-4 -0.06253-4.64e-4 -0.12463-0.002246-0.1863-0.007124-4.3e-4 4.65e-4 -0.00175 0-0.00175 0-0.12819-0.007511-0.25639-0.023037-0.38323-0.044332-0.07763-0.013745-0.15658-0.029735-0.23289-0.049249-0.02528-0.005769-0.05099-0.011964-0.07674-0.018159-0.01309-0.003601-0.0264-0.007782-0.03988-0.012002-0.00662-0.002092-0.01328-0.004143-0.01998-0.006195-0.28566-0.080728-0.56153-0.19959-0.82145-0.35396-0.14359-0.084715-0.28177-0.18085-0.41393-0.28814-0.04363-0.034537-0.08636-0.070506-0.12785-0.10798-0.04516-0.039531-0.0897-0.079682-0.13172-0.12297-0.01944-0.017538-0.03826-0.036355-0.05583-0.055172-0.04391-0.044565-0.08656-0.08971-0.12671-0.13675-6.3e-4 0-0.00125-0.001239-0.00125-0.001239-0.08531-0.095982-0.16497-0.19762-0.23962-0.30235-0.04517-0.06462-0.0897-0.13176-0.12984-0.19948-0.01379-0.021953-0.02758-0.044487-0.04136-0.067059l-5e-5 -7.8e-5c-0.00674-0.01177-0.01319-0.02416-0.01975-0.036704-0.0032-0.006118-0.00643-0.012313-0.00972-0.018508-0.14491-0.25906-0.25594-0.53818-0.33058-0.83112-0.07151-0.27726-0.10789-0.56706-0.10789-0.86628v-0.05769c0-0.24404 0.19508-0.44661 0.43847-0.44661z" fill="#34a49a"/>
  <path d="m9.6717 2.9169c0.00454 0.001727 0.0091 0.00345 0.01379 0.005018l-0.00185-0.003136 0.20194 0.080916c0.0088 0.004391 0.0182 0.008154 0.02761 0.011918v4e-6c0.06273 0.025717 0.12421 0.052064 0.18507 0.079662 0.00217 9.41e-4 0.00438 0.002041 0.00658 0.003136 0.00217 0.0011 0.00438 0.002196 0.00659 0.003136 0.9547 0.43972 1.7401 1.1492 2.2782 2.0154 0.12796 0.20763 0.06339 0.47924-0.14364 0.6072-0.20575 0.12734-0.47484 0.063982-0.60404-0.13988-0.31617-0.50997-0.73518-0.95534-1.2364-1.3028-0.00125-6.27e-4 -0.00252-0.001881-0.00376-0.002509-0.05897-0.041401-0.11979-0.08092-0.18128-0.11918-0.00441-0.003136-0.0094-0.006273-0.01382-0.008782-0.05831-0.035756-0.1179-0.070257-0.17814-0.1035-0.00318-0.001712-0.00636-0.003516-0.00956-0.005344-0.00504-0.002861-0.01015-0.005776-0.01553-0.00846-0.05707-0.030734-0.1148-0.060845-0.17311-0.08907-0.00627-0.003136-0.01255-0.006114-0.01882-0.009095-0.00627-0.002977-0.01254-0.005959-0.01882-0.009095-0.05458-0.026348-0.11042-0.051437-0.16687-0.075275-0.00848-0.003451-0.01692-0.007059-0.0254-0.010663-0.00847-0.003609-0.01692-0.007214-0.02539-0.010663-0.05332-0.021953-0.10663-0.042029-0.16123-0.062101l-0.0621-0.022583c-0.05142-0.01819-0.10411-0.035125-0.15681-0.051433-0.01192-0.00345-0.02401-0.007059-0.03605-0.010663-0.01207-0.003609-0.02415-0.007217-0.03608-0.010667-0.05079-0.014427-0.10287-0.028226-0.15495-0.041401-0.02571-0.006272-0.05142-0.012545-0.07778-0.018817-0.01158-0.002509-0.02289-0.005332-0.03419-0.008154-0.01127-0.002823-0.02257-0.005645-0.03419-0.008154-0.2183-0.04642-0.43658-0.07653-0.65297-0.089702-0.00438-6.27e-4 -0.00817-6.27e-4 -0.01255-6.27e-4 -0.02258-0.001255-0.04515-0.001882-0.06776-0.002509-0.00759-2.52e-4 -0.01522-7.12e-4 -0.0228-0.001169-0.01116-6.75e-4 -0.02219-0.00134-0.03303-0.00134h-0.03384l-0.00178-1.05e-4c-0.01003-5.89e-4 -0.01951-0.001149-0.02896-0.001149h-0.13613c-0.01379 6.27e-4 -0.02823 0.001254-0.04201 0.001254h-0.02951c-0.0178 4.14e-4 -0.03534 0.001378-0.053 0.002346-0.00906 4.96e-4 -0.01812 9.91e-4 -0.0273 0.001417-0.01881 6.28e-4 -0.03698 0.001255-0.05579 0.002509-0.00503 3.13e-4 -0.01007 7.86e-4 -0.01506 0.001255-0.00504 4.72e-4 -0.01007 9.4e-4 -0.01506 0.001254-0.00787 6.28e-4 -0.01569 0.0011-0.02354 0.001568-0.00782 4.72e-4 -0.01569 9.41e-4 -0.02351 0.001568-0.0055 3.26e-4 -0.01084 9.8e-4 -0.01607 0.001626-0.00495 6.08e-4 -0.00979 0.001208-0.01467 0.001511-0.00437 6.27e-4 -0.00879 0.001254-0.01316 0.001254-0.01572 0.001637-0.03164 0.003105-0.04759 0.00458-0.01464 0.001348-0.02931 0.002703-0.04402 0.004205-0.01204 0.001126-0.02408 0.002935-0.03612 0.004739-0.00802 0.001204-0.01607 0.002408-0.02409 0.003415-0.02946 0.003763-0.05958 0.008154-0.08909 0.012544-0.04952 0.007527-0.09908 0.015681-0.14863 0.024462-0.02699 0.005018-0.05332 0.01004-0.07969 0.015685-0.05269 0.010663-0.10539 0.022581-0.15804 0.035125-0.01162 0.002822-0.02308 0.005804-0.03454 0.008785-0.01142 0.002978-0.02288 0.005959-0.0345 0.008781-0.05645 0.014427-0.11162 0.02948-0.16745 0.046415-0.01944 0.005646-0.03891 0.011922-0.05835 0.018194-0.05835 0.018817-0.11667 0.038262-0.17501 0.059591-0.01568 0.005645-0.03199 0.011917-0.0483 0.01819-0.06084 0.023207-0.12169 0.047674-0.18191 0.07339-0.00689 0.003136-0.01364 0.006117-0.02038 0.009094-0.00675 0.002982-0.01348 0.005963-0.02039 0.009099-0.06209 0.026971-0.12357 0.055828-0.18504 0.086562-0.01193 0.005646-0.02447 0.011918-0.03639 0.018193-0.06147 0.031362-0.12294 0.06461-0.18379 0.099107-0.00282 0.001568-0.00564 0.002982-0.00846 0.004391-0.00283 0.001413-0.00566 0.002822-0.00848 0.004391-0.00752 0.00439-0.01442 0.008781-0.02132 0.013167l-1e-5 8e-6c-0.01279 0.007527-0.02559 0.014853-0.03839 0.022182-0.01918 0.010988-0.03838 0.021976-0.05758 0.033646-0.01191 0.007527-0.02368 0.015367-0.03544 0.023207s-0.02352 0.015681-0.03544 0.023208c-0.00501 0.003763-0.01003 0.0069-0.01505 0.010036v3e-6c-0.05834 0.038261-0.11605 0.077154-0.17251 0.11793-7.3e-4 4.92e-4 -0.00147 8.91e-4 -0.00218 0.001267-0.00109 5.8e-4 -0.00207 0.001107-0.00283 0.00187-0.00377 0.003136-0.0069 0.005645-0.01066 0.008154-0.00831 0.005959-0.01666 0.011879-0.02502 0.017799-0.02505 0.01776-0.0501 0.03552-0.0741 0.054337-0.13925 0.10726-0.27035 0.22206-0.39392 0.34249-0.00213-0.002079-0.00426-0.004158-0.0064-0.006234-0.54962 0.53481-0.96697 1.22-1.18 2.0149-0.13962 0.52107-0.17948 1.0455-0.13156 1.5525 0.00163 0.020597 0.00387 0.041312 0.0061 0.062026 0.00195 0.015797 0.00385 0.03171 0.00575 0.047662 0.0019 0.015913 0.0038 0.031865 0.00574 0.047661 0.00677 0.049869 0.01414 0.099893 0.02273 0.15023 0.00138 0.00817 0.00288 0.016533 0.00437 0.024896 0.0015 0.008363 3e-3 0.016726 0.00437 0.024857 0.01129 0.062142 0.02333 0.12382 0.03721 0.18596 2.7e-4 0.001393 6e-4 0.002594 9.2e-4 0.003832 3.2e-4 0.001201 6.4e-4 0.00244 9.2e-4 0.003795 0.07935 0.34858 0.20257 0.69332 0.37241 1.0265 0.22769 0.44657 0.52114 0.83747 0.86253 1.1672l0.00742-0.007318c0.27801 0.27234 0.59194 0.50825 0.93407 0.6999 0.30731 0.16835 0.63333 0.29944 0.97044 0.3909 0.02869 0.007705 0.05595 0.018042 0.08162 0.030704 0.35102 0.090135 0.71896 0.13807 1.0982 0.13807 0.53946 0 1.0563-0.097221 1.5337-0.27474 0.01943-0.006892 0.03887-0.014403 0.05831-0.021915l3e-5 -3.8e-5c0.01475-0.005962 0.0297-0.011925 0.04465-0.017927 0.01486-0.005923 0.02973-0.011886 0.04441-0.01781 0.04642-0.019475 0.09284-0.039531 0.13927-0.060864 0.0075-0.003446 0.01517-0.007047 0.02284-0.010648 0.0077-0.003601 0.01541-0.007202 0.02296-0.010686 0.05707-0.026948 0.11352-0.054554 0.16997-0.084057 0.00128-6.19e-4 0.00236-0.001239 0.00344-0.001858 0.00113-6.2e-4 0.00222-0.001278 0.00345-0.001897 0.31617-0.16684 0.61724-0.3751 0.89512-0.62537 0.96226-0.8669 1.4522-2.0618 1.4559-3.2625 0-0.24338 0.19757-0.441 0.44099-0.441 0.24338 0 0.44096 0.19762 0.44096 0.441l6.3e-4 0.001239c-0.00315 1.1692-0.39141 2.3335-1.1542 3.2875l0.00113 3.87e-4c0.00131 4.65e-4 0.0024 8.9e-4 0.0039 8.9e-4 -0.40773 0.50744-0.90704 0.93837-1.4729 1.2677-4.6e-4 2.32e-4 -8.8e-4 5.8e-4 -0.00123 9.29e-4 -3.2e-4 2.33e-4 -5.9e-4 4.65e-4 -9e-4 6.58e-4 -2.7e-4 1.94e-4 -6.2e-4 3.1e-4 -1e-3 3.1e-4 -0.07147 0.04139-0.14489 0.08216-0.21891 0.12041-0.00679 0.003794-0.01379 0.007318-0.02091 0.010918-0.00469 0.002362-0.00945 0.004763-0.01422 0.00728-0.0621 0.031981-0.12482 0.062723-0.18882 0.092226-0.01254 0.005614-0.02494 0.011112-0.03729 0.01661-0.01239 0.005498-0.02478 0.010957-0.03732 0.01661-0.04267 0.018817-0.08595 0.037634-0.12924 0.055212-0.05142 0.021333-0.10349 0.041389-0.15557 0.060826-0.02694 0.010066-0.05393 0.020094-0.08092 0.029503-0.67996 0.24276-1.3976 0.34184-2.107 0.29794 6.2e-4 -0.001859 0.00125-0.003756 0.00125-0.005615-0.78834-0.049675-1.5298-0.27215-2.1871-0.62994-0.67982-0.36306-1.2856-0.87696-1.7616-1.5237l-6.6e-4 9.67e-4c-8e-4 0.001123-0.00146 0.002092-0.00184 0.003524-0.38465-0.52517-0.67167-1.119-0.84333-1.7507-1.1e-4 -5.42e-4 -3.4e-4 -0.001007-5.6e-4 -0.001471-3.4e-4 -6.97e-4 -6.4e-4 -0.001317-4.5e-4 -0.002052-0.02148-0.079798-0.04186-0.16122-0.05967-0.24261-0.00188-0.00755-0.00349-0.015216-0.00512-0.022999v-3.9e-5c-0.00108-0.005149-0.00217-0.010376-0.00336-0.015603-0.01483-0.06826-0.02828-0.13683-0.0402-0.20625-0.0022-0.013591-0.0043-0.026987-0.0064-0.040345-0.00209-0.013396-0.00418-0.026793-0.0064-0.040383-0.00713-0.046074-0.0141-0.09273-0.01986-0.13908-0.0073-0.055212-0.01321-0.11069-0.01852-0.16602-0.0027-0.028651-0.00542-0.057303-0.00753-0.085799-0.05849-0.71961 0.0315-1.4384 0.25753-2.1123 0.00166 0.001092 0.00332 0.002184 0.00513 0.002672 0.42971-1.2765 1.3095-2.2915 2.412-2.9137 3.1e-4 9.07e-4 5.9e-4 0.001816 8.9e-4 0.002722 0.57335-0.3236 1.2078-0.54144 1.8724-0.63374 0.00659-9.42e-4 0.01301-0.001883 0.01944-0.002824 0.00642-9.41e-4 0.01286-0.001881 0.01944-0.002822 0.01568-0.001882 0.03136-0.003607 0.04704-0.005331 0.01568-0.001726 0.0314-0.003451 0.04708-0.005333 0.00953-0.001085 0.01901-0.002245 0.02845-0.003402 0.01786-0.002187 0.03566-0.004366 0.05371-0.006007 0.0508-0.005018 0.1016-0.008782 0.15243-0.012545 0.00821-6.09e-4 0.01631-0.00107 0.02428-0.001527 0.00848-4.85e-4 0.01688-9.64e-4 0.02528-0.00161l0.07023-0.003763c0.03264-0.001882 0.06525-0.003137 0.09789-0.003764h0.01189c0.06713-0.001255 0.13489-6.28e-4 0.20199 0 0.03011 0 0.0602 0.001058 0.09032 0.002117 0.01003 3.53e-4 0.0201 7.06e-4 0.03013 0.001019 0.01401 6.28e-4 0.02799 0.001185 0.042 0.001743 0.02804 0.001115 0.05603 0.00223 0.08406 0.003903 0.03825 0.002509 0.07655 0.005645 0.1148 0.008781 0.0439 0.003764 0.0872 0.007528 0.13048 0.011919 0.02517 0.00256 0.05003 0.0057 0.07484 0.008828 0.01165 0.001471 0.02327 0.00294 0.03492 0.004345 0.04453 0.005645 0.08909 0.011291 0.13362 0.018191l4e-5 4e-6c0.03511 0.005644 0.07023 0.011289 0.10535 0.01756 0.00596 0.001081 0.01196 0.002162 0.01797 0.003244 0.03929 0.007083 0.07894 0.014229 0.11813 0.021846 0.03326 0.006273 0.06713 0.0138 0.10035 0.021327 0.04642 0.010037 0.09285 0.020701 0.13865 0.031992 0.03198 0.008154 0.06334 0.016309 0.09533 0.025091 0.04708 0.012545 0.09412 0.025718 0.14116 0.039517 0.01506 0.004708 0.02997 0.009414 0.04487 0.01412 0.01487 0.004703 0.02978 0.009406 0.0448 0.014108 0.01359 0.004468 0.02722 0.008886 0.04088 0.013311 0.03427 0.0111 0.06869 0.022251 0.10276 0.034363 0.00473 0.001567 0.00926 0.003291 0.01382 0.005017z" fill="#f15b4e"/>
  <path d="m6.4443 8.7696c0.03658 0.065008 0.07801 0.12758 0.123 0.18708 0.13384 0.17791 0.30184 0.32879 0.49331 0.44046 0.24725 0.14782 0.53531 0.23064 0.84196 0.23064h0.00181l-7e-5 -0.083669 6.6e-4 0.083669h0.00178c0.30665 0 0.59412-0.083437 0.84196-0.23064 0.19324-0.11286 0.3619-0.2644 0.4957-0.44475 0.04503-0.05951 0.08643-0.12146 0.12182-0.18709 0.14464-0.25275 0.22564-0.54716 0.22564-0.86062v-0.001859c0-0.31408-0.0834-0.60915-0.22804-0.86248h0.00181c-0.03662-0.065008-0.07802-0.12758-0.12301-0.18709-0.13384-0.17791-0.30188-0.32879-0.49331-0.44046-0.24725-0.14784-0.5353-0.23065-0.84195-0.23065h-0.00182l-7.4e-4 0.10334 1.6e-4 -0.10334h-0.00179c-0.30668 0-0.59412 0.083426-0.84199 0.23066-0.19325 0.11286-0.36187 0.26437-0.49567 0.44472-0.04503 0.059509-0.08642 0.12146-0.12185 0.18712-0.14462 0.25271-0.22563 0.54716-0.22563 0.86062v0.001859c0 0.31408 0.08341 0.60911 0.22803 0.86248zm1.4552-1.725c-0.46396 0.001355-0.83948 0.38606-0.83948 0.86062v0.001859c0.0012 0.47418 0.37808 0.85818 0.84199 0.85818h0.00597c0.46508 0 0.84196-0.38524 0.84196-0.86062v-0.001859c-0.0012-0.47418-0.37808-0.85818-0.84196-0.85818z" fill="#f4b42b"/>
 </g>
</svg>
