<svg width="82" height="82" viewBox="0 0 82 82" fill="none" xmlns="http://www.w3.org/2000/svg">
<path d="M41 0C18.379 0 0 18.379 0 41C0 63.621 18.379 82 41 82C63.621 82 82 63.621 82 41C82 18.379 63.621 0 41 0ZM41 4C61.457 4 78 20.543 78 41C78 61.457 61.457 78 41 78C20.543 78 4 61.457 4 41C4 20.543 20.543 4 41 4ZM30.375 22C28.0625 22.0508 26.0586 23.9102 26 26.5625V55.4065C26.0781 58.9456 29.6133 61.0901 32.7188 59.4065L57.7188 44.9375C59.0782 44.1484 60 42.6953 60 41C60 39.3047 59.0781 37.8516 57.7188 37.0625L32.7188 22.5935C31.9415 22.1716 31.1446 21.9841 30.375 21.9998V22Z" fill="#f4b42b"/>
</svg>
