<svg xmlns="http://www.w3.org/2000/svg" width="134" height="134" viewBox="0 0 134 134" fill="none">
<path d="M60.0678 104.197L69.6252 113.755L69.7866 113.927C71.1615 115.557 71.1303 118.145 69.6252 119.651C68.1981 121.083 65.6773 121.239 64.0782 119.963C63.9168 119.833 63.8803 119.796 63.7293 119.651L47.0519 102.973C46.2394 102.114 45.8019 100.989 45.8332 99.7909C45.9217 98.7753 46.3436 97.8221 47.0519 97.0773L63.7293 80.4C65.7345 78.5041 69.4271 79.0823 70.5314 81.7489C71.0991 83.1135 70.8647 84.7802 69.9376 85.9468C69.8074 86.1083 69.771 86.1447 69.6251 86.2958L60.0626 95.8583C67.8595 95.8687 75.0213 95.8791 83.4319 95.8531C88.5674 95.801 93.4789 92.3583 95.1767 87.4208C95.6247 86.1083 95.8538 84.723 95.859 83.3427V33.316C95.8903 33.0087 95.8903 32.691 95.9632 32.3889C96.5153 29.9671 99.458 28.4149 101.833 29.5608C102.963 30.1025 103.812 31.1701 104.093 32.3889C104.161 32.691 104.166 33.0035 104.198 33.316V83.352C104.177 90.1332 100.645 96.8214 95.0204 100.612C91.6038 102.925 87.4892 104.175 83.359 104.185H60.0616L60.0678 104.197ZM73.297 37.4893C65.4949 37.4789 58.333 37.4685 49.9277 37.4945C43.5422 37.5518 37.7506 42.9529 37.5058 49.5361C37.4954 49.6924 37.4954 49.8486 37.4954 50.0049V100.026C37.4589 100.339 37.4589 100.651 37.3912 100.953C36.8392 103.36 33.912 104.938 31.5163 103.781C30.3861 103.24 29.5423 102.172 29.2611 100.953C29.1882 100.651 29.1882 100.339 29.1569 100.026C29.1569 83.3075 29.1049 66.5889 29.1569 49.8702C29.2246 42.641 33.2507 35.6302 39.5215 31.9849C42.6829 30.1411 46.3288 29.1671 49.9955 29.1619H73.2875L63.7301 19.6046L63.5739 19.4327C62.8656 18.5942 62.4853 17.5473 62.5218 16.4223C62.5374 16.214 62.5374 16.1619 62.5739 15.9536C62.9645 13.6515 65.5687 11.99 67.8395 12.6515C68.5166 12.8442 69.1207 13.2244 69.6312 13.7035L86.3086 30.3809C86.4492 30.5319 86.4856 30.5632 86.6158 30.7246C87.7825 32.1882 87.8033 34.4382 86.6158 35.9225C86.4856 36.0839 86.4492 36.1204 86.3086 36.2714L69.6312 52.9488C67.6312 54.8394 63.9386 54.2665 62.8291 51.5946C62.2666 50.2301 62.4958 48.5634 63.4228 47.402C63.5582 47.2405 63.5947 47.2041 63.7353 47.053L73.3031 37.4905L73.297 37.4893Z" fill="#414042"/>
</svg>