
<svg width="51" height="51" viewBox="0 0 51 51" fill="none" xmlns="http://www.w3.org/2000/svg">
<g clip-path="url(#clip0_663_4321)">
<mask id="mask0_663_4321" style="mask-type:alpha" maskUnits="userSpaceOnUse" x="0" y="0" width="51" height="51">
<circle cx="25.5" cy="25.5" r="25.5" fill="#C4C4C4"/>
</mask>
<g mask="url(#mask0_663_4321)">
<circle cx="25.5" cy="25.5" r="25.5" fill="#D4D4D4"/>
<path d="M27.3413 7.44703C33.6112 8.44133 37.8677 14.2198 36.8495 20.3514C35.8331 26.4829 29.9263 30.6475 23.6587 29.653C17.3888 28.6587 13.1323 22.8802 14.1505 16.7487C15.1669 10.615 21.0737 6.45091 27.3413 7.44703Z" fill="#F5F5F6"/>
<path d="M47.9999 54.7894C47.9975 56.0082 47.0207 56.9952 45.8197 57H5.18017C3.97919 56.9952 3.00236 56.0082 3 54.7894C3 46.647 7.28956 39.1244 14.25 35.0542C21.2102 30.9819 29.7898 30.9819 36.75 35.0542C43.7102 39.124 47.9999 46.647 47.9999 54.7894Z" fill="#F5F5F6"/>
<path fill-rule="evenodd" clip-rule="evenodd" d="M19.9294 17.6225C20.3651 17.6225 20.7177 17.9751 20.7177 18.4108L20.7166 18.4085V18.5163C20.7188 19.0632 20.8233 19.5876 20.9973 20.076C21.1085 20.396 21.2545 20.7015 21.4319 20.9844C21.5251 21.1394 21.6273 21.2876 21.7418 21.428C21.8013 21.5077 21.8664 21.5852 21.9349 21.6604C22.0495 21.7907 22.173 21.9142 22.3033 22.0287C22.3807 22.1017 22.4593 22.168 22.5424 22.2297C22.6828 22.3443 22.831 22.4465 22.986 22.5397C23.2678 22.716 23.5688 22.8619 23.8877 22.9731C24.2076 23.087 24.5435 23.1676 24.8912 23.2104C24.8969 23.211 24.9026 23.2116 24.9083 23.2122C24.9124 23.2128 24.9164 23.2134 24.9204 23.214C25.1014 23.2351 25.2855 23.246 25.4721 23.246H25.4754C26.0302 23.246 26.5613 23.1516 27.0565 22.9753C27.5494 22.8035 28.0053 22.5509 28.4085 22.2309C28.4882 22.1714 28.5657 22.1062 28.6409 22.0377C28.7734 21.9198 28.898 21.7952 29.0159 21.6627C29.0597 21.6166 29.1002 21.5695 29.1395 21.5201C29.2787 21.3528 29.4078 21.1753 29.5201 20.9867C29.5771 20.8958 29.6309 20.8025 29.6813 20.7072C29.7088 20.6547 29.7352 20.6017 29.7605 20.5483C29.7871 20.4934 29.8125 20.438 29.8368 20.3822C29.8796 20.2826 29.9189 20.1812 29.9547 20.0783C30.0353 19.8503 30.0991 19.6148 30.1444 19.3729C30.163 19.2711 30.1783 19.1687 30.1901 19.0659C30.1936 19.0418 30.1967 19.0176 30.1996 18.9933C30.2166 18.8303 30.2253 18.6649 30.2253 18.4972V18.4939C30.2253 18.4458 30.2246 18.3979 30.2232 18.3501C30.2219 18.3116 30.2201 18.2731 30.2179 18.2346C30.2178 18.2296 30.2176 18.2247 30.2175 18.2198C30.2032 17.9723 30.1699 17.7299 30.1189 17.4941C30.1118 17.4627 30.1043 17.4313 30.0964 17.4001C30.0828 17.3407 30.0679 17.2815 30.0518 17.2226C30.0222 17.1167 29.989 17.0122 29.9524 16.9094C29.9116 16.7941 29.8665 16.681 29.8172 16.5702C29.7992 16.5301 29.7805 16.4901 29.7613 16.4504C29.7334 16.392 29.7043 16.3341 29.6739 16.2767C29.6243 16.1836 29.5715 16.0924 29.5156 16.0033C29.4572 15.9074 29.3948 15.8132 29.3292 15.7215C29.2394 15.5972 29.1429 15.4762 29.0396 15.3591C29.0296 15.3481 29.0195 15.3371 29.0092 15.3262C28.9925 15.3071 28.9755 15.2882 28.9584 15.2694C28.9181 15.2261 28.8769 15.1833 28.8347 15.1411L28.8323 15.1387C28.7757 15.0821 28.7179 15.0271 28.6591 14.974C28.6531 14.9686 28.647 14.9632 28.6409 14.9578C28.6357 14.9531 28.6304 14.9483 28.6252 14.9436C28.5619 14.8874 28.4974 14.8332 28.4318 14.7809C28.4222 14.7736 28.4126 14.7663 28.4028 14.7591C28.3626 14.7272 28.3218 14.6959 28.2805 14.6654C28.0384 14.4881 27.7833 14.3368 27.519 14.2113C27.2126 14.0652 26.8949 13.9541 26.5694 13.8794C26.3598 13.8286 26.1438 13.7921 25.9302 13.7722C25.8659 13.7651 25.8 13.7611 25.7325 13.7587C25.5594 13.7476 25.3847 13.7476 25.2116 13.7587C25.1068 13.7635 25.0052 13.7714 24.9028 13.7865C24.3946 13.8453 23.8952 13.989 23.4275 14.2153C22.9535 14.4416 22.5104 14.7497 22.1182 15.1419L22.1158 15.1443L20.9955 14.0239L20.9978 14.0216C21.3837 13.6357 21.8069 13.3093 22.2563 13.0441C22.7192 12.7702 23.2099 12.5606 23.7141 12.4153C23.7431 12.406 23.7721 12.3984 23.8017 12.3907C23.8127 12.3878 23.8237 12.3849 23.8348 12.3819C24.2398 12.2739 24.6535 12.2064 25.0703 12.1802C25.1489 12.1747 25.2275 12.1707 25.3069 12.1707C25.317 12.1705 25.3272 12.1701 25.3374 12.1698C25.3586 12.1691 25.38 12.1683 25.4014 12.1683C25.425 12.1677 25.4485 12.1674 25.4721 12.1672V12.1641H25.4754C26.0212 12.1641 26.5512 12.2326 27.0565 12.3628C27.5307 12.4844 27.9836 12.66 28.4074 12.882C28.5034 12.9317 28.5995 12.9839 28.6934 13.0402C28.803 13.1037 28.9078 13.172 29.0126 13.2418C29.0201 13.247 29.0279 13.2524 29.0356 13.2577C29.0433 13.2631 29.0511 13.2684 29.0586 13.2736C29.0598 13.2748 29.0614 13.2756 29.063 13.2764C29.0646 13.2772 29.0662 13.278 29.0674 13.2792C29.0729 13.283 29.0784 13.2868 29.0839 13.2906C29.1193 13.315 29.1537 13.3388 29.1881 13.3649C29.2079 13.38 29.2281 13.3951 29.2484 13.4102C29.2686 13.4252 29.2889 13.4403 29.3087 13.4554C29.3226 13.4653 29.3357 13.4753 29.3488 13.4852C29.3619 13.4951 29.375 13.505 29.3889 13.515C29.4612 13.5713 29.5334 13.6309 29.6057 13.6936C29.6217 13.7086 29.6384 13.7229 29.6553 13.7374C29.6644 13.7452 29.6735 13.7531 29.6827 13.7611C29.7049 13.7807 29.7268 13.8006 29.7489 13.8207C29.7689 13.8388 29.7891 13.857 29.8098 13.8755C29.8257 13.8908 29.8417 13.9062 29.8579 13.9217C29.8909 13.9532 29.9241 13.9851 29.9567 14.0176L29.9694 14.0303C30.0138 14.0748 30.0583 14.1208 30.1012 14.1669C30.1186 14.1867 30.1367 14.2068 30.1548 14.2268C30.1728 14.2469 30.1909 14.2669 30.2084 14.2868C30.2409 14.3209 30.2711 14.3558 30.2997 14.3924C30.3038 14.3971 30.3081 14.4017 30.3123 14.4063C30.321 14.4156 30.3295 14.4248 30.337 14.4344C30.3428 14.4419 30.3489 14.4492 30.355 14.4566C30.3606 14.4633 30.3663 14.4701 30.3719 14.4773L30.4434 14.5631C30.4591 14.5833 30.4745 14.6035 30.4899 14.6238C30.5072 14.6466 30.5246 14.6694 30.5426 14.6925C30.5823 14.7449 30.6212 14.7981 30.6586 14.8529C30.6911 14.8981 30.7229 14.9426 30.7546 14.9887C30.7975 15.0538 30.8364 15.1165 30.8761 15.1816C30.9111 15.2356 30.9452 15.292 30.977 15.3491C31.023 15.4301 31.0683 15.5103 31.1103 15.5921C31.1111 15.5929 31.1113 15.5939 31.1115 15.5949C31.1117 15.5959 31.1119 15.5969 31.1127 15.5977C31.1299 15.632 31.1471 15.6671 31.164 15.7016C31.1721 15.7182 31.1802 15.7347 31.1882 15.7509C31.1955 15.7667 31.2028 15.7823 31.21 15.7977C31.2328 15.8462 31.255 15.8937 31.2755 15.9431C31.285 15.9685 31.2954 15.9915 31.3073 16.0177C31.3157 16.0351 31.3229 16.0529 31.3301 16.0706C31.3331 16.0779 31.336 16.0851 31.339 16.0923C31.3395 16.0933 31.34 16.0941 31.3404 16.0949C31.3415 16.0967 31.3424 16.0983 31.343 16.1011C31.3644 16.1527 31.3851 16.2035 31.4041 16.2543C31.4129 16.2778 31.4212 16.301 31.4294 16.3242C31.4398 16.3535 31.4502 16.3827 31.4613 16.4115C31.5023 16.5227 31.5363 16.6366 31.5673 16.7507C31.5724 16.7683 31.5775 16.786 31.5824 16.8037C31.5837 16.8079 31.5852 16.8122 31.5868 16.8165C31.5907 16.8284 31.5947 16.8419 31.5987 16.8586C31.6058 16.8832 31.613 16.9094 31.6185 16.9356C31.6185 16.9356 31.6179 16.935 31.6171 16.9349C31.6468 17.0495 31.6709 17.1643 31.6941 17.28C31.6957 17.289 31.6974 17.2982 31.6991 17.3075C31.7008 17.3168 31.7025 17.326 31.7042 17.335C31.7042 17.3361 31.7044 17.3371 31.7047 17.3382C31.7049 17.3388 31.7051 17.3394 31.7053 17.3401C31.7059 17.3418 31.7064 17.3434 31.7064 17.3451C31.7068 17.3471 31.7071 17.349 31.7075 17.351C31.7102 17.3623 31.7122 17.3741 31.7142 17.386C31.7158 17.3954 31.7173 17.405 31.7194 17.4144C31.7194 17.4153 31.7194 17.4162 31.7194 17.4172C31.7204 17.4227 31.7214 17.4282 31.7223 17.4337C31.7226 17.4353 31.7229 17.4369 31.7231 17.4386C31.7249 17.4492 31.7266 17.4599 31.7282 17.4706C31.7303 17.4831 31.7323 17.4956 31.7344 17.5081C31.7382 17.5305 31.742 17.5529 31.7456 17.5755C31.7458 17.5762 31.746 17.5767 31.7462 17.5772C31.7467 17.5785 31.7471 17.5796 31.7471 17.5819C31.7481 17.5887 31.7488 17.5955 31.7495 17.6024C31.7506 17.6123 31.7516 17.6224 31.7535 17.6327C31.7592 17.6727 31.7641 17.7119 31.7689 17.751C31.7722 17.7771 31.7754 17.8033 31.7789 17.8296C31.7797 17.8352 31.7803 17.8413 31.7809 17.8475C31.7815 17.8536 31.7821 17.8598 31.7829 17.8654C31.7829 17.8749 31.7837 17.8836 31.7853 17.8947C31.7858 17.9002 31.7864 17.9058 31.787 17.9113C31.7898 17.9362 31.7925 17.9615 31.7932 17.9868C31.7933 17.9901 31.7935 17.9934 31.7936 17.9968C31.7941 18.0124 31.7947 18.029 31.798 18.044C31.798 18.0631 31.7995 18.0821 31.8019 18.102C31.8019 18.1115 31.8027 18.1218 31.8035 18.1306C31.8123 18.2663 31.8154 18.4029 31.8138 18.5411C31.8138 18.6062 31.813 18.6721 31.8091 18.738C31.8083 18.7753 31.8059 18.8126 31.8035 18.8499L31.8035 18.8499C31.8028 18.8615 31.802 18.873 31.8013 18.8844C31.799 18.9203 31.7968 18.956 31.7932 18.9921C31.7892 19.0453 31.7853 19.0969 31.7805 19.1493C31.7801 19.1537 31.7797 19.1577 31.7793 19.1617C31.7789 19.1656 31.7785 19.1696 31.7781 19.1739C31.7734 19.2151 31.7678 19.2573 31.7623 19.2986C31.7604 19.313 31.7585 19.3273 31.7567 19.3414C31.7547 19.3585 31.7525 19.375 31.7503 19.3914C31.7481 19.4079 31.746 19.4244 31.744 19.4415C31.744 19.4438 31.7434 19.4464 31.7428 19.449C31.7422 19.4516 31.7416 19.4542 31.7416 19.4566C31.7321 19.5185 31.7217 19.5812 31.7106 19.6416C31.7098 19.6447 31.7092 19.6485 31.7086 19.6523C31.708 19.6561 31.7074 19.6598 31.7067 19.663C31.7042 19.6784 31.7011 19.6938 31.6979 19.7093C31.6964 19.7168 31.6949 19.7243 31.6935 19.7318C31.6926 19.7369 31.6916 19.7419 31.6907 19.747C31.6885 19.7576 31.6863 19.768 31.6841 19.7784C31.6711 19.8411 31.6567 19.9025 31.6423 19.9639L31.6423 19.9639C31.6411 19.9691 31.6399 19.9742 31.6387 19.9793C31.6336 20.0007 31.6287 20.0212 31.6249 20.0417L31.6169 20.0719C31.6138 20.0838 31.611 20.0953 31.6082 20.1068C31.6054 20.1184 31.6026 20.1299 31.5995 20.1418C31.5947 20.1561 31.5907 20.1696 31.5868 20.1862C31.5795 20.2124 31.5715 20.2393 31.5633 20.2658C31.5481 20.3194 31.5324 20.3725 31.5155 20.4252C31.5155 20.4264 31.515 20.4272 31.5144 20.428C31.5138 20.4289 31.5133 20.4297 31.5133 20.4309C31.5011 20.4673 31.4885 20.5042 31.476 20.5406C31.47 20.5581 31.4641 20.5754 31.4583 20.5926C31.4523 20.6089 31.4464 20.6251 31.4406 20.6411C31.4236 20.6881 31.407 20.7342 31.3882 20.7802C31.3708 20.8279 31.3517 20.8739 31.3319 20.9207C31.329 20.9277 31.3261 20.9347 31.3232 20.9418C31.323 20.9423 31.3229 20.9429 31.3227 20.9434C31.3222 20.9455 31.3217 20.9473 31.3201 20.9496C31.2988 21.0013 31.2775 21.0518 31.255 21.1012C31.2446 21.124 31.234 21.1463 31.2235 21.1685C31.2101 21.1967 31.1968 21.2246 31.1843 21.2528C31.1315 21.3674 31.0709 21.4785 31.008 21.5874C31.0012 21.5998 30.9934 21.6133 30.9866 21.6279C30.981 21.6391 30.9743 21.6514 30.9653 21.666C30.953 21.6885 30.9395 21.7121 30.9249 21.7345C30.9249 21.7345 30.9249 21.7332 30.9238 21.7326C30.907 21.7608 30.8898 21.7889 30.8721 21.8171C30.8702 21.8202 30.8683 21.8232 30.8664 21.8262C30.8662 21.8278 30.8654 21.8288 30.8638 21.8304C30.8627 21.8323 30.8615 21.8341 30.8604 21.8359C30.8528 21.849 30.8447 21.8618 30.8364 21.8744C30.8349 21.8768 30.8335 21.8791 30.832 21.8815C30.8054 21.9243 30.7787 21.9672 30.7507 22.0101C30.7324 22.0366 30.7141 22.0626 30.6957 22.0885C30.6892 22.0994 30.6817 22.11 30.6741 22.1207C30.6685 22.1285 30.6628 22.1363 30.6576 22.1444C30.6537 22.1483 30.651 22.1526 30.6482 22.1568C30.6462 22.1599 30.6443 22.1629 30.6419 22.1657C30.6284 22.1843 30.6152 22.2028 30.602 22.2213C30.5888 22.2399 30.5756 22.2584 30.5622 22.2769C30.5619 22.2775 30.5617 22.278 30.5615 22.2785C30.5609 22.2798 30.5605 22.2809 30.5588 22.2825C30.5547 22.288 30.5504 22.2933 30.546 22.2987C30.5397 22.3065 30.5333 22.3143 30.5274 22.3229C30.5031 22.3553 30.4789 22.3864 30.4546 22.4175C30.4384 22.4383 30.4223 22.459 30.4061 22.4801C30.4027 22.4846 30.3988 22.4894 30.3949 22.4942C30.3909 22.499 30.387 22.5037 30.3836 22.5082C30.3769 22.515 30.3713 22.5217 30.3646 22.5307C30.3611 22.535 30.3576 22.5393 30.3541 22.5436C30.3384 22.5632 30.3225 22.5831 30.305 22.6014C30.3028 22.6038 30.3006 22.6063 30.2983 22.6087C30.2876 22.6201 30.2763 22.6323 30.268 22.6452C30.2545 22.6587 30.2422 22.6733 30.2298 22.689C30.2231 22.6957 30.2163 22.7036 30.2107 22.7103C30.1209 22.8125 30.0266 22.9113 29.9277 23.0079C29.8817 23.054 29.8345 23.1 29.7851 23.1438C29.7582 23.1696 29.7302 23.1943 29.7021 23.219L29.702 23.219C29.6933 23.2266 29.6847 23.2342 29.6761 23.2418C29.6491 23.2656 29.6223 23.2892 29.5942 23.3122C29.5538 23.347 29.5145 23.3807 29.4741 23.4144C29.4707 23.4172 29.4676 23.4197 29.4645 23.4223C29.4615 23.4248 29.4584 23.4273 29.455 23.4301C29.4225 23.456 29.3887 23.4818 29.3556 23.5072C29.3441 23.516 29.3327 23.5248 29.3214 23.5334C29.3079 23.5441 29.2947 23.5542 29.2815 23.5643C29.2683 23.5744 29.2551 23.5845 29.2417 23.5952C29.24 23.5969 29.2377 23.5983 29.2355 23.5997C29.2332 23.6011 29.231 23.6025 29.2293 23.6042C29.1788 23.6412 29.1271 23.6783 29.0766 23.7131C29.0738 23.7148 29.0707 23.717 29.0676 23.7193C29.0645 23.7215 29.0614 23.7238 29.0586 23.7254C29.046 23.7346 29.0329 23.7432 29.0197 23.752C29.0118 23.7573 29.0037 23.7626 28.9957 23.7681C28.9769 23.7808 28.9581 23.7931 28.9393 23.8053C28.9104 23.8245 28.8811 23.8433 28.8514 23.8617C28.8438 23.867 28.8367 23.8709 28.829 23.8752C28.828 23.8758 28.8269 23.8764 28.8257 23.877C28.8196 23.8808 28.8134 23.8847 28.8072 23.8885C28.7919 23.8983 28.7764 23.9079 28.7607 23.9173C28.7513 23.9233 28.742 23.9292 28.733 23.9354L28.706 23.9511C28.6954 23.9573 28.6853 23.9635 28.6751 23.9697C28.665 23.9759 28.6549 23.982 28.6443 23.9882C28.6308 23.9949 28.6184 24.0017 28.6038 24.0107C28.5702 24.0298 28.5342 24.0488 28.4994 24.0668C28.4819 24.0767 28.4638 24.0861 28.4452 24.0957C28.43 24.1038 28.4148 24.1118 28.3996 24.1198L28.3813 24.129C28.3559 24.1419 28.3305 24.1547 28.305 24.1674C28.2696 24.1855 28.2333 24.2033 28.1969 24.2199C28.1951 24.2208 28.1932 24.2216 28.1914 24.2225C28.1641 24.2361 28.1369 24.2487 28.1094 24.261C28.0833 24.2731 28.0571 24.2847 28.0307 24.2961C27.9942 24.3127 27.9577 24.328 27.9205 24.3432C27.8164 24.3867 27.7116 24.4275 27.6056 24.466C27.5492 24.4858 27.4905 24.5065 27.4317 24.5255C27.4206 24.5287 27.4103 24.5311 27.4015 24.535C27.3872 24.5394 27.3729 24.5438 27.3586 24.5482C27.3155 24.5615 27.2725 24.5747 27.2308 24.5867C27.2146 24.591 27.1987 24.5956 27.1829 24.6002C27.1584 24.6072 27.1343 24.6142 27.1101 24.62C27.068 24.6319 27.0268 24.643 26.9847 24.6534C26.8425 24.6891 26.7004 24.7185 26.5575 24.7423C26.5559 24.7407 26.5511 24.7407 26.5511 24.7407L26.5496 24.7423L26.382 24.7685C26.2137 24.7955 26.0422 24.8145 25.8699 24.8233C25.7627 24.8304 25.6555 24.836 25.5475 24.8344C25.5007 24.8368 25.453 24.8368 25.407 24.8352C25.295 24.8344 25.1839 24.8312 25.0735 24.8225C25.0727 24.8233 25.0703 24.8225 25.0703 24.8225C24.8408 24.809 24.6114 24.7812 24.3843 24.7431C24.2453 24.7185 24.104 24.6899 23.9674 24.6549C23.9222 24.6446 23.8761 24.6335 23.8301 24.6224C23.8066 24.616 23.7828 24.6085 23.7586 24.6009C23.7468 24.5972 23.7349 24.5935 23.7229 24.5898C23.2115 24.4453 22.7177 24.2325 22.2524 23.9562C21.9953 23.8046 21.748 23.6325 21.5114 23.4404C21.4333 23.3786 21.3568 23.3142 21.2825 23.2471C21.2017 23.1763 21.122 23.1045 21.0467 23.027C21.0119 22.9956 20.9782 22.9619 20.9468 22.9282C20.8682 22.8485 20.7918 22.7676 20.72 22.6834C20.7188 22.6834 20.7177 22.6811 20.7177 22.6811C20.565 22.5093 20.4224 22.3274 20.2888 22.1399C20.2079 22.0243 20.1282 21.9041 20.0563 21.7828C20.0316 21.7436 20.007 21.7032 19.9823 21.6628L19.9822 21.6627C19.9702 21.6416 19.9586 21.6194 19.9469 21.597C19.9411 21.586 19.9353 21.5749 19.9294 21.5639C19.67 21.1001 19.4713 20.6004 19.3377 20.076C19.2097 19.5797 19.1445 19.0609 19.1445 18.5253V18.422C19.1445 17.9852 19.4938 17.6225 19.9294 17.6225Z" fill="#34A49A"/>
<path fill-rule="evenodd" clip-rule="evenodd" d="M28.6451 9.54253C28.6533 9.54562 28.6614 9.54871 28.6698 9.55152L28.6665 9.5459L29.028 9.69076C29.0438 9.69862 29.0606 9.70535 29.0774 9.71209L29.0775 9.71209C29.1897 9.75813 29.2998 9.80529 29.4087 9.8547C29.4126 9.85638 29.4166 9.85835 29.4205 9.86031C29.4244 9.86228 29.4284 9.86424 29.4323 9.86593C31.1413 10.6531 32.5472 11.9231 33.5107 13.4738C33.7397 13.8455 33.6241 14.3317 33.2535 14.5608C32.8852 14.7887 32.4035 14.6753 32.1722 14.3104C31.6062 13.3974 30.8561 12.6002 29.9589 11.9781C29.9567 11.977 29.9544 11.9747 29.9522 11.9736C29.8466 11.8995 29.7377 11.8288 29.6277 11.7603C29.6198 11.7546 29.6108 11.749 29.603 11.7445C29.4985 11.6805 29.3919 11.6188 29.2841 11.5593C29.2784 11.5562 29.2727 11.553 29.2669 11.5497C29.2579 11.5446 29.2487 11.5394 29.2391 11.5346C29.137 11.4795 29.0337 11.4256 28.9292 11.3751C28.918 11.3695 28.9068 11.3642 28.8955 11.3588C28.8843 11.3535 28.8731 11.3482 28.8619 11.3425C28.7642 11.2954 28.6642 11.2505 28.5632 11.2078C28.548 11.2016 28.5328 11.1952 28.5177 11.1887C28.5025 11.1822 28.4874 11.1758 28.4722 11.1696C28.3768 11.1303 28.2813 11.0944 28.1836 11.0584L28.0725 11.018C27.9804 10.9855 27.8861 10.9551 27.7917 10.9259C27.7704 10.9198 27.7488 10.9133 27.7272 10.9069C27.7056 10.9004 27.6839 10.8939 27.6626 10.8878C27.5716 10.8619 27.4784 10.8372 27.3852 10.8137C27.3392 10.8024 27.2932 10.7912 27.246 10.78C27.2252 10.7755 27.205 10.7704 27.1848 10.7654C27.1646 10.7603 27.1444 10.7553 27.1236 10.7508C26.7328 10.6677 26.3421 10.6138 25.9547 10.5902C25.9468 10.5891 25.9401 10.5891 25.9322 10.5891C25.8918 10.5868 25.8514 10.5857 25.8109 10.5846C25.7973 10.5841 25.7837 10.5833 25.7701 10.5825C25.7502 10.5813 25.7304 10.5801 25.711 10.5801H25.6885H25.6504L25.6472 10.5799C25.6293 10.5788 25.6123 10.5778 25.5953 10.5778H25.4808H25.4056H25.3517C25.327 10.579 25.3011 10.5801 25.2764 10.5801H25.2237C25.1918 10.5808 25.1603 10.5826 25.1288 10.5843C25.1126 10.5852 25.0963 10.5861 25.0799 10.5868C25.0462 10.588 25.0137 10.5891 24.98 10.5913C24.971 10.5919 24.962 10.5927 24.953 10.5936C24.9441 10.5944 24.9351 10.5953 24.9261 10.5958C24.9121 10.5969 24.898 10.5978 24.884 10.5986C24.8699 10.5995 24.8559 10.6003 24.8419 10.6014C24.832 10.602 24.8225 10.6032 24.8131 10.6043C24.8043 10.6054 24.7956 10.6065 24.7868 10.607C24.779 10.6082 24.7711 10.6093 24.7633 10.6093C24.7351 10.6122 24.7067 10.6148 24.6781 10.6175C24.6519 10.6199 24.6256 10.6223 24.5993 10.625C24.5778 10.627 24.5562 10.6303 24.5346 10.6335C24.5203 10.6357 24.5059 10.6378 24.4915 10.6396C24.4388 10.6463 24.3849 10.6542 24.3321 10.6621C24.2434 10.6755 24.1547 10.6901 24.0659 10.7059C24.0177 10.7148 23.9705 10.7238 23.9233 10.7339C23.829 10.753 23.7347 10.7744 23.6404 10.7968C23.6196 10.8019 23.5991 10.8072 23.5786 10.8125C23.5581 10.8179 23.5376 10.8232 23.5168 10.8283C23.4158 10.8541 23.317 10.881 23.217 10.9113C23.1822 10.9215 23.1474 10.9327 23.1126 10.9439C23.0082 10.9776 22.9037 11.0124 22.7993 11.0506C22.7712 11.0607 22.742 11.0719 22.7129 11.0832C22.6039 11.1247 22.495 11.1685 22.3872 11.2145C22.3749 11.2201 22.3628 11.2255 22.3507 11.2308C22.3386 11.2361 22.3266 11.2415 22.3142 11.2471C22.2031 11.2954 22.093 11.347 21.983 11.4021C21.9616 11.4122 21.9392 11.4234 21.9178 11.4346C21.8078 11.4908 21.6978 11.5503 21.5888 11.612C21.5838 11.6148 21.5787 11.6174 21.5737 11.6199C21.5686 11.6224 21.5636 11.625 21.5585 11.6278C21.545 11.6356 21.5327 11.6435 21.5203 11.6513L21.5203 11.6513C21.4974 11.6648 21.4745 11.6779 21.4516 11.691C21.4172 11.7107 21.3829 11.7304 21.3485 11.7513C21.3272 11.7648 21.3061 11.7788 21.2851 11.7928C21.264 11.8069 21.243 11.8209 21.2216 11.8344C21.2127 11.8411 21.2037 11.8467 21.1947 11.8523L21.1947 11.8523C21.0903 11.9208 20.987 11.9905 20.8859 12.0634C20.8846 12.0643 20.8832 12.065 20.882 12.0657C20.88 12.0668 20.8783 12.0677 20.8769 12.0691C20.8702 12.0747 20.8646 12.0792 20.8578 12.0837C20.8429 12.0943 20.828 12.1049 20.813 12.1155C20.7682 12.1473 20.7234 12.1791 20.6804 12.2128C20.4311 12.4048 20.1964 12.6103 19.9752 12.8259C19.9714 12.8222 19.9676 12.8184 19.9638 12.8147C18.9799 13.7721 18.2328 14.9988 17.8515 16.4216C17.6016 17.3544 17.5302 18.2932 17.616 19.2009C17.6189 19.2377 17.6229 19.2748 17.6269 19.3119C17.6304 19.3402 17.6338 19.3687 17.6372 19.3972C17.6406 19.4257 17.644 19.4542 17.6475 19.4825C17.6596 19.5718 17.6728 19.6613 17.6882 19.7515C17.6907 19.7661 17.6933 19.781 17.696 19.796C17.6987 19.811 17.7014 19.8259 17.7038 19.8405C17.724 19.9517 17.7456 20.0621 17.7704 20.1734C17.7709 20.1759 17.7715 20.1781 17.7721 20.1803C17.7727 20.1824 17.7732 20.1846 17.7737 20.1871C17.9158 20.8111 18.1364 21.4282 18.4404 22.0246C18.848 22.824 19.3733 23.5238 19.9844 24.114L19.9977 24.101C20.4954 24.5884 21.0574 25.0108 21.6698 25.3539C22.2199 25.6552 22.8035 25.8899 23.407 26.0536C23.4584 26.0674 23.5072 26.0859 23.5531 26.1086C24.1815 26.2699 24.8402 26.3557 25.519 26.3557C26.4847 26.3557 27.41 26.1817 28.2645 25.8639C28.2993 25.8516 28.3341 25.8381 28.3689 25.8246L28.3689 25.8246C28.3954 25.8139 28.4221 25.8032 28.4489 25.7925C28.4755 25.7819 28.5021 25.7713 28.5284 25.7606C28.6115 25.7258 28.6946 25.6899 28.7777 25.6517C28.7911 25.6455 28.8048 25.6391 28.8186 25.6326C28.8324 25.6262 28.8461 25.6197 28.8596 25.6135C28.9618 25.5652 29.0629 25.5158 29.1639 25.463C29.1662 25.4619 29.1681 25.4608 29.1701 25.4597C29.1721 25.4585 29.174 25.4574 29.1763 25.4563C29.7422 25.1576 30.2812 24.7848 30.7787 24.3368C32.5012 22.7849 33.3782 20.6458 33.3849 18.4966C33.3849 18.0609 33.7386 17.7072 34.1743 17.7072C34.61 17.7072 34.9637 18.0609 34.9637 18.4966L34.9648 18.4988C34.9592 20.5919 34.2641 22.676 32.8987 24.3839L32.9007 24.3846C32.9031 24.3855 32.905 24.3862 32.9077 24.3862C32.1778 25.2946 31.284 26.066 30.2711 26.6556C30.2702 26.656 30.2695 26.6566 30.2688 26.6572C30.2683 26.6577 30.2678 26.6581 30.2673 26.6584C30.2668 26.6587 30.2662 26.6589 30.2655 26.6589C30.1375 26.733 30.0061 26.806 29.8736 26.8745C29.8615 26.8813 29.8489 26.8876 29.8362 26.894C29.8278 26.8983 29.8192 26.9026 29.8107 26.9071C29.6996 26.9644 29.5873 27.0194 29.4727 27.0722C29.4503 27.0823 29.4281 27.0921 29.4059 27.1019C29.3837 27.1117 29.3616 27.1216 29.3391 27.1317C29.2628 27.1654 29.1853 27.199 29.1078 27.2305C29.0157 27.2687 28.9225 27.3046 28.8293 27.3394C28.781 27.3574 28.7327 27.3753 28.6845 27.3922C27.4672 27.8267 26.1826 28.0042 24.9126 27.9256C24.9138 27.9222 24.9149 27.9188 24.9149 27.9155C23.5037 27.8266 22.1763 27.4283 20.9997 26.7878C19.7827 26.1379 18.6984 25.218 17.8461 24.0602L17.8449 24.062C17.8435 24.064 17.8423 24.0657 17.8416 24.0683C17.1531 23.1282 16.6393 22.0651 16.332 20.9342C16.3318 20.9333 16.3314 20.9324 16.331 20.9316C16.3304 20.9304 16.3298 20.9292 16.3302 20.9279C16.2917 20.7851 16.2552 20.6393 16.2234 20.4936C16.22 20.4801 16.2171 20.4664 16.2142 20.4524L16.2142 20.4524L16.2142 20.4524C16.2122 20.4431 16.2103 20.4338 16.2082 20.4244C16.1816 20.3022 16.1575 20.1795 16.1362 20.0552C16.1323 20.0309 16.1285 20.007 16.1248 19.983C16.121 19.959 16.1173 19.9351 16.1133 19.9107C16.1005 19.8283 16.088 19.7447 16.0777 19.6617C16.0647 19.5629 16.0541 19.4636 16.0446 19.3646C16.0397 19.3133 16.0349 19.262 16.0311 19.211C15.9264 17.9228 16.0875 16.636 16.4921 15.4296L16.4921 15.4296C16.4951 15.4316 16.4981 15.4335 16.5013 15.4344C17.2705 13.1493 18.8455 11.3323 20.8191 10.2185C20.8197 10.2201 20.8202 10.2217 20.8207 10.2234C21.8471 9.64409 22.9829 9.25413 24.1726 9.08888C24.1844 9.0872 24.1959 9.08551 24.2074 9.08383C24.219 9.08214 24.2305 9.08046 24.2422 9.07878C24.2703 9.07541 24.2984 9.07232 24.3265 9.06923C24.3545 9.06614 24.3826 9.06306 24.4107 9.05969C24.4278 9.05775 24.4447 9.05567 24.4616 9.0536C24.4936 9.04968 24.5255 9.04578 24.5578 9.04284C24.6487 9.03386 24.7397 9.02712 24.8306 9.02039L24.8306 9.02039C24.8454 9.0193 24.8598 9.01847 24.8741 9.01765C24.8893 9.01679 24.9043 9.01593 24.9194 9.01477L25.0451 9.00803C25.1035 9.00467 25.1619 9.00242 25.2203 9.0013H25.2416C25.3618 8.99905 25.483 9.00017 25.6032 9.0013C25.6571 9.0013 25.711 9.00319 25.7649 9.00509C25.7829 9.00572 25.8008 9.00635 25.8188 9.00691C25.8439 9.00803 25.869 9.00903 25.894 9.01003C25.9442 9.01203 25.9943 9.01402 26.0445 9.01702C26.113 9.02151 26.1815 9.02712 26.25 9.03274C26.3286 9.03948 26.4061 9.04621 26.4836 9.05407C26.5286 9.05866 26.5731 9.06428 26.6175 9.06988C26.6384 9.07251 26.6592 9.07514 26.6801 9.07765C26.7598 9.08776 26.8395 9.09787 26.9192 9.11022L26.9193 9.11023C26.9822 9.12033 27.045 9.13043 27.1079 9.14166C27.1186 9.14359 27.1293 9.14553 27.1401 9.14747C27.2104 9.16015 27.2814 9.17294 27.3516 9.18658C27.4111 9.1978 27.4717 9.21128 27.5312 9.22475C27.6143 9.24272 27.6974 9.26181 27.7794 9.28202C27.8366 9.29662 27.8928 9.31122 27.9501 9.32694C28.0343 9.3494 28.1185 9.37298 28.2027 9.39768C28.2297 9.40611 28.2564 9.41453 28.283 9.42296C28.3097 9.43137 28.3363 9.43979 28.3633 9.44821C28.3876 9.45621 28.412 9.46412 28.4365 9.47204C28.4978 9.49191 28.5594 9.51187 28.6204 9.53355C28.6289 9.53636 28.637 9.53945 28.6451 9.54253Z" fill="#F15B4E"/>
<path fill-rule="evenodd" clip-rule="evenodd" d="M23.0232 20.0469C23.0887 20.1633 23.1628 20.2753 23.2434 20.3818C23.483 20.7003 23.7838 20.9704 24.1265 21.1703C24.5691 21.4349 25.0847 21.5832 25.6337 21.5832H25.6369L25.6368 21.4334L25.638 21.5832H25.6412C26.1901 21.5832 26.7047 21.4338 27.1484 21.1703C27.4943 20.9682 27.7962 20.697 28.0358 20.3741C28.1163 20.2676 28.1905 20.1567 28.2539 20.0392C28.5128 19.5868 28.6578 19.0597 28.6578 18.4986V18.4953C28.6578 17.933 28.5085 17.4048 28.2496 16.9513H28.2528C28.1872 16.8349 28.1131 16.7229 28.0325 16.6164C27.793 16.2979 27.4922 16.0278 27.1495 15.8279C26.7069 15.5633 26.1912 15.4151 25.6423 15.4151H25.639L25.6377 15.6L25.638 15.415H25.6348C25.0858 15.415 24.5712 15.5644 24.1275 15.8279C23.7816 16.03 23.4797 16.3012 23.2402 16.6241C23.1596 16.7306 23.0855 16.8415 23.0221 16.959C22.7632 17.4114 22.6182 17.9385 22.6182 18.4996V18.5029C22.6182 19.0652 22.7675 19.5934 23.0264 20.0469H23.0232ZM25.6282 16.959C24.7976 16.9615 24.1254 17.6501 24.1254 18.4996V18.5029C24.1275 19.3518 24.8022 20.0392 25.6326 20.0392H25.6358L25.6433 20.0392C26.4759 20.0392 27.1506 19.3496 27.1506 18.4986V18.4953C27.1484 17.6464 26.4738 16.959 25.6433 16.959L25.6282 16.959Z" fill="#F4B42B"/>
</g>
</g>
<defs>
<clipPath id="clip0_663_4321">
<rect width="51" height="51" fill="white"/>
</clipPath>
</defs>
</svg>
