<?xml version="1.0" encoding="utf-8"?>
<!-- Generator: Adobe Illustrator 16.0.0, SVG Export Plug-In . SVG Version: 6.00 Build 0)  -->
<!DOCTYPE svg PUBLIC "-//W3C//DTD SVG 1.1//EN" "http://www.w3.org/Graphics/SVG/1.1/DTD/svg11.dtd">
<svg version="1.1" id="Layer_1" xmlns="http://www.w3.org/2000/svg" xmlns:xlink="http://www.w3.org/1999/xlink" x="0px" y="0px"
	 width="15.81px" height="15.81px" viewBox="0 0 15.81 15.81" enable-background="new 0 0 15.81 15.81" xml:space="preserve">
<defs>
	<filter id="Adobe_OpacityMaskFilter" filterUnits="userSpaceOnUse" x="0" y="0" width="15.81" height="16.431">
		<feColorMatrix  type="matrix" values="1 0 0 0 0  0 1 0 0 0  0 0 1 0 0  0 0 0 1 0"/>
	</filter>
</defs>
<mask maskUnits="userSpaceOnUse" x="0" y="0" width="15.81" height="16.431" id="mask0">
	<circle fill="#C4C4C4" filter="url(#Adobe_OpacityMaskFilter)" cx="7.905" cy="7.905" r="7.905"/>
</mask>
<g mask="url(#mask0)">
	<circle fill="#C4C4C4" cx="7.905" cy="7.905" r="7.905"/>
	<path fill="#919199" d="M9.958,12.716c-0.615-0.33-0.287-0.949,0-1.238c0.369-0.371,0.82-1.65,0.82-1.65
		c0.738-0.331,0.821-0.867,0.902-1.238c0.329-1.074-0.492-1.238-0.492-1.238s0.656-1.775,0.123-3.138
		C10.614,2.438,7.783,1.777,7.29,3.429c-3.364-0.744-2.667,3.92-2.667,3.92S3.802,7.514,4.13,8.587
		c0.083,0.372,0.164,0.908,0.903,1.238c0,0,0.451,1.279,0.821,1.651c0.287,0.289,0.615,0.908,0,1.238
		c-1.231,0.661-4.924,0.826-4.924,3.716h13.95C14.881,13.541,11.188,13.376,9.958,12.716z"/>
</g>
</svg>
