<svg width="25" height="29" viewBox="0 0 25 29" fill="none" xmlns="http://www.w3.org/2000/svg">
<path fill-rule="evenodd" clip-rule="evenodd" d="M7.0625 0.906369C3.6028 0.906369 0.71875 4.11899 0.71875 8.15637C0.71875 11.8359 3.11464 14.831 6.15857 15.3327V15.3361C6.1563 15.3599 6.15631 19.6397 6.15631 19.6397C5.77794 19.7734 5.42904 19.9909 5.14017 20.2809C4.63041 20.7906 4.34381 21.4816 4.34381 22.2032V25.3753C4.34381 26.0969 4.63041 26.7879 5.14017 27.2977C5.64994 27.8074 6.34095 28.094 7.06256 28.094C7.78416 28.094 8.47517 27.8074 8.98494 27.2977C9.4947 26.7879 9.78131 26.0969 9.78131 25.3753V22.2032C9.78131 21.4816 9.4947 20.7906 8.98494 20.2809C8.69607 19.9909 8.3483 19.7734 7.9688 19.6397C7.9688 19.6397 7.96767 15.3555 7.96654 15.3326C11.0104 14.8308 13.4064 11.8355 13.4064 8.15629C13.4064 4.11891 10.5222 0.906288 7.06261 0.906288L7.0625 0.906369ZM17.0313 4.68652C15.9755 5.06036 15.2188 6.06741 15.2188 7.25006V21.7501C15.2188 22.9327 15.9755 23.9409 17.0313 24.3136V25.409C17.0313 26.1215 17.3145 26.8035 17.8174 27.3065C18.3204 27.8106 19.0023 28.0927 19.7149 28.0927H19.7171C21.2374 28.0927 22.4688 26.8613 22.4688 25.341V24.3124C23.5245 23.9386 24.2813 22.9315 24.2813 21.7489V7.2489C24.2813 6.06625 23.5245 5.05804 22.4688 4.68536V3.65676C22.4688 2.13652 21.2374 0.905151 19.7171 0.905151H19.7149C19.0024 0.905151 18.3204 1.18835 17.8174 1.69131C17.3133 2.19429 17.0313 2.87622 17.0313 3.58878V4.68652ZM7.0625 26.2814C6.82235 26.2814 6.59125 26.1862 6.42134 26.0163C6.25142 25.8464 6.15626 25.6153 6.15626 25.3751V22.2031C6.15626 21.963 6.25142 21.7319 6.42134 21.562C6.59126 21.392 6.82235 21.2969 7.0625 21.2969C7.30265 21.2969 7.53375 21.392 7.70366 21.562C7.87358 21.7319 7.96874 21.963 7.96874 22.2031V25.3751C7.96874 25.6153 7.87358 25.8464 7.70366 26.0163C7.53374 26.1862 7.30265 26.2814 7.0625 26.2814ZM20.6563 24.4689V25.3423C20.6563 25.8611 20.236 26.2814 19.7171 26.2814H19.7149C19.4838 26.2814 19.2618 26.1896 19.0986 26.0254C18.9344 25.8622 18.8426 25.6402 18.8426 25.4091V24.4689H20.6563ZM21.5625 6.34387H17.9375C17.4368 6.34387 17.0313 6.74941 17.0313 7.25012V21.7501C17.0313 22.2508 17.4368 22.6564 17.9375 22.6564H21.5625C22.0632 22.6564 22.4688 22.2508 22.4688 21.7501V7.25012C22.4688 6.74941 22.0632 6.34387 21.5625 6.34387ZM7.96875 2.82646C10.0622 3.3317 11.5938 5.55313 11.5938 8.15637C11.5938 10.7596 10.0622 12.9811 7.96875 13.4863V2.82646ZM6.15625 2.82646V13.4863C4.0628 12.981 2.53125 10.7596 2.53125 8.15637C2.53125 5.55313 4.0628 3.33164 6.15625 2.82646ZM20.6563 4.53134H18.8438V3.5911C18.8438 3.36001 18.9355 3.13798 19.0998 2.97485C19.2629 2.81059 19.4849 2.71884 19.716 2.71884H19.7183C20.2371 2.71884 20.6574 3.13911 20.6574 3.65794V4.53134L20.6563 4.53134Z" fill="white"/>
</svg>
