<svg xmlns="http://www.w3.org/2000/svg" width="27" height="32" viewBox="0 0 27 32" fill="currentColor" aria-hidden="true">
<path d="M13.5 15.5613C17.8346 15.5613 21.361 12.13 21.361 7.91272C21.361 3.69539 17.8345 0.26416 13.5 0.26416C9.16552 0.26416 5.63898 3.69539 5.63898 7.91272C5.63898 12.13 9.16552 15.5613 13.5 15.5613ZM13.5 2.51416C16.5597 2.51416 19.0485 4.93574 19.0485 7.91272C19.0485 10.8897 16.5597 13.3113 13.5 13.3113C10.4403 13.3113 7.95148 10.8897 7.95148 7.91272C7.95148 4.9357 10.4403 2.51416 13.5 2.51416ZM18.125 15.9861H8.875C4.41317 15.9861 0.78125 19.5186 0.78125 23.8611V30.6111C0.78125 31.2327 1.29866 31.7361 1.9375 31.7361H25.0625C25.7013 31.7361 26.2188 31.2327 26.2188 30.6111V23.8611C26.2188 19.5188 22.5867 15.9861 18.125 15.9861ZM7.71875 26.2122C8.03238 25.8536 8.26798 25.4275 8.44284 24.9874H18.5572C18.732 25.429 18.9662 25.8536 19.2813 26.2122V29.4874L7.71875 29.486V26.2122ZM18.125 18.2361V22.7361H8.875V18.2361H18.125ZM3.09375 23.8611C3.09375 21.5605 4.52461 19.5832 6.5625 18.7127V22.7318C6.5625 22.7543 6.49746 24.9846 5.40625 24.9846C4.76741 24.9846 4.25 25.488 4.25 26.1096C4.25 26.7311 4.76741 27.2346 5.40625 27.2346V29.4846L3.09375 29.486V23.8611ZM23.9063 29.4861H21.5938V27.2361C22.2326 27.2361 22.75 26.7327 22.75 26.1111C22.75 25.4895 22.2326 24.9861 21.5938 24.9861C20.5025 24.9861 20.4375 22.7558 20.4375 22.7361V18.7127C22.4754 19.5832 23.9063 21.5604 23.9063 23.8611V29.4861ZM16.9325 27.2502C16.9325 27.8717 16.4151 28.3752 15.7762 28.3752H11.1875C10.5487 28.3752 10.0313 27.8717 10.0313 27.2502C10.0313 26.6286 10.5487 26.1252 11.1875 26.1252H15.7762C16.4151 26.1252 16.9325 26.6286 16.9325 27.2502Z" />
</svg>