<svg width="107" height="28" viewBox="0 0 107 28" fill="none" xmlns="http://www.w3.org/2000/svg">
<path d="M59.4466 20.1703C58.9375 21.0292 57.8632 21.4022 56.8832 21.4022C54.6404 21.4022 53.3579 19.7794 53.3579 17.7835V11.9791H55.8651V17.278C55.8651 18.3037 56.3923 19.125 57.5608 19.125C58.6731 19.125 59.3143 18.379 59.3143 17.3156V11.9791H61.8215V19.498C61.8215 20.2063 61.8777 20.8411 61.9157 21.1585H59.5209C59.4846 20.972 59.4466 20.5433 59.4466 20.1703Z" fill="#414042"/>
<path d="M67.5911 11.9791H69.4571V14.1811H67.5911V18.0239C67.5911 18.8256 67.968 19.0873 68.6836 19.0873C68.986 19.0873 69.3249 19.0497 69.4571 19.0137V21.0652C69.2306 21.1584 68.7778 21.2893 68.044 21.2893C66.2342 21.2893 65.1038 20.2259 65.1038 18.4542V14.1811H63.4263V11.9791H63.8973C64.8774 11.9791 65.3286 11.3443 65.3286 10.5231V9.2356H67.5911V11.9791Z" fill="#414042"/>
<path d="M77.637 20.1703C77.1279 21.0292 76.0537 21.4022 75.0736 21.4022C72.8309 21.4022 71.5483 19.7794 71.5483 17.7835V11.9791H74.0555V17.278C74.0555 18.3037 74.5827 19.125 75.7512 19.125C76.8635 19.125 77.5048 18.379 77.5048 17.3156V11.9791H80.012V19.498C80.012 20.2063 80.0682 20.8411 80.1062 21.1585H77.7114C77.675 20.972 77.637 20.5433 77.637 20.1703Z" fill="#414042"/>
<path d="M98.0775 7.65198H95.5703V21.16H98.0775V7.65198Z" fill="#414042"/>
<path d="M100.755 11.979H103.262V21.1583H100.755V11.979Z" fill="#414042"/>
<path d="M103.545 8.97547C103.545 8.11823 102.867 7.42786 101.999 7.42786C101.152 7.42786 100.454 8.11823 100.454 8.97547C100.454 9.79672 101.152 10.4871 101.999 10.4871C102.865 10.4871 103.545 9.79672 103.545 8.97547Z" fill="#414042"/>
<path d="M50.361 9.62068C50.2479 9.4142 50.1175 9.22148 49.9776 9.03466C49.55 8.4565 49.0112 7.97273 48.3938 7.60892C47.6039 7.13499 46.6835 6.86951 45.7038 6.86951H45.698C44.7163 6.86951 43.7941 7.14285 43.0022 7.61679C42.8009 7.73281 42.613 7.86654 42.4308 8.01009C42.1452 8.23231 41.8844 8.48403 41.6505 8.75934C41.2632 8.30507 40.8088 7.91177 40.293 7.61089C39.503 7.13695 38.5827 6.87147 37.6029 6.87147H37.5972C36.6155 6.87147 35.6932 7.14482 34.9014 7.61875C34.7 7.73478 34.5121 7.8685 34.33 8.01206C33.9523 8.30704 33.6167 8.65118 33.3291 9.03859C33.1892 9.22541 33.0588 9.4201 32.9457 9.62461C32.4836 10.4348 32.2171 11.3807 32.2171 12.3896H32.2056V21.2689H34.9014V12.3896H34.9129C34.9167 10.8714 36.117 9.64035 37.5953 9.63838H37.601C39.0831 9.63838 40.2872 10.8694 40.2911 12.3896V20.6824H40.3045V21.2689H43.0003V12.3896H43.0118C43.0156 10.8714 44.2159 9.64035 45.6942 9.63838H45.6999C47.182 9.63838 48.3861 10.8694 48.39 12.3896V21.3928H51.0858V12.3896C51.0858 11.3827 50.8193 10.4368 50.3572 9.62461L50.361 9.62068Z" fill="#414042"/>
<path d="M92.0947 9.03466C92.2347 9.22148 92.365 9.4142 92.4782 9.62068L92.4743 9.62461C92.9364 10.4368 93.2029 11.3827 93.2029 12.3896V21.3928H90.5071V12.3896C90.5033 10.8694 89.2992 9.63838 87.8171 9.63838H87.8113C86.333 9.64035 85.1328 10.8714 85.1289 12.3896H85.1174V21.2689H82.4216V20.6824H82.4082V12.3896C82.547 10.3777 82.8566 9.60384 83.7676 8.75934C83.7676 8.75934 84.2623 8.23231 84.548 8.01009C84.7301 7.86654 84.918 7.73281 85.1193 7.61679C85.9112 7.14285 86.8335 6.86951 87.8151 6.86951H87.8209C88.8007 6.86951 89.721 7.13499 90.511 7.60892C91.1283 7.97273 91.6671 8.4565 92.0947 9.03466Z" fill="#414042"/>
<path d="M92.2163 14.8573L92.2163 17.3645L83.037 17.3645L83.037 14.8573L92.2163 14.8573Z" fill="#414042"/>
<path fill-rule="evenodd" clip-rule="evenodd" d="M5.67006 12.7736C6.29866 12.7736 6.80737 13.2823 6.80737 13.9109L6.80575 13.9076V14.0632C6.80899 14.8522 6.95966 15.6087 7.21078 16.3135C7.37117 16.7752 7.58179 17.2159 7.83776 17.6242C7.97223 17.8477 8.11966 18.0616 8.28491 18.2641C8.37078 18.3791 8.46475 18.4909 8.56357 18.5995C8.72882 18.7874 8.90704 18.9656 9.09497 19.1309C9.20676 19.2362 9.32017 19.3318 9.44005 19.4209C9.64257 19.5861 9.85642 19.7335 10.08 19.868C10.4866 20.1224 10.9208 20.333 11.3809 20.4934C11.8426 20.6577 12.3272 20.7741 12.8288 20.8358C12.837 20.8367 12.8453 20.8375 12.8536 20.8384C12.8594 20.8392 12.8652 20.8401 12.871 20.8409C13.1321 20.8714 13.3977 20.8871 13.6669 20.8871H13.6718C14.4721 20.8871 15.2384 20.751 15.9529 20.4966C16.6641 20.2487 17.3219 19.8842 17.9035 19.4225C18.0185 19.3366 18.1303 19.2427 18.2389 19.1438C18.43 18.9737 18.6099 18.7939 18.78 18.6027C18.8432 18.5363 18.9015 18.4682 18.9582 18.397C19.1591 18.1556 19.3454 17.8996 19.5074 17.6274C19.5897 17.4962 19.6673 17.3617 19.74 17.2242C19.7796 17.1484 19.8177 17.0719 19.8543 16.9949C19.8926 16.9156 19.9293 16.8357 19.9643 16.7552C20.0261 16.6115 20.0828 16.4652 20.1344 16.3167C20.2507 15.9879 20.3427 15.6481 20.4081 15.299C20.435 15.1521 20.457 15.0044 20.474 14.8561C20.4791 14.8214 20.4836 14.7865 20.4877 14.7514C20.5123 14.5162 20.5249 14.2775 20.5249 14.0356V14.0308C20.5249 13.9614 20.5238 13.8923 20.5217 13.8234C20.5199 13.7679 20.5174 13.7123 20.5141 13.6567C20.514 13.6496 20.5137 13.6425 20.5135 13.6354C20.493 13.2783 20.4448 12.9285 20.3713 12.5883C20.3611 12.5429 20.3503 12.4977 20.3389 12.4527C20.3192 12.367 20.2978 12.2816 20.2745 12.1967C20.2318 12.0438 20.184 11.8931 20.1312 11.7448C20.0722 11.5784 20.0071 11.4152 19.9361 11.2553C19.91 11.1974 19.8832 11.1398 19.8554 11.0825C19.8152 10.9983 19.7732 10.9147 19.7293 10.8318C19.6577 10.6975 19.5816 10.566 19.5009 10.4374C19.4167 10.2991 19.3267 10.1631 19.2319 10.0308C19.1024 9.85145 18.9632 9.67696 18.8141 9.50803C18.7997 9.49215 18.7851 9.47629 18.7703 9.46043C18.7461 9.43293 18.7216 9.40565 18.6969 9.37859C18.6389 9.31605 18.5794 9.25432 18.5185 9.19345L18.5151 9.19001C18.4333 9.10825 18.35 9.02902 18.2652 8.95231C18.2564 8.94452 18.2477 8.93676 18.2389 8.92903C18.2313 8.92213 18.2238 8.91526 18.2162 8.90843C18.1248 8.82734 18.0318 8.74913 17.9372 8.67381C17.9234 8.66321 17.9094 8.6527 17.8954 8.64227C17.8373 8.59624 17.7785 8.55117 17.7189 8.50709C17.3696 8.25133 17.0015 8.03302 16.6203 7.85196C16.1781 7.64117 15.7198 7.48079 15.2501 7.3731C14.9477 7.29978 14.6361 7.24709 14.3279 7.21845C14.2351 7.20814 14.1401 7.20241 14.0427 7.19897C13.7929 7.18293 13.5409 7.18293 13.2912 7.19897C13.14 7.20585 12.9933 7.2173 12.8455 7.23907C12.1124 7.32384 11.3918 7.53119 10.717 7.85769C10.0331 8.18418 9.39388 8.62867 8.82795 9.19459L8.82452 9.19803L7.20809 7.5816L7.21152 7.57816C7.76828 7.02141 8.37888 6.55057 9.02729 6.16794C9.69517 5.77271 10.4031 5.47027 11.1306 5.26063C11.1724 5.24724 11.2143 5.2363 11.257 5.22513C11.2728 5.221 11.2887 5.21684 11.3047 5.21252C11.889 5.05672 12.4858 4.95934 13.0873 4.92154C13.2007 4.91352 13.3141 4.90779 13.4286 4.90779C13.4432 4.90742 13.4579 4.90692 13.4726 4.90642C13.5032 4.90539 13.5341 4.90435 13.565 4.90435C13.599 4.9035 13.633 4.90295 13.6669 4.90269V4.89819H13.6718C14.4592 4.89819 15.2238 4.99702 15.9529 5.18495C16.6371 5.36044 17.2905 5.61377 17.902 5.93396C18.0405 6.00574 18.1792 6.08098 18.3146 6.16221C18.4727 6.25386 18.6239 6.35238 18.7751 6.45319C18.786 6.46064 18.7972 6.46837 18.8083 6.4761C18.8195 6.48384 18.8307 6.49157 18.8416 6.49902C18.8433 6.50073 18.8456 6.50188 18.8479 6.50303C18.8502 6.50417 18.8525 6.50532 18.8542 6.50703C18.8622 6.51257 18.8701 6.51805 18.878 6.52352C18.9291 6.5588 18.9787 6.59306 19.0283 6.63076C19.0569 6.65252 19.0862 6.67429 19.1154 6.69606C19.1446 6.71782 19.1738 6.73959 19.2024 6.76136C19.2225 6.77568 19.2414 6.79 19.2603 6.80432C19.2792 6.81864 19.2981 6.83296 19.3181 6.84728C19.4224 6.92861 19.5266 7.01453 19.6309 7.10503C19.654 7.12663 19.678 7.14726 19.7024 7.16818C19.7155 7.17944 19.7288 7.19078 19.742 7.20241C19.7739 7.23073 19.8056 7.25938 19.8375 7.28834C19.8663 7.31443 19.8954 7.34077 19.9253 7.36737C19.9482 7.38957 19.9714 7.41176 19.9947 7.43404C20.0423 7.4796 20.0903 7.5255 20.1372 7.57244L20.1556 7.59076C20.2197 7.65492 20.2839 7.72136 20.3457 7.78781C20.3709 7.81645 20.397 7.84537 20.4231 7.8743C20.4491 7.90322 20.4752 7.93215 20.5004 7.96079C20.5474 8.01005 20.5909 8.06046 20.6321 8.11315C20.6382 8.11994 20.6443 8.1266 20.6504 8.13321C20.6629 8.14671 20.6752 8.16003 20.686 8.17387C20.6944 8.18468 20.7031 8.19517 20.712 8.20585C20.72 8.21554 20.7282 8.22538 20.7364 8.23573L20.8395 8.35946C20.8622 8.38864 20.8844 8.41782 20.9066 8.44713C20.9316 8.47994 20.9567 8.5129 20.9827 8.54619C21.04 8.6218 21.0961 8.69855 21.1499 8.7776C21.1969 8.8429 21.2427 8.90705 21.2886 8.97349C21.3504 9.06743 21.4065 9.15793 21.4638 9.25187C21.5142 9.32977 21.5635 9.41111 21.6093 9.49359C21.6758 9.61044 21.7411 9.72615 21.8018 9.84414C21.8029 9.84529 21.8032 9.84672 21.8035 9.84815C21.8038 9.84958 21.8041 9.85102 21.8052 9.85216C21.83 9.90171 21.8548 9.9523 21.8792 10.0022C21.8909 10.0261 21.9025 10.0499 21.914 10.0733C21.9246 10.096 21.9351 10.1185 21.9456 10.1408C21.9784 10.2107 22.0105 10.2793 22.0401 10.3505C22.0538 10.3872 22.0687 10.4204 22.0859 10.4582C22.098 10.4833 22.1085 10.509 22.1188 10.5345C22.1231 10.545 22.1274 10.5555 22.1317 10.5659C22.1324 10.5672 22.1331 10.5684 22.1337 10.5695C22.1353 10.5721 22.1366 10.5744 22.1374 10.5785C22.1684 10.6529 22.1981 10.7262 22.2256 10.7996C22.2383 10.8334 22.2502 10.867 22.2621 10.9004C22.2772 10.9427 22.2921 10.9847 22.3081 11.0264C22.3673 11.1868 22.4164 11.3512 22.4611 11.5158C22.4685 11.5412 22.4757 11.5667 22.4828 11.5922C22.4848 11.5983 22.4869 11.6045 22.4891 11.6106C22.4949 11.6278 22.5006 11.6473 22.5063 11.6714C22.5166 11.7069 22.5269 11.7447 22.535 11.7825C22.535 11.7825 22.5341 11.7816 22.5329 11.7815C22.5758 11.9469 22.6106 12.1125 22.644 12.2794C22.6464 12.2924 22.6488 12.3057 22.6512 12.3191C22.6537 12.3325 22.6561 12.3458 22.6585 12.3588C22.6585 12.3603 22.6589 12.3619 22.6593 12.3634C22.6596 12.3643 22.6599 12.3652 22.6602 12.3661C22.661 12.3685 22.6618 12.371 22.6618 12.3734C22.6623 12.3762 22.6628 12.379 22.6633 12.3818C22.6673 12.3982 22.6701 12.4152 22.673 12.4323C22.6753 12.446 22.6775 12.4597 22.6804 12.4733C22.6804 12.4746 22.6805 12.476 22.6806 12.4773C22.682 12.4852 22.6833 12.4932 22.6847 12.5011C22.6851 12.5035 22.6855 12.5058 22.6859 12.5082C22.6884 12.5236 22.6909 12.539 22.6932 12.5545C22.6962 12.5725 22.6992 12.5905 22.7022 12.6085C22.7077 12.6408 22.7131 12.6732 22.7182 12.7058C22.7186 12.7068 22.7189 12.7075 22.7191 12.7082C22.7199 12.7101 22.7205 12.7116 22.7205 12.715C22.7219 12.7248 22.723 12.7347 22.724 12.7446C22.7255 12.7589 22.727 12.7734 22.7297 12.7883C22.738 12.846 22.745 12.9025 22.752 12.959C22.7566 12.9967 22.7613 13.0344 22.7664 13.0724C22.7675 13.0804 22.7684 13.0893 22.7692 13.0982C22.7701 13.1071 22.7709 13.116 22.7721 13.124C22.7721 13.1377 22.7732 13.1503 22.7755 13.1664C22.7764 13.1743 22.7772 13.1823 22.7781 13.1902C22.782 13.2262 22.786 13.2627 22.787 13.2992C22.7872 13.3039 22.7874 13.3087 22.7875 13.3136C22.7883 13.3361 22.7891 13.3601 22.7939 13.3817C22.7939 13.4092 22.7961 13.4367 22.7996 13.4654C22.7996 13.4791 22.8007 13.494 22.8019 13.5066C22.8145 13.7025 22.8191 13.8995 22.8168 14.0989C22.8168 14.1928 22.8156 14.2879 22.8099 14.383C22.8088 14.4368 22.8053 14.4906 22.8019 14.5444L22.8019 14.5445C22.8008 14.5612 22.7997 14.5777 22.7987 14.5943C22.7954 14.646 22.7922 14.6975 22.787 14.7496C22.7813 14.8263 22.7755 14.9008 22.7687 14.9764C22.7681 14.9828 22.7675 14.9885 22.7669 14.9943C22.7664 15 22.7658 15.0057 22.7652 15.0119C22.7584 15.0714 22.7504 15.1322 22.7424 15.1919C22.7397 15.2126 22.7369 15.2332 22.7343 15.2536C22.7314 15.2783 22.7283 15.302 22.7251 15.3258C22.722 15.3496 22.7188 15.3733 22.716 15.398C22.716 15.4014 22.7151 15.4051 22.7142 15.4089C22.7134 15.4126 22.7125 15.4163 22.7125 15.4197C22.6988 15.5091 22.6839 15.5996 22.6678 15.6867C22.6667 15.6912 22.6658 15.6967 22.665 15.7021C22.6641 15.7076 22.6633 15.713 22.6621 15.7176C22.6585 15.7398 22.6541 15.762 22.6495 15.7844C22.6474 15.7952 22.6452 15.806 22.6431 15.8169C22.6418 15.8242 22.6404 15.8315 22.6391 15.8388C22.636 15.854 22.6328 15.8691 22.6296 15.8841C22.6108 15.9746 22.5901 16.0631 22.5693 16.1517L22.5693 16.1518C22.5676 16.1592 22.5658 16.1666 22.5641 16.174C22.5567 16.2048 22.5497 16.2344 22.5441 16.264L22.5327 16.3076C22.5281 16.3248 22.5241 16.3414 22.5201 16.358C22.5161 16.3746 22.512 16.3912 22.5075 16.4084C22.5006 16.429 22.4949 16.4485 22.4891 16.4725C22.4787 16.5102 22.4672 16.549 22.4553 16.5874C22.4334 16.6646 22.4107 16.7413 22.3864 16.8174C22.3864 16.819 22.3855 16.8202 22.3847 16.8214C22.3839 16.8226 22.3831 16.8238 22.3831 16.8254C22.3656 16.878 22.3474 16.9312 22.3294 16.9837C22.3207 17.009 22.3121 17.034 22.3037 17.0587C22.2951 17.0823 22.2867 17.1056 22.2783 17.1288C22.2538 17.1966 22.2297 17.2631 22.2027 17.3295C22.1775 17.3982 22.15 17.4647 22.1214 17.5322C22.1172 17.5423 22.1131 17.5525 22.1088 17.5626C22.1086 17.5634 22.1084 17.5642 22.1082 17.565C22.1074 17.5679 22.1067 17.5705 22.1045 17.5739C22.0737 17.6485 22.0429 17.7214 22.0105 17.7927C21.9955 17.8255 21.9802 17.8577 21.965 17.8897C21.9457 17.9303 21.9265 17.9706 21.9084 18.0114C21.8323 18.1766 21.7448 18.337 21.6541 18.4942C21.6443 18.512 21.633 18.5314 21.6233 18.5525C21.6152 18.5687 21.6055 18.5865 21.5925 18.6076C21.5747 18.64 21.5552 18.674 21.5342 18.7064C21.5342 18.7064 21.5342 18.7045 21.5327 18.7036C21.5083 18.7443 21.4835 18.7848 21.4581 18.8256C21.4554 18.8299 21.4526 18.8343 21.4499 18.8387C21.4496 18.8409 21.4483 18.8424 21.4461 18.8447C21.4444 18.8474 21.4427 18.85 21.4411 18.8527C21.4301 18.8716 21.4185 18.89 21.4065 18.9082C21.4044 18.9116 21.4023 18.915 21.4002 18.9184C21.3617 18.9802 21.3233 19.0421 21.2828 19.104C21.2565 19.1422 21.2301 19.1797 21.2035 19.217C21.1942 19.2328 21.1833 19.2481 21.1723 19.2635C21.1642 19.2748 21.1561 19.2861 21.1486 19.2977C21.143 19.3034 21.139 19.3096 21.135 19.3156C21.1322 19.3201 21.1293 19.3244 21.1259 19.3285C21.1065 19.3553 21.0874 19.382 21.0684 19.4088C21.0493 19.4355 21.0303 19.4622 21.0109 19.4889C21.0105 19.4898 21.0101 19.4905 21.0098 19.4912C21.009 19.4931 21.0084 19.4946 21.006 19.497C21.0001 19.505 20.9938 19.5126 20.9876 19.5204C20.9785 19.5316 20.9693 19.5429 20.9607 19.5553C20.9257 19.602 20.8907 19.6469 20.8557 19.6918C20.8324 19.7217 20.809 19.7517 20.7857 19.7822C20.7808 19.7886 20.7752 19.7955 20.7695 19.8024C20.7638 19.8093 20.7581 19.8162 20.7533 19.8227C20.7436 19.8324 20.7355 19.8421 20.7257 19.8551C20.7207 19.8613 20.7157 19.8675 20.7107 19.8738C20.6881 19.9019 20.6651 19.9306 20.6399 19.9571C20.6367 19.9606 20.6334 19.9641 20.6301 19.9677C20.6148 19.9841 20.5984 20.0017 20.5864 20.0203C20.567 20.0398 20.5492 20.0608 20.5313 20.0835C20.5216 20.0932 20.5119 20.1046 20.5038 20.1143C20.3742 20.2617 20.2381 20.4043 20.0955 20.5436C20.0291 20.61 19.9611 20.6765 19.8898 20.7396C19.8509 20.7769 19.8105 20.8125 19.77 20.8481L19.7699 20.8482C19.7573 20.8592 19.7449 20.8701 19.7324 20.8811C19.6935 20.9154 19.6549 20.9495 19.6143 20.9827C19.556 21.0329 19.4993 21.0815 19.441 21.1301C19.4361 21.1341 19.4317 21.1378 19.4272 21.1414C19.4228 21.1451 19.4183 21.1487 19.4135 21.1528C19.3665 21.1901 19.3178 21.2273 19.27 21.264C19.2534 21.2767 19.2369 21.2893 19.2207 21.3018C19.2012 21.3172 19.1822 21.3318 19.1631 21.3464C19.1441 21.361 19.1251 21.3755 19.1056 21.3909C19.1032 21.3934 19.1 21.3954 19.0967 21.3974C19.0935 21.3994 19.0902 21.4015 19.0878 21.4039C19.0149 21.4573 18.9404 21.5108 18.8675 21.561C18.8634 21.5635 18.859 21.5667 18.8545 21.5699C18.8501 21.5732 18.8456 21.5764 18.8416 21.5789C18.8233 21.592 18.8045 21.6045 18.7854 21.6172C18.774 21.6248 18.7624 21.6325 18.7508 21.6404C18.7237 21.6587 18.6966 21.6765 18.6694 21.6941C18.6277 21.7218 18.5855 21.749 18.5426 21.7755C18.5317 21.783 18.5214 21.7887 18.5103 21.7949C18.5088 21.7957 18.5072 21.7966 18.5056 21.7975C18.4967 21.803 18.4877 21.8086 18.4788 21.8141C18.4567 21.8282 18.4344 21.8421 18.4117 21.8557C18.3981 21.8643 18.3848 21.8729 18.3717 21.8818L18.3328 21.9045C18.3175 21.9134 18.3029 21.9223 18.2883 21.9312C18.2737 21.9401 18.2591 21.9491 18.2437 21.958C18.2243 21.9677 18.2065 21.9774 18.1854 21.9904C18.1368 22.0179 18.085 22.0454 18.0347 22.0714C18.0094 22.0857 17.9834 22.0992 17.9566 22.1131C17.9346 22.1247 17.9127 22.1363 17.8907 22.1478L17.8643 22.1612C17.8277 22.1797 17.791 22.1982 17.7542 22.2165C17.7032 22.2426 17.6508 22.2683 17.5983 22.2923C17.5957 22.2935 17.593 22.2948 17.5903 22.296C17.551 22.3156 17.5116 22.3338 17.472 22.3516C17.4344 22.369 17.3965 22.3857 17.3585 22.4022C17.3059 22.4262 17.2532 22.4483 17.1996 22.4701C17.0493 22.5329 16.898 22.5918 16.7451 22.6473C16.6638 22.6759 16.579 22.7057 16.4943 22.7332C16.4782 22.7378 16.4633 22.7412 16.4507 22.7469C16.4301 22.7532 16.4094 22.7596 16.3888 22.766C16.3267 22.7851 16.2646 22.8042 16.2044 22.8214C16.1811 22.8277 16.1581 22.8343 16.1353 22.8409C16.1 22.8511 16.0651 22.8612 16.0303 22.8695C15.9696 22.8867 15.91 22.9027 15.8493 22.9176C15.6442 22.9692 15.4392 23.0116 15.233 23.0459C15.2307 23.0436 15.2238 23.0436 15.2238 23.0436L15.2215 23.0459L14.9798 23.0837C14.7369 23.1227 14.4895 23.1502 14.2409 23.1628C14.0862 23.1731 13.9316 23.1811 13.7758 23.1788C13.7082 23.1823 13.6394 23.1823 13.573 23.18C13.4115 23.1788 13.2511 23.1742 13.0918 23.1616C13.0907 23.1628 13.0873 23.1616 13.0873 23.1616C12.7562 23.1422 12.4251 23.1021 12.0975 23.0471C11.897 23.0116 11.6931 22.9703 11.496 22.9199C11.4307 22.905 11.3643 22.889 11.2978 22.873C11.264 22.8637 11.2296 22.8529 11.1948 22.842C11.1777 22.8366 11.1605 22.8313 11.1432 22.826C10.4054 22.6175 9.69288 22.3105 9.02156 21.9118C8.6507 21.693 8.29382 21.4447 7.9525 21.1676C7.83979 21.0784 7.72941 20.9855 7.62229 20.8887C7.50564 20.7866 7.39061 20.6829 7.28207 20.5711C7.23184 20.5258 7.18324 20.4772 7.13788 20.4286C7.02447 20.3135 6.9143 20.1969 6.81061 20.0754C6.80899 20.0754 6.80737 20.0722 6.80737 20.0722C6.58704 19.8243 6.38128 19.5618 6.18849 19.2913C6.07184 19.1244 5.95682 18.951 5.85313 18.7761C5.81752 18.7194 5.78192 18.6612 5.74632 18.6029L5.7462 18.6027C5.72879 18.5723 5.71212 18.5403 5.69519 18.5079C5.68691 18.4921 5.67857 18.4761 5.67006 18.4601C5.29581 17.791 5.00905 17.0701 4.81626 16.3135C4.63156 15.5974 4.5376 14.8489 4.5376 14.0761V13.9271C4.5376 13.2968 5.04145 12.7736 5.67006 12.7736Z" fill="#34A49A"/>
<path fill-rule="evenodd" clip-rule="evenodd" d="M18.2443 1.11687C18.256 1.12133 18.2678 1.12578 18.2799 1.12983L18.2751 1.12173L18.7967 1.33072C18.8194 1.34206 18.8437 1.35178 18.868 1.3615L18.868 1.36151C19.03 1.42793 19.1888 1.49598 19.346 1.56726C19.3516 1.56969 19.3573 1.57253 19.363 1.57536C19.3686 1.5782 19.3743 1.58103 19.38 1.58346C21.8458 2.71916 23.8742 4.5515 25.2642 6.78888C25.5947 7.32513 25.4279 8.02664 24.8932 8.35714C24.3618 8.68602 23.6668 8.52239 23.3331 7.99586C22.5165 6.67871 21.4343 5.52843 20.1398 4.63089C20.1366 4.62927 20.1333 4.62603 20.1301 4.62441C19.9778 4.51748 19.8207 4.41541 19.6619 4.31659C19.6505 4.30849 19.6376 4.30039 19.6262 4.29391C19.4756 4.20156 19.3217 4.11245 19.1661 4.02659C19.1579 4.02217 19.1497 4.01751 19.1414 4.01279C19.1284 4.0054 19.1152 3.99787 19.1013 3.99094C18.9539 3.91156 18.8048 3.83379 18.6542 3.76089C18.638 3.75279 18.6218 3.7451 18.6056 3.7374C18.5894 3.72971 18.5732 3.72201 18.557 3.71391C18.416 3.64586 18.2718 3.58106 18.126 3.51949C18.1041 3.51058 18.0823 3.50126 18.0604 3.49195C18.0385 3.48263 18.0167 3.47332 17.9948 3.46441C17.8571 3.40771 17.7194 3.35586 17.5784 3.30402L17.418 3.24569C17.2852 3.19871 17.1491 3.15497 17.013 3.11285C16.9822 3.10394 16.951 3.09462 16.9199 3.08531C16.8887 3.07599 16.8575 3.06667 16.8267 3.05776C16.6955 3.0205 16.561 2.98486 16.4265 2.95083C16.3601 2.93463 16.2937 2.91843 16.2256 2.90223C16.1957 2.89575 16.1665 2.88846 16.1373 2.88117C16.1082 2.87388 16.079 2.86659 16.049 2.86011C15.4852 2.74022 14.9214 2.66245 14.3625 2.62843C14.3512 2.62681 14.3414 2.62681 14.3301 2.62681C14.2718 2.62357 14.2135 2.62195 14.1551 2.62033C14.1355 2.61968 14.1158 2.61849 14.0962 2.61731C14.0674 2.61557 14.0389 2.61385 14.0109 2.61385H13.9785H13.9235L13.9189 2.61358C13.893 2.61206 13.8685 2.61061 13.8441 2.61061H13.6788H13.5703H13.4925C13.4569 2.61223 13.4196 2.61385 13.384 2.61385H13.3078C13.2618 2.61492 13.2165 2.61741 13.1709 2.61991C13.1475 2.62119 13.1241 2.62247 13.1004 2.62357C13.0518 2.62519 13.0049 2.62681 12.9563 2.63005C12.9433 2.63086 12.9303 2.63208 12.9174 2.63329C12.9044 2.63451 12.8914 2.63572 12.8785 2.63653C12.8582 2.63815 12.838 2.63937 12.8177 2.64058C12.7975 2.6418 12.7772 2.64301 12.757 2.64463C12.7428 2.64547 12.729 2.64716 12.7155 2.64883C12.7027 2.6504 12.6902 2.65195 12.6776 2.65273C12.6663 2.65435 12.6549 2.65597 12.6436 2.65597C12.603 2.6602 12.5619 2.66399 12.5207 2.6678C12.4829 2.67128 12.445 2.67478 12.407 2.67866C12.3759 2.68157 12.3448 2.68624 12.3137 2.6909C12.293 2.69401 12.2722 2.69712 12.2515 2.69972C12.1754 2.70944 12.0976 2.72078 12.0214 2.73212C11.8935 2.75156 11.7655 2.77262 11.6375 2.7953C11.5678 2.80826 11.4998 2.82123 11.4317 2.83581C11.2956 2.86335 11.1595 2.89413 11.0235 2.92653C10.9935 2.93382 10.9639 2.94152 10.9343 2.94922C10.9048 2.95691 10.8752 2.96461 10.8452 2.9719C10.6994 3.00916 10.5569 3.04804 10.4127 3.09178C10.3625 3.10636 10.3122 3.12257 10.262 3.13877C10.1113 3.18737 9.96067 3.23759 9.80999 3.29268C9.76949 3.30726 9.72737 3.32346 9.68525 3.33966C9.5281 3.3996 9.37094 3.46279 9.21541 3.52921C9.19759 3.53731 9.18018 3.54501 9.16276 3.5527C9.14534 3.5604 9.12793 3.5681 9.11011 3.5762C8.94972 3.64586 8.79095 3.72039 8.63217 3.79977C8.60139 3.81435 8.56899 3.83055 8.53821 3.84676C8.37944 3.92776 8.22067 4.01363 8.06351 4.10273C8.05623 4.10678 8.04893 4.11043 8.04165 4.11407C8.03435 4.11772 8.02706 4.12136 8.01977 4.12541C8.00034 4.13675 7.98252 4.14809 7.96471 4.15942L7.96469 4.15944C7.93164 4.17888 7.89858 4.1978 7.86553 4.21673C7.81596 4.24511 7.76638 4.27349 7.71681 4.30363C7.68603 4.32307 7.65565 4.34332 7.62527 4.36357C7.59489 4.38382 7.56452 4.40407 7.53374 4.42351C7.52078 4.43323 7.50782 4.44133 7.49486 4.44943L7.49486 4.44944C7.34418 4.54826 7.19513 4.64871 7.04932 4.75402C7.04741 4.75529 7.04549 4.75632 7.04367 4.75729C7.04088 4.75879 7.03833 4.76015 7.03636 4.76212C7.02664 4.77022 7.01854 4.7767 7.00882 4.78318C6.98735 4.79857 6.96579 4.81386 6.94422 4.82915C6.87952 4.87502 6.81481 4.92089 6.75284 4.96949C6.39318 5.24653 6.05458 5.54301 5.73542 5.85407C5.72991 5.8487 5.7244 5.84333 5.71888 5.83797C4.29934 7.21927 3.22142 8.98907 2.67134 11.042C2.31073 12.3878 2.20778 13.7423 2.33155 15.0518C2.33576 15.105 2.34154 15.1585 2.34732 15.212C2.35233 15.2528 2.35724 15.2939 2.36215 15.3351C2.36706 15.3762 2.37197 15.4174 2.37698 15.4582C2.39446 15.587 2.41351 15.7162 2.43569 15.8462C2.43926 15.8673 2.44312 15.8889 2.44698 15.9105C2.45085 15.9321 2.45471 15.9537 2.45828 15.9747C2.48742 16.1352 2.51853 16.2945 2.55435 16.455C2.55507 16.4586 2.5559 16.4617 2.55674 16.4649C2.55757 16.468 2.5584 16.4712 2.55912 16.4747C2.76406 17.375 3.08233 18.2654 3.52097 19.1259C4.10903 20.2793 4.86697 21.2889 5.7487 22.1405L5.76785 22.1216C6.4859 22.825 7.29672 23.4343 8.18034 23.9293C8.97408 24.3641 9.8161 24.7027 10.6868 24.9389C10.7609 24.9588 10.8313 24.9855 10.8976 25.0182C11.8042 25.251 12.7545 25.3748 13.7339 25.3748C15.1272 25.3748 16.4622 25.1237 17.6951 24.6652C17.7453 24.6474 17.7955 24.628 17.8457 24.6086L17.8458 24.6085C17.8839 24.5931 17.9225 24.5777 17.9611 24.5622C17.9995 24.5469 18.0379 24.5315 18.0758 24.5162C18.1957 24.4659 18.3156 24.4141 18.4355 24.359C18.4549 24.3501 18.4747 24.3408 18.4945 24.3315C18.5144 24.3222 18.5343 24.3129 18.5538 24.3039C18.7012 24.2343 18.847 24.163 18.9928 24.0868C18.9961 24.0852 18.9989 24.0836 19.0017 24.082C19.0046 24.0804 19.0074 24.0787 19.0106 24.0771C19.8272 23.6462 20.6048 23.1083 21.3225 22.4619C23.8078 20.2229 25.0731 17.1366 25.0828 14.0357C25.0828 13.4071 25.5931 12.8967 26.2218 12.8967C26.8504 12.8967 27.3607 13.4071 27.3607 14.0357L27.3623 14.0389C27.3542 17.0588 26.3514 20.0657 24.3813 22.5299L24.3842 22.5309C24.3876 22.5321 24.3904 22.5332 24.3943 22.5332C23.3412 23.8438 22.0516 24.9568 20.5902 25.8074C20.589 25.808 20.5879 25.8089 20.587 25.8098C20.5862 25.8104 20.5855 25.811 20.5847 25.8115C20.584 25.812 20.5831 25.8123 20.5821 25.8123C20.3975 25.9192 20.2079 26.0245 20.0167 26.1233C19.9992 26.1331 19.9811 26.1422 19.9627 26.1515C19.9506 26.1576 19.9383 26.1638 19.926 26.1703C19.7656 26.2529 19.6036 26.3323 19.4383 26.4085C19.4059 26.423 19.3739 26.4372 19.342 26.4514C19.31 26.4656 19.278 26.4797 19.2456 26.4943C19.1354 26.5429 19.0236 26.5915 18.9118 26.6369C18.779 26.692 18.6445 26.7438 18.51 26.794C18.4404 26.82 18.3707 26.8459 18.301 26.8702C16.5448 27.4972 14.6914 27.7531 12.8591 27.6397C12.8607 27.6349 12.8623 27.63 12.8623 27.6252C10.8262 27.4969 8.91105 26.9223 7.2135 25.9982C5.45766 25.0605 3.89322 23.7332 2.66358 22.0629L2.66187 22.0654C2.6598 22.0683 2.65809 22.0708 2.6571 22.0745C1.66364 20.7181 0.922324 19.1844 0.478971 17.5527C0.478684 17.5513 0.478089 17.5501 0.477525 17.5489C0.476659 17.5471 0.475865 17.5455 0.476373 17.5436C0.420891 17.3375 0.368232 17.1272 0.322252 16.917C0.317385 16.8975 0.313235 16.8777 0.309031 16.8576L0.309027 16.8575L0.309022 16.8575C0.30623 16.8442 0.303415 16.8307 0.30035 16.8172C0.262052 16.6409 0.227306 16.4638 0.196525 16.2845C0.190827 16.2494 0.185415 16.2148 0.180003 16.1803C0.174591 16.1457 0.169179 16.1111 0.163482 16.076C0.145048 15.957 0.127035 15.8365 0.11215 15.7168C0.0933273 15.5742 0.0780531 15.4309 0.0643441 15.288C0.0573362 15.214 0.0503284 15.14 0.0448854 15.0664C-0.106195 13.2078 0.126246 11.3513 0.710035 9.61073L0.710044 9.61073C0.714316 9.61355 0.718588 9.61637 0.72328 9.61763C1.83314 6.32065 4.10549 3.69912 6.95301 2.09214C6.95378 2.09448 6.95454 2.09683 6.9553 2.09917C8.43612 1.26339 10.0748 0.70076 11.7914 0.462346C11.8084 0.459915 11.825 0.457483 11.8416 0.455052C11.8582 0.452623 11.8748 0.450194 11.8918 0.447765C11.9323 0.442904 11.9728 0.438449 12.0133 0.433994C12.0538 0.429539 12.0944 0.425083 12.1349 0.420223C12.1595 0.417421 12.184 0.414425 12.2084 0.411436C12.2545 0.405785 12.3005 0.40016 12.3471 0.395921C12.4783 0.382961 12.6095 0.37324 12.7408 0.36352L12.7408 0.363519C12.762 0.361947 12.7829 0.360756 12.8035 0.359576C12.8254 0.358325 12.8471 0.357086 12.8688 0.355419L13.0502 0.345698C13.1345 0.340838 13.2187 0.337597 13.303 0.335977H13.3337C13.5071 0.332737 13.6821 0.334357 13.8554 0.335977C13.9332 0.335977 14.0109 0.338711 14.0887 0.341445C14.1146 0.342356 14.1406 0.343268 14.1665 0.344078C14.2027 0.345698 14.2388 0.347138 14.275 0.348578C14.3474 0.351458 14.4197 0.354338 14.4921 0.358659C14.5909 0.365139 14.6898 0.37324 14.7886 0.38134C14.902 0.391061 15.0138 0.400782 15.1256 0.412122C15.1906 0.418734 15.2548 0.426843 15.3189 0.434923C15.349 0.438723 15.379 0.442517 15.4091 0.446145C15.5241 0.460726 15.6392 0.475307 15.7542 0.493128L15.7543 0.49314C15.845 0.507717 15.9357 0.522294 16.0264 0.538491C16.0418 0.541283 16.0573 0.544076 16.0728 0.546872C16.1743 0.565165 16.2767 0.583621 16.3779 0.603295C16.4638 0.619496 16.5513 0.638938 16.6371 0.658379C16.757 0.684301 16.8769 0.711843 16.9952 0.741005C17.0778 0.762066 17.1588 0.783128 17.2414 0.805809C17.363 0.838211 17.4845 0.872234 17.606 0.907876C17.6449 0.920032 17.6834 0.932188 17.7219 0.944344C17.7603 0.95649 17.7988 0.968635 17.8376 0.980781C17.8727 0.992321 17.9079 1.00373 17.9432 1.01516C18.0317 1.04383 18.1206 1.07263 18.2086 1.10391C18.2208 1.10796 18.2325 1.11241 18.2443 1.11687Z" fill="#F15B4E"/>
<path fill-rule="evenodd" clip-rule="evenodd" d="M10.1332 16.2717C10.2277 16.4396 10.3347 16.6012 10.4509 16.7549C10.7966 17.2144 11.2305 17.6041 11.725 17.8925C12.3636 18.2743 13.1076 18.4882 13.8996 18.4882H13.9043L13.9041 18.2721L13.9058 18.4882H13.9104C14.7024 18.4882 15.4449 18.2727 16.085 17.8925C16.5841 17.601 17.0197 17.2096 17.3653 16.7438C17.4816 16.5901 17.5885 16.4301 17.6799 16.2606C18.0535 15.6078 18.2627 14.8474 18.2627 14.0378V14.033C18.2627 13.2218 18.0473 12.4597 17.6737 11.8054H17.6784C17.5838 11.6375 17.4769 11.4759 17.3607 11.3222C17.015 10.8627 16.581 10.473 16.0866 10.1846C15.448 9.80277 14.704 9.58888 13.912 9.58888H13.9073L13.9054 9.85577L13.9058 9.58887H13.9012C13.1091 9.58887 12.3667 9.80434 11.7265 10.1846C11.2274 10.4761 10.7919 10.8674 10.4463 11.3332C10.33 11.4869 10.2231 11.6469 10.1316 11.8165C9.75807 12.4692 9.54883 13.2297 9.54883 14.0393V14.0441C9.54883 14.8553 9.76428 15.6173 10.1378 16.2717H10.1332ZM13.8916 11.8165C12.6933 11.82 11.7234 12.8136 11.7234 14.0393V14.0441C11.7265 15.2688 12.6999 16.2606 13.8981 16.2606H13.9027L13.9135 16.2606C15.1147 16.2606 16.0881 15.2656 16.0881 14.0378V14.033C16.085 12.8083 15.1116 11.8165 13.9135 11.8165L13.8916 11.8165Z" fill="#F4B42B"/>
</svg>
