<svg width="148" height="72" viewBox="0 0 148 72" fill="none" xmlns="http://www.w3.org/2000/svg">
<path d="M81.8641 27.3165C81.1631 28.4992 79.6837 29.0129 78.334 29.0129C75.2455 29.0129 73.4794 26.778 73.4794 24.0295V16.0363H76.932V23.3334C76.932 24.7459 77.6581 25.8769 79.2672 25.8769C80.7989 25.8769 81.682 24.8496 81.682 23.3852V16.0363H85.1346V26.3905C85.1346 27.366 85.212 28.2401 85.2644 28.6772H81.9665C81.9164 28.4204 81.8641 27.8301 81.8641 27.3165Z" fill="#414042"/>
<path d="M93.0801 16.0364H95.6497V19.0687H93.0801V24.3607C93.0801 25.4647 93.599 25.8251 94.5845 25.8251C95.001 25.8251 95.4676 25.7733 95.6497 25.7237V28.5488C95.3379 28.6773 94.7143 28.8575 93.7037 28.8575C91.2115 28.8575 89.6548 27.3931 89.6548 24.9533V19.0687H87.3447V16.0364H87.9933C89.343 16.0364 89.9643 15.1623 89.9643 14.0313V12.2583H93.0801V16.0364V16.0364Z" fill="#414042"/>
<path d="M106.914 27.3165C106.213 28.4992 104.733 29.0129 103.384 29.0129C100.295 29.0129 98.5292 26.778 98.5292 24.0295V16.0363H101.982V23.3334C101.982 24.7459 102.708 25.8769 104.317 25.8769C105.849 25.8769 106.732 24.8496 106.732 23.3852V16.0363H110.184V26.3905C110.184 27.366 110.262 28.2401 110.314 28.6772H107.016C106.966 28.4204 106.914 27.8301 106.914 27.3165Z" fill="#414042"/>
<path d="M135.063 10.0775H131.61V28.6795H135.063V10.0775Z" fill="#414042"/>
<path d="M138.75 16.0362H142.202V28.6771H138.75V16.0362Z" fill="#414042"/>
<path d="M142.592 11.9C142.592 10.7195 141.658 9.76874 140.464 9.76874C139.296 9.76874 138.336 10.7195 138.336 11.9C138.336 13.0309 139.296 13.9816 140.464 13.9816C141.656 13.9816 142.592 13.0309 142.592 11.9Z" fill="#414042"/>
<path d="M69.3519 12.7887C69.1961 12.5043 69.0166 12.2389 68.8238 11.9816C68.235 11.1854 67.4931 10.5193 66.6429 10.0183C65.555 9.3656 64.2876 9 62.9384 9H62.9305C61.5786 9 60.3085 9.37643 59.2181 10.0291C58.9408 10.1889 58.6821 10.373 58.4312 10.5707C58.0378 10.8767 57.6787 11.2234 57.3566 11.6025C56.8232 10.9769 56.1974 10.4353 55.4872 10.021C54.3993 9.3683 53.1319 9.00271 51.7827 9.00271H51.7748C50.4229 9.00271 49.1529 9.37914 48.0624 10.0318C47.7851 10.1916 47.5264 10.3757 47.2755 10.5734C46.7554 10.9796 46.2933 11.4536 45.8972 11.987C45.7045 12.2443 45.525 12.5124 45.3692 12.7941C44.7328 13.9098 44.3658 15.2124 44.3658 16.6017H44.35V28.8294H48.0624V16.6017H48.0782C48.0835 14.511 49.7364 12.8157 51.7721 12.813H51.7801C53.8211 12.813 55.4793 14.5083 55.4845 16.6017V28.0218H55.503V28.8294H59.2154V16.6017H59.2313C59.2365 14.511 60.8894 12.8157 62.9252 12.813H62.9331C64.9741 12.813 66.6323 14.5083 66.6376 16.6017V29H70.35V16.6017C70.35 15.2151 69.983 13.9125 69.3466 12.7941L69.3519 12.7887Z" fill="#414042"/>
<path d="M126.824 11.9816C127.017 12.2389 127.196 12.5043 127.352 12.7887L127.347 12.7941C127.983 13.9125 128.35 15.2151 128.35 16.6017V29H124.638V16.6017C124.632 14.5083 122.974 12.813 120.933 12.813H120.925C118.889 12.8157 117.237 14.511 117.231 16.6017H117.215V28.8294H113.503V28.0218H113.485V16.6017C113.676 13.8311 114.102 12.7655 115.357 11.6025C115.357 11.6025 116.038 10.8767 116.431 10.5707C116.682 10.373 116.941 10.1889 117.218 10.0291C118.309 9.37643 119.579 9 120.93 9H120.938C122.288 9 123.555 9.3656 124.643 10.0183C125.493 10.5193 126.235 11.1854 126.824 11.9816Z" fill="#414042"/>
<path d="M126.991 20L126.991 23.4526L114.35 23.4526L114.35 20L126.991 20Z" fill="#414042"/>
<path fill-rule="evenodd" clip-rule="evenodd" d="M7.8086 17.1303C8.67425 17.1303 9.3748 17.8309 9.3748 18.6965L9.37257 18.6921V18.9063C9.37703 19.9928 9.58452 21.0347 9.93033 22.0052C10.1512 22.6411 10.4412 23.2479 10.7938 23.8101C10.9789 24.118 11.182 24.4125 11.4095 24.6914C11.5278 24.8498 11.6572 25.0037 11.7933 25.1532C12.0208 25.412 12.2663 25.6574 12.5251 25.885C12.679 26.03 12.8352 26.1617 13.0003 26.2844C13.2792 26.5119 13.5737 26.715 13.8815 26.9001C14.4415 27.2504 15.0395 27.5405 15.6731 27.7613C16.3088 27.9877 16.9762 28.1479 17.6669 28.2329C17.6783 28.2341 17.6896 28.2353 17.701 28.2364C17.709 28.2376 17.7171 28.2387 17.7251 28.2399C18.0846 28.2818 18.4503 28.3035 18.8211 28.3035H18.8278C19.9299 28.3035 20.9852 28.1161 21.9691 27.7658C22.9486 27.4244 23.8544 26.9224 24.6553 26.2866C24.8137 26.1684 24.9677 26.0389 25.1171 25.9029C25.3804 25.6686 25.6281 25.4209 25.8623 25.1577C25.9493 25.0662 26.0297 24.9725 26.1077 24.8743C26.3844 24.5419 26.641 24.1894 26.8641 23.8146C26.9773 23.6339 27.0842 23.4486 27.1843 23.2593C27.2389 23.1549 27.2913 23.0497 27.3417 22.9436C27.3945 22.8344 27.445 22.7243 27.4932 22.6135C27.5783 22.4156 27.6565 22.2141 27.7275 22.0097C27.8877 21.5568 28.0143 21.0888 28.1043 20.6081C28.1414 20.4059 28.1717 20.2025 28.1952 19.9982C28.2021 19.9504 28.2084 19.9023 28.2141 19.854C28.2479 19.5302 28.2652 19.2014 28.2652 18.8683V18.8616C28.2652 18.7661 28.2637 18.6709 28.2609 18.5761C28.2584 18.4996 28.2549 18.4231 28.2504 18.3465C28.2502 18.3367 28.2499 18.3269 28.2496 18.3172C28.2213 17.8254 28.155 17.3438 28.0538 16.8752C28.0397 16.8128 28.0248 16.7505 28.009 16.6884C27.982 16.5705 27.9524 16.4529 27.9204 16.3359C27.8616 16.1254 27.7957 15.9179 27.723 15.7136C27.6418 15.4845 27.5522 15.2597 27.4543 15.0396C27.4185 14.9598 27.3815 14.8805 27.3433 14.8016C27.2879 14.6856 27.23 14.5705 27.1697 14.4563C27.0711 14.2714 26.9662 14.0903 26.8551 13.9131C26.7391 13.7228 26.6151 13.5354 26.4846 13.3533C26.3064 13.1063 26.1146 12.866 25.9093 12.6334C25.8894 12.6115 25.8693 12.5897 25.8489 12.5678C25.8156 12.53 25.782 12.4924 25.7479 12.4551C25.668 12.369 25.5861 12.284 25.5022 12.2002L25.4975 12.1954C25.3849 12.0828 25.2702 11.9737 25.1534 11.8681C25.1413 11.8574 25.1293 11.8467 25.1171 11.836C25.1067 11.8265 25.0963 11.8171 25.0859 11.8077C24.9601 11.696 24.8319 11.5883 24.7017 11.4846C24.6826 11.47 24.6635 11.4555 24.6442 11.4411C24.5642 11.3777 24.4832 11.3157 24.4011 11.255C23.9201 10.9028 23.4132 10.6021 22.8882 10.3528C22.2792 10.0625 21.6482 9.84165 21.0014 9.69336C20.5849 9.59239 20.1558 9.51982 19.7314 9.48038C19.6036 9.46618 19.4727 9.4583 19.3386 9.45356C18.9946 9.43148 18.6476 9.43148 18.3037 9.45356C18.0954 9.46303 17.8935 9.47881 17.69 9.50878C16.6803 9.62552 15.688 9.91107 14.7588 10.3607C13.817 10.8103 12.9367 11.4224 12.1573 12.2017L12.1526 12.2065L9.92662 9.98048L9.93136 9.97575C10.6981 9.20904 11.5389 8.56064 12.4318 8.03373C13.3516 7.48946 14.3265 7.07297 15.3283 6.78427C15.3859 6.76584 15.4435 6.75077 15.5024 6.73537C15.5241 6.72969 15.546 6.72397 15.5681 6.71801C16.3727 6.50346 17.1946 6.36936 18.0229 6.3173C18.179 6.30626 18.3352 6.29837 18.493 6.29837C18.513 6.29786 18.5332 6.29717 18.5535 6.29649C18.5956 6.29507 18.6382 6.29364 18.6807 6.29364C18.7276 6.29246 18.7744 6.2917 18.8211 6.29134V6.28516H18.8278C19.9121 6.28516 20.9651 6.42125 21.9691 6.68005C22.9114 6.92171 23.8111 7.27058 24.6532 7.71152C24.844 7.81037 25.035 7.91398 25.2214 8.02584C25.4391 8.15205 25.6474 8.28772 25.8556 8.42655C25.8706 8.4368 25.886 8.44745 25.9014 8.4581C25.9167 8.46875 25.9321 8.4794 25.9471 8.48965C25.9495 8.49202 25.9526 8.4936 25.9558 8.49517C25.959 8.49675 25.9621 8.49833 25.9645 8.5007C25.9755 8.50831 25.9864 8.51587 25.9973 8.5234C26.0677 8.57199 26.136 8.61917 26.2043 8.67108C26.2437 8.70105 26.2839 8.73102 26.3242 8.761C26.3644 8.79097 26.4046 8.82095 26.4441 8.85092C26.4717 8.87064 26.4977 8.89037 26.5237 8.91009C26.5498 8.92981 26.5758 8.94953 26.6034 8.96924C26.747 9.08125 26.8905 9.19957 27.0341 9.3242C27.0659 9.35394 27.099 9.38235 27.1326 9.41116C27.1507 9.42667 27.1689 9.44229 27.1871 9.4583C27.2311 9.4973 27.2746 9.53675 27.3187 9.57663C27.3583 9.61256 27.3984 9.64884 27.4395 9.68547C27.4711 9.71604 27.5031 9.7466 27.5351 9.77728C27.6007 9.84002 27.6667 9.90323 27.7314 9.96786L27.7566 9.9931C27.845 10.0814 27.9333 10.1729 28.0185 10.2644C28.0532 10.3039 28.0891 10.3437 28.125 10.3836C28.1609 10.4234 28.1968 10.4632 28.2315 10.5027C28.2962 10.5705 28.3561 10.6399 28.4129 10.7125C28.4212 10.7218 28.4297 10.731 28.4381 10.7401C28.4553 10.7587 28.4722 10.777 28.487 10.7961C28.4986 10.811 28.5106 10.8254 28.5229 10.8401C28.5339 10.8535 28.5452 10.867 28.5565 10.8813L28.6984 11.0517C28.7297 11.0919 28.7603 11.132 28.7909 11.1724C28.8253 11.2176 28.8598 11.263 28.8956 11.3088C28.9745 11.4129 29.0518 11.5186 29.126 11.6275C29.1907 11.7174 29.2538 11.8058 29.3169 11.8973C29.4021 12.0266 29.4794 12.1513 29.5582 12.2806C29.6277 12.3879 29.6955 12.4999 29.7586 12.6135C29.8501 12.7744 29.94 12.9337 30.0236 13.0962C30.0252 13.0978 30.0256 13.0998 30.026 13.1018C30.0264 13.1037 30.0268 13.1057 30.0284 13.1073C30.0625 13.1755 30.0966 13.2452 30.1302 13.3139C30.1464 13.3468 30.1624 13.3795 30.1782 13.4118C30.1928 13.4431 30.2073 13.474 30.2217 13.5048C30.2668 13.6011 30.3111 13.6955 30.3518 13.7935C30.3707 13.844 30.3912 13.8898 30.4149 13.9418C30.4316 13.9764 30.446 14.0119 30.4602 14.0469C30.4661 14.0614 30.472 14.0758 30.478 14.0901C30.4789 14.092 30.4799 14.0936 30.4808 14.0951C30.4829 14.0987 30.4848 14.1019 30.4859 14.1075C30.5285 14.21 30.5695 14.311 30.6073 14.412C30.6247 14.4585 30.6412 14.5048 30.6575 14.5508C30.6783 14.6091 30.6989 14.667 30.7209 14.7243C30.8024 14.9451 30.87 15.1715 30.9315 15.3983C30.9417 15.4333 30.9517 15.4684 30.9615 15.5035C30.9642 15.5119 30.9671 15.5204 30.9702 15.5289C30.9781 15.5526 30.986 15.5794 30.9938 15.6125C31.008 15.6614 31.0222 15.7135 31.0333 15.7655C31.0333 15.7655 31.0321 15.7643 31.0304 15.7642C31.0895 15.992 31.1374 16.2199 31.1834 16.4499C31.1867 16.4677 31.1901 16.4861 31.1934 16.5045C31.1968 16.5229 31.2001 16.5413 31.2035 16.5592C31.2035 16.5613 31.2039 16.5634 31.2045 16.5655C31.2049 16.5667 31.2053 16.568 31.2057 16.5692C31.2068 16.5726 31.2079 16.5759 31.2079 16.5793C31.2086 16.5831 31.2094 16.587 31.2101 16.5909C31.2155 16.6135 31.2194 16.6369 31.2234 16.6604C31.2265 16.6792 31.2296 16.6982 31.2336 16.7168C31.2336 16.7187 31.2337 16.7205 31.2338 16.7224C31.2357 16.7333 31.2376 16.7442 31.2395 16.7552C31.2401 16.7584 31.2407 16.7617 31.2411 16.7649C31.2446 16.7861 31.248 16.8073 31.2512 16.8286C31.2553 16.8535 31.2595 16.8782 31.2636 16.903C31.2711 16.9475 31.2786 16.9921 31.2857 17.0371C31.2861 17.0383 31.2866 17.0394 31.2869 17.0403C31.288 17.043 31.2889 17.0451 31.2889 17.0497C31.2908 17.0632 31.2922 17.0768 31.2936 17.0904C31.2957 17.1102 31.2978 17.1301 31.3015 17.1507C31.3128 17.2302 31.3225 17.3079 31.3321 17.3857C31.3386 17.4376 31.345 17.4895 31.352 17.5419C31.3535 17.5529 31.3547 17.5652 31.3559 17.5774C31.3571 17.5896 31.3583 17.6018 31.3599 17.6129C31.3599 17.6318 31.3614 17.6492 31.3646 17.6713C31.3657 17.6822 31.3669 17.6932 31.3681 17.7042C31.3736 17.7536 31.3791 17.8039 31.3804 17.8543C31.3806 17.8607 31.3809 17.8673 31.3811 17.874C31.3822 17.905 31.3833 17.938 31.3898 17.9679C31.3898 18.0057 31.393 18.0436 31.3977 18.083C31.3977 18.1019 31.3993 18.1225 31.4009 18.1398C31.4182 18.4096 31.4245 18.6809 31.4214 18.9554C31.4214 19.0848 31.4198 19.2157 31.4119 19.3467C31.4103 19.4208 31.4056 19.4949 31.4009 19.569L31.4009 19.5691C31.3993 19.592 31.3979 19.6149 31.3965 19.6377C31.392 19.7089 31.3875 19.7798 31.3804 19.8515C31.3725 19.9572 31.3646 20.0597 31.3551 20.1639C31.3543 20.1726 31.3535 20.1806 31.3527 20.1886C31.3519 20.1964 31.3512 20.2042 31.3504 20.2128C31.341 20.2947 31.3299 20.3784 31.319 20.4606C31.3152 20.4892 31.3115 20.5176 31.3078 20.5456C31.3038 20.5796 31.2995 20.6123 31.2952 20.645C31.2908 20.6778 31.2865 20.7105 31.2826 20.7444C31.2826 20.7492 31.2814 20.7543 31.2802 20.7594C31.279 20.7645 31.2778 20.7697 31.2778 20.7744C31.2589 20.8974 31.2384 21.0221 31.2163 21.142C31.2147 21.1483 31.2135 21.1558 31.2123 21.1633C31.2112 21.1708 31.21 21.1783 31.2084 21.1846C31.2035 21.2151 31.1973 21.2457 31.1911 21.2766C31.1881 21.2914 31.1851 21.3063 31.1822 21.3213C31.1804 21.3313 31.1786 21.3414 31.1767 21.3515C31.1724 21.3725 31.168 21.3932 31.1636 21.4139C31.1377 21.5385 31.1092 21.6604 31.0806 21.7824L31.0806 21.7825C31.0782 21.7928 31.0758 21.803 31.0734 21.813C31.0633 21.8555 31.0536 21.8963 31.0459 21.9371L31.0301 21.997C31.0238 22.0207 31.0183 22.0436 31.0128 22.0665C31.0073 22.0893 31.0017 22.1122 30.9954 22.1359C30.986 22.1643 30.9781 22.1911 30.9702 22.2242C30.9558 22.2761 30.9399 22.3295 30.9236 22.3823C30.8934 22.4887 30.8622 22.5943 30.8287 22.6991C30.8287 22.7013 30.8275 22.703 30.8264 22.7046C30.8253 22.7063 30.8242 22.708 30.8242 22.7102C30.8001 22.7825 30.775 22.8559 30.7502 22.9282C30.7383 22.9629 30.7265 22.9974 30.7149 23.0315C30.703 23.0639 30.6914 23.0961 30.6798 23.128C30.6461 23.2213 30.613 23.3129 30.5757 23.4044C30.541 23.499 30.5032 23.5905 30.4638 23.6835C30.4581 23.6974 30.4523 23.7114 30.4465 23.7253C30.4461 23.7265 30.4458 23.7276 30.4456 23.7286C30.4445 23.7327 30.4436 23.7363 30.4405 23.741C30.3981 23.8436 30.3557 23.944 30.3111 24.0422C30.2904 24.0874 30.2693 24.1318 30.2484 24.1758C30.2218 24.2317 30.1955 24.2872 30.1705 24.3433C30.0656 24.5709 29.9452 24.7918 29.8202 25.0082C29.8068 25.0327 29.7912 25.0595 29.7778 25.0885C29.7667 25.1108 29.7533 25.1354 29.7354 25.1644C29.7109 25.209 29.6841 25.2558 29.6551 25.3005C29.6551 25.3005 29.6551 25.2978 29.6531 25.2966C29.6195 25.3526 29.5853 25.4085 29.5503 25.4646C29.5466 25.4706 29.5428 25.4766 29.539 25.4826C29.5386 25.4857 29.5369 25.4878 29.5338 25.491C29.5315 25.4946 29.5292 25.4983 29.5269 25.5019C29.5118 25.528 29.4958 25.5533 29.4793 25.5783C29.4764 25.583 29.4735 25.5877 29.4706 25.5924C29.4176 25.6776 29.3647 25.7628 29.309 25.8479C29.2727 25.9006 29.2363 25.9522 29.1997 26.0037C29.1869 26.0254 29.1719 26.0465 29.1568 26.0676C29.1457 26.0832 29.1345 26.0988 29.1241 26.1148C29.1164 26.1226 29.1109 26.1311 29.1054 26.1395C29.1015 26.1455 29.0976 26.1516 29.0929 26.1572C29.0661 26.194 29.0399 26.2309 29.0137 26.2677C28.9875 26.3045 28.9613 26.3413 28.9345 26.3781C28.9339 26.3793 28.9335 26.3803 28.933 26.3813C28.9319 26.3839 28.9311 26.386 28.9278 26.3892C28.9196 26.4002 28.911 26.4107 28.9024 26.4214C28.8899 26.4368 28.8772 26.4524 28.8653 26.4695C28.8171 26.5338 28.769 26.5956 28.7208 26.6575C28.6886 26.6987 28.6565 26.7399 28.6244 26.7819C28.6177 26.7908 28.6099 26.8003 28.6021 26.8098C28.5943 26.8193 28.5864 26.8287 28.5798 26.8377C28.5664 26.8511 28.5552 26.8644 28.5418 26.8823C28.5349 26.8908 28.528 26.8994 28.5211 26.9081C28.4899 26.9469 28.4583 26.9863 28.4236 27.0228C28.4192 27.0276 28.4147 27.0324 28.4101 27.0374C28.389 27.06 28.3665 27.0842 28.35 27.1099C28.3232 27.1366 28.2986 27.1656 28.2741 27.1969C28.2607 27.2103 28.2473 27.2259 28.2362 27.2393C28.0577 27.4423 27.8703 27.6386 27.6739 27.8305C27.5825 27.922 27.4888 28.0134 27.3906 28.1004C27.3371 28.1517 27.2814 28.2008 27.2256 28.2498L27.2255 28.2499C27.2082 28.2651 27.1911 28.2802 27.174 28.2953C27.1204 28.3425 27.0671 28.3895 27.0113 28.4351C26.931 28.5043 26.8529 28.5712 26.7726 28.6381C26.7659 28.6437 26.7598 28.6487 26.7536 28.6538C26.7475 28.6588 26.7414 28.6638 26.7347 28.6694C26.6701 28.7207 26.603 28.7721 26.5371 28.8225C26.5143 28.84 26.4916 28.8574 26.4692 28.8746C26.4424 28.8958 26.4162 28.9159 26.39 28.936C26.3638 28.9561 26.3375 28.9761 26.3108 28.9973C26.3074 29.0007 26.303 29.0035 26.2985 29.0063C26.294 29.009 26.2896 29.0118 26.2862 29.0152C26.1858 29.0888 26.0832 29.1624 25.9828 29.2316C25.9772 29.2349 25.9711 29.2394 25.965 29.2439C25.9588 29.2483 25.9527 29.2528 25.9471 29.2561C25.922 29.2742 25.8961 29.2915 25.8698 29.3089C25.854 29.3194 25.8381 29.33 25.8222 29.3409C25.7848 29.366 25.7474 29.3906 25.7101 29.4148C25.6526 29.4529 25.5945 29.4904 25.5354 29.5269C25.5203 29.5373 25.5062 29.5452 25.491 29.5536C25.4888 29.5548 25.4866 29.556 25.4844 29.5572C25.4721 29.5649 25.4599 29.5725 25.4476 29.5801C25.4171 29.5995 25.3863 29.6186 25.3552 29.6373C25.3364 29.6492 25.3181 29.6611 25.3001 29.6733L25.2465 29.7046C25.2254 29.7169 25.2053 29.7291 25.1852 29.7414C25.1651 29.7537 25.145 29.7659 25.1238 29.7782C25.0971 29.7916 25.0725 29.805 25.0435 29.8228C24.9766 29.8608 24.9052 29.8987 24.836 29.9344C24.8012 29.9541 24.7653 29.9728 24.7284 29.9918C24.6981 30.0079 24.6679 30.0238 24.6377 30.0396L24.6013 30.058C24.5509 30.0835 24.5003 30.109 24.4497 30.1343C24.3794 30.1702 24.3073 30.2056 24.2351 30.2386C24.2314 30.2403 24.2277 30.242 24.224 30.2437C24.1699 30.2707 24.1157 30.2957 24.0611 30.3202C24.0093 30.3442 23.9572 30.3673 23.9048 30.39C23.8323 30.423 23.7597 30.4534 23.6859 30.4835C23.4789 30.57 23.2707 30.651 23.0601 30.7275C22.9481 30.7669 22.8314 30.8079 22.7146 30.8458C22.6925 30.8521 22.672 30.8568 22.6547 30.8647C22.6263 30.8734 22.5978 30.8821 22.5693 30.8909C22.4838 30.9172 22.3983 30.9436 22.3155 30.9673C22.2834 30.9759 22.2517 30.985 22.2203 30.9941C22.1717 31.0081 22.1237 31.022 22.0757 31.0335C21.9921 31.0572 21.91 31.0793 21.8264 31.0998C21.544 31.1708 21.2617 31.2291 20.9777 31.2765C20.9745 31.2733 20.9651 31.2733 20.9651 31.2733L20.9619 31.2765L20.629 31.3285C20.2946 31.3822 19.9538 31.42 19.6115 31.4374C19.3985 31.4516 19.1855 31.4626 18.971 31.4595C18.8779 31.4642 18.7833 31.4642 18.6918 31.461C18.4693 31.4595 18.2484 31.4531 18.0292 31.4358C18.0276 31.4374 18.0229 31.4358 18.0229 31.4358C17.5669 31.409 17.111 31.3538 16.6598 31.278C16.3837 31.2291 16.1029 31.1723 15.8316 31.1029C15.7416 31.0824 15.6501 31.0603 15.5586 31.0382C15.512 31.0255 15.4647 31.0107 15.4167 30.9956C15.3932 30.9882 15.3695 30.9808 15.3457 30.9736C14.3297 30.6864 13.3484 30.2636 12.424 29.7146C11.9132 29.4134 11.4218 29.0714 10.9518 28.6898C10.7965 28.567 10.6445 28.439 10.497 28.3057C10.3364 28.1651 10.178 28.0224 10.0285 27.8684C9.95934 27.806 9.8924 27.739 9.82993 27.6721C9.67376 27.5137 9.52205 27.353 9.37926 27.1857C9.37703 27.1857 9.3748 27.1813 9.3748 27.1813C9.07137 26.8399 8.78803 26.4785 8.52253 26.1059C8.3619 25.8761 8.20349 25.6374 8.0607 25.3964C8.01168 25.3184 7.96264 25.2382 7.91362 25.1579L7.91345 25.1577C7.88948 25.1157 7.86652 25.0718 7.84321 25.0272C7.83181 25.0053 7.82032 24.9833 7.8086 24.9614C7.29322 24.0399 6.89832 23.0471 6.63283 22.0052C6.37849 21.0191 6.24908 19.9883 6.24908 18.9241V18.7188C6.24908 17.851 6.94294 17.1303 7.8086 17.1303Z" fill="#34A49A"/>
<path fill-rule="evenodd" clip-rule="evenodd" d="M25.1243 1.07795C25.1404 1.08408 25.1566 1.09022 25.1733 1.09579L25.1667 1.08464L25.885 1.37245C25.9163 1.38806 25.9497 1.40144 25.9832 1.41483L25.9832 1.41484C26.2063 1.50631 26.425 1.60001 26.6414 1.69818C26.6492 1.70153 26.657 1.70543 26.6648 1.70934C26.6726 1.71324 26.6804 1.71714 26.6882 1.72049C30.0839 3.28446 32.8772 5.80779 34.7914 8.88888C35.2466 9.62736 35.0168 10.5934 34.2805 11.0485C33.5487 11.5014 32.5916 11.2761 32.132 10.551C31.0076 8.73717 29.5172 7.15312 27.7346 5.91711C27.7301 5.91488 27.7257 5.91042 27.7212 5.90819C27.5115 5.76094 27.2951 5.62038 27.0764 5.48428C27.0608 5.47313 27.043 5.46197 27.0274 5.45305C26.8199 5.32588 26.6079 5.20317 26.3937 5.08493C26.3824 5.07884 26.3711 5.07242 26.3597 5.06593C26.3418 5.05575 26.3236 5.04538 26.3045 5.03584C26.1015 4.92652 25.8962 4.81943 25.6887 4.71903C25.6664 4.70788 25.6441 4.69728 25.6218 4.68669C25.5995 4.67609 25.5772 4.66549 25.5549 4.65433C25.3608 4.56063 25.1622 4.47138 24.9614 4.3866C24.9313 4.37433 24.9011 4.3615 24.871 4.34867C24.8409 4.33584 24.8108 4.32302 24.7807 4.31075C24.591 4.23266 24.4014 4.16127 24.2073 4.08987L23.9864 4.00956C23.8035 3.94485 23.6161 3.88462 23.4287 3.82661C23.3863 3.81434 23.3433 3.80151 23.3004 3.78869C23.2574 3.77586 23.2145 3.76303 23.1721 3.75075C22.9914 3.69944 22.8062 3.65035 22.621 3.6035C22.5295 3.58119 22.4381 3.55888 22.3444 3.53657C22.3031 3.52765 22.2629 3.51761 22.2228 3.50757C22.1826 3.49753 22.1424 3.48749 22.1012 3.47856C21.3248 3.31347 20.5484 3.20637 19.7786 3.15952C19.763 3.15729 19.7496 3.15729 19.734 3.15729C19.6537 3.15283 19.5734 3.1506 19.4931 3.14837C19.466 3.14746 19.4389 3.14583 19.4119 3.1442C19.3723 3.14181 19.333 3.13944 19.2945 3.13944H19.2499H19.174L19.1677 3.13907C19.1321 3.13697 19.0984 3.13498 19.0647 3.13498H18.8371H18.6877H18.5806C18.5315 3.13721 18.4802 3.13944 18.4311 3.13944H18.3262C18.2628 3.14092 18.2004 3.14434 18.1377 3.14778C18.1055 3.14955 18.0732 3.15132 18.0406 3.15283C17.9737 3.15506 17.909 3.15729 17.8421 3.16175C17.8242 3.16287 17.8064 3.16454 17.7885 3.16622C17.7707 3.16789 17.7528 3.16956 17.735 3.17068C17.7071 3.17291 17.6792 3.17458 17.6513 3.17626C17.6234 3.17793 17.5956 3.1796 17.5677 3.18183C17.5481 3.18298 17.5292 3.18531 17.5105 3.18761C17.493 3.18977 17.4757 3.19191 17.4583 3.19299C17.4427 3.19522 17.4271 3.19745 17.4115 3.19745C17.3556 3.20327 17.2991 3.20849 17.2423 3.21373C17.1903 3.21853 17.138 3.22335 17.0858 3.22869C17.0429 3.2327 17.0001 3.23913 16.9573 3.24555C16.9287 3.24984 16.9001 3.25412 16.8716 3.25769C16.7667 3.27108 16.6596 3.28669 16.5548 3.30231C16.3785 3.32908 16.2023 3.35809 16.026 3.38932C15.9301 3.40717 15.8364 3.42502 15.7427 3.4451C15.5552 3.48303 15.3678 3.52542 15.1804 3.57004C15.1392 3.58008 15.0984 3.59068 15.0577 3.60127C15.017 3.61187 14.9763 3.62247 14.935 3.63251C14.7342 3.68382 14.5379 3.73737 14.3393 3.7976C14.2702 3.81768 14.201 3.83999 14.1318 3.86231C13.9243 3.92924 13.7169 3.9984 13.5094 4.07426C13.4536 4.09434 13.3956 4.11665 13.3376 4.13896C13.1212 4.22151 12.9048 4.30852 12.6906 4.39999C12.666 4.41115 12.642 4.42174 12.6181 4.43234C12.5941 4.44294 12.5701 4.45354 12.5456 4.46469C12.3247 4.56063 12.106 4.66325 11.8874 4.77258C11.845 4.79266 11.8004 4.81497 11.758 4.83728C11.5393 4.94883 11.3207 5.06708 11.1043 5.18978C11.0942 5.19536 11.0842 5.20038 11.0742 5.2054C11.0641 5.21042 11.0541 5.21544 11.044 5.22102C11.0173 5.23663 10.9928 5.25224 10.9682 5.26785L10.9682 5.26787C10.9227 5.29465 10.8772 5.32071 10.8316 5.34677C10.7634 5.38585 10.6951 5.42494 10.6268 5.46644C10.5844 5.49321 10.5426 5.5211 10.5008 5.54899C10.4589 5.57688 10.4171 5.60476 10.3747 5.63153C10.3569 5.64492 10.339 5.65607 10.3212 5.66722L10.3212 5.66723C10.1137 5.80333 9.90844 5.94165 9.70764 6.08667C9.705 6.08843 9.70236 6.08984 9.69986 6.09118C9.69602 6.09324 9.6925 6.09512 9.68979 6.09783C9.67641 6.10898 9.66525 6.1179 9.65187 6.12683C9.6223 6.14802 9.5926 6.16908 9.5629 6.19014C9.4738 6.2533 9.3847 6.31647 9.29936 6.3834C8.80406 6.76491 8.33777 7.17319 7.89825 7.60156C7.89067 7.59416 7.88308 7.58677 7.87549 7.57938C5.92063 9.48157 4.43623 11.9188 3.67871 14.7458C3.18212 16.5992 3.04034 18.4644 3.21078 20.2678C3.21658 20.341 3.22454 20.4147 3.2325 20.4885C3.2394 20.5446 3.24616 20.6012 3.25292 20.6579C3.25968 20.7146 3.26644 20.7712 3.27334 20.8274C3.29742 21.0048 3.32365 21.1827 3.35419 21.3618C3.35911 21.3908 3.36443 21.4206 3.36975 21.4503C3.37507 21.48 3.38038 21.5097 3.38531 21.5388C3.42543 21.7597 3.46828 21.9791 3.5176 22.2002C3.5186 22.205 3.51974 22.2094 3.52089 22.2137C3.52203 22.2181 3.52318 22.2224 3.52418 22.2273C3.80639 23.4671 4.24468 24.6932 4.84874 25.8783C5.65856 27.4665 6.70232 28.8569 7.91654 30.0296L7.94293 30.0037C8.93174 30.9722 10.0483 31.8113 11.2652 32.4931C12.3582 33.0918 13.5178 33.558 14.7168 33.8834C14.8189 33.9107 14.9158 33.9475 15.007 33.9926C16.2556 34.3131 17.5643 34.4836 18.913 34.4836C20.8317 34.4836 22.6701 34.1378 24.368 33.5064C24.4371 33.4819 24.5062 33.4552 24.5753 33.4284L24.5755 33.4284C24.628 33.4071 24.6812 33.3859 24.7343 33.3646C24.7871 33.3435 24.84 33.3223 24.8923 33.3012C25.0574 33.232 25.2225 33.1606 25.3876 33.0848C25.4143 33.0725 25.4416 33.0597 25.4689 33.0469C25.4962 33.0341 25.5236 33.0212 25.5504 33.0089C25.7535 32.913 25.9543 32.8148 26.1551 32.71C26.1595 32.7077 26.1634 32.7055 26.1673 32.7033C26.1712 32.701 26.1751 32.6988 26.1796 32.6966C27.3041 32.1031 28.375 31.3624 29.3633 30.4722C32.7858 27.3889 34.5282 23.1387 34.5416 18.8685C34.5416 18.0028 35.2444 17.3 36.11 17.3C36.9757 17.3 37.6785 18.0028 37.6785 18.8685L37.6807 18.8729C37.6695 23.0316 36.2885 27.1725 33.5756 30.5659L33.5795 30.5673C33.5842 30.569 33.5881 30.5704 33.5934 30.5704C32.1432 32.3753 30.3673 33.908 28.3549 35.0793C28.3531 35.0802 28.3517 35.0814 28.3504 35.0826C28.3493 35.0835 28.3484 35.0843 28.3473 35.085C28.3462 35.0856 28.3451 35.086 28.3437 35.086C28.0894 35.2333 27.8284 35.3783 27.5651 35.5144C27.5409 35.5278 27.516 35.5404 27.4907 35.5532C27.474 35.5616 27.4571 35.5702 27.4401 35.5791C27.2193 35.6929 26.9962 35.8022 26.7686 35.9071C26.724 35.9271 26.6799 35.9467 26.6358 35.9662C26.5918 35.9857 26.5477 36.0052 26.5031 36.0253C26.3514 36.0922 26.1974 36.1592 26.0435 36.2216C25.8606 36.2975 25.6754 36.3689 25.4902 36.438C25.3943 36.4737 25.2983 36.5094 25.2024 36.5429C22.7839 37.4063 20.2316 37.7588 17.7083 37.6027C17.7105 37.596 17.7127 37.5893 17.7127 37.5826C14.9088 37.4059 12.2714 36.6147 9.93373 35.342C7.51575 34.0508 5.36136 32.223 3.66802 29.9227L3.66567 29.9262C3.66282 29.9303 3.66046 29.9337 3.65909 29.9388C2.291 28.0709 1.27014 25.9588 0.659592 23.7118C0.659197 23.7098 0.658378 23.7082 0.657601 23.7066C0.656408 23.7041 0.655315 23.7019 0.656014 23.6993C0.57961 23.4155 0.507093 23.1258 0.443774 22.8363C0.437072 22.8095 0.431356 22.7822 0.425567 22.7545L0.425562 22.7545L0.425555 22.7544C0.421711 22.736 0.417833 22.7175 0.413613 22.6989C0.360873 22.4561 0.313023 22.2123 0.270635 21.9653C0.262789 21.917 0.255336 21.8694 0.247883 21.8218C0.24043 21.7742 0.232977 21.7266 0.225131 21.6783C0.199746 21.5144 0.17494 21.3484 0.154442 21.1835C0.128521 20.9872 0.107487 20.7898 0.0886085 20.593C0.0789578 20.4911 0.0693074 20.3892 0.0618118 20.2879C-0.146242 17.7284 0.173854 15.1718 0.977791 12.7749L0.977803 12.7749C0.983687 12.7788 0.98957 12.7826 0.996031 12.7844C2.52442 8.24408 5.65368 4.63396 9.57501 2.42099C9.57606 2.42422 9.57711 2.42745 9.57817 2.43067C11.6174 1.27972 13.874 0.50492 16.238 0.176599C16.2614 0.173251 16.2843 0.169903 16.3071 0.166555C16.33 0.16321 16.3529 0.159864 16.3763 0.156519C16.4321 0.149826 16.4878 0.143691 16.5436 0.137555C16.5994 0.13142 16.6552 0.125284 16.7109 0.118591C16.7449 0.114732 16.7786 0.110606 16.8122 0.106491C16.8757 0.0987085 16.939 0.0909624 17.0032 0.0851253C17.1839 0.0672774 17.3646 0.0538914 17.5453 0.0405055L17.5454 0.0405042C17.5746 0.0383387 17.6033 0.0366987 17.6317 0.0350741C17.6619 0.0333511 17.6918 0.0316455 17.7216 0.0293489L17.9715 0.0159625C18.0875 0.00926938 18.2035 0.00480726 18.3195 0.0025762H18.3619C18.6006 -0.00188591 18.8416 0.000345146 19.0803 0.0025762C19.1874 0.0025762 19.2945 0.00634119 19.4016 0.0101061C19.4373 0.0113611 19.473 0.012616 19.5087 0.0137315C19.5585 0.0159625 19.6083 0.0179457 19.6582 0.0199288C19.7578 0.0238952 19.8575 0.0278615 19.9571 0.033811C20.0932 0.0427352 20.2293 0.0538905 20.3654 0.0650458C20.5216 0.0784322 20.6755 0.0918185 20.8295 0.107436C20.919 0.11654 21.0075 0.127708 21.0957 0.138835C21.1371 0.144068 21.1785 0.149292 21.2199 0.154288C21.3783 0.174368 21.5367 0.194447 21.6951 0.218989L21.6952 0.219006C21.8201 0.23908 21.945 0.259154 22.0699 0.281458C22.0912 0.285304 22.1126 0.289149 22.1339 0.293C22.2737 0.318192 22.4147 0.343607 22.5541 0.370701C22.6723 0.393011 22.7928 0.419784 22.9111 0.446557C23.0762 0.482254 23.2412 0.520182 23.4041 0.560341C23.5179 0.589344 23.6295 0.618348 23.7432 0.649583C23.9106 0.694204 24.0779 0.741056 24.2452 0.79014C24.2988 0.80688 24.3518 0.82362 24.4048 0.84036C24.4578 0.857085 24.5107 0.873811 24.5643 0.890537C24.6126 0.906429 24.6611 0.922139 24.7096 0.937875C24.8315 0.977369 24.9539 1.01702 25.0752 1.0601C25.0919 1.06568 25.1081 1.07181 25.1243 1.07795Z" fill="#F15B4E"/>
<path fill-rule="evenodd" clip-rule="evenodd" d="M13.9547 21.9477C14.0849 22.1789 14.2321 22.4015 14.3922 22.6131C14.8682 23.2458 15.4659 23.7826 16.1468 24.1797C17.0262 24.7055 18.0507 25 19.1414 25H19.1478L19.1476 24.7024L19.1499 25H19.1563C20.247 25 21.2694 24.7033 22.151 24.1797C22.8383 23.7782 23.4381 23.2393 23.9141 22.5979C24.0741 22.3862 24.2214 22.1659 24.3474 21.9324C24.8618 21.0335 25.1499 19.9862 25.1499 18.8713V18.8648C25.1499 17.7477 24.8532 16.6982 24.3388 15.7971H24.3452C24.215 15.5659 24.0677 15.3433 23.9076 15.1317C23.4317 14.499 22.834 13.9622 22.1531 13.5651C21.2737 13.0393 20.2492 12.7448 19.1584 12.7448H19.152L19.1495 13.1123L19.15 12.7448H19.1436C18.0528 12.7448 17.0304 13.0415 16.1489 13.5651C15.4616 13.9666 14.8618 14.5055 14.3858 15.1469C14.2257 15.3586 14.0785 15.5789 13.9525 15.8124C13.4381 16.7113 13.15 17.7586 13.15 18.8735V18.88C13.15 19.9971 13.4467 21.0466 13.9611 21.9477H13.9547ZM19.1304 15.8124C17.4803 15.8173 16.1446 17.1856 16.1446 18.8735V18.88C16.1489 20.5666 17.4893 21.9324 19.1393 21.9324H19.1457L19.1606 21.9324C20.8148 21.9324 22.1552 20.5622 22.1552 18.8713V18.8648C22.151 17.1782 20.8105 15.8124 19.1606 15.8124L19.1304 15.8124Z" fill="#F4B42B"/>
<path d="M2.85653 67.4545V58.4545H4.10085V59.5156H4.20739C4.28125 59.3793 4.38778 59.2216 4.52699 59.0426C4.66619 58.8636 4.85938 58.7074 5.10653 58.5739C5.35369 58.4375 5.6804 58.3693 6.08665 58.3693C6.61506 58.3693 7.08665 58.5028 7.50142 58.7699C7.91619 59.0369 8.24148 59.4219 8.47727 59.9247C8.71591 60.4276 8.83523 61.0327 8.83523 61.7401C8.83523 62.4474 8.71733 63.054 8.48153 63.5597C8.24574 64.0625 7.92188 64.4503 7.50994 64.723C7.09801 64.9929 6.62784 65.1278 6.09943 65.1278C5.7017 65.1278 5.37642 65.0611 5.12358 64.9276C4.87358 64.794 4.67756 64.6378 4.53551 64.4588C4.39347 64.2798 4.28409 64.1207 4.20739 63.9815H4.13068V67.4545H2.85653ZM4.10511 61.7273C4.10511 62.1875 4.17188 62.5909 4.3054 62.9375C4.43892 63.2841 4.6321 63.5554 4.88494 63.7514C5.13778 63.9446 5.44744 64.0412 5.81392 64.0412C6.1946 64.0412 6.51278 63.9403 6.76847 63.7386C7.02415 63.5341 7.21733 63.2571 7.34801 62.9077C7.48153 62.5582 7.5483 62.1648 7.5483 61.7273C7.5483 61.2955 7.48295 60.9077 7.35227 60.5639C7.22443 60.2202 7.03125 59.9489 6.77273 59.75C6.51705 59.5511 6.19744 59.4517 5.81392 59.4517C5.4446 59.4517 5.1321 59.5469 4.87642 59.7372C4.62358 59.9276 4.43182 60.1932 4.30114 60.5341C4.17045 60.875 4.10511 61.2727 4.10511 61.7273ZM10.2628 65V58.4545H11.4943V59.4943H11.5625C11.6818 59.142 11.892 58.8651 12.1932 58.6634C12.4972 58.4588 12.8409 58.3565 13.2244 58.3565C13.304 58.3565 13.3977 58.3594 13.5057 58.3651C13.6165 58.3707 13.7031 58.3778 13.7656 58.3864V59.6051C13.7145 59.5909 13.6236 59.5753 13.4929 59.5582C13.3622 59.5384 13.2315 59.5284 13.1009 59.5284C12.7997 59.5284 12.5313 59.5923 12.2955 59.7202C12.0625 59.8452 11.8778 60.0199 11.7415 60.2443C11.6051 60.4659 11.5369 60.7187 11.5369 61.0028V65H10.2628ZM17.391 65.1321C16.7773 65.1321 16.2418 64.9915 15.7844 64.7102C15.3271 64.429 14.9719 64.0355 14.7191 63.5298C14.4663 63.0241 14.3398 62.4332 14.3398 61.7571C14.3398 61.0781 14.4663 60.4844 14.7191 59.9759C14.9719 59.4673 15.3271 59.0724 15.7844 58.7912C16.2418 58.5099 16.7773 58.3693 17.391 58.3693C18.0046 58.3693 18.5401 58.5099 18.9975 58.7912C19.4549 59.0724 19.81 59.4673 20.0629 59.9759C20.3157 60.4844 20.4421 61.0781 20.4421 61.7571C20.4421 62.4332 20.3157 63.0241 20.0629 63.5298C19.81 64.0355 19.4549 64.429 18.9975 64.7102C18.5401 64.9915 18.0046 65.1321 17.391 65.1321ZM17.3952 64.0625C17.793 64.0625 18.1225 63.9574 18.3839 63.7472C18.6452 63.5369 18.8384 63.2571 18.9634 62.9077C19.0913 62.5582 19.1552 62.1733 19.1552 61.7528C19.1552 61.3352 19.0913 60.9517 18.9634 60.6023C18.8384 60.25 18.6452 59.9673 18.3839 59.7543C18.1225 59.5412 17.793 59.4347 17.3952 59.4347C16.9947 59.4347 16.6623 59.5412 16.3981 59.7543C16.1367 59.9673 15.9421 60.25 15.8143 60.6023C15.6893 60.9517 15.6268 61.3352 15.6268 61.7528C15.6268 62.1733 15.6893 62.5582 15.8143 62.9077C15.9421 63.2571 16.1367 63.5369 16.3981 63.7472C16.6623 63.9574 16.9947 64.0625 17.3952 64.0625ZM21.8643 67.4545V58.4545H23.1087V59.5156H23.2152C23.2891 59.3793 23.3956 59.2216 23.5348 59.0426C23.674 58.8636 23.8672 58.7074 24.1143 58.5739C24.3615 58.4375 24.6882 58.3693 25.0945 58.3693C25.6229 58.3693 26.0945 58.5028 26.5092 58.7699C26.924 59.0369 27.2493 59.4219 27.4851 59.9247C27.7237 60.4276 27.843 61.0327 27.843 61.7401C27.843 62.4474 27.7251 63.054 27.4893 63.5597C27.2536 64.0625 26.9297 64.4503 26.5178 64.723C26.1058 64.9929 25.6357 65.1278 25.1072 65.1278C24.7095 65.1278 24.3842 65.0611 24.1314 64.9276C23.8814 64.794 23.6854 64.6378 23.5433 64.4588C23.4013 64.2798 23.2919 64.1207 23.2152 63.9815H23.1385V67.4545H21.8643ZM23.1129 61.7273C23.1129 62.1875 23.1797 62.5909 23.3132 62.9375C23.4467 63.2841 23.6399 63.5554 23.8928 63.7514C24.1456 63.9446 24.4553 64.0412 24.8217 64.0412C25.2024 64.0412 25.5206 63.9403 25.7763 63.7386C26.032 63.5341 26.2251 63.2571 26.3558 62.9077C26.4893 62.5582 26.5561 62.1648 26.5561 61.7273C26.5561 61.2955 26.4908 60.9077 26.3601 60.5639C26.2322 60.2202 26.0391 59.9489 25.7805 59.75C25.5249 59.5511 25.2053 59.4517 24.8217 59.4517C24.4524 59.4517 24.1399 59.5469 23.8842 59.7372C23.6314 59.9276 23.4396 60.1932 23.3089 60.5341C23.1783 60.875 23.1129 61.2727 23.1129 61.7273ZM33.4169 62.2855V58.4545H34.6953V65H33.4425V63.8665H33.3743C33.2237 64.2159 32.9822 64.5071 32.6499 64.7401C32.3203 64.9702 31.9098 65.0852 31.4183 65.0852C30.9979 65.0852 30.6257 64.9929 30.3018 64.8082C29.9808 64.6207 29.728 64.3438 29.5433 63.9773C29.3615 63.6108 29.2706 63.1577 29.2706 62.6179V58.4545H30.5447V62.4645C30.5447 62.9105 30.6683 63.2656 30.9155 63.5298C31.1626 63.794 31.4837 63.9261 31.8786 63.9261C32.1172 63.9261 32.3544 63.8665 32.5902 63.7472C32.8288 63.6278 33.0263 63.4474 33.1825 63.206C33.3416 62.9645 33.4197 62.6577 33.4169 62.2855ZM37.6815 56.2727V65H36.4073V56.2727H37.6815ZM44.3004 60.0526L43.1456 60.2571C43.0973 60.1094 43.0206 59.9687 42.9155 59.8352C42.8132 59.7017 42.674 59.5923 42.4979 59.5071C42.3217 59.4219 42.1016 59.3793 41.8374 59.3793C41.4766 59.3793 41.1754 59.4602 40.9339 59.6222C40.6925 59.7812 40.5717 59.9872 40.5717 60.2401C40.5717 60.4588 40.6527 60.6349 40.8146 60.7685C40.9766 60.902 41.2379 61.0114 41.5987 61.0966L42.6385 61.3352C43.2408 61.4744 43.6896 61.6889 43.9851 61.9787C44.2805 62.2685 44.4283 62.6449 44.4283 63.108C44.4283 63.5 44.3146 63.8494 44.0874 64.1562C43.8629 64.4602 43.549 64.6989 43.1456 64.8722C42.745 65.0455 42.2805 65.1321 41.7521 65.1321C41.0192 65.1321 40.4212 64.9759 39.9581 64.6634C39.495 64.348 39.2109 63.9006 39.1058 63.321L40.3374 63.1335C40.4141 63.4545 40.5717 63.6974 40.8104 63.8622C41.049 64.0241 41.3601 64.1051 41.7436 64.1051C42.1612 64.1051 42.495 64.0185 42.745 63.8452C42.995 63.669 43.12 63.4545 43.12 63.2017C43.12 62.9972 43.0433 62.8253 42.8899 62.6861C42.7393 62.5469 42.5078 62.4418 42.1953 62.3707L41.0874 62.1278C40.4766 61.9886 40.0249 61.767 39.7322 61.4631C39.4425 61.1591 39.2976 60.7741 39.2976 60.3082C39.2976 59.9219 39.4055 59.5838 39.6214 59.294C39.8374 59.0043 40.1357 58.7784 40.5163 58.6165C40.897 58.4517 41.3331 58.3693 41.8246 58.3693C42.532 58.3693 43.0888 58.5227 43.495 58.8295C43.9013 59.1335 44.1697 59.5412 44.3004 60.0526ZM48.6502 65.1321C48.0053 65.1321 47.4499 64.9943 46.984 64.7188C46.521 64.4403 46.163 64.0497 45.9102 63.5469C45.6602 63.0412 45.5352 62.4489 45.5352 61.7699C45.5352 61.0994 45.6602 60.5085 45.9102 59.9972C46.163 59.4858 46.5153 59.0866 46.967 58.7997C47.4215 58.5128 47.9528 58.3693 48.5607 58.3693C48.93 58.3693 49.288 58.4304 49.6346 58.5526C49.9812 58.6747 50.2923 58.8665 50.5678 59.1278C50.8434 59.3892 51.0607 59.7287 51.2198 60.1463C51.3789 60.5611 51.4585 61.0653 51.4585 61.6591V62.1108H46.2553V61.1562H50.2099C50.2099 60.821 50.1417 60.5241 50.0053 60.2656C49.869 60.0043 49.6772 59.7983 49.43 59.6477C49.1857 59.4972 48.8988 59.4219 48.5692 59.4219C48.2113 59.4219 47.8988 59.5099 47.6317 59.6861C47.3675 59.8594 47.163 60.0866 47.0181 60.3679C46.8761 60.6463 46.805 60.9489 46.805 61.2756V62.0213C46.805 62.4588 46.8817 62.831 47.0352 63.1378C47.1914 63.4446 47.4087 63.679 47.6871 63.8409C47.9656 64 48.2908 64.0795 48.663 64.0795C48.9045 64.0795 49.1246 64.0455 49.3235 63.9773C49.5224 63.9062 49.6942 63.8011 49.8391 63.6619C49.984 63.5227 50.0948 63.3509 50.1715 63.1463L51.3775 63.3636C51.2809 63.7187 51.1076 64.0298 50.8576 64.2969C50.6104 64.5611 50.2994 64.767 49.9244 64.9148C49.5522 65.0597 49.1275 65.1321 48.6502 65.1321ZM47.9854 57.581L48.9826 55.6165H50.3249L49.0039 57.581H47.9854ZM56.0479 67.4545V58.4545H57.2923V59.5156H57.3988C57.4727 59.3793 57.5792 59.2216 57.7184 59.0426C57.8576 58.8636 58.0508 58.7074 58.2979 58.5739C58.5451 58.4375 58.8718 58.3693 59.2781 58.3693C59.8065 58.3693 60.2781 58.5028 60.6928 58.7699C61.1076 59.0369 61.4329 59.4219 61.6687 59.9247C61.9073 60.4276 62.0266 61.0327 62.0266 61.7401C62.0266 62.4474 61.9087 63.054 61.6729 63.5597C61.4371 64.0625 61.1133 64.4503 60.7013 64.723C60.2894 64.9929 59.8192 65.1278 59.2908 65.1278C58.8931 65.1278 58.5678 65.0611 58.315 64.9276C58.065 64.794 57.869 64.6378 57.7269 64.4588C57.5849 64.2798 57.4755 64.1207 57.3988 63.9815H57.3221V67.4545H56.0479ZM57.2965 61.7273C57.2965 62.1875 57.3633 62.5909 57.4968 62.9375C57.6303 63.2841 57.8235 63.5554 58.0763 63.7514C58.3292 63.9446 58.6388 64.0412 59.0053 64.0412C59.386 64.0412 59.7042 63.9403 59.9599 63.7386C60.2156 63.5341 60.4087 63.2571 60.5394 62.9077C60.6729 62.5582 60.7397 62.1648 60.7397 61.7273C60.7397 61.2955 60.6744 60.9077 60.5437 60.5639C60.4158 60.2202 60.2227 59.9489 59.9641 59.75C59.7085 59.5511 59.3888 59.4517 59.0053 59.4517C58.636 59.4517 58.3235 59.5469 58.0678 59.7372C57.815 59.9276 57.6232 60.1932 57.4925 60.5341C57.3619 60.875 57.2965 61.2727 57.2965 61.7273ZM65.359 65.1449C64.9442 65.1449 64.5692 65.0682 64.234 64.9148C63.8988 64.7585 63.6332 64.5327 63.4371 64.2372C63.244 63.9418 63.1474 63.5795 63.1474 63.1506C63.1474 62.7812 63.2184 62.4773 63.3604 62.2386C63.5025 62 63.6942 61.8111 63.9357 61.6719C64.1772 61.5327 64.4471 61.4276 64.7454 61.3565C65.0437 61.2855 65.3477 61.2315 65.6573 61.1946C66.0494 61.1491 66.3675 61.1122 66.6119 61.0838C66.8562 61.0526 67.0337 61.0028 67.1445 60.9347C67.2553 60.8665 67.3107 60.7557 67.3107 60.6023V60.5724C67.3107 60.2003 67.2056 59.9119 66.9954 59.7074C66.788 59.5028 66.4783 59.4006 66.0664 59.4006C65.6374 59.4006 65.2994 59.4957 65.0522 59.6861C64.8079 59.8736 64.6388 60.0824 64.5451 60.3125L63.3477 60.0398C63.4897 59.642 63.6971 59.321 63.9698 59.0767C64.2454 58.8295 64.5621 58.6506 64.9201 58.5398C65.2781 58.4261 65.6545 58.3693 66.0494 58.3693C66.3107 58.3693 66.5877 58.4006 66.8803 58.4631C67.1758 58.5227 67.4513 58.6335 67.707 58.7955C67.9656 58.9574 68.1772 59.1889 68.342 59.4901C68.5067 59.7884 68.5891 60.1761 68.5891 60.6534V65H67.3448V64.1051H67.2937C67.2113 64.2699 67.0877 64.4318 66.9229 64.5909C66.7582 64.75 66.5465 64.8821 66.288 64.9872C66.0295 65.0923 65.7198 65.1449 65.359 65.1449ZM65.636 64.1222C65.9883 64.1222 66.2894 64.0526 66.5394 63.9134C66.7923 63.7741 66.984 63.5923 67.1147 63.3679C67.2482 63.1406 67.315 62.8977 67.315 62.6392V61.7955C67.2695 61.8409 67.1815 61.8835 67.0508 61.9233C66.9229 61.9602 66.7766 61.9929 66.6119 62.0213C66.4471 62.0469 66.2866 62.071 66.1303 62.0938C65.9741 62.1136 65.8434 62.1307 65.7383 62.1449C65.4911 62.1761 65.2653 62.2287 65.0607 62.3026C64.859 62.3764 64.6971 62.483 64.5749 62.6222C64.4556 62.7585 64.396 62.9403 64.396 63.1676C64.396 63.483 64.5124 63.7216 64.7454 63.8835C64.9783 64.0426 65.2752 64.1222 65.636 64.1222ZM70.2862 65V58.4545H71.5178V59.4943H71.5859C71.7053 59.142 71.9155 58.8651 72.2166 58.6634C72.5206 58.4588 72.8643 58.3565 73.2479 58.3565C73.3274 58.3565 73.4212 58.3594 73.5291 58.3651C73.6399 58.3707 73.7266 58.3778 73.7891 58.3864V59.6051C73.7379 59.5909 73.647 59.5753 73.5163 59.5582C73.3857 59.5384 73.255 59.5284 73.1243 59.5284C72.8232 59.5284 72.5547 59.5923 72.3189 59.7202C72.0859 59.8452 71.9013 60.0199 71.7649 60.2443C71.6286 60.4659 71.5604 60.7187 71.5604 61.0028V65H70.2862ZM79.3416 56.2727V65H78.0675V56.2727H79.3416ZM83.8768 65.1321C83.2319 65.1321 82.6765 64.9943 82.2106 64.7188C81.7475 64.4403 81.3896 64.0497 81.1367 63.5469C80.8867 63.0412 80.7617 62.4489 80.7617 61.7699C80.7617 61.0994 80.8867 60.5085 81.1367 59.9972C81.3896 59.4858 81.7418 59.0866 82.1935 58.7997C82.6481 58.5128 83.1793 58.3693 83.7873 58.3693C84.1566 58.3693 84.5146 58.4304 84.8612 58.5526C85.2077 58.6747 85.5188 58.8665 85.7944 59.1278C86.07 59.3892 86.2873 59.7287 86.4464 60.1463C86.6055 60.5611 86.685 61.0653 86.685 61.6591V62.1108H81.4819V61.1562H85.4364C85.4364 60.821 85.3683 60.5241 85.2319 60.2656C85.0955 60.0043 84.9038 59.7983 84.6566 59.6477C84.4123 59.4972 84.1254 59.4219 83.7958 59.4219C83.4379 59.4219 83.1254 59.5099 82.8583 59.6861C82.5941 59.8594 82.3896 60.0866 82.2447 60.3679C82.1026 60.6463 82.0316 60.9489 82.0316 61.2756V62.0213C82.0316 62.4588 82.1083 62.831 82.2617 63.1378C82.418 63.4446 82.6353 63.679 82.9137 63.8409C83.1921 64 83.5174 64.0795 83.8896 64.0795C84.131 64.0795 84.3512 64.0455 84.5501 63.9773C84.7489 63.9062 84.9208 63.8011 85.0657 63.6619C85.2106 63.5227 85.3214 63.3509 85.3981 63.1463L86.604 63.3636C86.5075 63.7187 86.3342 64.0298 86.0842 64.2969C85.837 64.5611 85.5259 64.767 85.1509 64.9148C84.7788 65.0597 84.354 65.1321 83.8768 65.1321Z" fill="#515052"/>
<path d="M140.808 66.5657C141.308 66.5657 141.714 66.1599 141.714 65.6594C141.714 65.1588 141.308 64.7531 140.808 64.7531C140.307 64.7531 139.902 65.1588 139.902 65.6594C139.902 66.1599 140.307 66.5657 140.808 66.5657Z" fill="#414042"/>
<path d="M116.702 59.1574C116.623 59.0192 116.533 58.8862 116.435 58.7597C116.144 58.3815 115.779 58.0607 115.363 57.8234C114.826 57.5091 114.2 57.333 113.533 57.333H113.529C112.862 57.333 112.235 57.5143 111.696 57.8286V53.8994C111.095 54.0546 110.528 54.2828 109.997 54.5762C109.952 54.601 109.907 54.6271 109.862 54.6519V63.8703H111.268C111.281 63.8808 111.293 63.8912 111.306 63.9016C111.43 63.9968 111.559 64.0855 111.695 64.1624C112.232 64.4767 112.859 64.658 113.528 64.658H113.532C114.198 64.658 114.823 64.4806 115.362 64.1677C115.782 63.9277 116.148 63.6056 116.439 63.2222C116.537 63.0957 116.627 62.964 116.704 62.8245C117.018 62.2872 117.194 61.6612 117.194 60.9949V60.9909C117.194 60.3233 117.013 59.696 116.698 59.1574H116.702ZM115.364 60.9949C115.364 62.0055 114.545 62.8245 113.535 62.8245H113.531C112.523 62.8219 111.706 62.0042 111.706 60.9949V60.9909C111.709 59.9842 112.525 59.1679 113.531 59.1666H113.535C114.543 59.1666 115.362 59.9829 115.364 60.9909V60.9949Z" fill="#414042"/>
<path d="M138.126 57.316C138.049 57.1791 137.96 57.0513 137.865 56.9274C137.574 56.544 137.207 56.2232 136.788 55.9819C136.25 55.6677 135.624 55.4916 134.958 55.4916H134.954C134.286 55.4916 133.659 55.6729 133.121 55.9872C132.984 56.0641 132.856 56.1528 132.732 56.248C132.538 56.3953 132.36 56.5622 132.201 56.7448C131.938 56.4436 131.629 56.1828 131.278 55.9832C130.741 55.669 130.115 55.4929 129.448 55.4929H129.444C128.777 55.4929 128.149 55.6742 127.611 55.9885C127.474 56.0654 127.346 56.1541 127.222 56.2493C126.965 56.4449 126.737 56.6731 126.541 56.93C126.446 57.0539 126.358 57.183 126.281 57.3186C125.966 57.8559 125.785 58.4831 125.785 59.1521H125.777V66.4849H127.611V59.1521H127.619C127.621 58.1454 128.438 57.329 129.443 57.3277H129.447C130.455 57.3277 131.274 58.1441 131.277 59.1521V64.6514H131.286V66.4849H133.119V59.1521H133.127C133.13 58.1454 133.946 57.329 134.951 57.3277H134.955C135.963 57.3277 136.782 58.1441 136.785 59.1521V66.5671H138.618V59.1521C138.618 58.4844 138.437 57.8572 138.123 57.3186L138.126 57.316Z" fill="#414042"/>
<path d="M105.845 65.9712C105.875 66.0194 105.907 66.069 105.942 66.1172C105.906 66.1576 105.867 66.1968 105.826 66.2333C105.736 66.3233 105.645 66.408 105.55 66.4902C105.354 66.6649 105.147 66.8279 104.933 66.9805C104.792 67.0809 104.65 67.1735 104.503 67.2622C104.458 67.2909 104.411 67.317 104.366 67.343C104.327 67.3652 104.289 67.3874 104.247 67.4109C103.714 67.7056 103.139 67.939 102.532 68.0929C101.948 68.2442 101.335 68.3224 100.703 68.3224H100.699C100.065 68.3224 99.4507 68.2416 98.8651 68.0903C98.2627 67.9338 97.6902 67.703 97.1581 67.4096C97.1151 67.3848 97.072 67.3626 97.0316 67.3378C96.6117 67.094 96.2166 66.8084 95.8566 66.4889C95.7614 66.408 95.6689 66.322 95.5802 66.232C95.4472 66.1042 95.3194 65.9699 95.1994 65.8303C94.9138 65.5082 94.6595 65.16 94.4352 64.791C94.4065 64.7466 94.3804 64.6997 94.3544 64.6541C94.027 64.0881 93.7714 63.4726 93.6045 62.8205C93.4532 62.2363 93.375 61.6234 93.375 60.9909V60.987C93.375 60.3532 93.4559 59.739 93.6071 59.1535C93.7767 58.5014 94.0309 57.8872 94.3583 57.32C94.3844 57.2756 94.4117 57.23 94.4378 57.1856C94.6621 56.8192 94.9164 56.4723 95.1994 56.1528C95.322 56.012 95.4498 55.8777 95.5841 55.7472C95.6754 55.6573 95.7693 55.5699 95.8658 55.4864C96.2257 55.1682 96.6156 54.8879 97.0329 54.6453C97.0773 54.6205 97.1229 54.5945 97.1672 54.5697C97.6967 54.2763 98.2653 54.048 98.8664 53.8929C99.4507 53.7416 100.066 53.6607 100.7 53.6607H100.704C101.335 53.6607 101.948 53.7403 102.533 53.8903C103.136 54.0454 103.708 54.275 104.241 54.5684C104.284 54.5905 104.324 54.6153 104.367 54.6401C104.411 54.6662 104.458 54.6936 104.504 54.7209C104.655 54.8122 104.804 54.91 104.947 55.0118C105.153 55.1578 105.353 55.3156 105.542 55.4838C105.637 55.5673 105.731 55.6547 105.824 55.7446C105.864 55.7838 105.905 55.8242 105.944 55.8646C105.911 55.9116 105.881 55.9585 105.85 56.0055C105.578 56.4215 105.342 56.8583 105.143 57.3174C105.1 57.4086 105.062 57.4986 105.024 57.5925C104.953 57.4986 104.876 57.4073 104.792 57.3174C104.659 57.1661 104.517 57.0239 104.367 56.8922C104.277 56.8114 104.188 56.7331 104.092 56.6627C103.931 56.5349 103.762 56.4162 103.585 56.3106C103.257 56.1046 102.904 55.9363 102.533 55.8072C101.961 55.6038 101.345 55.493 100.704 55.493H100.7C100.056 55.493 99.4389 55.6051 98.8664 55.8085C98.3005 56.0081 97.7788 56.2976 97.3159 56.6614C97.2181 56.737 97.1242 56.814 97.0329 56.9C96.8869 57.0305 96.746 57.1713 96.6156 57.3174C96.3952 57.5599 96.1983 57.822 96.0288 58.1011C95.8227 58.4284 95.6545 58.7792 95.5241 59.1496C95.3207 59.7221 95.2085 60.3389 95.2085 60.9831V60.987C95.2085 61.6286 95.3181 62.2441 95.5228 62.8166C95.6506 63.187 95.8201 63.5391 96.0262 63.8677C96.1957 64.1468 96.3913 64.4076 96.6091 64.6501C96.7421 64.8014 96.8843 64.9436 97.0342 65.0753C97.1242 65.1587 97.2155 65.2357 97.3107 65.3074C97.7749 65.6764 98.2979 65.9673 98.8664 66.1668C99.4389 66.3702 100.056 66.4824 100.7 66.4824H100.704C101.345 66.4824 101.961 66.3728 102.533 66.1681C102.904 66.0403 103.256 65.8707 103.585 65.6647C103.763 65.5565 103.935 65.4391 104.098 65.3061C104.19 65.237 104.28 65.1613 104.367 65.0818C104.52 64.9449 104.664 64.8001 104.801 64.6475C104.881 64.5615 104.956 64.4728 105.026 64.3802C105.062 64.4715 105.099 64.5589 105.139 64.6475C105.339 65.1053 105.575 65.546 105.846 65.9607L105.845 65.9712Z" fill="#414042"/>
<path d="M107.076 59.1497C107.578 59.1497 107.986 58.7421 107.986 58.2394C107.986 57.7367 107.578 57.3292 107.076 57.3292C106.573 57.3292 106.165 57.7367 106.165 58.2394C106.165 58.7421 106.573 59.1497 107.076 59.1497Z" fill="#414042"/>
<path d="M123.455 59.1497C123.957 59.1497 124.365 58.7421 124.365 58.2394C124.365 57.7367 123.957 57.3292 123.455 57.3292C122.952 57.3292 122.544 57.7367 122.544 58.2394C122.544 58.7421 122.952 59.1497 123.455 59.1497Z" fill="#414042"/>
<path d="M108.015 60.9284C108.015 60.4224 107.605 60.0129 107.099 60.0129C106.593 60.0129 106.188 60.4341 106.188 60.9414V61.0614C106.188 61.6834 106.263 62.2859 106.412 62.8623C106.567 63.4713 106.798 64.0516 107.099 64.5902C107.12 64.6293 107.14 64.6684 107.16 64.705C107.189 64.7519 107.218 64.7989 107.246 64.8445C107.33 64.9853 107.423 65.1249 107.516 65.2592C107.672 65.477 107.837 65.6882 108.015 65.8878C108.015 65.8878 108.016 65.8904 108.017 65.8904C108.101 65.9882 108.189 66.0821 108.281 66.1747C108.317 66.2138 108.356 66.2529 108.397 66.2894C108.484 66.3794 108.577 66.4629 108.671 66.545C108.819 66.6793 108.976 66.8045 109.136 66.9206L109.295 67.0366H109.298C109.298 67.0366 109.302 67.0406 109.302 67.0432C109.439 67.141 109.579 67.2336 109.726 67.3209C109.769 67.347 109.812 67.3718 109.856 67.3966C109.896 67.4213 109.939 67.4435 109.982 67.4683C110.041 67.5009 110.104 67.5335 110.165 67.5661C110.175 67.57 110.186 67.5765 110.198 67.583C110.261 67.6156 110.327 67.6469 110.389 67.6769C110.529 67.7421 110.67 67.8034 110.813 67.8608C110.885 67.8895 110.957 67.9182 111.03 67.943C111.126 67.9795 111.226 68.0121 111.326 68.0447C111.43 68.0773 111.536 68.1086 111.645 68.1373C111.662 68.1438 111.68 68.1477 111.696 68.1516C111.71 68.1555 111.725 68.1594 111.739 68.1621C111.782 68.1738 111.825 68.1842 111.868 68.1934C111.882 68.1973 111.894 68.2012 111.909 68.2038C111.98 68.2207 112.052 68.2351 112.124 68.2481C112.145 68.252 112.167 68.2559 112.188 68.2599C112.192 68.2599 112.194 68.2625 112.198 68.2625C112.257 68.2729 112.317 68.2833 112.378 68.2938C112.433 68.3003 112.489 68.3081 112.544 68.3159C112.583 68.3225 112.619 68.3264 112.656 68.3303C112.711 68.3368 112.764 68.3446 112.819 68.3485C112.874 68.3551 112.927 68.359 112.982 68.3629C113.021 68.3655 113.06 68.3694 113.098 68.3707C113.166 68.3746 113.231 68.3772 113.299 68.3811C113.377 68.3837 113.456 68.3851 113.536 68.3851H113.557C113.63 68.3851 113.704 68.3824 113.777 68.3811C113.839 68.3772 113.902 68.3746 113.964 68.3707C114.019 68.3681 114.072 68.3642 114.125 68.359C114.213 68.3524 114.299 68.3446 114.384 68.3368C114.448 68.329 114.509 68.3198 114.571 68.312C114.647 68.3016 114.723 68.2899 114.798 68.2755C114.862 68.2651 114.925 68.2546 114.989 68.2429C115.076 68.2247 115.161 68.2038 115.247 68.1842C115.337 68.1634 115.424 68.1412 115.513 68.1164C115.593 68.0942 115.675 68.0721 115.757 68.0447C115.83 68.0225 115.902 67.9977 115.973 67.9717C116.031 67.9534 116.085 67.9325 116.142 67.913C116.215 67.8843 116.289 67.8556 116.361 67.8256C116.415 67.8034 116.469 67.7813 116.522 67.7565C116.581 67.7304 116.638 67.7056 116.696 67.6769C116.753 67.6509 116.811 67.6222 116.865 67.5935C116.897 67.5791 116.927 67.5622 116.958 67.5465C116.99 67.5296 117.022 67.5139 117.052 67.497C117.092 67.4761 117.134 67.4539 117.173 67.4318C117.19 67.4213 117.204 67.4135 117.22 67.4057C117.245 67.3913 117.267 67.377 117.292 67.3627L117.323 67.3444C117.348 67.3274 117.374 67.3118 117.401 67.2948C117.477 67.2479 117.553 67.201 117.628 67.1501C117.653 67.1331 117.678 67.1175 117.701 67.1005C117.708 67.0966 117.716 67.0901 117.722 67.0862C117.781 67.0458 117.841 67.0027 117.899 66.9597C117.903 66.9558 117.91 66.9532 117.914 66.9493C117.945 66.9245 117.975 66.9023 118.006 66.8775C118.057 66.8384 118.111 66.798 118.162 66.7576C118.169 66.7511 118.176 66.7458 118.184 66.7393C118.231 66.7002 118.276 66.6611 118.323 66.6206C118.366 66.5854 118.407 66.5489 118.448 66.5124C118.481 66.4837 118.514 66.455 118.545 66.425C118.602 66.3742 118.657 66.3207 118.711 66.2672C118.825 66.1551 118.935 66.0403 119.039 65.9217C119.046 65.9138 119.054 65.9047 119.061 65.8969C119.076 65.8786 119.09 65.8617 119.106 65.846C119.117 65.8278 119.134 65.8108 119.149 65.7952C119.173 65.7691 119.196 65.7404 119.218 65.713C119.226 65.7026 119.232 65.6948 119.24 65.6869C119.248 65.6765 119.258 65.6648 119.266 65.6543C119.313 65.593 119.36 65.5344 119.407 65.4718C119.419 65.4548 119.432 65.4405 119.443 65.4248C119.446 65.4222 119.446 65.4209 119.447 65.4183C119.479 65.3753 119.509 65.3322 119.54 65.2892C119.546 65.2814 119.55 65.2722 119.558 65.2644C119.573 65.2422 119.589 65.2214 119.603 65.1992C119.61 65.1875 119.619 65.1731 119.627 65.1601C119.663 65.1131 119.693 65.0623 119.724 65.0127C119.749 64.9762 119.775 64.9397 119.797 64.9006C119.799 64.898 119.801 64.8967 119.801 64.8941C119.823 64.8575 119.845 64.8223 119.866 64.7858C119.869 64.7858 119.869 64.7884 119.869 64.7884C119.886 64.7623 119.901 64.735 119.916 64.7089C119.926 64.6919 119.934 64.6776 119.94 64.6645C119.948 64.6476 119.957 64.6319 119.965 64.6176C120.038 64.4911 120.109 64.362 120.17 64.229C120.196 64.1703 120.225 64.1129 120.252 64.0529C120.278 63.9955 120.303 63.9369 120.328 63.8769C120.33 63.873 120.33 63.8704 120.332 63.8664C120.343 63.8378 120.356 63.8091 120.367 63.7791C120.378 63.7478 120.389 63.7204 120.402 63.6917C120.433 63.6161 120.459 63.5404 120.488 63.4622C120.509 63.4009 120.531 63.337 120.552 63.2744C120.552 63.2718 120.555 63.2705 120.555 63.2679C120.587 63.1662 120.616 63.0631 120.644 62.9588C120.665 62.8858 120.684 62.8115 120.699 62.7384C120.72 62.6524 120.74 62.5689 120.758 62.4802C120.77 62.4163 120.78 62.3537 120.791 62.2898C120.805 62.2142 120.817 62.1386 120.827 62.0629C120.835 61.999 120.844 61.9377 120.852 61.8751L120.864 61.746C120.866 61.7239 120.867 61.703 120.87 61.6821C120.873 61.6613 120.873 61.6391 120.874 61.6169C120.881 61.5635 120.884 61.51 120.886 61.4552C120.89 61.3939 120.892 61.33 120.896 61.2687C120.899 61.1957 120.9 61.1214 120.9 61.0483V61.0275C120.9 60.9479 120.897 60.8684 120.896 60.7901C120.892 60.7223 120.89 60.6571 120.886 60.5919C120.883 60.5515 120.879 60.5124 120.878 60.4733C120.87 60.3624 120.86 60.2542 120.847 60.1485C120.84 60.1094 120.836 60.0729 120.83 60.0338C120.822 59.9764 120.813 59.9177 120.805 59.8603C120.797 59.803 120.787 59.7482 120.776 59.6908C120.776 59.6869 120.774 59.683 120.774 59.6791C120.77 59.6582 120.766 59.636 120.762 59.6152C120.733 59.4717 120.703 59.3296 120.665 59.1874C120.625 59.0257 120.575 58.8666 120.525 58.7115C120.522 58.7049 120.521 58.701 120.518 58.6945C120.478 58.5693 120.432 58.4493 120.385 58.3281C120.364 58.2746 120.342 58.2237 120.321 58.1729C120.272 58.0581 120.223 57.946 120.167 57.8351C120.141 57.7803 120.114 57.7243 120.085 57.6721V57.6682C120.059 57.6173 120.032 57.5678 120.003 57.5169C119.974 57.4595 119.942 57.4022 119.909 57.3474C119.895 57.3226 119.88 57.3004 119.866 57.2757C119.854 57.2548 119.841 57.2326 119.829 57.2118C119.603 56.8401 119.344 56.4906 119.056 56.1672C118.935 56.0277 118.811 55.8947 118.678 55.7682C118.652 55.7421 118.624 55.7173 118.598 55.6925C118.533 55.6273 118.465 55.566 118.396 55.506C118.032 55.1852 117.637 54.901 117.216 54.6571C117.173 54.6323 117.133 54.6075 117.09 54.5854C116.556 54.2907 115.981 54.0598 115.376 53.9046C114.789 53.7534 114.174 53.6738 113.54 53.6738H113.536V55.5139H113.54C114.184 55.5139 114.801 55.6247 115.376 55.8282C115.946 56.0264 116.474 56.3185 116.94 56.6875C117.036 56.7593 117.126 56.8362 117.216 56.9184C117.367 57.0514 117.511 57.1948 117.644 57.3461C117.697 57.4035 117.748 57.4608 117.795 57.5195C117.954 57.7112 118.102 57.9186 118.232 58.1324C118.438 58.4611 118.608 58.8132 118.739 59.1848C118.944 59.7599 119.056 60.3794 119.056 61.0249V61.0288C119.056 61.673 118.945 62.2898 118.742 62.8649C118.613 63.2366 118.443 63.5913 118.237 63.9199C118.107 64.139 117.957 64.345 117.795 64.5393C117.749 64.5967 117.703 64.6515 117.652 64.705C117.515 64.8588 117.37 65.0036 117.216 65.1405C117.129 65.2201 117.039 65.2957 116.946 65.3648C116.478 65.7365 115.949 66.0299 115.376 66.2294C114.801 66.4342 114.184 66.5437 113.54 66.5437H113.536C112.89 66.5437 112.271 66.4316 111.696 66.2268C111.326 66.0977 110.976 65.9282 110.649 65.7234C110.469 65.6152 110.297 65.4965 110.134 65.3635C110.037 65.2918 109.946 65.2149 109.856 65.1301C109.705 64.9971 109.561 64.8536 109.428 64.7024C109.349 64.615 109.273 64.525 109.204 64.4324C109.071 64.2694 108.952 64.0973 108.844 63.9173C108.638 63.5887 108.468 63.234 108.339 62.8623C108.137 62.295 108.016 61.686 108.013 61.051V60.9258L108.015 60.9284Z" fill="#414042"/>
<path d="M124.498 61.0289C124.498 60.5229 124.087 60.1121 123.581 60.1121C123.075 60.1121 122.664 60.5229 122.664 61.0289C122.657 63.5248 121.638 66.0091 119.638 67.8113C119.06 68.3316 118.434 68.7646 117.777 69.1115C117.771 69.1141 117.768 69.1167 117.762 69.1193C117.645 69.1806 117.528 69.238 117.409 69.2941C117.378 69.3084 117.345 69.324 117.314 69.3384C117.217 69.3827 117.121 69.4245 117.024 69.4649C116.963 69.4897 116.9 69.5144 116.839 69.5392C116.799 69.5549 116.758 69.5705 116.718 69.5849C115.725 69.9539 114.651 70.156 113.529 70.156C111.032 70.156 108.769 69.1558 107.117 67.5375C106.679 67.9691 106.197 68.3551 105.679 68.6916C107.521 70.5707 110.033 71.7913 112.828 71.9674C112.828 71.9713 112.826 71.9752 112.825 71.9791C114.3 72.0704 115.792 71.8644 117.206 71.3597C117.262 71.3401 117.318 71.3193 117.374 71.2984C117.482 71.258 117.59 71.2163 117.697 71.1719C117.787 71.1354 117.877 71.0963 117.966 71.0572C118.018 71.0337 118.069 71.0115 118.121 70.988C118.254 70.9267 118.384 70.8628 118.513 70.7963C118.538 70.7833 118.563 70.7716 118.587 70.7585C118.74 70.679 118.893 70.5942 119.042 70.5081C119.044 70.5081 119.046 70.5055 119.048 70.5042C120.224 69.8196 121.262 68.9237 122.11 67.8687C122.106 67.8687 122.104 67.8674 122.1 67.8661C123.685 65.8826 124.493 63.4622 124.499 61.0315L124.498 61.0289Z" fill="#414042"/>
<path d="M117.189 50.6405C117.169 50.634 117.151 50.6262 117.131 50.6196C117.032 50.5844 116.932 50.5531 116.833 50.5205C116.77 50.501 116.709 50.4814 116.646 50.4618C116.548 50.4332 116.45 50.4058 116.353 50.3797C116.286 50.3614 116.221 50.3445 116.154 50.3275C116.059 50.3041 115.963 50.2819 115.866 50.261C115.797 50.2454 115.727 50.2297 115.658 50.2167C115.564 50.1984 115.468 50.1815 115.375 50.1645C115.302 50.1515 115.229 50.1397 115.155 50.128C115.063 50.1137 114.97 50.1019 114.878 50.0902C114.802 50.0811 114.726 50.0706 114.65 50.0628C114.56 50.0537 114.47 50.0458 114.378 50.038C114.299 50.0315 114.219 50.025 114.14 50.0198C114.052 50.0145 113.965 50.0119 113.878 50.008C113.794 50.0054 113.711 50.0015 113.627 50.0015C113.488 50.0002 113.347 49.9989 113.207 50.0015C113.199 50.0015 113.19 50.0015 113.182 50.0015C113.115 50.0028 113.047 50.0054 112.979 50.0093C112.931 50.0119 112.881 50.0145 112.833 50.0172C112.799 50.0198 112.765 50.0211 112.73 50.0237C112.624 50.0315 112.519 50.0393 112.413 50.0498C112.356 50.055 112.3 50.0628 112.242 50.0693C112.177 50.0771 112.112 50.0837 112.047 50.0915C112.019 50.0954 111.993 50.0993 111.966 50.1032C110.323 50.3314 108.768 50.9287 107.411 51.8259L107.07 52.0854C106.567 52.4519 106.096 52.8587 105.662 53.3021C106.176 53.6346 106.654 54.0167 107.091 54.4432C107.348 54.1928 107.621 53.9541 107.91 53.7311C107.977 53.679 108.047 53.6307 108.116 53.5812C108.124 53.576 108.13 53.5707 108.138 53.5642C108.141 53.5616 108.145 53.5603 108.149 53.5577C108.266 53.4729 108.386 53.3921 108.507 53.3125C108.518 53.306 108.528 53.2995 108.539 53.2917C108.588 53.2604 108.636 53.2265 108.686 53.1952C108.753 53.1547 108.819 53.1182 108.886 53.0791C108.9 53.07 108.914 53.0609 108.93 53.0517C108.942 53.0452 108.953 53.04 108.965 53.0335C109.092 52.9617 109.219 52.8926 109.347 52.8274C109.372 52.8144 109.398 52.8013 109.423 52.7896C109.551 52.7257 109.678 52.6657 109.808 52.6096C109.836 52.5966 109.864 52.5849 109.892 52.5718C110.017 52.5184 110.144 52.4675 110.27 52.4193C110.304 52.4062 110.338 52.3932 110.371 52.3814C110.492 52.3371 110.613 52.2967 110.735 52.2575C110.775 52.2445 110.816 52.2315 110.856 52.2197C110.972 52.1845 111.087 52.1532 111.204 52.1232C111.252 52.1115 111.299 52.0985 111.348 52.0867C111.457 52.0606 111.567 52.0359 111.676 52.0137C111.731 52.002 111.786 51.9915 111.842 51.9811C111.945 51.9628 112.048 51.9459 112.151 51.9302C112.212 51.9211 112.275 51.912 112.336 51.9041C112.378 51.8989 112.42 51.8911 112.461 51.8872C112.525 51.8807 112.589 51.8755 112.652 51.8689C112.661 51.8689 112.67 51.8676 112.679 51.8663C112.7 51.865 112.721 51.8611 112.743 51.8598C112.776 51.8572 112.808 51.8559 112.841 51.8533C112.862 51.852 112.883 51.8494 112.903 51.8481C112.942 51.8455 112.98 51.8442 113.019 51.8429C113.076 51.8402 113.13 51.8363 113.186 51.835C113.207 51.835 113.228 51.835 113.248 51.835C113.276 51.835 113.306 51.8337 113.335 51.8324C113.356 51.8324 113.377 51.8324 113.398 51.8324C113.426 51.8324 113.456 51.8324 113.485 51.8324C113.529 51.8324 113.574 51.8324 113.618 51.8324C113.639 51.8324 113.66 51.8337 113.682 51.835C113.696 51.835 113.712 51.835 113.726 51.835C113.735 51.835 113.744 51.835 113.752 51.835C113.79 51.835 113.829 51.8389 113.868 51.8402C113.915 51.8415 113.962 51.8429 114.009 51.8455C114.018 51.8455 114.026 51.8455 114.035 51.8468C114.485 51.8742 114.939 51.9367 115.393 52.0332C115.441 52.0437 115.487 52.0567 115.535 52.0672C115.59 52.0802 115.643 52.0932 115.697 52.1063C115.805 52.1337 115.913 52.1624 116.019 52.1923C116.068 52.2067 116.119 52.2223 116.169 52.2367C116.278 52.2706 116.388 52.3058 116.495 52.3436C116.538 52.3593 116.581 52.3749 116.624 52.3906C116.737 52.4323 116.848 52.474 116.959 52.5197C116.994 52.534 117.029 52.5497 117.065 52.564C117.182 52.6136 117.298 52.6657 117.412 52.7205C117.438 52.7335 117.464 52.7453 117.49 52.7583C117.611 52.817 117.731 52.8796 117.85 52.9435C117.868 52.9526 117.885 52.9631 117.902 52.9722C118.027 53.0413 118.151 53.113 118.272 53.1874C118.281 53.1926 118.292 53.1991 118.301 53.2056C118.429 53.2852 118.555 53.3673 118.678 53.4534C118.68 53.4547 118.683 53.4573 118.686 53.4586C119.728 54.1811 120.599 55.1069 121.256 56.1672C121.525 56.591 122.084 56.7227 122.512 56.458C122.942 56.1919 123.076 55.6273 122.81 55.1956C121.692 53.3947 120.059 51.9198 118.074 51.0056C118.065 51.0017 118.056 50.9965 118.047 50.9926C117.92 50.9352 117.792 50.8804 117.662 50.827C117.642 50.8192 117.623 50.8113 117.605 50.8022L117.185 50.634L117.189 50.6405Z" fill="#414042"/>
</svg>
