<svg id="svg8" width="480" height="220" version="1.1" viewBox="0 0 127 58.208" xmlns="http://www.w3.org/2000/svg">
 <g id="layer1" transform="translate(-43.467 -169.48)">
  <g id="g887" transform="matrix(.83169 0 0 .83169 18.183 34.745)" fill="#e2e3e2">
   <g fill-rule="evenodd">
    <path id="path14" d="m143.79 203.66c-0.07584 5.2836-2.2128 7.1855-4.578 7.1782-3.8576-0.0111-5.899-4.6229-5.899-9.0378 0-4.8962 2.7286-8.1404 5.6454-7.9701 3.8437 0.22453 4.7613 3.278 4.8262 8.7121 0.00258 0.35907 0.00548 1.1177 0.00548 1.1177zm3.8631-20.745c0-0.26263-0.03099-0.9539-0.83336-0.94332-0.80238 0.01059-6.1269 0.28506-6.5013 0.31885-0.37149 0.03227-0.65875 0.40544-0.00839 0.45967 0.64455 0.05548 3.4913 0.28583 3.4913 4.975 0 2.2766 0.00549 4.5853 0.0029 6.264 0 0.07185 0.01743 0.53017-0.07874 0.61159-0.07941 0.0672-0.15525 0.03467-0.43088-0.16741-0.43089-0.33298-2.4691-1.5958-5.0286-1.6028-4.1842-0.0112-9.3225 2.9711-9.3225 9.2345 0 6.6319 4.6994 9.7826 9.5759 9.7826 2.3707 0 4.0571-1.0614 4.6542-1.4258 0.67553-0.41391 0.61937-0.38453 0.74041 0.22908 0.09585 0.47178 0.03937 1.3178 1.2362 1.1967 1.3627-0.13641 4.4938-0.52624 5.1496-0.65749 0.63067-0.12658 0.48123-0.53772-0.08715-0.60542-0.38601-0.04639-2.5595 0.20865-2.5595-6.511v-21.159"/>
    <path id="path16" d="m64.971 183.31c0.32944 0.1161 1.3434 0.50631 1.6652-0.25746 0.10212-0.24207 0.16641-0.40294 0.236-0.52222 0.12103-0.20725 0.29-0.28871 0.39754-0.32363 0.26437-0.08321 0.56621 0.01752 0.6532 0.54049 0.14563 0.8819 0.66366 8.5023 0.68902 8.909 0.051287 0.89753-1.1616 0.98693-1.2278 0.10073-0.087854-1.1747-2.4389-8.9079-8.8626-8.7775-5.7262 0.11761-9.4963 6.7412-9.2752 15.304 0.20689 8.0045 4.0664 12.417 10.397 12.287 6.0965-0.12507 7.7935-4.7638 8.6924-7.5993 0.37178-1.1769 1.4641-0.84875 1.2088 0.22529-1.1264 4.7331-4.705 8.7394-11.176 8.8718-7.0741 0.14498-14.706-5.2017-14.898-14.649-0.19844-9.7284 7.488-15.362 15.074-15.517 1.6371-0.0338 2.9806 0.22896 4.0536 0.54729 0.6092 0.18069 2.3725 0.86025 2.3725 0.86025"/>
    <path id="path18" d="m80.339 205.8c0 2.7241-1.405 4.8948-3.4751 4.8948-2.4896-0.00567-3.1027-2.0778-3.1267-3.0547-0.023949-0.97725 0.51038-3.0225 2.9689-4.4431 0 0 1.119-0.72231 3.3231-1.5712 0.059065-0.01453 0.10264-0.01639 0.13459-0.01136 0.039376 0.00607 0.073911 0.03695 0.073911 0.03695 0.030017 0.03367 0.083271 0.12404 0.081012 0.43079-9.68e-4 0.08827 0.020334 3.7178 0.020334 3.7178zm-0.053901-6.7919c-0.012265 0.16771-0.042604 0.38744-0.058096 0.48366-0.13814 0.8462-0.57806 1.2841-1.4127 1.6979-1.0854 0.53481-4.1284 0.98806-4.5141 1.0754-1.2285 0.27863-4.6825 1.1542-4.6056 4.7739 0.074655 3.573 3.6075 4.7793 6.0738 4.7203 2.392-0.05925 3.7934-1.0868 4.4192-1.5936 0.36859-0.29855 0.33728-0.22542 0.64519 0.11826 0.34212 0.3829 1.5312 1.5233 4.2778 1.5119 2.7902-0.01134 3.2069-1.3333 3.368-1.7399 0.21689-0.54377-0.36794-0.84194-0.57774-0.34923-0.34922 0.81924-1.0538 1.0416-1.5366 1.036-0.53836-0.00555-2.1208-0.13226-2.1321-4.2148 0 0-0.001937-8.4102-0.002905-8.8988 0-2.7416-2.0928-4.985-7.6316-4.985-5.9585 0-5.9886 2.9361-6.0274 3.6638-0.044992 0.82503 0.38796 1.6944 1.8851 1.7 1.3506 0.00291 1.6695-1.4627 1.8604-2.0246 0.19985-0.58549 0.24007-2.3967 2.6479-2.3594 2.0479 0 3.3183 1.7942 3.3309 4.3527 0 0.33347 0.006455 0.58851 0 0.82909-0.001292 0.04791-0.007747 0.18156-0.009361 0.20221"/>
    <path id="path20" d="m121.36 205.8c0 2.7241-1.405 4.8948-3.4748 4.8948-2.4898-0.00567-3.103-2.0778-3.1269-3.0547-0.02388-0.97725 0.51028-3.0225 2.9687-4.4431 0 0 1.119-0.72231 3.3231-1.5712 0.05907-0.01453 0.10296-0.01639 0.13491-0.01136 0.03906 0.00607 0.07359 0.03695 0.07359 0.03695 0.03034 0.03367 0.08359 0.12404 0.08101 0.43079-6.4e-4 0.08827 0.02034 3.7178 0.02034 3.7178zm-0.05391-6.7919c-0.01226 0.16771-0.04227 0.38744-0.05777 0.48366-0.13813 0.8462-0.57806 1.2841-1.4127 1.6979-1.0858 0.53481-4.1284 0.98806-4.5144 1.0754-1.2281 0.27863-4.6819 1.1542-4.6054 4.7739 0.07455 3.573 3.6074 4.7793 6.0736 4.7203 2.392-0.05925 3.7937-1.0868 4.4195-1.5936 0.36859-0.29855 0.33696-0.22542 0.64551 0.11826 0.3418 0.3829 1.5308 1.5233 4.2772 1.5119 2.7906-0.01134 3.2069-1.3333 3.3683-1.7399 0.2169-0.54377-0.36827-0.84194-0.57773-0.34923-0.34923 0.81924-1.0541 1.0416-1.537 1.036-0.53835-0.00555-2.1208-0.13226-2.1318-4.2148 0 0-0.00225-8.4102-0.0029-8.8988 0-2.7416-2.0924-4.985-7.6316-4.985-5.9584 0-5.9888 2.9361-6.0275 3.6638-0.04518 0.82503 0.38796 1.6944 1.8852 1.7 1.3504 0.00291 1.6693-1.4627 1.8601-2.0246 0.20011-0.58549 0.24012-2.3967 2.6479-2.3594 2.0479 0 3.3186 1.7942 3.3312 4.3527 0 0.33347 0.00613 0.58851 0 0.82909-0.0013 0.04791-0.00807 0.18156-0.00969 0.20221"/>
    <path id="path22" d="m161.85 205.8c0 2.7241-1.4053 4.8948-3.4754 4.8948-2.4894-0.00567-3.1023-2.0778-3.1262-3.0547-0.0242-0.97725 0.51028-3.0225 2.9687-4.4431 0 0 1.119-0.72231 3.3231-1.5712 0.05875-0.01453 0.10233-0.01639 0.13459-0.01136 0.03938 0.00607 0.0736 0.03695 0.0736 0.03695 0.03034 0.03367 0.08359 0.12404 0.081 0.43079-6.4e-4 0.08827 0.02066 3.7178 0.02066 3.7178zm-0.05389-6.7919c-0.01227 0.16771-0.04261 0.38744-0.0581 0.48366-0.13814 0.8462-0.57806 1.2841-1.4127 1.6979-1.0854 0.53481-4.1284 0.98806-4.5141 1.0754-1.2284 0.27863-4.6826 1.1542-4.6058 4.7739 0.07488 3.573 3.6075 4.7793 6.074 4.7203 2.392-0.05925 3.793-1.0868 4.4192-1.5936 0.36891-0.29855 0.33728-0.22542 0.64519 0.11826 0.34245 0.3829 1.5312 1.5233 4.2778 1.5119 2.7902-0.01134 3.2066-1.3333 3.368-1.7399 0.2169-0.54377-0.36793-0.84194-0.57773-0.34923-0.34922 0.81924-1.0538 1.0416-1.5366 1.036-0.53837-0.00555-2.1212-0.13226-2.1321-4.2148 0 0-0.00226-8.4102-0.00291-8.8988 0-2.7416-2.0928-4.985-7.6316-4.985-5.9584 0-5.9888 2.9361-6.0275 3.6638-0.04518 0.82503 0.38795 1.6944 1.8852 1.7 1.3504 0.00291 1.6696-1.4627 1.8604-2.0246 0.19979-0.58549 0.24014-2.3967 2.6479-2.3594 2.0476 0 3.3183 1.7942 3.3309 4.3527 0 0.33347 0.00645 0.58851 0 0.82909-0.00129 0.04791-0.00775 0.18156-0.00936 0.20221"/>
    <path id="path24" d="m103.49 206.73c0.00162 3.0578-0.88951 4.0572-1.9324 4.2656-0.96278 0.19151-0.75912 0.65585-0.30662 0.65332 0.20044-0.00151 8.1942 0 8.2055 0 0.67004-0.00151 1.129-0.43243-0.05939-0.70413-0.72587-0.16328-1.9372-0.99097-1.9385-4.834l-0.01743-7.5127c-0.01356-1.699 0.17655-5.9836-6.5058-5.9836-3.4115 0-5.4097 1.7315-5.6086 1.885-0.30759 0.23868-0.43831 0.35139-0.57483-0.1006-0.10425-0.34636-0.28596-0.92352-0.38989-1.222-0.10231-0.29916-0.2269-0.55181-0.87532-0.46105-0.64939 0.09078-4.5428 0.70603-5.1896 0.86715-0.64616 0.1605-0.47542 0.43497-0.006456 0.51237 0.46897 0.07817 2.563 0.24866 2.5504 3.8806-0.011296 3.6352-0.00355 8.0106-0.00355 8.0106 0.020979 4.3841-0.90889 4.7812-1.7184 5.0035-1.0557 0.29022-0.56386 0.65748-0.057774 0.65899 0.010651 0 7.8717 0.00253 8.0718 0 0.53965-0.00856 0.77784-0.49585-0.30856-0.6774-1.0467-0.17298-2.0411-0.78975-2.0185-4.2333 0.001937-0.33916 0.001292-4.5669-0.008715-5.2625-0.02582-1.8247-0.45444-7.5541 4.7113-7.6036 3.6058-0.11674 3.9538 2.8945 3.9728 4.8977l0.00839 7.9601"/>
   </g>
   <g>
    <path id="path26" d="m157.62 188.26c-0.01647-0.015-1.718-1.4862-1.718-1.4862l0.26304-0.13226c0.03906-0.0184 0.06682-0.04048 0.08618-0.06443 0.05906-0.073 0.04228-0.16528 0.02517-0.23573-0.0071-0.02373-0.29371-1.0232-0.29371-1.0232s0.81174 0.17361 0.86306 0.18055c0.01711 0.00303 0.03227 0.00455 0.04647 0.00478 0.01291 0 0.03615-0.00252 0.03648-0.00252 0.06972-0.01197 0.1036-0.06352 0.13007-0.13124 0.01032-0.02142 0.2085-0.50027 0.2085-0.50027s0.8708 0.96073 0.87597 0.96498c0.06164 0.05562 0.12232 0.07453 0.17267 0.06733 0.01032-0.00152 0.01904-0.00578 0.0284-0.00933 0.06714-0.02559 0.10845-0.10086 0.09296-0.19665-0.0142-0.08702-0.44057-2.0529-0.44057-2.0529s0.45639 0.27132 0.60808 0.35846c0.07391 0.04473 0.13039 0.06303 0.17881 0.0528 0.04808-0.0111 0.08779-0.05132 0.12652-0.12394 0.02292-0.03983 0.64293-1.2652 0.64293-1.2652s0.62034 1.2254 0.64294 1.2652c0.03872 0.07262 0.07842 0.11284 0.12651 0.12394 0.04842 0.01023 0.10522-0.00807 0.17881-0.0528 0.1517-0.08714 0.60808-0.35846 0.60808-0.35846s-0.42604 1.9659-0.44024 2.0529c-0.01582 0.09579 0.02582 0.17106 0.09295 0.19665 0.00904 0.00355 0.01775 0.00781 0.0284 0.00933 0.05003 0.0072 0.11071-0.01171 0.17236-0.06733 0.00516-0.00425 0.87628-0.96498 0.87628-0.96498s0.19785 0.47885 0.20818 0.50027c0.02647 0.06772 0.06068 0.11927 0.13039 0.13124 0 0 0.02356 0.00252 0.03648 0.00252 0.0142-2.3e-4 0.02937-0.00175 0.04615-0.00478 0.05164-0.00694 0.86305-0.18055 0.86305-0.18055s-0.28661 0.99942-0.29371 1.0232c-0.0171 0.07045-0.03357 0.16273 0.02518 0.23573 0.01969 0.02395 0.04745 0.04603 0.08649 0.06443l0.26273 0.13226s-1.7012 1.4712-1.718 1.4862c-0.04842 0.04564-0.09264 0.11574-0.03454 0.2954 0.01388 0.04124 0.19559 0.56482 0.19559 0.56482s-1.6315-0.33335-1.659-0.33877c-0.0397-0.00894-0.07779-0.01223-0.11264-0.00946-0.10523 0.00781-0.17978 0.06833-0.17978 0.18685 0 0.16138 0.06455 1.7656 0.06455 1.7656h-0.41442s0.06455-1.6042 0.06455-1.7656c0-0.11852-0.07423-0.17917-0.17945-0.18685-0.03518-0.00277-0.07327 5.2e-4 -0.11297 0.00946-0.02743 0.00542-1.659 0.33877-1.659 0.33877s0.18171-0.52358 0.19559-0.56482c0.05809-0.17966 0.0142-0.24976-0.03453-0.2954"/>
    <path id="path28" d="m154.79 181.94v9.5137h-4.7568v-9.5137h4.7568"/>
    <path id="path30" d="m164.31 181.94v9.5137h4.7568v-9.5137h-4.7568"/>
   </g>
  </g>
 </g>
</svg>
