<svg width="269" height="94" viewBox="0 0 269 94" fill="none" xmlns="http://www.w3.org/2000/svg">
<g clip-path="url(#clip0_53_2206)">
<path d="M201.02 40.6218C199.629 40.6218 198.521 39.68 198.521 38.2031C198.521 36.821 199.646 35.7844 201.02 35.7844C201.48 35.7844 201.901 35.9182 202.267 36.1467L201.967 36.6427C201.69 36.4699 201.364 36.364 201.02 36.364C199.967 36.364 199.197 37.1387 199.197 38.2087C199.197 39.3456 199.956 40.0534 201.02 40.0534C201.386 40.0534 201.724 39.9475 202.051 39.7245L202.389 40.1982C201.99 40.4713 201.519 40.6274 201.02 40.6274V40.6218Z" fill="#414042"/>
<path d="M205.137 40.5437V40.187C204.865 40.4935 204.566 40.6217 204.139 40.6217C203.53 40.6217 202.965 40.3207 202.965 39.6074C202.965 38.7603 203.718 38.4984 204.444 38.4984C204.61 38.4984 204.821 38.5095 205.109 38.5708V38.4482C205.109 37.9411 204.871 37.6457 204.322 37.6457C203.934 37.6457 203.53 37.7906 203.264 37.9411L203.087 37.4339C203.43 37.2667 203.94 37.1218 204.394 37.1218C205.358 37.1218 205.713 37.6513 205.713 38.5095V40.5437H205.137ZM205.109 39.0278C204.865 38.9721 204.677 38.9609 204.51 38.9609C204.1 38.9609 203.552 39.0612 203.552 39.5628C203.552 39.9696 203.857 40.1201 204.211 40.1201C204.566 40.1201 204.843 39.9473 205.109 39.7188V39.0278Z" fill="#414042"/>
<path d="M207.397 37.7571C207.596 37.3949 207.896 37.1218 208.256 37.1218C208.394 37.1218 208.488 37.133 208.616 37.1608L208.505 37.8073C208.405 37.7627 208.317 37.7404 208.195 37.7404C207.857 37.7404 207.607 37.9411 207.402 38.3033V40.5437H206.799V37.1998H207.402V37.7571H207.397Z" fill="#414042"/>
<path d="M209.768 37.7571C209.968 37.3949 210.267 37.1218 210.627 37.1218C210.766 37.1218 210.86 37.133 210.987 37.1608L210.876 37.8073C210.777 37.7627 210.688 37.7404 210.566 37.7404C210.228 37.7404 209.979 37.9411 209.774 38.3033V40.5437H209.17V37.1998H209.774V37.7571H209.768Z" fill="#414042"/>
<path d="M211.868 39.0278C211.907 39.6018 212.3 40.1034 212.937 40.1034C213.375 40.1034 213.73 39.9418 213.929 39.5628L214.367 39.8415C214.034 40.3765 213.58 40.6217 212.91 40.6217C211.851 40.6217 211.264 39.847 211.264 38.8718C211.264 37.8965 211.99 37.1218 212.91 37.1218C213.829 37.1218 214.422 37.785 214.422 38.6767C214.422 38.7882 214.411 38.9386 214.394 39.0222H211.863L211.868 39.0278ZM211.912 38.5374H213.802C213.774 38.0637 213.414 37.6401 212.921 37.6401C212.383 37.6401 212.034 38.0358 211.918 38.5374H211.912Z" fill="#414042"/>
<path d="M216.965 36.1076C216.838 36.0463 216.71 36.0129 216.555 36.0129C216.378 36.0129 216.256 36.0519 216.167 36.1188C216.012 36.2469 215.996 36.481 215.996 36.7819V37.2055H216.893V37.7405H215.996V40.5493H215.392V37.7405H215.015V37.2055H215.392V36.7262C215.392 36.3807 215.453 36.0686 215.597 35.8513C215.763 35.606 216.034 35.4556 216.478 35.4556C216.699 35.4556 216.943 35.5224 217.137 35.6005L216.965 36.1076Z" fill="#414042"/>
<path d="M220.611 38.8718C220.611 39.847 219.885 40.6217 218.915 40.6217C217.946 40.6217 217.22 39.847 217.22 38.8718C217.22 37.8965 217.946 37.1218 218.915 37.1218C219.885 37.1218 220.611 37.8965 220.611 38.8718ZM218.915 37.6847C218.289 37.6847 217.841 38.2253 217.841 38.8718C217.841 39.5182 218.295 40.0588 218.915 40.0588C219.536 40.0588 219.99 39.5182 219.99 38.8718C219.99 38.2253 219.536 37.6847 218.915 37.6847Z" fill="#414042"/>
<path d="M223.758 39.9976C223.514 40.3933 223.121 40.6274 222.672 40.6274C222.223 40.6274 221.902 40.4657 221.708 40.2038C221.481 39.8973 221.409 39.4514 221.409 38.9387V37.2H222.012V38.8719C222.012 39.2007 222.024 39.5518 222.184 39.797C222.289 39.9586 222.472 40.0645 222.76 40.0645C223.148 40.0645 223.514 39.797 223.752 39.4236V37.2055H224.356V40.5493H223.752V40.0032L223.758 39.9976Z" fill="#414042"/>
<path d="M226.085 37.7571C226.284 37.3949 226.583 37.1218 226.943 37.1218C227.082 37.1218 227.176 37.133 227.303 37.1608L227.193 37.8073C227.093 37.7627 227.004 37.7404 226.882 37.7404C226.544 37.7404 226.295 37.9411 226.09 38.3033V40.5437H225.486V37.1998H226.09V37.7571H226.085Z" fill="#414042"/>
<path d="M229.237 38.8719C229.237 37.9858 229.896 37.122 230.91 37.122C231.298 37.122 231.686 37.2947 231.952 37.5678V35.5281H232.556V40.5438H231.952V40.0979C231.714 40.4546 231.292 40.6274 230.894 40.6274C229.935 40.6274 229.231 39.8527 229.231 38.8775L229.237 38.8719ZM231.957 39.4348V38.192C231.725 37.8632 231.331 37.6848 230.993 37.6848C230.223 37.6848 229.858 38.309 229.858 38.8886C229.858 39.5016 230.29 40.0645 230.982 40.0645C231.342 40.0645 231.786 39.8416 231.957 39.4348Z" fill="#414042"/>
<path d="M234.002 39.0278C234.04 39.6018 234.434 40.1034 235.071 40.1034C235.509 40.1034 235.863 39.9418 236.063 39.5628L236.5 39.8415C236.168 40.3765 235.714 40.6217 235.043 40.6217C233.985 40.6217 233.398 39.847 233.398 38.8718C233.398 37.8965 234.123 37.1218 235.043 37.1218C235.963 37.1218 236.556 37.785 236.556 38.6767C236.556 38.7882 236.545 38.9386 236.528 39.0222H233.996L234.002 39.0278ZM234.046 38.5374H235.935C235.907 38.0637 235.547 37.6401 235.054 37.6401C234.517 37.6401 234.168 38.0358 234.051 38.5374H234.046Z" fill="#414042"/>
<path d="M239.669 40.5438H239.066V35.5281H239.669V40.5438Z" fill="#414042"/>
<path d="M241.204 37.5342H240.628L240.966 35.8623H241.642L241.204 37.5342Z" fill="#414042"/>
<path d="M242.672 40.5436V35.8623H243.309V40.5436H242.672Z" fill="#414042"/>
<path d="M245.105 37.1998V37.746C245.348 37.3503 245.742 37.1162 246.19 37.1162C246.639 37.1162 246.961 37.2778 247.155 37.5342C247.382 37.8407 247.454 38.2921 247.454 38.7993V40.538H246.85V38.8661C246.85 38.5373 246.839 38.1862 246.678 37.9466C246.573 37.785 246.39 37.6791 246.102 37.6791C245.714 37.6791 245.348 37.9466 245.11 38.32V40.538H244.506V37.1942H245.11L245.105 37.1998Z" fill="#414042"/>
<path d="M248.251 38.8719C248.251 37.9858 248.911 37.122 249.925 37.122C250.312 37.122 250.7 37.2947 250.966 37.5678V35.5281H251.57V40.5438H250.966V40.0979C250.728 40.4546 250.307 40.6274 249.908 40.6274C248.949 40.6274 248.246 39.8527 248.246 38.8775L248.251 38.8719ZM250.972 39.4348V38.192C250.739 37.8632 250.346 37.6848 250.008 37.6848C249.238 37.6848 248.872 38.309 248.872 38.8886C248.872 39.5016 249.304 40.0645 249.997 40.0645C250.357 40.0645 250.8 39.8416 250.972 39.4348Z" fill="#414042"/>
<path d="M255 39.9976C254.756 40.3933 254.362 40.6274 253.914 40.6274C253.465 40.6274 253.144 40.4657 252.95 40.2038C252.723 39.8973 252.651 39.4514 252.651 38.9387V37.2H253.254V38.8719C253.254 39.2007 253.266 39.5518 253.426 39.797C253.531 39.9586 253.714 40.0645 254.002 40.0645C254.39 40.0645 254.756 39.797 254.994 39.4236V37.2055H255.598V40.5493H254.994V40.0032L255 39.9976Z" fill="#414042"/>
<path d="M258.34 37.8742C258.185 37.7404 257.908 37.629 257.681 37.629C257.376 37.629 257.182 37.8073 257.182 38.0692C257.182 38.3312 257.504 38.4482 257.82 38.5764C258.252 38.7436 258.789 38.9888 258.789 39.574C258.789 40.3207 258.213 40.6217 257.587 40.6217C257.133 40.6217 256.706 40.4433 256.446 40.0978L256.872 39.7579C257.094 39.9919 257.332 40.1145 257.598 40.1145C257.925 40.1145 258.196 39.9473 258.196 39.6018C258.196 39.3399 257.892 39.2229 257.559 39.0891C257.121 38.9163 256.612 38.7213 256.612 38.1194C256.612 37.4451 257.133 37.1218 257.681 37.1218C258.058 37.1218 258.44 37.25 258.706 37.4896L258.346 37.8798L258.34 37.8742Z" fill="#414042"/>
<path d="M260.357 37.735V39.2453C260.357 39.3344 260.357 39.4069 260.363 39.5072C260.385 39.8639 260.496 40.0701 260.828 40.0701C260.961 40.0701 261.094 40.0311 261.199 39.9753L261.365 40.4658C261.199 40.5549 260.967 40.6107 260.745 40.6107C260.28 40.6107 259.991 40.4045 259.853 40.0868C259.775 39.8973 259.748 39.6521 259.748 39.3902V37.735H259.304V37.2H259.748V36.3975H260.352V37.2H261.282V37.735H260.352H260.357Z" fill="#414042"/>
<path d="M262.623 37.7571C262.823 37.3949 263.122 37.1218 263.482 37.1218C263.62 37.1218 263.715 37.133 263.842 37.1608L263.731 37.8073C263.631 37.7627 263.543 37.7404 263.421 37.7404C263.083 37.7404 262.834 37.9411 262.629 38.3033V40.5437H262.025V37.1998H262.629V37.7571H262.623Z" fill="#414042"/>
<path d="M264.396 36.5478V35.8679H265V36.5478H264.396ZM264.396 40.5437V37.1999H265V40.5437H264.396Z" fill="#414042"/>
<path d="M266.44 39.0278C266.479 39.6018 266.873 40.1034 267.51 40.1034C267.947 40.1034 268.302 39.9418 268.501 39.5628L268.939 39.8415C268.607 40.3765 268.152 40.6217 267.482 40.6217C266.424 40.6217 265.837 39.847 265.837 38.8718C265.837 37.8965 266.562 37.1218 267.482 37.1218C268.402 37.1218 268.995 37.785 268.995 38.6767C268.995 38.7882 268.983 38.9386 268.967 39.0222H266.435L266.44 39.0278ZM266.485 38.5374H268.374C268.346 38.0637 267.986 37.6401 267.493 37.6401C266.956 37.6401 266.607 38.0358 266.49 38.5374H266.485Z" fill="#414042"/>
<path d="M198.754 44.2219H199.862C200.3 44.2219 200.76 44.2944 201.098 44.5173C201.424 44.7291 201.591 45.0802 201.591 45.487C201.591 45.9273 201.391 46.2561 200.882 46.4567C201.48 46.635 201.785 47.0196 201.785 47.5713C201.785 48.123 201.491 48.5131 201.026 48.7138C200.671 48.8587 200.222 48.9033 199.801 48.9033H198.754V44.2219ZM200.688 44.9576C200.449 44.8015 200.111 44.7848 199.713 44.7848H199.391V46.2282H199.834C200.532 46.2282 200.948 46.0053 200.948 45.5204C200.948 45.2306 200.848 45.0634 200.682 44.9576H200.688ZM200.134 46.7911H199.391V48.3404H199.746C200.134 48.3404 200.472 48.3181 200.726 48.2011C200.954 48.0952 201.103 47.9001 201.103 47.5769C201.103 47.1087 200.765 46.7855 200.134 46.7855V46.7911Z" fill="#414042"/>
<path d="M202.743 44.9074V44.2275H203.347V44.9074H202.743ZM202.743 48.9033V45.5595H203.347V48.9033H202.743Z" fill="#414042"/>
<path d="M207.574 47.2314C207.574 48.2066 206.848 48.9813 205.879 48.9813C204.909 48.9813 204.184 48.2066 204.184 47.2314C204.184 46.2561 204.909 45.4814 205.879 45.4814C206.848 45.4814 207.574 46.2561 207.574 47.2314ZM205.879 46.0443C205.253 46.0443 204.804 46.5849 204.804 47.2314C204.804 47.8778 205.258 48.4184 205.879 48.4184C206.499 48.4184 206.954 47.8778 206.954 47.2314C206.954 46.5849 206.499 46.0443 205.879 46.0443Z" fill="#414042"/>
<path d="M210.389 48.9033V48.5466C210.117 48.8531 209.818 48.9813 209.391 48.9813C208.782 48.9813 208.217 48.6804 208.217 47.967C208.217 47.1199 208.97 46.858 209.696 46.858C209.862 46.858 210.073 46.8691 210.361 46.9304V46.8078C210.361 46.3007 210.123 46.0053 209.574 46.0053C209.186 46.0053 208.782 46.1502 208.516 46.3007L208.339 45.7935C208.682 45.6263 209.192 45.4814 209.646 45.4814C210.61 45.4814 210.965 46.0109 210.965 46.8691V48.9033H210.389ZM210.361 47.3874C210.117 47.3317 209.929 47.3205 209.763 47.3205C209.353 47.3205 208.804 47.4209 208.804 47.9224C208.804 48.3293 209.109 48.4797 209.463 48.4797C209.818 48.4797 210.095 48.307 210.361 48.0785V47.3874Z" fill="#414042"/>
<path d="M212.649 48.9032H212.045V43.8875H212.649V48.9032Z" fill="#414042"/>
<path d="M213.768 44.9074V44.2275H214.372V44.9074H213.768ZM213.768 48.9033V45.5595H214.372V48.9033H213.768Z" fill="#414042"/>
<path d="M219.913 48.9033V47.2314C219.913 46.9082 219.907 46.5515 219.752 46.3119C219.647 46.1502 219.464 46.0444 219.181 46.0444C218.86 46.0444 218.511 46.2729 218.262 46.6017C218.289 46.7689 218.3 46.9695 218.3 47.1701V48.9089H217.697V47.237C217.697 46.9138 217.691 46.5292 217.519 46.284C217.42 46.1447 217.259 46.0499 217.01 46.0499C216.672 46.0499 216.311 46.3565 216.09 46.663V48.9089H215.486V45.5651H216.09V46.0722C216.334 45.7211 216.749 45.4871 217.131 45.4871C217.514 45.4871 217.852 45.6264 218.057 45.9496C218.09 45.9942 218.118 46.0555 218.134 46.1057C218.422 45.6988 218.838 45.4926 219.292 45.4926C219.746 45.4926 220.023 45.6375 220.212 45.8883C220.445 46.1948 220.517 46.663 220.517 47.1813V48.92H219.913V48.9033Z" fill="#414042"/>
<path d="M221.924 47.3874C221.963 47.9614 222.356 48.463 222.993 48.463C223.431 48.463 223.785 48.3014 223.985 47.9224L224.423 48.2011C224.09 48.7361 223.636 48.9813 222.965 48.9813C221.907 48.9813 221.32 48.2066 221.32 47.2314C221.32 46.2561 222.046 45.4814 222.965 45.4814C223.885 45.4814 224.478 46.1446 224.478 47.0363C224.478 47.1478 224.467 47.2982 224.45 47.3818H221.918L221.924 47.3874ZM221.968 46.897H223.857C223.83 46.4233 223.47 45.9997 222.977 45.9997C222.439 45.9997 222.09 46.3954 221.974 46.897H221.968Z" fill="#414042"/>
<path d="M225.924 45.5594V46.1056C226.168 45.7099 226.561 45.4758 227.01 45.4758C227.458 45.4758 227.78 45.6374 227.974 45.8938C228.201 46.2003 228.273 46.6517 228.273 47.1589V48.8977H227.669V47.2258C227.669 46.8969 227.658 46.5458 227.497 46.3062C227.392 46.1446 227.209 46.0387 226.921 46.0387C226.533 46.0387 226.168 46.3062 225.929 46.6796V48.8977H225.325V45.5539H225.929L225.924 45.5594Z" fill="#414042"/>
<path d="M229.985 46.0944V47.6046C229.985 47.6938 229.985 47.7663 229.99 47.8666C230.013 48.2232 230.123 48.4295 230.456 48.4295C230.589 48.4295 230.722 48.3904 230.827 48.3347L230.993 48.8251C230.827 48.9143 230.594 48.97 230.373 48.97C229.907 48.97 229.619 48.7638 229.481 48.4462C229.403 48.2567 229.375 48.0115 229.375 47.7495V46.0944H228.932V45.5594H229.375V44.7568H229.979V45.5594H230.91V46.0944H229.979H229.985Z" fill="#414042"/>
<path d="M233.625 48.9033V48.5466C233.353 48.8531 233.054 48.9813 232.628 48.9813C232.018 48.9813 231.453 48.6804 231.453 47.967C231.453 47.1199 232.207 46.858 232.932 46.858C233.099 46.858 233.309 46.8691 233.597 46.9304V46.8078C233.597 46.3007 233.359 46.0053 232.81 46.0053C232.423 46.0053 232.018 46.1502 231.752 46.3007L231.575 45.7935C231.919 45.6263 232.428 45.4814 232.883 45.4814C233.847 45.4814 234.201 46.0109 234.201 46.8691V48.9033H233.625ZM233.597 47.3874C233.353 47.3317 233.165 47.3205 232.999 47.3205C232.589 47.3205 232.04 47.4209 232.04 47.9224C232.04 48.3293 232.345 48.4797 232.7 48.4797C233.054 48.4797 233.331 48.307 233.597 48.0785V47.3874Z" fill="#414042"/>
<path d="M235.281 44.9074V44.2275H235.885V44.9074H235.281ZM235.281 48.9033V45.5595H235.885V48.9033H235.281Z" fill="#414042"/>
<path d="M237.608 46.1168C237.808 45.7545 238.107 45.4814 238.467 45.4814C238.606 45.4814 238.7 45.4926 238.827 45.5205L238.717 46.1669C238.617 46.1223 238.528 46.1001 238.406 46.1001C238.068 46.1001 237.819 46.3007 237.614 46.6629V48.9033H237.01V45.5595H237.614V46.1168H237.608Z" fill="#414042"/>
<path d="M239.703 47.3874C239.742 47.9614 240.135 48.463 240.772 48.463C241.21 48.463 241.564 48.3014 241.764 47.9224L242.201 48.2011C241.869 48.7361 241.415 48.9813 240.744 48.9813C239.686 48.9813 239.099 48.2066 239.099 47.2314C239.099 46.2561 239.825 45.4814 240.744 45.4814C241.664 45.4814 242.257 46.1446 242.257 47.0363C242.257 47.1478 242.246 47.2982 242.229 47.3818H239.697L239.703 47.3874ZM239.747 46.897H241.636C241.609 46.4233 241.249 45.9997 240.755 45.9997C240.218 45.9997 239.869 46.3954 239.753 46.897H239.747Z" fill="#414042"/>
<path d="M198.405 55.5909C198.405 54.7048 199.064 53.841 200.078 53.841C200.466 53.841 200.854 54.0137 201.12 54.2868V52.2471H201.724V57.2628H201.12V56.8169C200.882 57.1736 200.461 57.3464 200.062 57.3464C199.103 57.3464 198.4 56.5717 198.4 55.5965L198.405 55.5909ZM201.125 56.1538V54.911C200.893 54.5822 200.499 54.4038 200.161 54.4038C199.391 54.4038 199.026 55.028 199.026 55.6076C199.026 56.2206 199.458 56.7835 200.15 56.7835C200.51 56.7835 200.954 56.5606 201.125 56.1538Z" fill="#414042"/>
<path d="M203.17 55.7468C203.208 56.3208 203.602 56.8224 204.239 56.8224C204.677 56.8224 205.031 56.6608 205.231 56.2818L205.668 56.5604C205.336 57.0955 204.882 57.3407 204.211 57.3407C203.153 57.3407 202.566 56.566 202.566 55.5907C202.566 54.6155 203.292 53.8408 204.211 53.8408C205.131 53.8408 205.724 54.504 205.724 55.3957C205.724 55.5072 205.713 55.6576 205.696 55.7412H203.164L203.17 55.7468ZM203.214 55.2564H205.103C205.076 54.7827 204.715 54.3591 204.222 54.3591C203.685 54.3591 203.336 54.7548 203.22 55.2564H203.214Z" fill="#414042"/>
<path d="M208.832 57.2628H208.228V52.2471H208.832V57.2628Z" fill="#414042"/>
<path d="M210.367 54.2534H209.79L210.128 52.5815H210.804L210.367 54.2534Z" fill="#414042"/>
<path d="M212.483 51.0989L213.192 51.9961L212.832 52.2748L212.156 51.5001L211.486 52.2748L211.12 51.9961L211.851 51.0989H212.483ZM211.84 57.2626V52.5813H212.478V57.2626H211.84Z" fill="#414042"/>
<path d="M214.273 57.2628H213.669V52.2471H214.273V57.2628Z" fill="#414042"/>
<path d="M215.713 55.7468C215.752 56.3208 216.145 56.8224 216.782 56.8224C217.22 56.8224 217.575 56.6608 217.774 56.2818L218.212 56.5604C217.879 57.0955 217.425 57.3407 216.755 57.3407C215.696 57.3407 215.109 56.566 215.109 55.5907C215.109 54.6155 215.835 53.8408 216.755 53.8408C217.674 53.8408 218.267 54.504 218.267 55.3957C218.267 55.5072 218.256 55.6576 218.239 55.7412H215.707L215.713 55.7468ZM215.757 55.2564H217.647C217.619 54.7827 217.259 54.3591 216.766 54.3591C216.228 54.3591 215.879 54.7548 215.763 55.2564H215.757Z" fill="#414042"/>
<path d="M220.494 55.5909C220.494 54.7048 221.154 53.841 222.167 53.841C222.555 53.841 222.943 54.0137 223.209 54.2868V52.2471H223.813V57.2628H223.209V56.8169C222.971 57.1736 222.55 57.3464 222.151 57.3464C221.192 57.3464 220.489 56.5717 220.489 55.5965L220.494 55.5909ZM223.215 56.1538V54.911C222.982 54.5822 222.589 54.4038 222.251 54.4038C221.48 54.4038 221.115 55.028 221.115 55.6076C221.115 56.2206 221.547 56.7835 222.24 56.7835C222.6 56.7835 223.043 56.5606 223.215 56.1538Z" fill="#414042"/>
<path d="M225.259 55.7468C225.298 56.3208 225.691 56.8224 226.328 56.8224C226.766 56.8224 227.121 56.6608 227.32 56.2818L227.758 56.5604C227.425 57.0955 226.971 57.3407 226.301 57.3407C225.242 57.3407 224.655 56.566 224.655 55.5907C224.655 54.6155 225.381 53.8408 226.301 53.8408C227.22 53.8408 227.813 54.504 227.813 55.3957C227.813 55.5072 227.802 55.6576 227.785 55.7412H225.254L225.259 55.7468ZM225.303 55.2564H227.193C227.165 54.7827 226.805 54.3591 226.312 54.3591C225.774 54.3591 225.425 54.7548 225.309 55.2564H225.303Z" fill="#414042"/>
<path d="M233.038 57.2629H232.594L231.032 53.3116V57.2629H230.395V52.5815H231.403L232.816 56.2374L234.251 52.5815H235.259V57.2629H234.622V53.3116L233.032 57.2629H233.038Z" fill="#414042"/>
<path d="M239.564 55.5907C239.564 56.566 238.838 57.3407 237.869 57.3407C236.899 57.3407 236.173 56.566 236.173 55.5907C236.173 54.6155 236.899 53.8408 237.869 53.8408C238.838 53.8408 239.564 54.6155 239.564 55.5907ZM237.869 54.4037C237.243 54.4037 236.794 54.9443 236.794 55.5907C236.794 56.2372 237.248 56.7778 237.869 56.7778C238.489 56.7778 238.944 56.2372 238.944 55.5907C238.944 54.9443 238.489 54.4037 237.869 54.4037Z" fill="#414042"/>
<path d="M241.01 53.919V54.4652C241.254 54.0695 241.647 53.8354 242.096 53.8354C242.545 53.8354 242.866 53.9971 243.06 54.2534C243.287 54.5599 243.359 55.0114 243.359 55.5185V57.2573H242.755V55.5854C242.755 55.2566 242.744 54.9055 242.584 54.6658C242.478 54.5042 242.296 54.3983 242.007 54.3983C241.62 54.3983 241.254 54.6658 241.016 55.0392V57.2573H240.412V53.9135H241.016L241.01 53.919Z" fill="#414042"/>
<path d="M245.071 54.454V55.9643C245.071 56.0534 245.071 56.1259 245.077 56.2262C245.099 56.5829 245.21 56.7891 245.542 56.7891C245.675 56.7891 245.808 56.7501 245.913 56.6943L246.08 57.1848C245.913 57.2739 245.681 57.3297 245.459 57.3297C244.994 57.3297 244.706 57.1235 244.567 56.8058C244.49 56.6163 244.462 56.3711 244.462 56.1092V54.454H244.019V53.919H244.462V53.1165H245.066V53.919H245.997V54.454H245.066H245.071Z" fill="#414042"/>
<path d="M247.337 54.4761C247.537 54.1139 247.836 53.8408 248.196 53.8408C248.335 53.8408 248.429 53.852 248.556 53.8798L248.445 54.5263C248.346 54.4817 248.257 54.4594 248.135 54.4594C247.797 54.4594 247.548 54.6601 247.343 55.0223V57.2626H246.739V53.9188H247.343V54.4761H247.337Z" fill="#414042"/>
<path d="M249.432 55.7468C249.47 56.3208 249.864 56.8224 250.501 56.8224C250.939 56.8224 251.293 56.6608 251.493 56.2818L251.93 56.5604C251.598 57.0955 251.144 57.3407 250.473 57.3407C249.415 57.3407 248.828 56.566 248.828 55.5907C248.828 54.6155 249.553 53.8408 250.473 53.8408C251.393 53.8408 251.986 54.504 251.986 55.3957C251.986 55.5072 251.975 55.6576 251.958 55.7412H249.426L249.432 55.7468ZM249.476 55.2564H251.365C251.337 54.7827 250.977 54.3591 250.484 54.3591C249.947 54.3591 249.598 54.7548 249.481 55.2564H249.476ZM250.49 53.4786L250.124 53.1999L250.944 52.0686L251.382 52.4086L250.49 53.4786Z" fill="#414042"/>
<path d="M254.806 57.2626V56.906C254.534 57.2125 254.235 57.3407 253.808 57.3407C253.199 57.3407 252.634 57.0397 252.634 56.3264C252.634 55.4793 253.387 55.2174 254.113 55.2174C254.279 55.2174 254.49 55.2285 254.778 55.2898V55.1672C254.778 54.6601 254.54 54.3647 253.991 54.3647C253.603 54.3647 253.199 54.5096 252.933 54.6601L252.756 54.1529C253.099 53.9857 253.609 53.8408 254.063 53.8408C255.027 53.8408 255.382 54.3703 255.382 55.2285V57.2626H254.806ZM254.778 55.7468C254.534 55.6911 254.346 55.6799 254.18 55.6799C253.77 55.6799 253.221 55.7802 253.221 56.2818C253.221 56.6886 253.526 56.8391 253.88 56.8391C254.235 56.8391 254.512 56.6663 254.778 56.4378V55.7468Z" fill="#414042"/>
<path d="M257.066 57.2628H256.462V52.2471H257.066V57.2628Z" fill="#414042"/>
<path d="M201.513 70.7882C203.64 70.7882 205.364 69.0541 205.364 66.915C205.364 64.7759 203.64 63.0417 201.513 63.0417C199.387 63.0417 197.663 64.7759 197.663 66.915C197.663 69.0541 199.387 70.7882 201.513 70.7882Z" fill="#F4B42B"/>
<path d="M99.1001 39.1281C98.7621 38.5374 98.3798 37.9689 97.9643 37.4283C96.7288 35.8122 95.1775 34.4412 93.4102 33.4269C91.1275 32.0838 88.4682 31.3315 85.6371 31.3315H85.6204C82.7838 31.3315 80.1189 32.1061 77.8307 33.4492V16.6577C75.2766 17.3209 72.8666 18.2962 70.6117 19.5501C70.4233 19.656 70.2294 19.7675 70.041 19.8733V59.269H76.0135C76.0689 59.3135 76.1188 59.3581 76.1742 59.4027C76.7005 59.8095 77.249 60.1885 77.8252 60.5173C80.1078 61.8604 82.7727 62.6351 85.6149 62.6351H85.6315C88.4626 62.6351 91.1165 61.8771 93.4046 60.5396C95.1886 59.5142 96.7454 58.1376 97.9809 56.4992C98.3965 55.9586 98.7787 55.3957 99.1056 54.7994C100.441 52.5033 101.189 49.8283 101.189 46.9805V46.9638C101.189 44.1104 100.419 41.4298 99.0835 39.1281H99.1001ZM93.4157 46.9805C93.4157 51.2996 89.9364 54.7994 85.6426 54.7994H85.626C81.3433 54.7883 77.8751 51.294 77.8751 46.9805V46.9638C77.8861 42.6614 81.3544 39.1727 85.626 39.1671H85.6426C89.9253 39.1671 93.4046 42.6558 93.4157 46.9638V46.9805Z" fill="#414042"/>
<path d="M190.117 31.259C189.79 30.6739 189.413 30.1277 189.009 29.5983C187.773 27.9598 186.216 26.5889 184.432 25.5579C182.15 24.2148 179.49 23.4624 176.659 23.4624H176.643C173.806 23.4624 171.141 24.2371 168.853 25.5801C168.271 25.909 167.728 26.2879 167.202 26.6948C166.376 27.3245 165.623 28.0378 164.947 28.8181C163.828 27.5307 162.515 26.4161 161.024 25.5634C158.742 24.2203 156.082 23.468 153.251 23.468H153.235C150.398 23.468 147.733 24.2426 145.445 25.5857C144.863 25.9145 144.32 26.2935 143.794 26.7003C142.703 27.5363 141.733 28.5116 140.902 29.6094C140.497 30.1389 140.121 30.6906 139.794 31.2702C138.459 33.5663 137.689 36.2469 137.689 39.1058H137.655V70.4429H145.445V39.1058H145.478C145.489 34.8035 148.958 31.3148 153.229 31.3092H153.246C157.528 31.3092 161.008 34.7979 161.019 39.1058V62.6072H161.058V70.4429H168.847V39.1058H168.881C168.892 34.8035 172.36 31.3148 176.632 31.3092H176.648C180.931 31.3092 184.41 34.7979 184.421 39.1058V70.794H192.211V39.1058C192.211 36.2525 191.441 33.5718 190.106 31.2702L190.117 31.259Z" fill="#414042"/>
<path d="M52.9711 68.2472C53.0985 68.4534 53.237 68.6652 53.3866 68.8714C53.2315 69.0441 53.0653 69.2113 52.8935 69.3674C52.5112 69.7519 52.1234 70.1141 51.719 70.4652C50.8879 71.212 50.007 71.9086 49.0984 72.5607C48.5 72.9898 47.8961 73.3855 47.2701 73.7645C47.0817 73.8871 46.8823 73.9985 46.6884 74.11C46.5221 74.2047 46.3615 74.2995 46.1842 74.3998C43.9182 75.6593 41.4749 76.6568 38.8986 77.3145C36.4166 77.9609 33.8126 78.2953 31.1255 78.2953H31.1089C28.4163 78.2953 25.8068 77.9498 23.3192 77.3033C20.7596 76.6346 18.3274 75.6481 16.0669 74.3942C15.8841 74.2883 15.7012 74.1936 15.5295 74.0877C13.7455 73.0455 12.0668 71.8251 10.5376 70.4597C10.1332 70.1141 9.73984 69.7463 9.3631 69.3618C8.79798 68.8156 8.25503 68.2416 7.74532 67.6453C6.53198 66.2688 5.45162 64.7808 4.49868 63.2036C4.37679 63.0141 4.26599 62.8135 4.15518 62.6184C2.76455 60.1997 1.67865 57.5693 0.969484 54.7828C0.326805 52.2861 -0.00561523 49.6668 -0.00561523 46.9638V46.9471C-0.00561523 44.2386 0.337886 41.6138 0.980565 39.1115C1.70081 36.325 2.78117 33.7001 4.1718 31.2758C4.28261 31.0863 4.39895 30.8913 4.50976 30.7018C5.4627 29.1358 6.54306 27.6534 7.74532 26.288C8.26611 25.6861 8.80906 25.1121 9.37972 24.5548C9.76754 24.1702 10.1664 23.7968 10.5764 23.4402C12.1056 22.0803 13.7621 20.8821 15.535 19.8456C15.7234 19.7397 15.9173 19.6282 16.1057 19.5223C18.3551 18.2684 20.7706 17.2931 23.3247 16.6299C25.8068 15.9835 28.4219 15.6379 31.1145 15.6379H31.1311C33.8126 15.6379 36.4166 15.9779 38.9042 16.6188C41.4638 17.282 43.896 18.2628 46.1565 19.5168C46.3393 19.6115 46.5111 19.7174 46.6939 19.8233C46.8823 19.9347 47.0817 20.0518 47.2756 20.1688C47.9183 20.5589 48.5499 20.9769 49.1593 21.4116C50.0347 22.0358 50.8824 22.7101 51.6857 23.429C52.0902 23.7857 52.4891 24.1591 52.8824 24.5436C53.0542 24.7108 53.226 24.8836 53.3922 25.0563C53.2537 25.257 53.1262 25.4576 52.9933 25.6582C51.8409 27.436 50.8381 29.303 49.9904 31.2647C49.8076 31.6548 49.6469 32.0393 49.4862 32.4406C49.1815 32.0393 48.8546 31.6492 48.5 31.2647C47.9349 30.6182 47.331 30.0107 46.6939 29.4479C46.3116 29.1023 45.9349 28.768 45.5249 28.467C44.8434 27.9209 44.1232 27.4137 43.3697 26.9623C41.9791 26.0818 40.4776 25.3628 38.9042 24.8111C36.472 23.9417 33.8569 23.468 31.1311 23.468H31.1145C28.3775 23.468 25.757 23.9473 23.3247 24.8167C20.9202 25.6694 18.7041 26.9066 16.7373 28.4614C16.3218 28.7847 15.9229 29.1135 15.535 29.4813C14.9145 30.0386 14.3162 30.6405 13.7621 31.2647C12.8258 32.3012 11.9892 33.4214 11.269 34.614C10.3936 36.0129 9.67889 37.512 9.12486 39.0947C8.26057 41.5413 7.7841 44.1773 7.7841 46.9304V46.9471C7.7841 49.689 8.24949 52.3195 9.11932 54.7661C9.66227 56.3488 10.3825 57.8535 11.2579 59.2579C11.9781 60.4505 12.8092 61.5651 13.7344 62.6017C14.2995 63.2482 14.9034 63.8556 15.5406 64.4185C15.9229 64.7752 16.3107 65.104 16.7151 65.4105C18.6875 66.9877 20.9092 68.2305 23.3247 69.0831C25.757 69.9525 28.3775 70.4318 31.1145 70.4318H31.1311C33.8569 70.4318 36.472 69.9637 38.9042 69.0887C40.4776 68.5425 41.9735 67.8181 43.3697 66.9375C44.1287 66.475 44.86 65.9734 45.5526 65.4049C45.9404 65.1096 46.3227 64.7863 46.6939 64.4464C47.3421 63.8612 47.9571 63.2426 48.5388 62.5906C48.8768 62.2227 49.1981 61.8438 49.4918 61.4481C49.6469 61.8382 49.802 62.2116 49.9738 62.5906C50.8214 64.5467 51.8242 66.4304 52.9766 68.2026L52.9711 68.2472Z" fill="#414042"/>
<path d="M58.2013 39.0946C60.337 39.0946 62.0684 37.353 62.0684 35.2047C62.0684 33.0563 60.337 31.3147 58.2013 31.3147C56.0655 31.3147 54.3341 33.0563 54.3341 35.2047C54.3341 37.353 56.0655 39.0946 58.2013 39.0946Z" fill="#34A49A"/>
<path d="M127.788 39.0946C129.924 39.0946 131.655 37.353 131.655 35.2047C131.655 33.0563 129.924 31.3147 127.788 31.3147C125.652 31.3147 123.921 33.0563 123.921 35.2047C123.921 37.353 125.652 39.0946 127.788 39.0946Z" fill="#F15B4E"/>
<path d="M62.1902 46.6963C62.1902 44.5339 60.4506 42.784 58.3009 42.784C56.1513 42.784 54.4282 44.5841 54.4282 46.752V47.2647C54.4282 49.923 54.7496 52.4978 55.3812 54.9611C56.0405 57.5636 57.0211 60.0436 58.3009 62.3453C58.3896 62.5125 58.4727 62.6797 58.5613 62.8357C58.6832 63.0363 58.8051 63.237 58.927 63.432C59.2816 64.0339 59.6749 64.6302 60.0738 65.2042C60.7331 66.1349 61.4367 67.0378 62.1902 67.8904C62.1902 67.8904 62.1958 67.9016 62.2013 67.9016C62.5559 68.3196 62.9326 68.7208 63.3205 69.1165C63.4756 69.2837 63.6418 69.4509 63.8136 69.6069C64.1848 69.9915 64.5781 70.3481 64.977 70.6992C65.6086 71.2733 66.2735 71.8083 66.9549 72.3043L67.6308 72.8003H67.6419C67.6419 72.8003 67.6586 72.817 67.6586 72.8281C68.2403 73.2461 68.8386 73.6418 69.4592 74.0152C69.642 74.1266 69.8248 74.2325 70.0132 74.3384C70.1849 74.4443 70.3678 74.539 70.5506 74.6449C70.7999 74.7843 71.0659 74.9236 71.3263 75.0629C71.3706 75.0796 71.4149 75.1075 71.4648 75.1354C71.7362 75.2747 72.0133 75.4084 72.2792 75.5366C72.872 75.8153 73.4704 76.0772 74.0798 76.3224C74.3845 76.445 74.6892 76.5676 74.9995 76.6735C75.4095 76.8295 75.8361 76.9689 76.2572 77.1082C76.7004 77.2475 77.1491 77.3813 77.6145 77.5039C77.6866 77.5317 77.7641 77.5485 77.8306 77.5652C77.8915 77.5819 77.9525 77.5986 78.0134 77.6098C78.1963 77.6599 78.3791 77.7045 78.5619 77.7435C78.6229 77.7602 78.6727 77.777 78.7337 77.7881C79.0384 77.8606 79.3431 77.9219 79.6478 77.9776C79.7365 77.9943 79.8307 78.011 79.9193 78.0277C79.9359 78.0277 79.947 78.0389 79.9636 78.0389C80.213 78.0835 80.4678 78.1281 80.7282 78.1726C80.9609 78.2005 81.1991 78.2339 81.4318 78.2674C81.598 78.2952 81.7532 78.312 81.9083 78.3287C82.141 78.3566 82.3681 78.39 82.6008 78.4067C82.8335 78.4346 83.0607 78.4513 83.2934 78.468C83.4596 78.4792 83.6258 78.4959 83.7865 78.5014C84.0746 78.5182 84.3516 78.5293 84.6397 78.546C84.9721 78.5572 85.3101 78.5628 85.648 78.5628H85.7367C86.0469 78.5628 86.3627 78.5516 86.673 78.546C86.9334 78.5293 87.2049 78.5182 87.4653 78.5014C87.6979 78.4903 87.9251 78.4736 88.1523 78.4513C88.5235 78.4234 88.8891 78.39 89.2492 78.3566C89.5207 78.3231 89.7811 78.2841 90.0471 78.2507C90.3684 78.2061 90.6897 78.1559 91.0111 78.0946C91.2825 78.05 91.5485 78.0055 91.82 77.9553C92.1912 77.8773 92.5513 77.7881 92.917 77.7045C93.2992 77.6153 93.6704 77.5206 94.0472 77.4147C94.3851 77.32 94.7342 77.2252 95.0832 77.1082C95.3935 77.0135 95.6982 76.9076 96.0029 76.7961C96.2467 76.7181 96.4794 76.6289 96.7176 76.5453C97.0279 76.4227 97.3437 76.3001 97.6484 76.1719C97.8811 76.0772 98.1082 75.9824 98.3354 75.8766C98.5847 75.7651 98.8285 75.6592 99.0723 75.5366C99.316 75.4251 99.5598 75.3025 99.7925 75.1799C99.9255 75.1186 100.053 75.0462 100.186 74.9793C100.324 74.9069 100.457 74.84 100.585 74.7675C100.757 74.6784 100.934 74.5836 101.1 74.4889C101.172 74.4443 101.233 74.4109 101.299 74.3774C101.405 74.3161 101.499 74.2548 101.604 74.1935L101.737 74.1155C101.842 74.043 101.953 73.9762 102.07 73.9037C102.391 73.7031 102.712 73.5025 103.034 73.2851C103.139 73.2127 103.244 73.1458 103.344 73.0733C103.372 73.0566 103.405 73.0287 103.433 73.012C103.682 72.8393 103.937 72.6554 104.186 72.4714C104.203 72.4547 104.23 72.4436 104.247 72.4269C104.38 72.321 104.507 72.2262 104.64 72.1204C104.856 71.9532 105.084 71.7804 105.3 71.6076C105.333 71.5798 105.361 71.5575 105.394 71.5296C105.593 71.3624 105.787 71.1952 105.987 71.0225C106.169 70.872 106.341 70.716 106.518 70.5599C106.657 70.4373 106.795 70.3147 106.928 70.1865C107.172 69.9692 107.405 69.7407 107.632 69.5122C108.12 69.0329 108.585 68.5425 109.028 68.0353C109.056 68.0019 109.089 67.9629 109.122 67.9294C109.183 67.8514 109.244 67.779 109.311 67.7121C109.361 67.6341 109.433 67.5616 109.494 67.4948C109.599 67.3833 109.693 67.2607 109.787 67.1437C109.821 67.0991 109.848 67.0656 109.881 67.0322C109.915 66.9876 109.959 66.9374 109.992 66.8929C110.192 66.6309 110.391 66.3801 110.591 66.1126C110.64 66.0402 110.696 65.9789 110.746 65.912C110.757 65.9009 110.757 65.8953 110.762 65.8842C110.895 65.7002 111.023 65.5163 111.156 65.3324C111.183 65.299 111.2 65.26 111.233 65.2265C111.294 65.1318 111.366 65.0426 111.422 64.9479C111.455 64.8977 111.494 64.8364 111.527 64.7807C111.677 64.5801 111.804 64.3627 111.937 64.1509C112.042 63.9949 112.153 63.8389 112.247 63.6717C112.258 63.6605 112.264 63.6549 112.264 63.6438C112.358 63.4878 112.452 63.3373 112.541 63.1812C112.552 63.1812 112.552 63.1924 112.552 63.1924C112.624 63.0809 112.69 62.9639 112.751 62.8524C112.796 62.78 112.829 62.7187 112.857 62.6629C112.89 62.5905 112.929 62.5236 112.962 62.4623C113.272 61.9217 113.571 61.37 113.832 60.8016C113.943 60.5508 114.064 60.3056 114.181 60.0492C114.292 59.804 114.397 59.5532 114.502 59.2969C114.513 59.2801 114.513 59.269 114.519 59.2523C114.569 59.1297 114.624 59.0071 114.668 58.8789C114.718 58.7451 114.762 58.6281 114.818 58.5055C114.951 58.1823 115.062 57.859 115.184 57.5246C115.272 57.2627 115.366 56.9896 115.455 56.7221C115.455 56.711 115.466 56.7054 115.466 56.6943C115.605 56.2596 115.727 55.8193 115.848 55.3734C115.937 55.0614 116.015 54.7437 116.081 54.4316C116.17 54.0638 116.253 53.7071 116.33 53.3282C116.38 53.0551 116.425 52.7876 116.469 52.5145C116.53 52.1913 116.58 51.868 116.624 51.5448C116.657 51.2717 116.696 51.0098 116.729 50.7423L116.779 50.1905C116.79 50.0958 116.796 50.0066 116.807 49.9175C116.818 49.8283 116.818 49.7336 116.823 49.6388C116.851 49.4103 116.868 49.1818 116.873 48.9478C116.89 48.6858 116.901 48.4128 116.918 48.1508C116.929 47.8387 116.934 47.5211 116.934 47.209V47.1198C116.934 46.7799 116.923 46.4399 116.918 46.1055C116.901 45.8157 116.89 45.5371 116.873 45.2584C116.862 45.0857 116.846 44.9185 116.84 44.7513C116.807 44.2776 116.763 43.815 116.707 43.3636C116.679 43.1964 116.663 43.0404 116.635 42.8732C116.602 42.628 116.563 42.3772 116.53 42.132C116.497 41.8868 116.452 41.6527 116.408 41.4075C116.408 41.3908 116.397 41.374 116.397 41.3573C116.38 41.2682 116.364 41.1734 116.347 41.0842C116.225 40.4712 116.098 39.8638 115.937 39.2563C115.765 38.5652 115.555 37.8853 115.339 37.2222C115.328 37.1943 115.322 37.1776 115.311 37.1497C115.139 36.6147 114.945 36.102 114.746 35.5837C114.657 35.3552 114.563 35.1378 114.474 34.9205C114.264 34.4301 114.059 33.9508 113.821 33.4771C113.71 33.243 113.593 33.0034 113.472 32.7805V32.7637C113.361 32.5464 113.244 32.3346 113.123 32.1173C113.001 31.8721 112.862 31.6268 112.724 31.3928C112.663 31.2869 112.602 31.1922 112.541 31.0863C112.491 30.9971 112.436 30.9024 112.386 30.8132C111.422 29.2249 110.325 27.7313 109.1 26.3492C108.585 25.7529 108.059 25.1844 107.494 24.6439C107.383 24.5324 107.266 24.4265 107.156 24.3206C106.879 24.042 106.59 23.78 106.297 23.5237C104.751 22.1527 103.072 20.9378 101.283 19.8957C101.1 19.7898 100.928 19.6839 100.745 19.5891C98.4794 18.3296 96.0362 17.3432 93.4654 16.68C90.9723 16.0336 88.3572 15.6936 85.6646 15.6936H85.648V23.5571H85.6646C88.4016 23.5571 91.0221 24.0308 93.4654 24.9002C95.8866 25.7473 98.1304 26.9957 100.108 28.5728C100.518 28.8794 100.901 29.2082 101.283 29.5593C101.926 30.1277 102.535 30.7407 103.1 31.3872C103.327 31.6324 103.543 31.8776 103.743 32.1284C104.419 32.9477 105.045 33.8338 105.599 34.7477C106.474 36.1521 107.194 37.6568 107.754 39.2452C108.624 41.7029 109.1 44.35 109.1 47.1087V47.1254C109.1 49.8785 108.629 52.5145 107.765 54.9722C107.217 56.5605 106.496 58.0764 105.621 59.4808C105.067 60.417 104.43 61.2976 103.743 62.1279C103.549 62.3732 103.349 62.6072 103.133 62.8357C102.552 63.4933 101.937 64.1119 101.283 64.6971C100.912 65.037 100.529 65.3603 100.136 65.6557C98.147 67.244 95.8976 68.4979 93.4654 69.3506C91.0221 70.2255 88.4016 70.6937 85.6646 70.6937H85.648C82.9056 70.6937 80.2739 70.2144 77.8306 69.3394C76.2571 68.7877 74.7723 68.0632 73.3817 67.1882C72.6171 66.7257 71.8858 66.2185 71.1933 65.6501C70.7833 65.3436 70.3955 65.0148 70.0132 64.6525C69.3705 64.0841 68.7611 63.471 68.196 62.8246C67.858 62.4512 67.5367 62.0666 67.243 61.671C66.6779 60.9743 66.1737 60.2387 65.7139 59.4696C64.8385 58.0652 64.1183 56.5494 63.5698 54.9611C62.711 52.5368 62.1958 49.9342 62.1847 47.2201V46.6851L62.1902 46.6963Z" fill="#34A49A"/>
<path d="M132.22 47.1253C132.22 44.963 130.475 43.2075 128.325 43.2075C126.176 43.2075 124.43 44.963 124.43 47.1253C124.397 57.7921 120.07 68.4087 111.571 76.1106C109.117 78.3342 106.458 80.1845 103.665 81.6669C103.643 81.678 103.626 81.6892 103.604 81.7003C103.106 81.9623 102.607 82.2075 102.103 82.4471C101.97 82.5084 101.831 82.5753 101.698 82.6366C101.288 82.8261 100.878 83.0044 100.468 83.1772C100.208 83.2831 99.9421 83.3889 99.6817 83.4948C99.5099 83.5617 99.3382 83.6286 99.1664 83.6899C94.9502 85.267 90.385 86.1309 85.6203 86.1309C75.0105 86.1309 65.3981 81.8564 58.3785 74.9403C56.5169 76.7849 54.467 78.4345 52.2675 79.8724C60.096 87.9031 70.7666 93.1194 82.6396 93.8718C82.6396 93.8885 82.634 93.9052 82.6285 93.9219C88.8946 94.312 95.2328 93.4315 101.238 91.2748C101.477 91.1912 101.715 91.102 101.953 91.0128C102.413 90.8401 102.873 90.6617 103.327 90.4722C103.709 90.3162 104.092 90.149 104.469 89.9818C104.69 89.8815 104.906 89.7868 105.128 89.6864C105.693 89.4245 106.247 89.1514 106.795 88.8672C106.901 88.8115 107.006 88.7613 107.106 88.7056C107.759 88.3656 108.408 88.0034 109.039 87.6356C109.05 87.6356 109.056 87.6244 109.067 87.6189C114.064 84.693 118.474 80.8644 122.076 76.3558C122.059 76.3558 122.048 76.3502 122.031 76.3447C128.768 67.8681 132.198 57.5246 132.226 47.1365L132.22 47.1253Z" fill="#F15B4E"/>
<path d="M101.166 2.73086C101.083 2.703 101.006 2.66956 100.923 2.6417C100.502 2.49122 100.075 2.35747 99.654 2.21815C99.388 2.13455 99.1276 2.05096 98.8617 1.96736C98.4462 1.84475 98.0306 1.72772 97.6151 1.61626C97.3326 1.53824 97.0555 1.46579 96.773 1.39334C96.3685 1.29303 95.9586 1.19829 95.5486 1.10912C95.2549 1.04224 94.9558 0.975365 94.6621 0.919635C94.2632 0.841612 93.8588 0.769163 93.4599 0.696714C93.1496 0.640984 92.8393 0.590827 92.5291 0.54067C92.1357 0.479367 91.7424 0.42921 91.349 0.379052C91.0277 0.340041 90.7063 0.295457 90.3794 0.262019C89.9972 0.223008 89.6149 0.18957 89.2271 0.156132C88.8891 0.128267 88.5511 0.100402 88.2132 0.0781097C87.842 0.0558176 87.4708 0.0446716 87.0996 0.0279526C86.745 0.0168065 86.3904 8.75043e-05 86.0358 8.75043e-05C85.443 -0.00548551 84.8447 -0.0110585 84.2518 8.75043e-05C84.2186 8.75043e-05 84.1798 8.75043e-05 84.1466 8.75043e-05C83.8585 0.00566052 83.5704 0.0168065 83.2823 0.0335256C83.0773 0.0446716 82.8667 0.0558176 82.6617 0.0669637C82.5177 0.0781097 82.3737 0.0836827 82.2241 0.0948287C81.7753 0.128267 81.3265 0.161705 80.8778 0.206289C80.634 0.228581 80.3958 0.262019 80.152 0.289884C79.875 0.323322 79.5979 0.351187 79.3209 0.384625C79.2046 0.401344 79.0938 0.418063 78.9774 0.434783C71.9966 1.41006 65.3925 3.9625 59.625 7.79673L58.179 8.90576C56.0404 10.4718 54.0404 12.2106 52.1954 14.1054C54.3783 15.5265 56.4116 17.1594 58.2676 18.9818C59.3591 17.9118 60.517 16.8919 61.747 15.9389C62.0295 15.716 62.3287 15.5098 62.6223 15.298C62.6556 15.2757 62.6833 15.2534 62.7165 15.2256C62.7276 15.2144 62.7442 15.2088 62.7609 15.1977C63.2595 14.8354 63.7692 14.4899 64.2845 14.15C64.3288 14.1221 64.3731 14.0942 64.4174 14.0608C64.628 13.927 64.8329 13.7821 65.0435 13.6484C65.326 13.4756 65.6086 13.3196 65.8911 13.1524C65.9521 13.1134 66.013 13.0744 66.0795 13.0354C66.1294 13.0075 66.1792 12.9852 66.2291 12.9573C66.7665 12.6508 67.3095 12.3555 67.8524 12.0768C67.9577 12.0211 68.0685 11.9653 68.1738 11.9152C68.7167 11.6421 69.2597 11.3858 69.8082 11.1461C69.9301 11.0904 70.0464 11.0402 70.1683 10.9845C70.7002 10.756 71.2376 10.5387 71.775 10.3325C71.919 10.2767 72.0631 10.221 72.2016 10.1708C72.7169 9.98135 73.2321 9.80859 73.7473 9.6414C73.9191 9.58567 74.0908 9.52994 74.2626 9.47978C74.7557 9.32931 75.2432 9.19556 75.7419 9.06738C75.9469 9.01722 76.1463 8.96149 76.3513 8.91133C76.8167 8.79987 77.2821 8.69399 77.7475 8.59925C77.9802 8.54909 78.2129 8.50451 78.4511 8.45992C78.8888 8.3819 79.3265 8.30945 79.7642 8.24257C80.0246 8.20356 80.2905 8.16455 80.5509 8.13111C80.7282 8.10882 80.9055 8.07538 81.0828 8.05866C81.3542 8.0308 81.6257 8.00851 81.8916 7.98064C81.9304 7.98064 81.9692 7.97507 82.008 7.9695C82.0966 7.96392 82.1853 7.9472 82.2795 7.94163C82.418 7.93048 82.5565 7.92491 82.695 7.91377C82.7836 7.90819 82.8723 7.89705 82.9609 7.89147C83.1271 7.88033 83.2878 7.87475 83.454 7.86918C83.6923 7.85804 83.9249 7.84132 84.1632 7.83574C84.2518 7.83574 84.3405 7.83574 84.4236 7.83574C84.5455 7.83574 84.6729 7.83017 84.7948 7.8246C84.8834 7.8246 84.9721 7.8246 85.0607 7.8246C85.1826 7.8246 85.31 7.8246 85.4319 7.8246C85.6203 7.8246 85.8087 7.8246 85.997 7.8246C86.0857 7.8246 86.1743 7.83017 86.2685 7.83574C86.3295 7.83574 86.3959 7.83574 86.4569 7.83574C86.4957 7.83574 86.5344 7.83574 86.5677 7.83574C86.7284 7.83574 86.8946 7.85246 87.0608 7.85804C87.2602 7.86361 87.4597 7.86918 87.6591 7.88033C87.6979 7.88033 87.7312 7.88033 87.7699 7.8859C89.6814 8.00293 91.6094 8.27044 93.5374 8.68284C93.7424 8.72743 93.9363 8.78316 94.1413 8.82774C94.374 8.88347 94.6012 8.9392 94.8283 8.99493C95.2882 9.11196 95.748 9.23457 96.1968 9.36275C96.4073 9.42405 96.6234 9.49093 96.8339 9.55223C97.2993 9.69713 97.7647 9.8476 98.219 10.0092C98.4018 10.0761 98.5847 10.143 98.7675 10.2098C99.2495 10.3882 99.7204 10.5665 100.191 10.7616C100.341 10.8229 100.491 10.8898 100.64 10.9511C101.139 11.1628 101.632 11.3858 102.114 11.6198C102.225 11.6755 102.335 11.7257 102.446 11.7814C102.962 12.0322 103.471 12.2997 103.975 12.5728C104.053 12.6118 104.125 12.6564 104.197 12.6954C104.729 12.9908 105.255 13.2973 105.771 13.615C105.809 13.6372 105.854 13.6651 105.892 13.693C106.435 14.0329 106.973 14.384 107.494 14.7519C107.505 14.7574 107.516 14.7686 107.527 14.7741C111.954 17.8616 115.654 21.8184 118.447 26.3493C119.588 28.1605 121.965 28.7234 123.782 27.5921C125.61 26.4552 126.181 24.0421 125.051 22.1974C120.297 14.5011 113.361 8.19799 104.928 4.29131C104.89 4.27459 104.851 4.2523 104.812 4.23558C104.275 3.99036 103.732 3.7563 103.178 3.5278C103.095 3.49437 103.011 3.46093 102.934 3.42192L101.15 2.703L101.166 2.73086Z" fill="#E2E3E2"/>
</g>
<defs>
<clipPath id="clip0_53_2206">
<rect width="269" height="94" fill="white"/>
</clipPath>
</defs>
</svg>
