<?xml version="1.0" encoding="utf-8"?>
<!-- Generator: Adobe Illustrator 16.0.0, SVG Export Plug-In . SVG Version: 6.00 Build 0)  -->
<!DOCTYPE svg PUBLIC "-//W3C//DTD SVG 1.1//EN" "http://www.w3.org/Graphics/SVG/1.1/DTD/svg11.dtd">
<svg version="1.1" id="Layer_1" xmlns="http://www.w3.org/2000/svg" xmlns:xlink="http://www.w3.org/1999/xlink" x="0px" y="0px"
	 width="105.154px" height="24.536px" viewBox="1 0.732 105.154 24.536" enable-background="new 1 0.732 105.154 24.536"
	 xml:space="preserve">
<path fill="#6A8D75" d="M47.527,20.4v-9.765L43.52,20.4h-2.26l-4.007-9.686V20.4h-2.595V6.471h3.577l4.185,10.06l4.086-10.06H50.2
	V20.4H47.527z"/>
<path fill="#6A8D75" d="M59.431,19.359c-0.53,0.904-1.65,1.297-2.672,1.297c-2.338,0-3.675-1.709-3.675-3.811v-6.112h2.613v5.58
	c0,1.081,0.55,1.945,1.768,1.945c1.16,0,1.828-0.786,1.828-1.905v-5.62h2.613v7.918c0,0.746,0.059,1.415,0.098,1.749h-2.496
	C59.471,20.203,59.431,19.752,59.431,19.359z"/>
<path fill="#6A8D75" d="M67.92,10.733h1.945v2.319H67.92V17.1c0,0.844,0.394,1.119,1.14,1.119c0.315,0,0.669-0.039,0.806-0.077v2.16
	c-0.236,0.099-0.707,0.236-1.473,0.236c-1.887,0-3.064-1.12-3.064-2.985v-4.5h-1.749v-2.319h0.491c1.021,0,1.492-0.668,1.492-1.533
	V7.845h2.357V10.733z"/>
<path fill="#6A8D75" d="M78.393,19.359c-0.531,0.904-1.65,1.297-2.672,1.297c-2.338,0-3.676-1.709-3.676-3.811v-6.112h2.613v5.58
	c0,1.081,0.551,1.945,1.768,1.945c1.16,0,1.828-0.786,1.828-1.905v-5.62h2.613v7.918c0,0.746,0.059,1.415,0.099,1.749H78.47
	C78.432,20.203,78.393,19.752,78.393,19.359z"/>
<path fill="#6A8D75" d="M87.393,14.742h3.85l-1.924-5.265L87.393,14.742z M92.147,17.219H86.49L85.33,20.4h-2.868l5.344-13.929
	h3.145L96.254,20.4h-2.947L92.147,17.219z"/>
<path fill="#6A8D75" d="M100.456,6.177h-2.614v14.226h2.614V6.177z"/>
<path fill="#6A8D75" d="M103.247,10.733h2.612V20.4h-2.612V10.733z M104.544,5.941c0.905,0,1.61,0.727,1.61,1.629
	c0,0.865-0.707,1.592-1.61,1.592c-0.884,0-1.61-0.727-1.61-1.592C102.934,6.668,103.66,5.941,104.544,5.941z"/>
<path fill="#6A8D75" d="M3.176,15.166C1.975,15.166,1,14.192,1,12.99s0.975-2.176,2.176-2.176c3.06,0,5.186-0.531,6.5-1.623
	c1.425-1.184,2.116-3.249,2.116-6.314c0-1.201,0.975-2.145,2.178-2.145c1.202,0,2.176,0.944,2.176,2.145
	C16.145,11.146,11.902,15.166,3.176,15.166z"/>
<path fill="#F5C714" d="M24.77,15.166c-8.726,0-12.969-4.02-12.969-12.289c0-1.203,4.331-1.203,4.331,0
	c0,3.065,0.713,5.13,2.136,6.314c1.314,1.092,3.44,1.623,6.5,1.623c1.203,0,2.176,0.975,2.176,2.176
	C26.947,14.192,25.973,15.166,24.77,15.166z"/>
<path fill="#8DAECC" d="M13.969,25.268c-1.203,0-2.176-0.975-2.176-2.176c0-3.064-0.693-5.131-2.116-6.313
	c-1.314-1.093-3.44-1.622-6.5-1.622C1.975,15.156,1,14.182,1,12.979c0-1.203,0.975-2.176,2.176-2.176
	c8.726,0,12.969,4.019,12.969,12.289C16.145,24.295,15.17,25.268,13.969,25.268z"/>
<path fill="#B5C6BA" d="M13.979,25.132c-1.202,0-2.176-0.837-2.176-2.038c0-8.27,4.242-12.289,12.969-12.289
	c1.203,0,2.176,0.975,2.176,2.176c0,1.203-0.975,2.175-2.176,2.175c-3.06,0-5.186,0.531-6.5,1.622
	c-1.423,1.183-2.116,3.249-2.116,6.313C16.155,24.295,15.181,25.132,13.979,25.132z"/>
<path fill="#53725E" d="M11.799,2.908c0,3.393,0.727,6.058,2.17,8.035C15.415,8.965,16.14,6.3,16.14,2.908
	c0-1.201-0.972-2.172-2.171-2.176C12.771,0.735,11.799,1.707,11.799,2.908z"/>
<path fill="#425F5E" d="M3.362,10.809c-0.063,0-0.121,0.003-0.186,0.003c-1.201,0-2.172,0.972-2.176,2.171
	c0.003,1.199,0.975,2.17,2.176,2.17c0.064,0,0.123,0.003,0.186,0.003c3.597-0.023,6.417-0.745,8.487-2.175
	C9.779,11.556,6.959,10.834,3.362,10.809z"/>
<path fill="#C6B25C" d="M26.944,12.984c-0.003-1.199-0.975-2.17-2.176-2.17c-0.064,0-0.122-0.003-0.186-0.003
	c-3.597,0.024-6.417,0.746-8.486,2.176c2.067,1.428,4.889,2.152,8.486,2.176c0.064,0,0.121-0.004,0.186-0.004
	C25.969,15.156,26.943,14.186,26.944,12.984z"/>
<path fill="#6A8693" d="M16.145,23.07c0-3.393-0.727-6.059-2.171-8.035c-1.445,1.977-2.171,4.643-2.171,8.035
	c0,1.2,0.972,2.172,2.171,2.176C15.173,25.242,16.145,24.271,16.145,23.07z"/>
</svg>
