<svg width="28" height="30" viewBox="0 0 28 30" fill="none" xmlns="http://www.w3.org/2000/svg">
<path d="M4.04251 1.03245C2.64391 0.813988 1.27128 1.54864 0.678107 2.83359C0.0849417 4.11854 0.416533 5.64048 1.48947 6.5627L6.73895 11.0926C6.02765 12.1499 5.60981 13.3772 5.52985 14.6493C5.44988 15.9214 5.70933 17.1921 6.28341 18.3294C6.49982 18.7601 6.75625 19.2075 7.03751 19.652C9.46753 23.4913 10.1701 26.339 10.2934 28.1082L10.2923 28.1079C10.2677 28.5005 10.3921 28.8885 10.6425 29.1924C12.1456 30.9681 16.6993 27.9997 18.8279 26.4398C19.4917 27.1887 20.5133 27.5129 21.4873 27.2834C22.4604 27.0524 23.2299 26.3076 23.4901 25.341C23.5313 25.1826 23.5588 25.0216 23.5726 24.8582C23.6313 24.1634 23.4195 23.4731 22.9819 22.9302C24.3812 21.5667 26.7716 19.0213 27.2988 17.0537C27.4804 16.3762 27.4359 15.7703 27.049 15.312L27.0476 15.3128C26.8472 15.0824 26.5821 14.9188 26.2879 14.8412L26.2509 14.8313L26.1757 14.8111C24.4605 14.4104 21.7182 13.2753 18.2579 10.166C17.8664 9.81467 17.4701 9.4897 17.078 9.20308L17.0777 9.2042C16.0513 8.44947 14.8431 7.98267 13.5753 7.84975C12.3088 7.71717 11.0293 7.92494 9.86874 8.45075L6.26513 2.52107C5.78114 1.72053 4.96664 1.17527 4.042 1.03213L4.04251 1.03245ZM11.7885 28.223L11.772 27.9841C11.8985 27.0634 13.5765 24.4666 17.1188 21.3559L18.5975 23.1058L18.5984 23.1072C18.3378 23.4919 18.181 23.938 18.1433 24.4016C18.1244 24.6249 18.1341 24.8487 18.1699 25.0699C14.6079 27.7294 12.2705 28.4469 11.7885 28.223ZM22.0888 24.7348C22.0457 25.2318 21.7088 25.6549 21.233 25.8063C20.758 25.9592 20.2377 25.8102 19.9139 25.4301C19.7021 25.1797 19.598 24.8549 19.6266 24.5283C19.6323 24.4529 19.6448 24.3793 19.6641 24.3075C19.8336 23.6929 20.4417 23.3076 21.07 23.4171C21.698 23.5277 22.1395 24.0968 22.0893 24.7326L22.0888 24.7348ZM21.7383 22.0585C21.086 21.832 20.3726 21.8609 19.7403 22.1387L18.2401 20.4106C21.5816 17.6896 24.4693 16.2634 25.6657 16.2448C25.7226 16.2432 25.7791 16.2476 25.8345 16.2564L25.8917 16.2717C26.0636 16.7698 24.9706 18.9644 21.7373 22.0619L21.7383 22.0585ZM16.1898 10.3971C16.5427 10.6551 16.9006 10.9482 17.2586 11.2677C19.0558 12.9419 21.1005 14.329 23.3203 15.3818C21.458 16.1848 19.104 17.724 16.7215 19.7377C14.9621 21.2248 12.6572 23.478 11.3362 25.501C10.6687 23.1376 9.642 20.8896 8.29238 18.8377C8.03412 18.4331 7.80654 18.0306 7.60974 17.6389L7.61086 17.6392C6.85786 16.0837 6.83822 14.2725 7.5584 12.7019C8.27781 11.1298 9.66193 9.96193 11.3312 9.51574C13.0015 9.07005 14.783 9.39351 16.1903 10.3969L16.1898 10.3971ZM4.99428 3.29152L8.56615 9.20069C8.40989 9.31271 8.25701 9.42563 8.1032 9.55994C7.95051 9.69455 7.81205 9.82097 7.67371 9.95583L2.46044 5.43441C2.08948 5.1138 1.87821 4.64601 1.8811 4.15509C1.88371 3.66526 2.10083 3.20046 2.47545 2.88369C2.85008 2.56688 3.34508 2.42901 3.82881 2.50815C4.31396 2.58645 4.73989 2.87231 4.99428 3.29152Z" fill="#597369"/>
</svg>