<svg width="275" height="275" viewBox="0 0 275 275" fill="none" xmlns="http://www.w3.org/2000/svg">
<circle cx="137" cy="147" r="124" fill="#FFE09D"/>
<circle cx="114.5" cy="50.5" r="16.5" fill="white"/>
<path d="M181 51C181 60.3888 173.389 68 164 68C154.611 68 147 60.3888 147 51C147 41.6112 154.611 34 164 34C173.389 34 181 41.6112 181 51Z" fill="white"/>
<path d="M164 91C164 110 152.359 99.5 138 99.5C123.641 99.5 112 110 112 91C112 59.5198 123.641 34 138 34C152.359 34 164 59.5198 164 91Z" fill="white"/>
<path d="M117.5 125L115 106L102.5 120L95.5 148.5H133L117.5 125Z" fill="#F4B42B"/>
<path d="M160.293 124.776L162.76 106L175.093 119.835L182 148H145L160.293 124.776Z" fill="#F4B42B"/>
<rect x="115" y="90" width="49" height="12" fill="#F4B42B"/>
<path d="M147.311 189.215C147.176 189.55 147.087 189.931 147.087 190.3C147.087 190.669 147.176 191.038 147.311 191.384C147.456 191.753 147.657 192.044 147.914 192.323C148.06 192.435 148.205 192.581 148.339 192.67C148.518 192.782 148.686 192.871 148.854 192.927C149.021 193.017 149.2 193.073 149.368 193.095C149.58 193.129 149.748 193.162 149.949 193.162C150.117 193.162 150.318 193.129 150.486 193.106C150.687 193.073 150.855 193.017 151.034 192.938C151.202 192.883 151.381 192.793 151.526 192.681C151.694 192.592 151.839 192.458 151.985 192.335C152.242 192.044 152.443 191.764 152.588 191.395C152.723 191.038 152.812 190.669 152.812 190.3C152.812 189.931 152.723 189.55 152.588 189.215C152.443 188.868 152.242 188.555 151.985 188.265C151.839 188.153 151.694 188.041 151.526 187.929C151.381 187.817 151.213 187.728 151.034 187.672C150.855 187.582 150.687 187.527 150.486 187.504C150.14 187.415 149.748 187.415 149.368 187.504C149.2 187.527 149.021 187.594 148.854 187.672C148.675 187.728 148.507 187.817 148.339 187.929C148.194 188.041 148.049 188.153 147.914 188.276C147.657 188.555 147.456 188.868 147.311 189.215V189.215Z" fill="#414042"/>
<path d="M151.985 205.44C151.84 205.328 151.695 205.182 151.527 205.104C151.381 204.992 151.214 204.903 151.035 204.847C150.856 204.758 150.688 204.702 150.487 204.679C150.14 204.59 149.749 204.59 149.369 204.679C149.201 204.702 149.022 204.769 148.854 204.847C148.675 204.903 148.508 204.992 148.34 205.104C148.206 205.182 148.06 205.328 147.915 205.44C147.658 205.697 147.457 206.01 147.311 206.379C147.177 206.725 147.088 207.106 147.088 207.475C147.088 207.844 147.177 208.213 147.311 208.559C147.457 208.906 147.658 209.219 147.915 209.499C148.06 209.61 148.206 209.722 148.34 209.845C148.519 209.957 148.687 210.046 148.854 210.102C149.022 210.192 149.201 210.248 149.369 210.27C149.581 210.304 149.749 210.337 149.95 210.337C150.118 210.337 150.319 210.304 150.487 210.281C150.688 210.248 150.856 210.192 151.035 210.114C151.203 210.058 151.381 209.968 151.527 209.856C151.695 209.745 151.84 209.633 151.985 209.51C152.242 209.219 152.444 208.906 152.589 208.57C152.723 208.224 152.813 207.844 152.813 207.475C152.813 207.106 152.723 206.725 152.589 206.39C152.444 206.01 152.242 205.73 151.985 205.44V205.44Z" fill="#414042"/>
<path d="M152.589 223.565C152.522 223.386 152.444 223.218 152.321 223.051C152.209 222.905 152.097 222.76 151.974 222.626C150.912 221.563 148.966 221.563 147.904 222.626C147.401 223.162 147.088 223.878 147.088 224.649C147.088 224.817 147.11 225.018 147.144 225.22C147.177 225.387 147.233 225.566 147.323 225.734C147.379 225.902 147.468 226.081 147.58 226.248C147.669 226.394 147.804 226.539 147.927 226.673C148.072 226.785 148.217 226.897 148.351 227.02C148.53 227.132 148.698 227.221 148.866 227.277C149.034 227.367 149.212 227.423 149.38 227.445C149.581 227.478 149.749 227.512 149.95 227.512C150.118 227.512 150.319 227.478 150.487 227.456C150.688 227.423 150.856 227.367 151.035 227.288C151.203 227.232 151.382 227.143 151.527 227.031C151.695 226.919 151.84 226.808 151.986 226.685C152.097 226.539 152.209 226.394 152.332 226.26C152.444 226.092 152.533 225.913 152.589 225.745C152.679 225.578 152.735 225.399 152.757 225.231C152.791 225.018 152.813 224.817 152.813 224.65C152.813 224.482 152.791 224.281 152.757 224.079C152.723 223.9 152.668 223.733 152.589 223.565L152.589 223.565Z" fill="#414042"/>
<path d="M151.985 239.79C151.84 239.678 151.695 239.566 151.527 239.454C151.381 239.342 151.214 239.253 151.035 239.197C150.856 239.107 150.688 239.052 150.487 239.029C150.14 238.94 149.749 238.94 149.369 239.029C149.201 239.052 149.022 239.119 148.854 239.197C148.675 239.253 148.508 239.342 148.34 239.454C148.195 239.566 148.049 239.678 147.915 239.801C147.658 240.08 147.457 240.393 147.311 240.74C147.177 241.075 147.088 241.456 147.088 241.825C147.088 242.194 147.177 242.563 147.311 242.909C147.457 243.278 147.658 243.591 147.915 243.848C148.06 243.96 148.206 244.106 148.34 244.195C148.519 244.307 148.687 244.396 148.854 244.452C149.022 244.542 149.201 244.598 149.369 244.62C149.581 244.654 149.749 244.687 149.95 244.687C150.118 244.687 150.319 244.654 150.487 244.631C150.688 244.598 150.856 244.542 151.035 244.463C151.203 244.408 151.381 244.318 151.527 244.206C151.695 244.117 151.84 243.983 151.985 243.86C152.242 243.569 152.444 243.289 152.589 242.92C152.723 242.563 152.813 242.194 152.813 241.825C152.813 241.456 152.723 241.075 152.589 240.74C152.444 240.393 152.242 240.08 151.985 239.789V239.79Z" fill="#414042"/>
<path d="M107.012 135.912C105.425 135.912 104.15 137.198 104.15 138.775V141.637C104.15 143.214 105.425 144.5 107.012 144.5C108.6 144.5 109.875 143.214 109.875 141.637V138.775C109.875 137.198 108.6 135.912 107.012 135.912Z" fill="#414042"/>
<path d="M169.988 144.5C171.575 144.5 172.85 143.214 172.85 141.637V138.775C172.85 137.198 171.575 135.912 169.988 135.912C168.4 135.912 167.125 137.198 167.125 138.775V141.637C167.125 143.214 168.4 144.5 169.988 144.5Z" fill="#414042"/>
<path d="M109.875 69.8748V101.563C109.875 101.797 109.953 101.999 110.009 102.222C103.837 109.613 99.4761 118.547 97.4077 128.186L92.7673 149.621C92.5884 150.471 92.7897 151.354 93.3376 152.025C93.8743 152.696 94.6906 153.087 95.5627 153.087H137.762C137.996 153.11 138.22 153.132 138.466 153.132C138.701 153.132 138.969 153.099 139.215 153.087C139.226 153.076 139.226 153.087 139.238 153.087H181.436C182.309 153.087 183.125 152.696 183.662 152.025C184.209 151.354 184.411 150.471 184.232 149.621L179.591 128.186C177.512 118.514 173.117 109.546 166.99 102.222C167.046 101.999 167.124 101.797 167.124 101.563V69.8748C176.818 68.4771 184.299 60.1131 184.299 50.0386C184.299 38.991 175.309 30.0011 164.262 30.0011C158.548 30.0011 153.08 32.5058 149.323 36.7102C146.281 34.2391 142.48 32.8636 138.499 32.8636C134.519 32.8636 130.717 34.2389 127.675 36.7102C123.918 32.5058 118.45 30.0011 112.737 30.0011C101.689 30.0011 92.6992 38.991 92.6992 50.0386C92.6992 60.1131 100.18 68.477 109.874 69.8748H109.875ZM99.1184 147.362L103.01 129.383C104.609 121.936 107.706 114.947 112.078 108.864L112.436 113.247C112.436 113.27 112.458 113.292 112.458 113.314L112.469 113.482C112.615 115.148 112.827 116.792 113.118 118.413C113.207 118.928 113.342 119.42 113.442 119.923C113.666 121.019 113.889 122.126 114.169 123.21C114.337 123.825 114.549 124.407 114.728 125.01C115.019 125.961 115.298 126.911 115.634 127.839C115.869 128.477 116.148 129.092 116.405 129.718C116.763 130.579 117.099 131.451 117.49 132.29C117.792 132.927 118.138 133.542 118.463 134.168C118.876 134.962 119.279 135.767 119.737 136.539C120.106 137.165 120.509 137.757 120.9 138.372C121.37 139.11 121.84 139.848 122.343 140.564C122.768 141.168 123.237 141.738 123.696 142.319C124.221 143.002 124.747 143.672 125.306 144.332C125.798 144.902 126.323 145.439 126.838 145.976C127.285 146.423 127.688 146.915 128.146 147.362L99.1184 147.362ZM115.6 98.7001V92.9751H161.4V98.7001H115.6ZM140.513 104.425L137.963 106.136C133.983 108.764 129.398 110.15 124.68 110.15H117.926L117.456 104.425L140.513 104.425ZM141.922 146.02C141.284 146.601 140.535 147.026 139.685 147.239C139.439 147.306 139.182 147.339 138.88 147.373C138.612 147.406 138.332 147.406 138.086 147.373C137.829 147.339 137.561 147.306 137.236 147.216C136.454 147.015 135.705 146.59 135.09 146.031L132.976 144.063C131.948 143.102 130.986 142.106 130.047 141.055C129.745 140.72 129.476 140.351 129.186 140.004C128.582 139.277 127.967 138.551 127.408 137.79C127.106 137.377 126.826 136.952 126.536 136.527C126.021 135.789 125.518 135.051 125.049 134.279C124.78 133.843 124.545 133.396 124.299 132.96C123.852 132.166 123.405 131.361 123.002 130.533C122.79 130.097 122.6 129.661 122.399 129.225C122.007 128.353 121.627 127.47 121.28 126.575C121.113 126.15 120.967 125.714 120.811 125.289C120.486 124.361 120.185 123.411 119.916 122.449C119.793 122.013 119.67 121.566 119.558 121.13C119.324 120.19 119.111 119.24 118.932 118.278C118.832 117.764 118.731 117.25 118.642 116.724C118.608 116.433 118.586 116.154 118.541 115.874H124.668C130.516 115.874 136.196 114.152 141.117 110.898L150.822 104.424H159.555L158.839 113.001C157.811 125.088 152.544 136.124 144.024 144.073L141.922 146.02ZM174.001 129.382L177.882 147.362H148.853C149.323 146.903 149.736 146.4 150.184 145.93C150.687 145.405 151.19 144.879 151.671 144.331C152.252 143.66 152.789 142.967 153.326 142.274C153.762 141.704 154.22 141.156 154.634 140.574C155.159 139.848 155.629 139.087 156.11 138.338C156.49 137.745 156.893 137.164 157.25 136.56C157.709 135.766 158.123 134.95 158.547 134.134C158.861 133.53 159.196 132.926 159.498 132.311C159.9 131.45 160.247 130.567 160.605 129.683C160.851 129.069 161.13 128.476 161.354 127.85C161.701 126.91 161.98 125.938 162.271 124.976C162.45 124.383 162.662 123.813 162.819 123.221C163.11 122.136 163.333 121.018 163.557 119.899C163.657 119.407 163.792 118.915 163.881 118.424C164.161 116.802 164.384 115.159 164.53 113.492L164.921 108.863C169.282 114.901 172.39 121.912 174.001 129.381L174.001 129.382ZM112.738 35.7238C117.67 35.7238 122.343 38.3403 124.926 42.5445C125.407 43.3384 126.246 43.8416 127.174 43.9087C128.135 43.987 128.996 43.5732 129.589 42.8576C131.792 40.1405 135.046 38.5862 138.501 38.5862C141.956 38.5862 145.21 40.1404 147.413 42.8576C147.994 43.5732 148.877 43.987 149.828 43.9087C150.756 43.8416 151.595 43.3384 152.075 42.5445C154.658 38.3401 159.332 35.7238 164.263 35.7238C172.158 35.7238 178.576 42.1421 178.576 50.0363C178.576 57.9304 172.158 64.3487 164.263 64.3487C162.676 64.3487 161.401 65.6346 161.401 67.2112V87.2487H115.601V67.2112C115.601 65.6346 114.326 64.3487 112.738 64.3487C104.844 64.3487 98.426 57.9304 98.426 50.0363C98.426 42.1421 104.844 35.7238 112.738 35.7238H112.738Z" fill="#414042"/>
<path d="M213.417 196.171C213.048 196.081 212.679 196.081 212.299 196.171C212.098 196.204 211.919 196.26 211.751 196.316C211.583 196.406 211.404 196.484 211.259 196.573C211.08 196.685 210.946 196.797 210.834 196.942C210.297 197.49 209.973 198.206 209.973 198.977C209.973 199.727 210.286 200.465 210.834 200.979C210.946 201.124 211.091 201.236 211.259 201.348C211.404 201.437 211.572 201.516 211.751 201.605C211.919 201.661 212.098 201.717 212.299 201.773C212.467 201.806 212.668 201.829 212.836 201.829C213.037 201.829 213.205 201.806 213.406 201.773C213.574 201.717 213.775 201.661 213.943 201.605C214.122 201.516 214.256 201.437 214.435 201.348C214.58 201.236 214.725 201.124 214.86 200.979C215.407 200.465 215.687 199.715 215.687 198.977C215.687 198.206 215.396 197.49 214.86 196.942C214.714 196.797 214.569 196.685 214.435 196.573C214.256 196.484 214.122 196.406 213.943 196.316C213.786 196.249 213.585 196.193 213.417 196.171H213.417Z" fill="#414042"/>
<path d="M214.445 211.511C214.266 211.399 214.132 211.31 213.953 211.22C213.785 211.164 213.584 211.108 213.416 211.075C213.047 210.985 212.678 210.985 212.298 211.075C212.097 211.108 211.918 211.164 211.75 211.22C211.582 211.31 211.403 211.388 211.258 211.511C211.079 211.6 210.945 211.712 210.833 211.858C210.296 212.405 209.972 213.121 209.972 213.893C209.972 214.262 210.062 214.642 210.196 214.977C210.341 215.324 210.542 215.637 210.822 215.916C210.934 216.028 211.079 216.14 211.247 216.263C211.392 216.353 211.56 216.464 211.739 216.52C211.907 216.61 212.085 216.666 212.287 216.688C212.455 216.722 212.656 216.744 212.823 216.744C213.025 216.744 213.193 216.722 213.394 216.688C213.561 216.666 213.763 216.599 213.93 216.52C214.109 216.464 214.244 216.353 214.422 216.263C214.568 216.151 214.713 216.039 214.847 215.916C215.105 215.626 215.339 215.313 215.474 214.977C215.619 214.631 215.675 214.262 215.675 213.893C215.675 213.121 215.384 212.405 214.847 211.858C214.724 211.712 214.579 211.6 214.445 211.511H214.445Z" fill="#414042"/>
<path d="M214.445 226.427C214.266 226.316 214.132 226.226 213.953 226.137C213.785 226.081 213.584 226.025 213.416 225.991C213.047 225.902 212.678 225.902 212.298 225.991C212.097 226.025 211.918 226.081 211.75 226.137C211.582 226.226 211.403 226.304 211.258 226.427C211.079 226.517 210.945 226.629 210.833 226.774C210.296 227.322 209.972 228.038 209.972 228.809C209.972 229.558 210.285 230.296 210.833 230.844C210.945 230.956 211.09 231.068 211.258 231.191C211.403 231.303 211.571 231.392 211.75 231.448C211.918 231.537 212.097 231.593 212.298 231.616C212.466 231.649 212.667 231.672 212.835 231.672C213.036 231.672 213.204 231.649 213.405 231.616C213.573 231.593 213.774 231.526 213.942 231.448C214.121 231.392 214.255 231.303 214.434 231.191C214.579 231.079 214.724 230.967 214.859 230.844C215.406 230.296 215.686 229.558 215.686 228.809C215.686 228.038 215.395 227.322 214.859 226.774C214.724 226.629 214.579 226.506 214.445 226.427H214.445Z" fill="#414042"/>
<path d="M214.871 241.679C214.726 241.533 214.581 241.422 214.446 241.332C214.267 241.22 214.133 241.131 213.954 241.041C213.787 240.986 213.585 240.93 213.418 240.896C213.049 240.807 212.68 240.807 212.3 240.896C212.098 240.93 211.919 240.986 211.752 241.041C211.584 241.131 211.405 241.209 211.26 241.332C211.081 241.422 210.946 241.533 210.835 241.679C210.544 241.936 210.343 242.249 210.208 242.618C210.063 242.965 209.985 243.334 209.985 243.703C209.985 244.452 210.298 245.19 210.846 245.738C210.958 245.849 211.103 245.961 211.271 246.084C211.416 246.196 211.584 246.286 211.763 246.341C211.93 246.431 212.109 246.487 212.311 246.509C212.478 246.543 212.68 246.565 212.847 246.565C213.049 246.565 213.216 246.543 213.418 246.509C213.585 246.487 213.787 246.42 213.954 246.341C214.133 246.286 214.267 246.196 214.446 246.084C214.592 245.972 214.737 245.861 214.871 245.738C215.419 245.19 215.699 244.452 215.699 243.703C215.699 243.334 215.643 242.965 215.497 242.618C215.363 242.249 215.128 241.936 214.871 241.679Z" fill="#414042"/>
<path d="M72.6627 198.976C72.6627 199.725 72.9758 200.463 73.4901 200.978C74.038 201.525 74.7872 201.839 75.5251 201.839C76.2631 201.839 77.0123 201.525 77.5602 200.978C78.0746 200.463 78.3876 199.714 78.3876 198.976C78.3876 198.205 78.0745 197.489 77.5602 196.941C76.4756 195.879 74.5858 195.879 73.49 196.941C72.9757 197.455 72.6626 198.193 72.6626 198.976H72.6627Z" fill="#414042"/>
<path d="M77.5602 211.857C76.4756 210.795 74.5523 210.795 73.49 211.857C73.2329 212.115 73.0316 212.428 72.8862 212.774C72.7521 213.143 72.6626 213.49 72.6626 213.881C72.6626 214.63 72.9757 215.368 73.49 215.883C74.0379 216.431 74.7871 216.744 75.5251 216.744C76.2631 216.744 77.0122 216.431 77.5602 215.883C78.0745 215.368 78.3876 214.63 78.3876 213.881C78.3876 213.512 78.3317 213.143 78.164 212.763C78.0186 212.428 77.8173 212.115 77.5601 211.857H77.5602Z" fill="#414042"/>
<path d="M73.49 226.762C73.2329 227.02 73.0316 227.333 72.8862 227.679C72.7521 228.059 72.6626 228.428 72.6626 228.797C72.6626 229.547 72.9757 230.285 73.49 230.799C74.0379 231.347 74.7871 231.66 75.5251 231.66C76.2631 231.66 77.0122 231.347 77.5601 230.799C78.0745 230.285 78.3876 229.547 78.3876 228.797C78.3876 228.059 78.0745 227.31 77.5601 226.762C76.4979 225.711 74.5522 225.711 73.49 226.762L73.49 226.762Z" fill="#414042"/>
<path d="M73.49 241.679C72.9757 242.227 72.6626 242.942 72.6626 243.714C72.6626 244.083 72.7521 244.463 72.8862 244.798C73.0316 245.145 73.2328 245.458 73.49 245.715C74.038 246.263 74.7871 246.576 75.5251 246.576C76.2631 246.576 77.0123 246.263 77.5602 245.715C77.8173 245.458 78.0186 245.145 78.164 244.798C78.3317 244.463 78.3876 244.083 78.3876 243.714C78.3876 242.942 78.0745 242.227 77.5602 241.679C76.4644 240.617 74.5523 240.617 73.49 241.679H73.49Z" fill="#414042"/>
<path d="M245.386 181.266L242.747 178.907C238.509 175.127 233.142 173.126 227.238 173.126H192.407C191.546 173.126 190.741 173.528 190.204 174.177C189.265 172.98 188.236 171.84 187.085 170.811L184.11 168.183C182.601 166.842 181.091 165.779 179.57 164.985C177.435 163.755 175.142 162.872 172.806 162.369C170.938 161.899 168.982 161.676 167.014 161.676H158.538V158.813C158.538 157.237 157.263 155.951 155.676 155.951C154.088 155.951 152.813 157.237 152.813 158.813V161.676H124.188V158.813C124.188 157.237 122.913 155.951 121.326 155.951C119.738 155.951 118.463 157.237 118.463 158.813V161.676H109.988C108.008 161.676 106.063 161.899 104.263 162.347C101.87 162.861 99.5664 163.755 97.52 164.93C95.921 165.779 94.4116 166.842 92.9019 168.183L89.9163 170.822C88.7199 171.884 87.6576 173.025 86.8303 174.109C86.752 174.21 86.6849 174.3 86.6066 174.4C86.0699 173.617 85.2089 173.125 84.2585 173.125H49.4277C43.8258 173.125 38.4363 175.183 34.2542 178.917L31.6153 181.277C26.7737 185.593 24.0005 191.799 24.0005 198.284V256.138C24.0005 257.714 25.2752 259 26.863 259H98.4253C100.013 259 101.288 257.714 101.288 256.138V231.885L104.15 239.488V256.138C104.15 257.714 105.425 259 107.013 259H169.988C171.575 259 172.85 257.714 172.85 256.138V239.477L175.713 231.84V256.138C175.713 257.714 176.987 259 178.575 259H250.137C251.725 259 253 257.714 253 256.138V198.284C253 191.798 250.227 185.593 245.385 181.265L245.386 181.266ZM81.2501 198.542C81.2278 198.687 81.1607 198.821 81.1607 198.966C81.1607 199.112 81.2278 199.246 81.2501 199.38V213.458C81.2278 213.603 81.1607 213.737 81.1607 213.883C81.1607 214.028 81.2278 214.162 81.2501 214.297V228.374C81.2278 228.52 81.1607 228.654 81.1607 228.799C81.1607 228.945 81.2278 229.079 81.2501 229.213V243.291C81.2278 243.436 81.1607 243.57 81.1607 243.704C81.1607 243.85 81.2278 243.984 81.2501 244.118V253.276H44.0377V213.201C44.0377 211.624 42.763 210.338 41.1752 210.338C39.5874 210.338 38.3127 211.624 38.3127 213.201V253.276H29.7253V198.284C29.7253 193.42 31.805 188.78 35.4279 185.537L38.0668 183.178C41.1978 180.394 45.223 178.851 49.4274 178.851H73.7586L81.2504 193.834L81.2501 198.542ZM82.2006 182.943L80.1544 178.851H82.5808L83.1958 179.935C82.8044 180.919 82.4801 181.926 82.2006 182.943V182.943ZM155.675 253.275H109.875V238.962C109.875 238.616 109.808 238.28 109.696 237.956L101.366 215.738L104.128 196.427C104.351 194.862 103.267 193.408 101.701 193.185C100.136 192.961 98.6822 194.046 98.4586 195.611L95.5961 215.649C95.585 215.727 95.585 215.816 95.5738 215.906V215.973C95.5626 216.006 95.5626 216.029 95.5626 216.062V253.275H86.9751V244.363C87.031 244.128 87.1205 243.905 87.1205 243.659C87.1205 243.424 87.0422 243.189 86.9751 242.954V229.38C87.031 229.145 87.1205 228.921 87.1205 228.675C87.1205 228.44 87.0422 228.206 86.9751 227.971V214.396C87.031 214.161 87.1205 213.938 87.1205 213.692C87.1205 213.457 87.0422 213.222 86.9751 212.987V199.514C87.0422 199.256 87.1205 199.01 87.1205 198.742C87.1205 198.496 87.0422 198.272 86.9751 198.038V190.077C86.9751 189.462 87.0087 188.847 87.0646 188.232C87.0646 188.164 87.0646 188.097 87.0757 188.019C87.277 186.006 87.7802 184.061 88.5629 182.227C89.1891 180.807 89.9494 179.476 90.8439 178.247C90.9446 178.112 91.0564 177.956 91.2688 177.687C91.9621 176.771 92.7784 175.898 93.6953 175.093L96.6808 172.454C97.8437 171.426 98.9843 170.61 100.27 169.927C101.891 168.988 103.636 168.317 105.525 167.915C106.968 167.579 108.466 167.4 109.987 167.4H148.061L155.676 185.157L155.675 253.275ZM190.025 198.003C189.958 198.249 189.88 198.495 189.88 198.741C189.88 198.998 189.958 199.233 190.025 199.479V212.975C189.958 213.221 189.88 213.467 189.88 213.713C189.88 213.97 189.958 214.205 190.025 214.451V227.947C189.958 228.193 189.88 228.439 189.88 228.685C189.88 228.942 189.958 229.177 190.025 229.423V242.919C189.958 243.165 189.88 243.411 189.88 243.657C189.88 243.914 189.958 244.149 190.025 244.395V253.273H181.438V216.061C181.438 215.927 181.426 215.792 181.415 215.658L178.553 195.621C178.329 194.055 176.875 192.96 175.31 193.194C173.745 193.418 172.66 194.872 172.884 196.437L175.645 215.748L167.315 237.966C167.192 238.279 167.125 238.614 167.125 238.961V253.273H161.4V184.573C161.4 184.182 161.322 183.802 161.165 183.444L154.289 167.398H167.013C168.534 167.398 170.032 167.577 171.531 167.935C173.353 168.326 175.097 168.997 176.808 169.992C178.005 170.619 179.145 171.435 180.32 172.464L183.294 175.091C187.565 178.893 190.025 184.361 190.025 190.075L190.025 198.003ZM221.512 253.275H195.75V244.128C195.772 243.994 195.839 243.86 195.839 243.714C195.839 243.569 195.772 243.435 195.75 243.29V229.212C195.772 229.066 195.839 228.932 195.839 228.798C195.839 228.653 195.772 228.519 195.75 228.373V214.295C195.772 214.15 195.839 214.016 195.839 213.882C195.839 213.68 195.806 213.513 195.784 213.311C195.772 213.289 195.761 213.256 195.75 213.222V199.39C195.772 199.245 195.839 199.111 195.839 198.977C195.839 198.831 195.772 198.697 195.75 198.552V189.841C195.75 186.431 195.057 182.998 193.748 179.823L194.207 178.85H213.998L221.513 194.18L221.512 253.275ZM247.275 253.275H238.687V213.2C238.687 211.623 237.413 210.337 235.825 210.337C234.237 210.337 232.962 211.623 232.962 213.2V253.275H227.237V193.52C227.237 193.084 227.137 192.648 226.947 192.257L220.372 178.85H227.17C231.207 178.85 235.12 180.292 238.195 182.909L241.282 185.537C241.975 186.129 242.646 186.811 243.339 187.639C243.44 187.751 243.54 187.862 243.697 188.052C244.345 188.846 244.949 189.797 245.486 190.837C246.66 193.174 247.275 195.757 247.275 198.328L247.275 253.275Z" fill="#414042"/>
<path d="M39.3166 104.692V138.965C39.3166 142.051 40.2224 145.048 41.9331 147.619L50.5988 160.613C52.3319 163.218 54.5905 165.231 57.1175 166.416C59.5551 167.556 62.1157 168.126 64.6539 168.126C68.0531 168.126 71.3965 167.109 74.3036 165.096C76.0033 163.9 77.4681 162.401 78.7875 160.434L87.3303 147.619C89.0523 145.048 89.958 142.051 89.958 138.965V104.692C98.4335 103.317 104.93 95.9482 104.93 87.0925C104.93 77.2526 96.9241 69.2577 87.0955 69.2577C82.1308 69.2577 77.3676 71.3822 74.0242 74.9715C68.6905 70.8344 60.5728 70.8232 55.2391 74.9715C51.8957 71.3822 47.1436 69.2577 42.1678 69.2577C32.328 69.2577 24.333 77.2638 24.333 87.0925C24.333 95.9484 30.8406 103.317 39.3164 104.692L39.3166 104.692ZM84.232 138.965C84.232 140.922 83.6506 142.812 82.566 144.444L73.9115 157.437C73.1064 158.622 72.1336 159.629 71.0267 160.412C67.6833 162.737 63.3896 163.05 59.5656 161.239C57.9778 160.49 56.5242 159.182 55.2495 157.258L46.7067 144.444C45.622 142.812 45.0518 140.922 45.0518 138.965L45.0406 123.423H84.231L84.232 138.965ZM84.232 117.474H45.0416V111.973H84.232V117.474ZM42.1791 74.9831C46.3498 74.9831 50.3081 77.197 52.4887 80.7527C52.9695 81.5466 53.8081 82.0498 54.7362 82.1169C55.6978 82.184 56.5588 81.7814 57.1514 81.0658C59.0076 78.7847 61.736 77.4765 64.6432 77.4765C67.5503 77.4765 70.2788 78.7848 72.1349 81.0658C72.7163 81.7814 73.5885 82.2063 74.5501 82.1169C75.4782 82.061 76.3168 81.5466 76.7976 80.7527C78.978 77.1969 82.9362 74.9831 87.1072 74.9831C93.7714 74.9831 99.2058 80.4172 99.2058 87.0929C99.2058 93.7682 93.7716 99.2026 87.096 99.2026C85.5082 99.2026 84.2335 100.489 84.2335 102.065V106.247H45.0431V102.065C45.0431 100.489 43.7684 99.2026 42.1806 99.2026C35.5053 99.2026 30.0708 93.7685 30.0708 87.0929C30.0597 80.4175 35.4938 74.9831 42.1806 74.9831H42.1791Z" fill="#414042"/>
<path d="M172.33 90.1053C172.33 98.4957 178.455 105.488 186.447 106.79V139.251C186.447 142.175 187.301 145.014 188.925 147.45L197.107 159.782C198.224 161.455 199.605 162.875 201.218 164.019C203.939 165.915 207.091 166.879 210.296 166.879C212.679 166.879 215.104 166.339 217.403 165.259C219.785 164.136 221.915 162.229 223.665 159.58L231.72 147.439C233.344 145.003 234.188 142.164 234.188 139.24L234.198 121.813V106.78C242.19 105.477 248.316 98.4958 248.316 90.0951C248.316 80.7725 240.767 73.1978 231.499 73.1978C226.818 73.1978 222.326 75.2107 219.174 78.6113C214.145 74.681 206.49 74.681 201.461 78.6113C198.308 75.2213 193.828 73.1978 189.136 73.1978C179.879 73.2084 172.33 80.7831 172.33 90.1057L172.33 90.1053ZM228.8 139.25C228.8 141.104 228.263 142.894 227.24 144.441L219.069 156.751C217.972 158.404 216.612 159.643 215.115 160.353C211.51 162.059 207.461 161.762 204.319 159.569C203.254 158.817 202.337 157.863 201.472 156.571L193.417 144.43C192.394 142.884 191.846 141.093 191.846 139.239V124.524H228.799L228.8 139.25ZM228.8 118.889H191.847V113.676H228.8V118.889ZM189.148 78.6312C193.091 78.6312 196.813 80.7288 198.869 84.0976C199.333 84.8498 200.113 85.3265 200.988 85.39C201.895 85.4748 202.707 85.0722 203.266 84.3942C205.016 82.2331 207.588 80.9936 210.33 80.9936C213.071 80.9936 215.644 82.2331 217.394 84.3942C217.942 85.0722 218.754 85.4536 219.671 85.39C220.546 85.3265 221.337 84.8498 221.79 84.0976C223.857 80.7287 227.579 78.6312 231.511 78.6312C237.806 78.6312 242.93 83.7798 242.93 90.1045C242.93 96.4289 237.806 101.578 231.511 101.578C230.014 101.578 228.812 102.796 228.812 104.29L228.802 108.252H191.848V104.29C191.848 102.796 190.646 101.578 189.149 101.578C182.855 101.578 177.731 96.4292 177.731 90.1045C177.731 83.78 182.855 78.6312 189.149 78.6312H189.148Z" fill="#414042"/>
</svg>
