<?xml version="1.0" encoding="UTF-8"?>
<svg width="248" height="248" fill="none" version="1.1" viewBox="0 0 248 248" xmlns="http://www.w3.org/2000/svg">
 <circle cx="124" cy="124" r="124" fill="#fbce0a"/>
 <g fill="#6a8d75">
  <circle cx="101.5" cy="27.5" r="16.5"/>
  <path d="m168 28c0 9.3888-7.611 17-17 17s-17-7.6112-17-17 7.611-17 17-17 17 7.6112 17 17z"/>
  <path d="m151 68c0 19-11.641 8.5-26 8.5s-26 10.5-26-8.5c0-31.48 11.641-57 26-57s26 25.52 26 57z"/>
 </g>
 <path d="m104.5 102-2.5-19-12.5 14-7 28.5h37.5z" fill="#8daecc"/>
 <path d="M 147.293,101.776 149.76,83 162.093,96.835 169,125 H 132 Z" fill="#8daecc"/>
 <rect x="102" y="67" width="49" height="12" fill="#b5c6ba"/>
 <g fill="#597369">
  <path d="m134.31 166.22c-0.135 0.335-0.224 0.716-0.224 1.085s0.089 0.738 0.224 1.084c0.145 0.369 0.346 0.66 0.603 0.94 0.146 0.111 0.291 0.257 0.425 0.346 0.179 0.112 0.347 0.201 0.515 0.257 0.167 0.09 0.346 0.146 0.514 0.168 0.213 0.034 0.38 0.067 0.582 0.067 0.167 0 0.369-0.033 0.536-0.056 0.202-0.033 0.369-0.089 0.548-0.167 0.168-0.056 0.347-0.146 0.492-0.258 0.168-0.089 0.313-0.223 0.459-0.346 0.257-0.291 0.458-0.571 0.603-0.94 0.135-0.357 0.224-0.726 0.224-1.095s-0.089-0.75-0.224-1.085c-0.145-0.347-0.346-0.66-0.603-0.95-0.146-0.112-0.291-0.224-0.459-0.336-0.145-0.112-0.313-0.201-0.492-0.257-0.179-0.09-0.346-0.145-0.548-0.168-0.346-0.089-0.738-0.089-1.118 0-0.168 0.023-0.347 0.09-0.514 0.168-0.179 0.056-0.347 0.145-0.515 0.257-0.145 0.112-0.29 0.224-0.425 0.347-0.257 0.279-0.458 0.592-0.603 0.939z"/>
  <path d="m138.98 182.44c-0.145-0.112-0.29-0.258-0.458-0.336-0.146-0.112-0.313-0.201-0.492-0.257-0.179-0.089-0.347-0.145-0.548-0.168-0.347-0.089-0.738-0.089-1.118 0-0.168 0.023-0.347 0.09-0.515 0.168-0.179 0.056-0.346 0.145-0.514 0.257-0.134 0.078-0.28 0.224-0.425 0.336-0.257 0.257-0.458 0.57-0.604 0.939-0.134 0.346-0.223 0.727-0.223 1.096s0.089 0.738 0.223 1.084c0.146 0.347 0.347 0.66 0.604 0.94 0.145 0.111 0.291 0.223 0.425 0.346 0.179 0.112 0.347 0.201 0.514 0.257 0.168 0.09 0.347 0.146 0.515 0.168 0.212 0.034 0.38 0.067 0.581 0.067 0.168 0 0.369-0.033 0.537-0.056 0.201-0.033 0.369-0.089 0.548-0.167 0.168-0.056 0.346-0.146 0.492-0.258 0.168-0.111 0.313-0.223 0.458-0.346 0.257-0.291 0.459-0.604 0.604-0.94 0.134-0.346 0.224-0.726 0.224-1.095s-0.09-0.75-0.224-1.085c-0.145-0.38-0.347-0.66-0.604-0.95z"/>
  <path d="m139.59 200.56c-0.067-0.179-0.145-0.347-0.268-0.514-0.112-0.146-0.224-0.291-0.347-0.425-1.062-1.063-3.008-1.063-4.07 0-0.503 0.536-0.816 1.252-0.816 2.024 0 0.167 0.022 0.369 0.056 0.57 0.033 0.168 0.089 0.346 0.179 0.514 0.056 0.168 0.145 0.347 0.257 0.515 0.089 0.145 0.224 0.29 0.347 0.424 0.145 0.112 0.29 0.224 0.424 0.347 0.179 0.112 0.347 0.201 0.515 0.257 0.168 0.09 0.346 0.146 0.514 0.168 0.201 0.033 0.369 0.067 0.57 0.067 0.168 0 0.369-0.034 0.537-0.056 0.201-0.033 0.369-0.089 0.548-0.168 0.168-0.056 0.347-0.145 0.492-0.257 0.168-0.112 0.313-0.223 0.459-0.346 0.111-0.146 0.223-0.291 0.346-0.425 0.112-0.168 0.201-0.347 0.257-0.515 0.09-0.167 0.146-0.346 0.168-0.514 0.034-0.212 0.056-0.414 0.056-0.581 0-0.168-0.022-0.369-0.056-0.571-0.034-0.179-0.089-0.346-0.168-0.514z"/>
  <path d="m138.98 216.79c-0.145-0.112-0.29-0.224-0.458-0.336-0.146-0.112-0.313-0.201-0.492-0.257-0.179-0.09-0.347-0.145-0.548-0.168-0.347-0.089-0.738-0.089-1.118 0-0.168 0.023-0.347 0.09-0.515 0.168-0.179 0.056-0.346 0.145-0.514 0.257-0.145 0.112-0.291 0.224-0.425 0.347-0.257 0.279-0.458 0.592-0.604 0.939-0.134 0.335-0.223 0.716-0.223 1.085s0.089 0.738 0.223 1.084c0.146 0.369 0.347 0.682 0.604 0.939 0.145 0.112 0.291 0.258 0.425 0.347 0.179 0.112 0.347 0.201 0.514 0.257 0.168 0.09 0.347 0.146 0.515 0.168 0.212 0.034 0.38 0.067 0.581 0.067 0.168 0 0.369-0.033 0.537-0.056 0.201-0.033 0.369-0.089 0.548-0.168 0.168-0.055 0.346-0.145 0.492-0.257 0.168-0.089 0.313-0.223 0.458-0.346 0.257-0.291 0.459-0.571 0.604-0.94 0.134-0.357 0.224-0.726 0.224-1.095s-0.09-0.75-0.224-1.085c-0.145-0.347-0.347-0.66-0.604-0.951z"/>
  <path d="m94.013 112.91c-1.588 0-2.863 1.286-2.863 2.863v2.862c0 1.577 1.275 2.863 2.863 2.863 1.587 0 2.862-1.286 2.862-2.863v-2.862c0-1.577-1.275-2.863-2.862-2.863z"/>
  <path d="m156.99 121.5c1.588 0 2.863-1.286 2.863-2.863v-2.862c0-1.577-1.275-2.863-2.863-2.863-1.587 0-2.862 1.286-2.862 2.863v2.862c0 1.577 1.275 2.863 2.862 2.863z"/>
  <path d="m96.875 46.875v31.688c0 0.234 0.078 0.436 0.134 0.659-6.172 7.391-10.533 16.325-12.601 25.964l-4.6404 21.435c-0.1789 0.85 0.0224 1.733 0.5703 2.404 0.5367 0.671 1.353 1.062 2.2251 1.062h42.199c0.234 0.023 0.458 0.045 0.704 0.045 0.235 0 0.503-0.033 0.749-0.045 0.011-0.011 0.011 0 0.023 0h42.198c0.873 0 1.689-0.391 2.226-1.062 0.547-0.671 0.749-1.554 0.57-2.404l-4.641-21.435c-2.079-9.672-6.474-18.64-12.601-25.964 0.056-0.223 0.134-0.425 0.134-0.659v-31.688c9.694-1.3977 17.175-9.7617 17.175-19.836 0-11.048-8.99-20.038-20.037-20.038-5.714 0-11.182 2.5047-14.939 6.7091-3.042-2.4711-6.843-3.8466-10.824-3.8466-3.98 0-7.782 1.3753-10.824 3.8466-3.757-4.2044-9.225-6.7091-14.938-6.7091-11.048 0-20.038 8.9899-20.038 20.038 0 10.074 7.4808 18.438 17.175 19.836zm-10.757 77.487 3.8916-17.979c1.599-7.447 4.696-14.436 9.068-20.519l0.358 4.383c0 0.023 0.022 0.045 0.022 0.067l0.011 0.168c0.146 1.666 0.358 3.31 0.649 4.931 0.089 0.515 0.224 1.007 0.324 1.51 0.224 1.096 0.447 2.203 0.727 3.287 0.168 0.615 0.38 1.197 0.559 1.8 0.291 0.951 0.57 1.901 0.906 2.829 0.235 0.638 0.514 1.253 0.771 1.879 0.358 0.861 0.694 1.733 1.085 2.572 0.302 0.637 0.648 1.252 0.973 1.878 0.413 0.794 0.816 1.599 1.274 2.371 0.369 0.626 0.772 1.218 1.163 1.833 0.47 0.738 0.94 1.476 1.443 2.192 0.425 0.604 0.894 1.174 1.353 1.755 0.525 0.683 1.051 1.353 1.61 2.013 0.492 0.57 1.017 1.107 1.532 1.644 0.447 0.447 0.85 0.939 1.308 1.386zm16.482-48.662v-5.725h45.8v5.725zm24.913 5.7249-2.55 1.711c-3.98 2.628-8.565 4.014-13.283 4.014h-6.754l-0.47-5.725zm1.409 41.595c-0.638 0.581-1.387 1.006-2.237 1.219-0.246 0.067-0.503 0.1-0.805 0.134-0.268 0.033-0.548 0.033-0.794 0-0.257-0.034-0.525-0.067-0.85-0.157-0.782-0.201-1.531-0.626-2.146-1.185l-2.114-1.968c-1.028-0.961-1.99-1.957-2.929-3.008-0.302-0.335-0.571-0.704-0.861-1.051-0.604-0.727-1.219-1.453-1.778-2.214-0.302-0.413-0.582-0.838-0.872-1.263-0.515-0.738-1.018-1.476-1.487-2.248-0.269-0.436-0.504-0.883-0.75-1.319-0.447-0.794-0.894-1.599-1.297-2.427-0.212-0.436-0.402-0.872-0.603-1.308-0.392-0.872-0.772-1.755-1.119-2.65-0.167-0.425-0.313-0.861-0.469-1.286-0.325-0.928-0.626-1.878-0.895-2.84-0.123-0.436-0.246-0.883-0.358-1.319-0.234-0.94-0.447-1.89-0.626-2.852-0.1-0.514-0.201-1.028-0.29-1.554-0.034-0.291-0.056-0.57-0.101-0.85h6.127c5.848 0 11.528-1.722 16.449-4.976l9.705-6.474h8.733l-0.716 8.577c-1.028 12.087-6.295 23.123-14.815 31.072zm32.079-16.638 3.881 17.98h-29.029c0.47-0.459 0.883-0.962 1.331-1.432 0.503-0.525 1.006-1.051 1.487-1.599 0.581-0.671 1.118-1.364 1.655-2.057 0.436-0.57 0.894-1.118 1.308-1.7 0.525-0.726 0.995-1.487 1.476-2.236 0.38-0.593 0.783-1.174 1.14-1.778 0.459-0.794 0.873-1.61 1.297-2.426 0.314-0.604 0.649-1.208 0.951-1.823 0.402-0.861 0.749-1.744 1.107-2.628 0.246-0.614 0.525-1.207 0.749-1.833 0.347-0.94 0.626-1.912 0.917-2.874 0.179-0.593 0.391-1.163 0.548-1.755 0.291-1.085 0.514-2.203 0.738-3.322 0.1-0.492 0.235-0.984 0.324-1.475 0.28-1.622 0.503-3.265 0.649-4.932l0.391-4.629c4.361 6.038 7.469 13.049 9.08 20.518zm-61.263-93.658c4.932 0 9.605 2.6165 12.188 6.8207 0.481 0.7939 1.32 1.2971 2.248 1.3642 0.961 0.0783 1.822-0.3355 2.415-1.0511 2.203-2.7171 5.457-4.2714 8.912-4.2714s6.709 1.5542 8.912 4.2714c0.581 0.7156 1.464 1.1294 2.415 1.0511 0.928-0.0671 1.767-0.5703 2.247-1.3642 2.583-4.2044 7.257-6.8207 12.188-6.8207 7.895 0 14.313 6.4183 14.313 14.312 0 7.8941-6.418 14.312-14.313 14.312-1.587 0-2.862 1.2859-2.862 2.8625v20.038h-45.8v-20.038c0-1.5766-1.275-2.8625-2.863-2.8625-7.894 0-14.312-6.4183-14.312-14.312 0-7.8942 6.418-14.312 14.312-14.312z"/>
  <path d="m200.42 173.17c-0.369-0.09-0.738-0.09-1.118 0-0.201 0.033-0.38 0.089-0.548 0.145-0.168 0.09-0.346 0.168-0.492 0.257-0.179 0.112-0.313 0.224-0.425 0.369-0.536 0.548-0.861 1.264-0.861 2.035 0 0.75 0.313 1.488 0.861 2.002 0.112 0.145 0.257 0.257 0.425 0.369 0.146 0.089 0.313 0.168 0.492 0.257 0.168 0.056 0.347 0.112 0.548 0.168 0.168 0.033 0.369 0.056 0.537 0.056 0.201 0 0.369-0.023 0.57-0.056 0.168-0.056 0.369-0.112 0.537-0.168 0.179-0.089 0.313-0.168 0.492-0.257 0.145-0.112 0.29-0.224 0.425-0.369 0.548-0.514 0.827-1.264 0.827-2.002 0-0.771-0.291-1.487-0.827-2.035-0.146-0.145-0.291-0.257-0.425-0.369-0.179-0.089-0.313-0.167-0.492-0.257-0.157-0.067-0.358-0.123-0.526-0.145z"/>
  <path d="m201.44 188.51c-0.179-0.112-0.313-0.201-0.492-0.291-0.168-0.056-0.369-0.112-0.537-0.145-0.369-0.09-0.738-0.09-1.118 0-0.201 0.033-0.38 0.089-0.548 0.145-0.168 0.09-0.347 0.168-0.492 0.291-0.179 0.089-0.313 0.201-0.425 0.347-0.537 0.547-0.861 1.263-0.861 2.035 0 0.369 0.089 0.749 0.224 1.084 0.145 0.347 0.346 0.66 0.626 0.939 0.112 0.112 0.257 0.224 0.425 0.347 0.145 0.09 0.313 0.201 0.492 0.257 0.167 0.09 0.346 0.146 0.548 0.168 0.167 0.034 0.369 0.056 0.536 0.056 0.202 0 0.369-0.022 0.571-0.056 0.167-0.022 0.369-0.089 0.536-0.168 0.179-0.056 0.313-0.167 0.492-0.257 0.146-0.112 0.291-0.224 0.425-0.347 0.257-0.29 0.492-0.603 0.626-0.939 0.146-0.346 0.202-0.715 0.202-1.084 0-0.772-0.291-1.488-0.828-2.035-0.123-0.146-0.268-0.258-0.402-0.347z"/>
  <path d="m201.44 203.43c-0.179-0.111-0.313-0.201-0.492-0.29-0.168-0.056-0.369-0.112-0.537-0.146-0.369-0.089-0.738-0.089-1.118 0-0.201 0.034-0.38 0.09-0.548 0.146-0.168 0.089-0.347 0.167-0.492 0.29-0.179 0.09-0.313 0.202-0.425 0.347-0.537 0.548-0.861 1.264-0.861 2.035 0 0.749 0.313 1.487 0.861 2.035 0.112 0.112 0.257 0.224 0.425 0.347 0.145 0.112 0.313 0.201 0.492 0.257 0.168 0.089 0.347 0.145 0.548 0.168 0.168 0.033 0.369 0.055 0.537 0.055 0.201 0 0.369-0.022 0.57-0.055 0.168-0.023 0.369-0.09 0.537-0.168 0.178-0.056 0.313-0.145 0.492-0.257 0.145-0.112 0.29-0.224 0.424-0.347 0.548-0.548 0.828-1.286 0.828-2.035 0-0.771-0.291-1.487-0.828-2.035-0.134-0.145-0.279-0.268-0.413-0.347z"/>
  <path d="m201.87 218.68c-0.145-0.146-0.29-0.257-0.425-0.347-0.179-0.112-0.313-0.201-0.492-0.291-0.167-0.055-0.369-0.111-0.536-0.145-0.369-0.089-0.738-0.089-1.118 0-0.202 0.034-0.381 0.09-0.548 0.145-0.168 0.09-0.347 0.168-0.492 0.291-0.179 0.09-0.314 0.201-0.425 0.347-0.291 0.257-0.492 0.57-0.627 0.939-0.145 0.347-0.223 0.716-0.223 1.085 0 0.749 0.313 1.487 0.861 2.035 0.112 0.111 0.257 0.223 0.425 0.346 0.145 0.112 0.313 0.202 0.492 0.257 0.167 0.09 0.346 0.146 0.548 0.168 0.167 0.034 0.369 0.056 0.536 0.056 0.202 0 0.369-0.022 0.571-0.056 0.167-0.022 0.369-0.089 0.536-0.168 0.179-0.055 0.313-0.145 0.492-0.257 0.146-0.112 0.291-0.223 0.425-0.346 0.548-0.548 0.828-1.286 0.828-2.035 0-0.369-0.056-0.738-0.202-1.085-0.134-0.369-0.369-0.682-0.626-0.939z"/>
  <path d="m59.663 175.98c0 0.749 0.3131 1.487 0.8274 2.002 0.5479 0.547 1.2971 0.861 2.035 0.861 0.738 0 1.4872-0.314 2.0351-0.861 0.5144-0.515 0.8274-1.264 0.8274-2.002 0-0.771-0.3131-1.487-0.8274-2.035-1.0846-1.062-2.9744-1.062-4.0702 0-0.5143 0.514-0.8274 1.252-0.8274 2.035z"/>
  <path d="m64.56 188.86c-1.0846-1.062-3.0079-1.062-4.0701 0-0.2572 0.258-0.4585 0.571-0.6038 0.917-0.1342 0.369-0.2237 0.716-0.2237 1.107 0 0.749 0.3131 1.487 0.8275 2.002 0.5479 0.548 1.297 0.861 2.035 0.861s1.4872-0.313 2.0351-0.861c0.5143-0.515 0.8274-1.253 0.8274-2.002 0-0.369-0.0559-0.738-0.2236-1.118-0.1454-0.335-0.3466-0.648-0.6038-0.906z"/>
  <path d="m60.49 203.76c-0.2572 0.258-0.4584 0.571-0.6038 0.917-0.1342 0.38-0.2236 0.749-0.2236 1.118 0 0.75 0.3131 1.487 0.8274 2.002 0.5479 0.548 1.2971 0.861 2.0351 0.861 0.7379 0 1.4871-0.313 2.035-0.861 0.5144-0.515 0.8274-1.252 0.8274-2.002 0-0.738-0.3131-1.487-0.8274-2.035-1.0622-1.051-3.0079-1.051-4.0702 0z"/>
  <path d="m60.49 218.68c-0.5144 0.548-0.8274 1.263-0.8274 2.035 0 0.369 0.0894 0.749 0.2236 1.084 0.1454 0.347 0.3466 0.66 0.6038 0.917 0.5479 0.548 1.2971 0.861 2.0351 0.861s1.4871-0.313 2.035-0.861c0.2572-0.257 0.4585-0.57 0.6039-0.917 0.1677-0.335 0.2236-0.715 0.2236-1.084 0-0.772-0.3131-1.487-0.8274-2.035-1.0958-1.062-3.008-1.062-4.0702 0z"/>
  <path d="m232.39 158.27-2.639-2.359c-4.238-3.78-9.605-5.781-15.509-5.781h-34.831c-0.861 0-1.666 0.402-2.203 1.051-0.939-1.197-1.968-2.337-3.119-3.366l-2.975-2.628c-1.509-1.341-3.019-2.404-4.54-3.198-2.135-1.23-4.428-2.113-6.764-2.616-1.868-0.47-3.824-0.693-5.792-0.693h-8.476v-2.863c0-1.576-1.275-2.862-2.862-2.862-1.588 0-2.863 1.286-2.863 2.862v2.863h-28.625v-2.863c0-1.576-1.275-2.862-2.862-2.862-1.588 0-2.863 1.286-2.863 2.862v2.863h-8.475c-1.98 0-3.925 0.223-5.725 0.671-2.393 0.514-4.6966 1.408-6.743 2.583-1.599 0.849-3.1084 1.912-4.6181 3.253l-2.9856 2.639c-1.1964 1.062-2.2587 2.203-3.086 3.287-0.0783 0.101-0.1454 0.191-0.2237 0.291-0.5367-0.783-1.3977-1.275-2.3481-1.275h-34.831c-5.6019 0-10.991 2.058-15.174 5.792l-2.6389 2.36c-4.8416 4.316-7.6148 10.522-7.6148 17.007v57.854c0 1.576 1.2747 2.862 2.8625 2.862h71.562c1.5877 0 2.8627-1.286 2.8627-2.862v-24.253l2.862 7.603v16.65c0 1.576 1.275 2.862 2.863 2.862h62.975c1.587 0 2.862-1.286 2.862-2.862v-16.661l2.863-7.637v24.298c0 1.576 1.274 2.862 2.862 2.862h71.562c1.588 0 2.863-1.286 2.863-2.862v-57.854c0-6.486-2.773-12.691-7.615-17.019zm-164.14 17.276c-0.0223 0.145-0.0894 0.279-0.0894 0.424 0 0.146 0.0671 0.28 0.0894 0.414v14.078c-0.0223 0.145-0.0894 0.279-0.0894 0.425 0 0.145 0.0671 0.279 0.0894 0.414v14.077c-0.0223 0.146-0.0894 0.28-0.0894 0.425 0 0.146 0.0671 0.28 0.0894 0.414v14.078c-0.0223 0.145-0.0894 0.279-0.0894 0.413 0 0.146 0.0671 0.28 0.0894 0.414v9.158h-37.212v-40.075c0-1.577-1.2747-2.863-2.8625-2.863s-2.8625 1.286-2.8625 2.863v40.075h-8.5874v-54.992c0-4.864 2.0797-9.504 5.7026-12.747l2.6389-2.359c3.131-2.784 7.1562-4.327 11.361-4.327h24.331l7.4918 14.983zm0.9505-15.599-2.0462-4.092h2.4264l0.615 1.084c-0.3914 0.984-0.7157 1.991-0.9952 3.008zm73.474 70.332h-45.8v-14.313c0-0.346-0.067-0.682-0.179-1.006l-8.33-22.218 2.762-19.311c0.223-1.565-0.861-3.019-2.427-3.242-1.565-0.224-3.0188 0.861-3.2424 2.426l-2.8625 20.038c-0.0111 0.078-0.0111 0.167-0.0223 0.257v0.067c-0.0112 0.033-0.0112 0.056-0.0112 0.089v37.213h-8.5875v-8.912c0.0559-0.235 0.1454-0.458 0.1454-0.704 0-0.235-0.0783-0.47-0.1454-0.705v-13.574c0.0559-0.235 0.1454-0.459 0.1454-0.705 0-0.235-0.0783-0.469-0.1454-0.704v-13.575c0.0559-0.235 0.1454-0.458 0.1454-0.704 0-0.235-0.0783-0.47-0.1454-0.705v-13.473c0.0671-0.258 0.1454-0.504 0.1454-0.772 0-0.246-0.0783-0.47-0.1454-0.704v-7.961c0-0.615 0.0336-1.23 0.0895-1.845 0-0.068 0-0.135 0.0111-0.213 0.2013-2.013 0.7045-3.958 1.4872-5.792 0.6262-1.42 1.3865-2.751 2.281-3.98 0.1007-0.135 0.2125-0.291 0.4249-0.56 0.6933-0.916 1.5096-1.789 2.4265-2.594l2.9855-2.639c1.1629-1.028 2.3035-1.844 3.5892-2.527 1.621-0.939 3.366-1.61 5.255-2.012 1.443-0.336 2.941-0.515 4.462-0.515h38.074l7.615 17.757zm34.35-55.272c-0.067 0.246-0.145 0.492-0.145 0.738 0 0.257 0.078 0.492 0.145 0.738v13.496c-0.067 0.246-0.145 0.492-0.145 0.738 0 0.257 0.078 0.492 0.145 0.738v13.496c-0.067 0.246-0.145 0.492-0.145 0.738 0 0.257 0.078 0.492 0.145 0.738v13.496c-0.067 0.246-0.145 0.492-0.145 0.738 0 0.257 0.078 0.492 0.145 0.738v8.878h-8.587v-37.212c0-0.134-0.012-0.269-0.023-0.403l-2.862-20.037c-0.224-1.566-1.678-2.661-3.243-2.427-1.565 0.224-2.65 1.678-2.426 3.243l2.761 19.311-8.33 22.218c-0.123 0.313-0.19 0.648-0.19 0.995v14.312h-5.725v-68.7c0-0.391-0.078-0.771-0.235-1.129l-6.876-16.046h12.724c1.521 0 3.019 0.179 4.518 0.537 1.822 0.391 3.566 1.062 5.277 2.057 1.197 0.627 2.337 1.443 3.512 2.472l2.974 2.627c4.271 3.802 6.731 9.27 6.731 14.984zm31.487 55.272h-25.762v-9.147c0.022-0.134 0.089-0.268 0.089-0.414 0-0.145-0.067-0.279-0.089-0.424v-14.078c0.022-0.146 0.089-0.28 0.089-0.414 0-0.145-0.067-0.279-0.089-0.425v-14.078c0.022-0.145 0.089-0.279 0.089-0.413 0-0.202-0.033-0.369-0.055-0.571-0.012-0.022-0.023-0.055-0.034-0.089v-13.832c0.022-0.145 0.089-0.279 0.089-0.413 0-0.146-0.067-0.28-0.089-0.425v-8.711c0-3.41-0.693-6.843-2.002-10.018l0.459-0.973h19.791l7.515 15.33zm25.763 0h-8.588v-40.075c0-1.577-1.274-2.863-2.862-2.863s-2.863 1.286-2.863 2.863v40.075h-5.725v-59.755c0-0.436-0.1-0.872-0.29-1.263l-6.575-13.407h6.798c4.037 0 7.95 1.442 11.025 4.059l3.087 2.628c0.693 0.592 1.364 1.274 2.057 2.102 0.101 0.112 0.201 0.223 0.358 0.413 0.648 0.794 1.252 1.745 1.789 2.785 1.174 2.337 1.789 4.92 1.789 7.491z"/>
  <path d="m26.317 81.692v34.273c0 3.086 0.9058 6.083 2.6165 8.654l8.6657 12.994c1.7331 2.605 3.9917 4.618 6.5187 5.803 2.4376 1.14 4.9982 1.71 7.5364 1.71 3.3992 0 6.7426-1.017 9.6497-3.03 1.6997-1.196 3.1645-2.695 4.4839-4.662l8.5428-12.815c1.722-2.571 2.6277-5.568 2.6277-8.654v-34.273c8.4755-1.375 14.972-8.7438 14.972-17.6 0-9.8399-8.0059-17.835-17.834-17.835-4.9647 0-9.7279 2.1245-13.071 5.7138-5.3337-4.1371-13.451-4.1483-18.785 0-3.3434-3.5893-8.0955-5.7138-13.071-5.7138-9.8398 0-17.835 8.0061-17.835 17.835 0 8.8559 6.5076 16.224 14.983 17.6zm44.915 34.273c0 1.957-0.5814 3.847-1.666 5.479l-8.6545 12.993c-0.8051 1.185-1.7779 2.192-2.8848 2.975-3.3434 2.325-7.6371 2.638-11.461 0.827-1.5878-0.749-3.0414-2.057-4.3161-3.981l-8.5428-12.814c-1.0847-1.632-1.6549-3.522-1.6549-5.479l-0.0112-15.542h39.19zm0-21.491h-39.19v-5.501h39.19zm-42.053-42.491c4.1707 0 8.129 2.2139 10.31 5.7696 0.4808 0.7939 1.3194 1.2971 2.2475 1.3642 0.9616 0.0671 1.8226-0.3355 2.4152-1.0511 1.8562-2.2811 4.5846-3.5893 7.4918-3.5893 2.9071 0 5.6356 1.3083 7.4917 3.5893 0.5814 0.7156 1.4536 1.1405 2.4152 1.0511 0.9281-0.0559 1.7667-0.5703 2.2475-1.3642 2.1804-3.5558 6.1386-5.7696 10.31-5.7696 6.6642 0 12.099 5.4341 12.099 12.11 0 6.6753-5.4342 12.11-12.11 12.11-1.5878 0-2.8625 1.2864-2.8625 2.8624v4.182h-39.19v-4.182c0-1.576-1.2747-2.8624-2.8625-2.8624-6.6753 0-12.11-5.4341-12.11-12.11-0.0111-6.6754 5.423-12.11 12.11-12.11z"/>
  <path d="m159.33 67.105c0 8.3904 6.125 15.383 14.117 16.685v32.461c0 2.924 0.854 5.763 2.478 8.199l8.182 12.332c1.117 1.673 2.498 3.093 4.111 4.237 2.72 1.896 5.873 2.86 9.078 2.86 2.383 0 4.808-0.54 7.106-1.62 2.383-1.123 4.513-3.03 6.263-5.679l8.055-12.141c1.624-2.436 2.467-5.275 2.467-8.199l0.011-17.427v-15.033c7.992-1.303 14.118-8.2842 14.118-16.685 0-9.3226-7.549-16.897-16.817-16.897-4.681 0-9.173 2.0129-12.325 5.4135-5.029-3.9303-12.684-3.9303-17.713 0-3.153-3.39-7.633-5.4135-12.325-5.4135-9.257 0.0106-16.807 7.5853-16.807 16.908zm56.47 49.145c0 1.854-0.537 3.644-1.56 5.191l-8.171 12.31c-1.097 1.653-2.457 2.892-3.954 3.602-3.606 1.706-7.654 1.409-10.796-0.784-1.065-0.752-1.982-1.706-2.847-2.998l-8.055-12.141c-1.023-1.546-1.571-3.337-1.571-5.191v-14.715h36.953zm0-20.361h-36.953v-5.213h36.953zm-39.652-40.258c3.943 0 7.665 2.0976 9.721 5.4664 0.464 0.7522 1.244 1.2289 2.119 1.2924 0.907 0.0848 1.719-0.3178 2.277-0.9958 1.751-2.1611 4.323-3.4006 7.065-3.4006 2.741 0 5.313 1.2395 7.064 3.4006 0.548 0.678 1.36 1.0594 2.277 0.9958 0.875-0.0635 1.666-0.5402 2.119-1.2924 2.067-3.3689 5.788-5.4664 9.721-5.4664 6.295 0 11.419 5.1486 11.419 11.473 0 6.3244-5.124 11.474-11.419 11.474-1.497 0-2.699 1.218-2.699 2.712l-0.01 3.962h-36.954v-3.962c0-1.494-1.202-2.712-2.699-2.712-6.294 0-11.418-5.1488-11.418-11.474 0-6.3245 5.124-11.473 11.418-11.473z"/>
 </g>
</svg>
