<svg width="191" height="65" viewBox="0 0 191 65" fill="none" xmlns="http://www.w3.org/2000/svg">
<path d="M165.276 10.818L164.644 10.7699L160.637 9.26876L160.635 9.27285C160.106 9.00562 159.51 8.84676 158.904 8.80908L156.951 8.17298C156.777 8.17982 156.599 8.1702 156.42 8.14002C155.928 7.94705 155.42 7.74779 153.694 7.61616L153.697 7.61207C153.223 7.57132 152.748 7.47508 152.298 7.32355C151.974 7.19152 151.611 7.12904 151.256 7.14473C150.737 6.94128 150.195 6.77874 149.648 6.65933C149.17 6.59183 143.081 5.42754 142.619 5.32112C142.249 5.1764 141.783 5.23847 141.377 5.12428L141.374 5.11808C140.964 5.02236 140.547 4.96356 140.126 4.93351C139.576 4.87778 139.055 4.75857 138.526 4.66599C137.99 4.5857 137.459 4.46231 136.94 4.30407C136.853 4.23967 136.74 4.19562 136.619 4.17823C135.915 4.29184 135.513 3.90436 135.079 3.57416C134.864 3.43477 134.635 3.31992 134.398 3.21736L133.277 2.10284C133.541 1.83161 133.938 2.26221 134.209 2.04858L134.336 1.82354C134.357 1.78671 134.109 1.58952 134.032 1.45943L134.03 1.46352C133.921 1.27565 133.901 1.06793 133.97 0.875296C134.096 0.629683 134.397 0.47794 134.74 0.472444C135.106 0.576046 135.486 0.655088 135.865 0.713579C136.228 0.73084 136.586 0.791209 136.936 0.888517C137.033 0.946833 137.14 0.98878 137.257 1.01437C137.792 0.979559 138.342 1.0353 138.861 1.16888C139.434 1.39331 140.067 1.2668 140.575 1.46605C141.083 1.66531 141.646 1.57113 142.177 1.76441C142.531 1.84325 142.884 1.90154 143.248 1.93935C143.569 2.0652 149.529 3.27368 149.905 3.33625C150.443 3.40217 150.976 3.51119 151.495 3.65506C152.302 3.69639 153.104 3.86096 153.857 4.13615L155.448 4.17012C156.211 4.32413 156.898 4.73853 157.714 4.72857L160.261 5.6427L160.894 5.69086C164.205 6.9892 168.732 8.18904 172.101 9.68509L172.587 10.0609L173.85 10.5559C174.024 10.5943 174.19 10.6593 174.342 10.7489C175.943 11.1816 176.52 11.5027 177.145 11.7378C177.631 12.1835 178.153 11.7688 178.708 12.1616C179.153 12.4261 180.683 12.7658 181.05 13.0996C181.307 13.3154 181.616 13.4966 181.853 13.7143C182.769 14.3833 183.537 15.1744 184.113 16.04C184.549 16.436 184.938 16.8583 185.279 17.3069C185.363 17.435 185.479 17.5551 185.606 17.6651C185.751 17.7669 185.898 17.8647 186.061 17.9584C186.205 18.2 186.35 17.6426 186.526 17.8968C186.703 18.151 186.93 18.385 187.127 18.6373L187.122 18.6352C187.611 19.1466 188.022 19.7027 188.336 20.2909C188.396 20.4291 188.475 20.5654 188.583 20.6875C189.263 21.6238 189.811 22.6187 190.206 23.6432C190.336 24.0141 190.438 24.389 190.512 24.7677C190.895 26.0325 191.056 26.4863 190.983 27.762C191.009 28.6171 190.892 29.4608 190.635 30.2746C190.468 30.5692 190.651 30.9406 190.467 31.2433C190.277 31.5439 190.134 31.8325 189.96 32.1394C189.893 32.2128 189.844 32.2988 189.819 32.389C189.797 32.9149 189.611 33.4169 189.271 33.8581L188.332 35.5193C188.275 35.7018 188.178 35.8736 188.046 36.0267C187.477 36.5935 187.001 37.2165 186.619 37.8814C186.489 37.9502 186.377 38.0316 186.28 38.1233C186.113 38.4179 185.947 38.7125 185.642 38.9526C185.336 39.1926 185.105 39.3018 184.966 39.5822C184.633 40.0317 184.239 40.4519 183.788 40.8346C183.352 41.0737 183.036 41.4247 182.886 41.8304C182.85 41.9164 182.802 42.0023 182.745 42.08C182.437 42.2193 182.126 41.5083 181.835 41.654L181.837 41.6499C181.75 41.7108 181.748 41.8197 181.831 41.8923C182.461 41.9097 182.948 41.5806 183.533 41.54L183.538 41.5421C183.59 41.5425 183.638 41.5614 183.677 41.5966C183.723 41.6895 183.665 41.7918 183.55 41.8217C183.415 41.8987 183.249 41.9488 183.098 42.0195L182.67 42.2113L183.056 42.5925C182.871 42.7452 182.673 42.8875 182.456 43.0173C181.94 43.2495 181.499 43.5666 180.041 43.9098C179.861 44.0892 179.63 44.2333 179.369 44.336C179.168 44.4269 178.954 44.5033 178.732 44.5611L177.565 44.893L177.562 44.8971C177.222 44.9684 176.899 45.0768 176.605 45.2266C176.275 45.4418 174.745 45.472 174.349 45.6764L173.849 45.4962C173.052 45.8885 172.199 46.2085 171.306 46.4583C170.223 46.8134 168.072 47.2045 167.093 47.7105C166.914 47.82 166.721 47.9192 166.513 47.9977C165.873 48.1365 165.375 48.486 164.77 48.6539C164.166 48.8217 163.57 49.2177 162.874 49.3499C162.179 49.4821 161.654 49.706 161.048 49.8882L161.043 49.8861C160.548 50.022 160.071 50.1949 159.623 50.4092C158.874 50.7752 158.073 50.2371 157.237 50.4688C156.84 50.5582 155.349 50.6586 155.016 50.8429C154.771 50.9766 154.502 51.0711 154.213 51.1325C153.362 51.3436 152.639 51.755 151.833 52.0138C151.406 52.2611 146.503 54.0586 145.986 54.1758C145.433 54.3338 144.898 53.6949 144.395 53.9273C143.911 54.1824 143.287 54.2576 142.769 54.4693C141.949 54.8224 141.033 55.0433 140.149 55.3712L139.177 55.9246C138.716 56.1038 138.145 56.1548 137.761 56.4641L137.766 56.4662C137.632 56.5535 137.47 56.6201 137.304 56.6598C136.266 56.9023 135.262 57.1985 134.28 57.5483C133.367 57.8699 132.43 58.1523 131.474 58.3872C130.972 58.525 130.49 58.6958 130.034 58.9018C129.67 59.0593 129.278 59.1753 128.873 59.2564L123.541 60.3148C123.331 60.3871 123.097 60.4305 122.864 60.4492C121.974 60.5449 121.118 60.719 120.29 60.9693C119.704 61.0694 119.248 61.3802 118.656 61.468C118.061 61.5496 117.506 61.6767 116.927 61.7996C116.35 61.9183 115.032 62.0016 114.629 62.0785C114.229 62.1514 113.571 62.1832 113.045 62.2468C112.516 62.3146 112.183 62.5688 111.691 62.5505L111.693 62.5464C111.276 62.5781 110.868 62.6426 110.472 62.7423C110.119 62.7539 109.76 62.788 109.418 62.849C108.741 62.9834 108.054 63.0889 107.36 63.1615C106.672 63.2814 102.609 64.1059 101.983 64.2202C101.685 64.2384 101.386 64.2709 101.095 64.3221C100.581 64.4351 100.04 64.4781 99.4978 64.4553C98.8335 64.4747 98.1744 64.5311 97.5251 64.6164C95.5663 64.753 93.5982 64.9059 91.6316 64.8944C90.6169 64.8863 89.6728 65.0309 88.5831 64.9935L88.5755 64.9955C87.0816 65.0145 85.5757 64.9737 84.0785 64.8714C83.3524 64.8266 82.6362 64.8107 81.9175 64.8337C81.0228 64.8677 80.1223 64.8195 79.2244 64.6973L79.0693 64.6365C78.5403 64.694 77.9924 64.6691 77.4571 64.5641C76.965 64.3712 76.3745 64.5145 75.857 64.3665L75.8547 64.3706C75.4928 64.3636 75.1295 64.3012 74.7909 64.1834C74.47 64.0575 74.0695 64.1304 73.7224 64.0393C73.3807 63.9503 72.6328 64.0019 72.1225 63.7718L72.1301 63.7698C71.9551 63.7211 70.6607 63.6587 70.4793 63.6675C69.5219 63.662 68.5582 63.529 67.6309 63.2853C67.2298 63.128 66.7761 63.295 66.3941 63.1152L66.3865 63.1172C64.9341 62.9528 64.5639 62.9026 64.2071 62.9327C63.7471 62.7523 63.234 62.851 62.7832 62.6892C62.3269 62.5253 61.8248 62.5583 61.3661 62.4334C60.9051 62.3126 60.4077 62.3025 59.9421 62.1899L59.9398 62.194C59.5401 62.0572 59.1187 61.982 58.691 61.9642C58.5771 61.9345 58.4701 61.8926 58.3701 61.8384C57.8115 61.6243 57.2236 61.4737 56.6254 61.3991C56.0928 61.4052 55.6252 61.0069 55.0324 61.1193C54.9092 61.106 54.7969 61.062 54.7061 60.9914C52.7842 60.7329 51.9622 60.5455 51.1379 60.3972C50.8154 60.4707 50.5977 60.1854 50.3284 60.1647C50.027 60.1315 49.7318 60.0757 49.4451 59.9933C49.0761 59.8486 48.6145 59.8675 48.2177 59.7719C47.8209 59.6763 47.5545 59.5118 47.2175 59.3797C46.9009 59.3155 46.5828 59.2657 46.2607 59.2344L44.966 58.7967C44.8194 58.7092 44.6482 58.6421 44.4739 58.6038C42.7465 58.5214 42.1509 58.3729 41.6108 58.1261C41.1005 57.896 40.5416 57.7518 39.9709 57.698C39.7331 57.6447 39.5085 57.5566 39.3077 57.4379C38.3074 57.0457 37.2717 56.7395 36.3176 56.2654C35.8387 56.0376 34.1834 55.8737 33.6363 55.8591C29.8031 54.4559 24.9084 53.7706 21.2103 52.2206L20.4394 52.0932L15.9583 50.6512L15.5175 51.0973L15.5198 51.0932C14.7884 50.8265 14.1225 50.4554 13.5595 49.9947C12.9124 49.7059 12.3176 49.3478 11.7911 48.9264C11.2997 48.5588 10.839 48.1482 10.3383 47.7969L10.3437 47.799C8.94589 47.5611 8.68881 47.3453 8.45934 47.1154C8.30072 46.9682 8.16667 46.8007 8.01036 46.6494C7.46035 46.1889 5.76888 45.6958 5.24882 46.0509C4.72872 45.5721 4.42603 45.0785 3.96939 44.6146C3.24208 43.8895 2.64669 43.0813 2.21445 42.2271L1.00158 40.6161C0.707463 39.876 0.464653 39.126 0.270833 38.3703C0.163004 37.9482 0.117169 37.5204 0.131049 37.091C0.0897769 36.47 0.0592077 35.8533 0.028661 35.2365L0.0263491 35.2406C-0.0375704 34.7407 0.0155866 34.2417 0.177306 33.7704C0.245852 33.4524 0.287664 33.1239 0.295792 32.7972C0.350008 32.4236 0.425624 32.0584 0.543301 31.6997C0.586162 31.4966 0.60531 31.2892 0.585436 31.0815C0.845157 30.5985 0.998629 30.0839 1.05724 29.5522C1.10921 29.3676 1.20629 29.1958 1.34384 29.0448L3.28067 25.6159C3.96125 25.348 3.99987 24.6434 4.65514 24.3855L6.51609 24.2095C7.29195 23.6341 7.92396 23.0473 9.70659 22.5114L9.70429 22.5155C11.0442 21.3115 12.5215 20.2115 14.1208 19.2192C14.9032 18.7363 15.7077 18.272 16.4741 17.7828L16.4794 17.7849C17.808 17.8053 20.316 17.0841 21.7543 16.3885C23.1804 15.6682 24.6035 14.9417 26.1042 14.3207C26.4214 14.0252 28.052 14.0245 28.4323 13.8138C28.8626 13.5727 29.3156 13.3605 29.7916 13.1772C30.2062 13.01 30.6681 12.8862 31.0919 12.7375C31.5156 12.5888 32.1251 12.308 33.7677 12.1471C34.6131 11.8188 35.4918 11.5586 36.3486 11.2448L36.3463 11.2489C37.1863 10.9186 38.0551 10.6295 38.9476 10.3796C39.9946 9.96049 41.0765 9.59506 43.3126 9.33197C44.9264 9.59915 46.5897 9.10684 48.2871 8.69279C49.9716 8.24374 52.7746 7.83312 54.4613 7.41498L59.7151 6.10643L59.7098 6.10434C60.1564 5.98457 60.6158 5.89985 61.0912 5.85634C61.5598 5.79019 62.0186 5.69517 62.4598 5.57332C63.4006 5.30746 65.4955 5.14403 66.4925 5.01013C66.896 4.94346 67.2927 4.85412 67.6827 4.74213C68.4535 4.49958 70.3952 4.37603 71.2373 4.29641C71.4134 4.28547 71.5849 4.24779 71.7451 4.19562C72.8529 3.86531 74.0751 3.82978 75.192 3.51808C76.0785 3.44085 76.9445 3.29564 77.7832 3.0947C78.5291 2.94236 79.2946 2.88267 80.0702 2.78195C80.8404 2.67913 81.1223 2.61971 81.6414 2.5334C82.1606 2.44709 82.9377 2.36694 83.5603 2.23625C84.1324 2.1257 84.7174 2.05019 85.3091 1.99733C86.3748 1.88042 87.3557 1.70529 88.4779 1.61556C89.6024 1.52172 90.6016 1.38372 91.6673 1.26682C92.8304 1.09314 94.023 1.006 95.2246 1.00729C95.8321 1.0306 96.3862 0.813047 97.0028 0.854912C97.5537 0.885992 98.0995 0.845105 98.6279 0.742426C99.0413 0.704603 99.4592 0.693528 99.8822 0.719492C101.795 0.664771 107.179 -0.00136701 109.171 2.10752e-06C109.586 0.0628889 110.002 0.101128 110.419 0.114707C110.776 0.0846526 111.136 0.0957213 111.493 0.145816C111.911 0.134738 112.335 0.170981 112.747 0.26261C115.363 0.378693 116.856 0.524103 118.345 0.733125C118.834 0.665069 119.283 0.900849 119.772 0.902667C120.258 0.908581 120.602 1.09832 120.999 1.12407L121.002 1.13026C121.482 1.19366 123.069 1.35091 123.52 1.51272C123.682 1.56127 123.851 1.58726 124.023 1.59478C124.383 1.61614 124.737 1.72992 125.023 1.91714C125.4 2.16467 125.754 2.42847 126.086 2.70853C125.628 2.78917 125.246 2.56419 124.807 2.61209L124.802 2.60999C124.443 2.60921 124.081 2.56729 123.734 2.47618C123.326 2.40101 121.794 2.26065 121.393 2.17321L121.328 2.69263C120.992 2.86054 120.705 2.66303 120.421 2.66695L119.56 2.68889L119.552 2.69089C119.343 2.78376 119.117 2.86006 118.882 2.91779C118.588 2.95246 118.284 2.95826 117.981 2.93942C117.555 2.90727 117.133 2.97176 116.766 3.12298C116.24 3.32636 115.646 3.41824 115.04 3.38056C114.498 3.36805 112.856 3.45903 112.319 3.44862C111.311 3.5331 110.282 3.50442 109.265 3.3607C108.487 3.31548 107.707 3.31959 106.94 3.38338C106.587 3.42991 106.232 3.44559 105.87 3.43861L99.644 4.19463C99.2158 4.3166 98.8849 4.60169 98.3418 4.53368L98.3471 4.53577C98.045 4.49228 97.7405 4.48781 97.4495 4.52866C96.3974 4.69089 95.2928 4.58762 94.2111 4.69823C93.1293 4.80885 91.7057 4.8654 90.4853 5.0365C88.5642 5.30281 86.5191 5.39555 84.6817 5.8146C83.0221 5.95353 81.4411 6.3582 79.7654 6.49086L79.7601 6.48876C79.5848 6.50998 79.4048 6.53938 79.2363 6.58326C78.5086 6.77272 77.7589 6.90858 76.9903 6.99701C76.3124 7.15605 75.6186 7.27386 74.909 7.35043C74.7359 7.36755 74.5667 7.40114 74.4012 7.45122C73.273 7.71354 72.1951 8.02559 70.9671 8.16385C69.739 8.30211 67.6817 8.63022 66.6155 8.88682C65.7965 9.14543 63.8164 9.27894 62.9307 9.36644C62.7493 9.37528 62.5784 9.42324 62.4388 9.50845C61.7135 9.87878 60.9196 10.1623 60.0802 10.3529C59.4688 10.533 58.8469 10.674 58.2264 10.8355L49.648 11.8461C49.0743 11.971 48.5273 12.1413 48.0038 12.3509C47.4328 12.5868 46.8329 12.7814 46.214 12.9286C45.6555 13.0845 45.0879 13.2218 44.5386 13.3962C43.7926 13.5485 41.9798 13.7676 41.3678 14.1224C40.8946 14.1968 40.5797 14.4882 40.0744 14.5499C39.6891 14.6537 39.3182 14.7782 38.9588 14.9171C38.0686 15.1629 37.2226 15.4809 36.4283 15.8691C36.0396 16.0715 35.6173 16.2408 35.1821 16.3751C34.9162 16.4757 34.6586 16.5846 34.4125 16.708C33.8883 16.9073 32.2882 17.1549 31.777 17.3543C31.2714 17.4859 30.81 17.6898 30.4049 17.9558C28.9996 18.4194 26.5352 18.1138 25.2632 18.7696C24.804 18.9694 24.3852 19.2251 24.0267 19.5243C23.8025 19.7363 23.537 19.9171 23.238 20.0647C22.4018 20.4116 21.7272 20.9118 20.9268 21.2877C19.9508 21.7896 17.8905 22.2965 17.0036 22.8834C16.2098 23.3518 15.535 23.9219 14.7686 24.4111C14.0023 24.9003 13.4775 24.6252 12.8029 25.1255C12.5896 25.2718 12.4053 25.4594 12.2171 25.6305C11.7467 25.9658 11.3374 26.3551 11.0006 26.7778C10.788 27.1543 10.2638 27.3535 10.0533 27.7608C9.84287 28.1681 8.54886 28.4057 8.3293 28.7944L7.81745 29.1685L4.94934 32.2275L4.89994 32.7429C4.70031 33.1195 4.54043 33.5066 4.41264 33.9064C4.28809 34.4623 4.2523 35.023 4.20046 35.5775C4.13257 36.1257 4.14346 36.6847 4.24236 37.2384C4.34373 37.7529 4.53918 38.2744 4.60905 38.8216C4.63765 39.1527 4.77797 39.4826 5.01411 39.7701C5.09322 39.8961 5.1547 40.0302 5.1825 40.166C5.44789 41.0148 6.99339 41.0365 7.56976 41.7974C7.71742 42.0102 7.85279 42.2332 7.96749 42.4581L8.35611 43.1003C8.70979 43.4689 10.1552 43.8655 10.5121 44.2053L10.5067 44.2033C10.7994 44.5179 11.1396 44.8063 11.5113 45.062C11.9089 45.3529 12.2697 45.6743 12.5928 46.0159L14.144 45.7902C14.594 46.1966 15.1537 46.5011 15.5898 46.932C16.2691 47.1984 16.7157 47.7033 17.372 47.9757L20.352 48.7441L20.8495 49.1241L20.8525 49.1303C21.7627 49.4622 22.6128 49.9005 23.3706 50.4326L24.0367 50.5488L24.0421 50.5509C24.1076 50.6316 24.1961 50.7063 24.2938 50.7646L26.032 50.6822L26.8743 50.7526L28.9769 51.177L29.4927 51.5941L30.3853 51.7142L30.3883 51.7204C30.6574 51.8109 30.9194 51.9137 31.1746 52.0288C31.4273 52.1828 31.6647 52.3409 31.9005 52.5133L32.622 52.5663L36.5917 53.6528L37.2153 53.6824L40.0181 53.9476C40.4918 53.9534 40.9674 54.0599 41.3937 54.2421C41.7323 54.3599 42.0925 54.4161 42.4484 54.4107L45.6937 55.1832L46.4221 55.2239L47.1763 55.5197C47.5591 55.6748 47.9766 55.7685 48.3943 55.7924C48.6353 55.8169 48.8685 55.8783 49.0878 55.9643C49.3636 56.0775 49.6618 56.1395 49.9618 56.1521C50.0827 56.1346 50.2082 56.1438 50.3198 56.1775C51.1649 56.5089 52.0267 56.487 52.943 56.8313C53.0407 56.8896 54.2715 56.9721 54.3878 56.9977C55.1875 56.9814 55.9024 57.3467 56.7044 57.3613C57.4265 57.6445 58.2609 57.5668 59.0068 57.8193C59.6169 57.7687 60.1671 58.1594 60.7414 58.0797C61.3133 58.004 61.954 58.1653 62.4806 58.3318C63.5633 58.3815 64.6095 58.7618 66.8109 58.78L66.8079 58.7738C68.0289 59.0527 70.3872 59.2675 71.6358 59.3472C72.1719 59.4275 72.636 59.7394 73.2357 59.6147C73.8261 59.7263 74.4281 59.7824 75.0304 59.7687C75.2669 59.7664 75.5086 59.8013 75.7402 59.8771C75.906 59.9421 76.0857 59.9826 76.2716 60.0005C77.2932 59.9962 78.3079 60.2242 79.3273 60.1891C80.1638 60.1772 81.0053 60.2373 81.839 60.3693C82.314 60.4306 82.7998 60.4611 83.2781 60.4588C83.7487 60.4584 84.2248 60.6451 84.7059 60.4989L84.7006 60.4968C84.8775 60.4612 85.0649 60.4647 85.2423 60.5093C85.9599 60.5807 86.6822 60.6091 87.3985 60.5901C88.4022 60.4788 89.4224 60.454 90.4491 60.5218C90.8034 60.5307 91.1662 60.5131 91.5251 60.5138C91.8863 60.5105 91.9152 60.5519 92.0578 60.5078L92.0547 60.5016C92.9095 60.307 93.812 60.236 94.7155 60.2904C95.6798 60.2837 96.6315 60.1721 97.5367 59.9573C98.2063 59.9749 98.8214 59.8113 99.5025 59.8084C100.186 59.8015 100.926 59.717 101.644 59.6836C101.826 59.6748 102.001 59.6536 102.173 59.6159C102.58 59.5307 106.3 58.6418 106.704 58.5854C107.114 58.5311 107.43 58.5953 107.769 58.5281L107.774 58.5302C108.307 58.4892 108.831 58.405 109.343 58.2857C109.797 58.1188 110.304 58.0426 110.818 58.0693C111.118 58.0573 111.411 58.0021 111.682 57.9036C112.07 57.7957 112.477 57.7352 112.897 57.72C113.253 57.6899 113.602 57.6167 113.921 57.5021C114.134 57.4257 114.334 57.3389 114.524 57.2335C115.15 57.294 116.785 56.9851 117.387 57.0515C117.992 57.1138 118.316 56.9109 118.797 56.9147C119.219 56.8852 119.624 56.8041 120.006 56.6839C120.779 56.4722 121.573 56.3038 122.378 56.1745C124.915 55.9694 126.303 55.6392 127.645 55.2306C128.163 55.134 128.656 54.9673 129.094 54.7345C129.301 54.6457 129.523 54.5775 129.751 54.5321C130.184 54.4019 130.677 54.4202 131.101 54.2119C131.527 54.0489 131.97 53.9229 132.429 53.8279L133.597 54.3299L134.94 53.9521L134.943 53.9481C135.114 53.9104 135.28 53.8603 135.439 53.7979C136.248 53.4302 137.114 53.1453 138.017 52.9346C138.535 52.8278 139.017 52.6569 139.453 52.4179C139.651 52.3208 139.872 52.2424 140.105 52.199L142.372 51.5182C142.953 51.1262 143.809 51.1022 144.369 50.6771C144.566 50.5246 144.919 50.5027 145.191 50.4247C145.464 50.3467 150.623 49.3687 151.11 49.2L151.112 49.1959C151.542 49.0493 151.956 48.882 152.356 48.694C153.406 48.2009 155.669 47.8785 156.687 47.3132C157.155 47.0518 157.814 47.02 158.236 46.6658C159.2 46.324 160.001 45.7734 160.947 45.3946C161.892 45.0158 162.666 45.2784 163.585 44.889C164.883 44.1183 166.204 43.352 167.473 42.54L167.47 42.5441C167.97 42.285 168.429 41.9804 168.842 41.6426C169.249 41.4423 170.687 42.0151 170.862 41.6589L171.735 41.2816L171.73 41.2795C172.133 40.8778 172.572 40.5052 173.044 40.1555C173.811 39.6663 175.559 39.0871 176.382 38.66C176.599 38.3905 176.849 38.1335 177.119 37.8993C177.756 37.4995 178.185 36.8782 178.786 36.5089C178.914 36.4092 179.018 36.2949 179.092 36.164C179.557 35.6416 181.205 35.193 181.782 34.7496L182.746 33.4831C183.007 33.2756 183.248 33.0452 183.454 32.7962L185.398 29.355C185.7 28.7039 185.926 28.0275 186.069 27.334C186.102 27.2418 186.108 27.1493 186.096 27.0547C186.035 26.5261 186.122 26.0151 186.109 25.5053L186.104 25.5032C186.088 24.0276 185.739 23.3853 185.067 21.9721L184.634 21.0378L184.64 21.0399C184.32 20.6695 184.027 20.2849 183.76 19.8903C183.38 19.2214 182.886 18.5928 182.294 18.0209C181.582 18.1155 180.824 17.3985 178.969 16.6267C178.06 15.7851 177.071 15.0025 176.006 14.2851C175.592 13.9427 174.005 13.6108 173.502 13.3684C173.01 13.1754 172.699 12.7537 172.186 12.5627L172.184 12.5668C171.736 12.4112 171.292 12.2371 170.858 12.0466C170.745 12.0026 170.65 11.9401 170.571 11.8594C170.367 11.6194 170.047 11.6538 169.801 11.5573L168.021 11.0595L165.276 10.818Z" fill="#34A49A"/>
</svg>
