<svg width="170" height="67" viewBox="0 0 170 67" fill="none" xmlns="http://www.w3.org/2000/svg">
<path d="M53.6337 62.7024C53.6058 64.6733 52.0161 66.2724 50.0637 66.2724H50.0358C48.0649 66.2445 46.4658 64.6547 46.4937 62.6746C46.4937 60.7036 48.0928 59.1046 50.0637 59.1324C52.0346 59.1324 53.6337 60.7222 53.6337 62.7024H53.6337ZM24.7667 51.7042C23.0747 50.7001 20.8899 51.23 19.8673 52.9221C18.8446 54.6141 19.3931 56.7989 21.0851 57.8215C21.6522 58.1748 22.303 58.3422 22.9166 58.3422C24.1345 58.3422 25.3245 57.7193 25.9847 56.6315C26.998 54.9395 26.4495 52.7269 24.7668 51.7042L24.7667 51.7042ZM37.048 56.9661C35.17 56.399 33.1712 57.4403 32.5948 59.3461C32.0277 61.2241 33.0968 63.2229 34.9748 63.7993C35.3281 63.8923 35.6627 63.9388 36.0253 63.9388C37.55 63.9388 38.9539 62.9347 39.428 61.4193C39.9951 59.5321 38.926 57.5333 37.048 56.9661L37.048 56.9661ZM2.34283 30.5719C0.771653 31.7619 0.483458 34.0025 1.70135 35.5737C2.38931 36.4755 3.45846 36.9497 4.5276 36.9497C5.28994 36.9497 6.05228 36.7079 6.69378 36.2152C8.26496 35.0252 8.55316 32.7847 7.33526 31.2134C6.15457 29.6422 3.91401 29.354 2.34274 30.5719H2.34283ZM15.1725 43.1412C13.9825 41.5979 11.7512 41.2818 10.1707 42.4997C8.59947 43.6897 8.31128 45.9302 9.50128 47.5015C10.2171 48.4033 11.2584 48.9053 12.3554 48.9053C13.0991 48.9053 13.8522 48.6636 14.5216 48.1709C16.0648 46.953 16.3809 44.7218 15.1909 43.1691L15.1723 43.1412H15.1725ZM86.2845 41.6351C84.5645 42.5834 83.951 44.7774 84.9271 46.4882C85.5686 47.6503 86.7865 48.301 88.0416 48.301C88.6366 48.301 89.2316 48.1616 89.7801 47.8455C91.5186 46.8693 92.1136 44.7032 91.1375 42.9924C90.1892 41.2818 88.0044 40.6589 86.2844 41.6351H86.2845ZM100.974 36.5405V36.5684C99.0213 36.8101 97.6454 38.5951 97.8777 40.5475C98.1194 42.3604 99.6627 43.6619 101.42 43.6619C101.569 43.6619 101.727 43.6619 101.894 43.6341C103.846 43.3737 105.222 41.5887 104.962 39.6364C104.702 37.684 102.917 36.3082 100.974 36.5405H100.974ZM62.558 56.6588C60.7451 57.4212 59.8898 59.5129 60.6522 61.3258C61.2193 62.7017 62.5301 63.5384 63.9339 63.5384C64.3895 63.5384 64.8636 63.4455 65.3099 63.2503C67.1228 62.4879 67.9781 60.3962 67.2157 58.5833C66.4813 56.7518 64.3895 55.8965 62.5581 56.6589L62.558 56.6588ZM119.083 41.756C119.511 39.8316 118.302 37.9256 116.396 37.4701C114.472 37.0424 112.538 38.251 112.11 40.1569C111.683 42.0813 112.873 43.9873 114.797 44.4428C115.057 44.4893 115.318 44.5357 115.606 44.5357C117.224 44.545 118.702 43.4201 119.083 41.7559L119.083 41.756ZM74.151 49.7978C72.5333 50.9413 72.1522 53.1819 73.2957 54.7996C74.0116 55.7758 75.1086 56.2964 76.2243 56.2964C76.9401 56.2964 77.656 56.0826 78.2975 55.627C79.8966 54.4835 80.2684 52.2429 79.1342 50.6533C77.9814 49.0356 75.7408 48.6545 74.151 49.798L74.151 49.7978ZM167.809 28.0988L154.384 38.6322L159.479 54.9205C160.083 56.8449 159.404 58.946 157.787 60.1546C156.941 60.7868 155.946 61.1029 154.942 61.1029C154.022 61.1029 153.092 60.8333 152.292 60.2941L138.124 50.7833L124.206 60.6565C123.379 61.2422 122.412 61.5304 121.455 61.5304C120.497 61.5304 119.53 61.2423 118.712 60.6565C117.067 59.4944 116.332 57.4119 116.881 55.4688L121.548 39.0599L107.853 28.88C106.236 27.6714 105.548 25.5796 106.152 23.6459C106.756 21.7214 108.504 20.3734 110.521 20.2991L127.572 19.6669L133.02 3.4996C133.662 1.58443 135.446 0.282785 137.464 0.264221H137.529C139.528 0.264221 141.313 1.51001 142.001 3.38797L147.877 19.4066L164.936 19.5925C166.954 19.6111 168.739 20.9127 169.39 22.8186C170.031 24.743 169.399 26.8534 167.809 28.0993L167.809 28.0988ZM164.871 24.3523L144.529 24.1291L137.529 5.02416L131.03 24.306L110.698 25.059L127.023 37.2008L121.464 56.7709L138.059 45.001L154.951 56.3432L148.88 36.9219L164.871 24.3523Z" fill="#817f83"/>
</svg>
