<svg width="193" height="53" viewBox="0 0 193 53" fill="none" xmlns="http://www.w3.org/2000/svg">
<path d="M0.102707 44.762C0.7686 46.9614 2.25138 49.4965 10.6958 49.1125C15.192 48.9245 21.5195 49.284 25.465 50.2969C28.864 51.0874 35.0026 49.911 38.1205 51.3555C39.2071 51.9116 40.2976 51.9191 41.3841 51.7078C45.2024 51.0737 71.6239 51.0103 73.9392 50.8074C82.1138 50.2029 82.9176 52.0639 91.0965 50.7992C94.3661 50.2728 97.911 49.9668 100.904 50.2059C104.716 50.5619 121.061 50.3865 124.742 49.5328C126.378 49.1067 150.616 49.4904 130.73 49.7922C132.083 51.0104 136.857 49.9454 138.218 49.9547C141.623 49.8664 162.192 52.8946 165.601 52.2577C166.421 52.1518 167.506 52.1592 167.649 51.5043C168.345 49.2026 171.616 48.5691 172.843 48.796C176.514 49.4812 180.733 50.0588 182.925 47.7673C183.472 47.1108 184.563 47.0111 185.516 46.799C190.161 45.9518 192.658 39.3841 192.684 35.5429C192.701 33.018 189.167 31.7894 190.141 29.271C191.113 26.4225 189.072 26.19 186.486 26.2839C184.986 26.2737 182.133 25.7055 182.548 24.941C184.2 22.2086 187.612 21.0229 184.9 19.3583C183.136 18.3602 185.457 17.2786 182.616 15.0644C181.261 13.9577 186.312 12.0158 187 10.9231C188.237 8.9552 185.677 5.31529 183.362 5.41102C181.457 5.5095 179.008 5.05127 178.336 3.7306C177.261 1.52837 174.948 1.40111 172.906 1.28008C170.183 1.15008 163.65 0.556835 161.187 2.07906C159.548 3.05388 147.353 3.36899 145.578 3.90562C137.121 6.1544 112.408 2.00046 103.823 3.69962C96.0517 5.18135 85.3097 2.81975 77.2746 2.32341C74.6904 2.19434 78.0938 2.32899 68.9654 2.37825C66.7845 2.36339 37.505 1.86289 34.9274 0.747921C33.4319 0.0775485 19.4703 0.99995 16.7507 0.432693C14.9823 -0.0166248 8.43469 1.47348 11.4123 4.78612C12.6268 6.11046 11.2636 6.31979 9.90109 6.42201C8.53939 6.41273 7.31381 6.73448 6.08429 6.83327C3.36014 6.92617 4.95725 12.2013 5.90263 13.1981C6.30922 13.6382 7.12228 13.7552 7.66793 14.089C9.16348 14.7593 7.24566 15.9509 6.82561 17.4871C6.12981 19.6773 7.48699 20.3467 10.4816 20.3671C11.1625 20.3718 10.0571 22.5591 9.37401 22.8846C8.55188 23.3163 7.32697 23.5308 7.72836 24.7382C8.26119 26.1694 7.85023 27.1525 6.2104 27.36C4.57597 27.5675 1.95708 31.7208 2.49979 32.4918C4.9295 35.8007 4.77246 38.5433 3.79869 41.7175C3.10967 42.9132 -0.428713 43.1122 0.102707 44.762Z" fill="#425656"/>
</svg>
