<svg width="248" height="248" viewBox="0 0 248 248" fill="none" xmlns="http://www.w3.org/2000/svg">
<circle cx="124" cy="124" r="124" fill="#FCC0BB"/>
<g clip-path="url(#clip0_1_976)">
<rect x="89" y="148" width="73" height="54" fill="white"/>
<circle cx="44.5" cy="80.5" r="15.5" fill="#F15B4E"/>
<rect x="187" y="94" width="27" height="39" fill="#F15B4E"/>
<path d="M231.579 28.6875H128.923C126.87 28.6875 125.501 30.0563 125.501 32.1094V73.1719C125.501 75.225 126.87 76.5938 128.923 76.5938H231.579C233.632 76.5938 235.001 75.225 235.001 73.1719V32.1094C235.001 30.0563 233.632 28.6875 231.579 28.6875ZM166.562 69.75V56.0625C166.562 54.0094 165.194 52.6406 163.141 52.6406C161.088 52.6406 159.719 54.0094 159.719 56.0625V69.75H132.344V35.5312H159.719V45.7969C159.719 47.85 161.088 49.2188 163.141 49.2188C165.194 49.2188 166.562 47.85 166.562 45.7969V35.5312H193.938V69.75H166.562ZM228.156 69.75H200.781V35.5312H228.156V69.75Z" fill="#414042"/>
<path d="M19.4219 35.5312H39.9531V59.8271C34.8202 60.5115 30.3719 63.249 26.95 67.6975C20.1063 76.5944 22.1594 89.5975 31.0563 96.4413C34.8204 99.1788 38.9267 100.548 43.375 100.548C49.5344 100.548 55.6938 97.81 59.8 92.335C66.6438 83.4382 64.5906 70.435 55.6938 63.5913C52.9562 61.5382 49.8767 60.1694 46.7969 59.8271V35.5312H81.0156V70.0916C75.1985 71.4604 70.75 76.9354 70.75 83.4371V97.1246C70.75 99.1777 72.1188 100.546 74.1719 100.546H94.7031C96.7562 100.546 98.125 99.1777 98.125 97.1246V83.4371C98.125 76.9354 93.6767 71.8027 87.8594 70.0916V35.5312H108.391C110.444 35.5312 111.812 34.1625 111.812 32.1094C111.812 30.0562 110.444 28.6875 108.391 28.6875H19.4219C17.3688 28.6875 16 30.0562 16 32.1094C16 34.1625 17.3688 35.5312 19.4219 35.5312ZM54.3261 88.227C49.8778 94.3864 41.323 95.4128 35.1636 90.9645C29.0042 86.5162 27.9778 77.9614 32.4261 71.802C35.1636 68.3802 39.2698 66.327 43.3761 66.327C46.1136 66.327 49.1932 67.3536 51.5886 69.0645C57.748 73.5129 58.7744 82.0676 54.3261 88.227ZM91.2823 83.4364V93.702H77.5948V83.4364C77.5948 79.6722 80.6744 76.5927 84.4386 76.5927C88.2028 76.5927 91.2823 79.6722 91.2823 83.4364Z" fill="#414042"/>
<path d="M231.579 131.344H217.207C217.55 130.317 217.892 129.291 217.892 127.922V124.5H228.157C230.21 124.5 231.579 123.131 231.579 121.078V100.547C231.579 98.4937 230.21 97.125 228.157 97.125H217.892V93.7031C217.892 91.65 216.523 90.2812 214.47 90.2812H183.674C182.647 90.2812 181.621 90.9656 180.937 91.65C180.252 92.6766 180.252 93.7031 180.594 94.7296L183.674 104.311V127.921C183.674 129.29 184.016 130.317 184.358 131.343H163.143V121.077C163.143 119.024 161.774 117.656 159.721 117.656H91.2833C89.2302 117.656 87.8615 119.024 87.8615 121.077V131.343H19.424C17.3708 131.343 16.0021 132.712 16.0021 134.765V216.89C16.0021 218.943 17.3708 220.312 19.424 220.312H231.58C233.633 220.312 235.002 218.943 235.002 216.89V134.765C235.002 132.712 233.633 131.343 231.58 131.343L231.579 131.344ZM224.735 103.969V117.656H217.892V103.969H224.735ZM190.517 127.923V103.969C190.517 103.627 190.517 103.284 190.175 102.942L188.464 97.1251H211.047V127.921C211.047 129.974 209.678 131.343 207.625 131.343H193.937C191.884 131.343 190.516 129.974 190.516 127.921L190.517 127.923ZM94.7042 124.501H156.298V131.345H94.7042V124.501ZM228.158 213.47H77.5959V145.032C77.5959 142.979 76.2272 141.61 74.1741 141.61C72.1209 141.61 70.7522 142.979 70.7522 145.032V213.47H22.8459V138.189H173.408V206.626C173.408 208.679 174.777 210.048 176.83 210.048C178.883 210.048 180.252 208.679 180.252 206.626V138.189H228.158V213.47Z" fill="#414042"/>
<path d="M60.4833 145.031H33.1083C31.0552 145.031 29.6864 146.4 29.6864 148.453V162.141C29.6864 164.194 31.0552 165.562 33.1083 165.562H60.4833C62.5364 165.562 63.9052 164.194 63.9052 162.141V148.453C63.9052 146.4 62.5364 145.031 60.4833 145.031ZM57.0614 158.719H36.5302V151.875H57.0614V158.719Z" fill="#414042"/>
<path d="M60.4833 172.406H33.1083C31.0552 172.406 29.6864 173.775 29.6864 175.828V189.516C29.6864 191.569 31.0552 192.938 33.1083 192.938H60.4833C62.5364 192.938 63.9052 191.569 63.9052 189.516V175.828C63.9052 173.775 62.5364 172.406 60.4833 172.406ZM57.0614 186.094H36.5302V179.25H57.0614V186.094Z" fill="#414042"/>
<path d="M217.892 172.406H190.517C188.464 172.406 187.095 173.775 187.095 175.828V189.516C187.095 191.569 188.464 192.938 190.517 192.938H217.892C219.945 192.938 221.314 191.569 221.314 189.516V175.828C221.314 173.775 219.945 172.406 217.892 172.406ZM214.47 186.094H193.939V179.25H214.47V186.094Z" fill="#414042"/>
<path d="M187.094 148.454V162.142C187.094 164.195 188.463 165.564 190.516 165.564H217.891C219.944 165.564 221.312 164.195 221.312 162.142V148.454C221.312 146.401 219.944 145.032 217.891 145.032H190.516C188.463 145.032 187.094 146.401 187.094 148.454ZM193.938 151.876H214.469V158.72H193.938V151.876Z" fill="#414042"/>
<path d="M163.142 145.031H87.8605C85.8073 145.031 84.4386 146.4 84.4386 148.453V203.203C84.4386 205.256 85.8073 206.625 87.8605 206.625H163.142C165.195 206.625 166.564 205.256 166.564 203.203V148.453C166.564 146.4 165.195 145.031 163.142 145.031ZM159.72 199.781H91.2823V151.875H159.72V199.781Z" fill="#414042"/>
<path d="M104.969 189.517C104.969 194.076 98.125 194.076 98.125 189.517C98.125 184.957 104.969 184.957 104.969 189.517Z" fill="#414042"/>
<path d="M118.656 189.517C118.656 194.076 111.812 194.076 111.812 189.517C111.812 184.957 118.656 184.957 118.656 189.517Z" fill="#414042"/>
</g>
<defs>
<clipPath id="clip0_1_976">
<rect width="219" height="219" fill="white" transform="translate(16 15)"/>
</clipPath>
</defs>
</svg>
