<svg width="93" height="93" viewBox="0 0 93 93" fill="none" xmlns="http://www.w3.org/2000/svg">
<path d="M46.5008 0.290538C45.6243 0.294522 44.915 1.00374 44.915 1.88031V25.5831C44.915 26.0094 45.0784 26.4118 45.3772 26.7147C45.6761 27.0135 46.0785 27.1848 46.5009 27.1848C46.9272 27.1848 47.3336 27.0175 47.6364 26.7186C47.9353 26.4158 48.1026 26.0094 48.1026 25.5831V1.88032C48.1026 1.45798 47.9313 1.05157 47.6324 0.75271C47.3336 0.453881 46.9272 0.290527 46.5008 0.290527L46.5008 0.290538ZM14.8176 13.3629C14.447 13.3947 14.0964 13.5581 13.8295 13.8211C13.5306 14.1199 13.3633 14.5263 13.3633 14.9527C13.3633 15.375 13.5306 15.7814 13.8295 16.0803L30.584 32.8429H30.588C30.8868 33.1458 31.2932 33.3131 31.7156 33.3131C32.1379 33.3131 32.5443 33.1458 32.8432 32.8429C33.146 32.5441 33.3134 32.1377 33.3134 31.7153C33.3134 31.293 33.146 30.8866 32.8432 30.5877L16.0805 13.821C15.7458 13.4903 15.2836 13.3229 14.8174 13.3628L14.8176 13.3629ZM77.9219 13.3629C77.5514 13.3947 77.2048 13.5581 76.9418 13.8211L60.175 30.5878C59.8722 30.8867 59.7049 31.2931 59.7049 31.7154C59.7049 32.1378 59.8722 32.5442 60.175 32.843C60.7966 33.4606 61.8007 33.4606 62.4222 32.843L79.1889 16.0804C79.4878 15.7815 79.6551 15.3751 79.6551 14.9528C79.6551 14.5264 79.4878 14.12 79.1889 13.8212C78.8543 13.4905 78.3921 13.3231 77.9219 13.363L77.9219 13.3629ZM1.87583 44.9155C1.00325 44.9195 0.294017 45.6287 0.290039 46.5013C0.290039 46.9277 0.453402 47.3301 0.752221 47.6329C1.05105 47.9318 1.45347 48.1031 1.87585 48.1031H25.5827C26.009 48.1031 26.4154 47.9357 26.7183 47.6369C27.0171 47.3341 27.1844 46.9277 27.1844 46.5013C27.1844 46.079 27.0131 45.6766 26.7143 45.3777C26.4115 45.0789 26.009 44.9155 25.5827 44.9155L1.87583 44.9155ZM67.419 44.9155C66.5464 44.9195 65.8372 45.6287 65.8332 46.5013C65.8332 46.9277 65.9966 47.3301 66.2954 47.6329C66.5942 47.9318 66.9967 48.1031 67.419 48.1031H91.1259C91.5522 48.1031 91.9586 47.9357 92.2614 47.6369C92.5603 47.3341 92.7276 46.9277 92.7276 46.5013C92.7276 46.079 92.5563 45.6766 92.2574 45.3777C91.9546 45.0789 91.5522 44.9155 91.1259 44.9155L67.419 44.9155ZM31.5752 59.7096C31.2006 59.7455 30.85 59.9088 30.5871 60.1758L13.8325 76.9303L13.8285 76.9263C13.5297 77.2252 13.3624 77.6355 13.3624 78.0579C13.3624 78.4802 13.5297 78.8867 13.8285 79.1895C14.4501 79.8071 15.4542 79.8071 16.0797 79.1895L32.8424 62.4227C33.4599 61.8012 33.4599 60.7971 32.8424 60.1756C32.5117 59.8409 32.0455 59.6696 31.5753 59.7094L31.5752 59.7096ZM61.1593 59.7176C60.7887 59.7495 60.4381 59.9088 60.1751 60.1758C59.5575 60.7973 59.5575 61.8015 60.1751 62.423L76.9419 79.1897C77.5634 79.8073 78.5676 79.8073 79.189 79.1897C79.4879 78.8869 79.6552 78.4805 79.6552 78.0581C79.6552 77.6318 79.4879 77.2254 79.189 76.9265L62.4223 60.172V60.176C62.0876 59.8453 61.6294 59.678 61.1592 59.7178L61.1593 59.7176ZM46.5008 65.8336C45.6283 65.8376 44.919 66.5468 44.915 67.4194V91.1262C44.915 91.5526 45.0784 91.955 45.3772 92.2578C45.6761 92.5567 46.0785 92.728 46.5009 92.728C46.9272 92.728 47.3336 92.5606 47.6364 92.2618C47.9353 91.959 48.1026 91.5526 48.1026 91.1263V67.4194C48.1026 66.9971 47.9313 66.5946 47.6324 66.2958C47.3296 65.9969 46.9272 65.8336 46.5008 65.8336L46.5008 65.8336Z" fill="#515052"/>
</svg>